<svg xmlns="http://www.w3.org/2000/svg" width="340" height="310" viewBox="0 0 340 310"><defs><style>.cls-1{fill:#8c2f19;}.cls-2{fill:#632112;}.cls-3{fill:#f2ce9c;}.cls-4{fill:#752715;}.cls-5{fill:#822b17;}.cls-6{fill:#87594b;}.cls-7{fill:#fff;}</style></defs><title>Abe</title><g id="Layer_11" data-name="Layer 11"><path class="cls-1" d="M254.32,240.6a74.34,74.34,0,0,1-25.15-4.21,6.07,6.07,0,0,1-3.55-8.13,6.84,6.84,0,0,1,8.7-3.32h0c.21.08,22,8.28,43.59-1.86,18.33-8.63,33.66-27.4,39.43-57,5.34-27.47-8.1-43.34-16.72-64.85-2.91-7.26-5.66-14.12-7.57-19.7C284,55,299.49,18.63,326.81,2a6.87,6.87,0,0,1,9.9,3.09c1.11,2.76-.24,5.83-2.88,7.46C312,26,298.65,57,305.74,77.74c1.8,5.29,4.49,12,7.34,19.12,9.75,24.32,24,47.94,17.17,72.21-9.28,32.86-24.5,54.9-46.55,65.19A69.23,69.23,0,0,1,254.32,240.6Z"/><path class="cls-2" d="M249.33,271.26l-1,3.58a7.44,7.44,0,0,1-8.32,5.4l-30.12-4.67a7.42,7.42,0,0,1-6.23-6.36,3.11,3.11,0,0,1,0-.32L202.11,252a7.44,7.44,0,0,0-7.83-6.75l-52.64,3a7.5,7.5,0,0,0-5.13,2.48l-15.73,17.65L117.55,272a7.46,7.46,0,0,1-3.87,2.3l-17.77,4.12a7.45,7.45,0,0,1-9.11-6.82l-.12-2.11a7.42,7.42,0,0,1,1.8-5.28A7.32,7.32,0,0,1,89.74,263L96,258.47a7.42,7.42,0,0,0,2.89-7.61l-3.64-16.61a7.42,7.42,0,0,1,1.35-6.11l19.27-25.28a7.36,7.36,0,0,0,1.35-2.92l11.68-53.37a7.45,7.45,0,0,1,6.92-5.84L191,138.17a7.44,7.44,0,0,1,6.69,3.54l36.06,58.77a7.46,7.46,0,0,1,1,5l-6.12,41.06a7.44,7.44,0,0,0,3.33,7.36L246.11,263l.07.05A7.44,7.44,0,0,1,249.33,271.26Z"/><path class="cls-3" d="M249.33,271.26l-1,3.58a7.44,7.44,0,0,1-8.32,5.4l-30.12-4.67a7.42,7.42,0,0,1-6.23-6.36c4.18-2.9,11.53.66,22.88,2.34,12.34,1.83,11.57-7.18,19.54-8.54l.07.05A7.44,7.44,0,0,1,249.33,271.26Z"/><path class="cls-3" d="M120.78,268.34,117.55,272a7.46,7.46,0,0,1-3.87,2.3l-17.77,4.12a7.45,7.45,0,0,1-9.11-6.82l-.12-2.11a7.42,7.42,0,0,1,1.8-5.28c4.83,2.79,5.93,8.92,16.31,7.38C111.43,270.57,116.71,268.94,120.78,268.34Z"/><path class="cls-3" d="M187.43,198.14c4.3,18-13,39.32-26.39,33.58-16.79-7.19-26.38-15-26.38-33.58s16.9-44.65,26.38-33.58C175.44,181.35,181.43,173,187.43,198.14Z"/><path class="cls-4" d="M137,302.31A1.56,1.56,0,0,1,135.4,304H109.87a1.56,1.56,0,0,1-1.55-1.76l.91-7.25,1.7-13.62a1.62,1.62,0,0,1,.18-.55,1.56,1.56,0,0,1,1.37-.82h.06a1.56,1.56,0,0,0,1.56-1.56V142.56a1.56,1.56,0,0,1,1.56-1.56h14.88a1.56,1.56,0,0,1,1.56,1.56V278.44a1.57,1.57,0,0,0,1,1.44,1.54,1.54,0,0,0,.61.12,1.57,1.57,0,0,1,1.56,1.43l1,12.42Z"/><path class="cls-4" d="M184,307.31A1.56,1.56,0,0,1,182.4,309H156.87a1.56,1.56,0,0,1-1.55-1.76l.78-6.2,1.83-14.67a1.57,1.57,0,0,1,1.55-1.37h.06a1.5,1.5,0,0,0,1.2-.59,1.47,1.47,0,0,0,.36-1V147.56a1.56,1.56,0,0,1,1.56-1.56h14.88a1.56,1.56,0,0,1,1.56,1.56V283.44a1.52,1.52,0,0,0,.43,1.07,1.56,1.56,0,0,0,1.13.49,1.57,1.57,0,0,1,1.56,1.43l1.28,15.32Z"/><path class="cls-5" d="M319.3,105c0,27.06-23.37,49-52.2,49a54.54,54.54,0,0,1-26.84-7,3.4,3.4,0,0,0-5,2.27l-.59,3a3.41,3.41,0,0,1-3.34,2.73H87a3.37,3.37,0,0,1-3.35-2.84,3.39,3.39,0,0,0-4.83-2.5A54.7,54.7,0,0,1,55.1,155c-28.83,0-52.2-21.94-52.2-49S26.27,57,55.1,57a56.41,56.41,0,0,1,8.38.63,3.39,3.39,0,0,0,3.87-3.91l0-.15a3.36,3.36,0,0,1,.56-2.5L99.09,6.45A3.38,3.38,0,0,1,101.87,5H219.41a3.4,3.4,0,0,1,2.71,1.35l32.06,42.54a3.37,3.37,0,0,1,.62,2.71l-.21,1.06a3.39,3.39,0,0,0,3.87,4A55.77,55.77,0,0,1,267.1,56C295.93,56,319.3,77.94,319.3,105Z"/><path class="cls-6" d="M231.78,69.32a43.82,43.82,0,0,0,1.32-10.65c0-22.46-17-40.67-38-40.67-15.3,0-28.47,9.68-34.5,23.62C154.57,27.68,141.4,18,126.1,18c-21,0-38,18.21-38,40.67a43.82,43.82,0,0,0,1.32,10.65,13.36,13.36,0,0,0-2.32,7.55v65.29c0,7.06,5.4,12.84,12,12.84h123c6.6,0,12-5.78,12-12.84V76.87A13.36,13.36,0,0,0,231.78,69.32Z"/><circle class="cls-7" cx="119.1" cy="113" r="23"/><circle cx="110.1" cy="113" r="14"/><circle cx="124.1" cy="99" r="3"/><circle class="cls-7" cx="199.1" cy="115" r="23"/><circle cx="190.1" cy="115" r="14"/><circle cx="204.1" cy="101" r="3"/><path d="M138,72.1c-.94-4.53-12.58-11-23.62-5.43-11,5.14-20.26,16.61-20.56,17.44,0,1.06,9.79-7.2,22.06-9C128.22,73,138.9,76.66,138,72.1Z"/><path d="M182.31,75.44c.61-4.17,10.86-10.66,21.18-6.18,10.26,4.1,19.29,14,19.61,14.78.09,1-9.27-6-20.52-7C191.25,75.78,181.73,79.63,182.31,75.44Z"/><path class="cls-3" d="M179.1,153c0,.67,0,1.34-.09,2H131.19c-.06-.66-.09-1.33-.09-2a24,24,0,0,1,48,0Z"/><path class="cls-3" d="M74.1,112c0,19.33-8.67,27-28,27a35,35,0,0,1-35-35c0-19.33,15.76-36.85,35-35,52,5,3.17,19.67,8,26S74.1,102.34,74.1,112Z"/><path class="cls-3" d="M247.1,111c0,19.33,8.67,27,28,27a35,35,0,0,0,35-35c0-19.33-15.76-36.85-35-35-52,5-3.17,19.67-8,26S247.1,101.34,247.1,111Z"/><ellipse cx="147.1" cy="144" rx="3" ry="5"/><ellipse cx="158.1" cy="144" rx="3" ry="5"/><path class="cls-3" d="M137,302.31A1.56,1.56,0,0,1,135.4,304H109.87a1.56,1.56,0,0,1-1.55-1.76l.91-7.25h.87c9.17,0,19-1.94,26.15-1.15Z"/><path class="cls-3" d="M184,307.31A1.56,1.56,0,0,1,182.4,309H156.87a1.56,1.56,0,0,1-1.55-1.76l.78-6.2c4.26-1.24,11.25,1,21,1,2.11,0,4.26-.1,6.4-.25Z"/></g></svg>
