<svg xmlns="http://www.w3.org/2000/svg" width="1334" height="750" viewBox="0 0 1334 750"><defs><style>.cls-1{fill:#b8e1f3;}.cls-2{fill:#f2f2f2;}.cls-3{fill:#fef364;}.cls-4{fill:#9ab3b8;}.cls-5{fill:#589283;}.cls-6{fill:#919e1d;}.cls-7{fill:#efbb56;}.cls-8{fill:#c3c034;}.cls-9{fill:#603813;}.cls-10{fill:#4c8c11;}.cls-11{fill:#95c730;}.cls-12{fill:#415715;}</style></defs><title>Baggrund</title><g id="Layer_14" data-name="Layer 14"><polygon class="cls-1" points="-6.34 -14.24 1343.66 -14.24 1344.09 407.88 -6.34 388.86 -6.34 -14.24"/><path class="cls-2" d="M1326.65,89.94c-.63-17.2-37.51-13.5-96-18-33.19-2.54-37.58-18.55-110.63-8.42a62.15,62.15,0,0,1-31-3.59c-20.32-7.86-35.22-7.18-46.82-6.53a64.57,64.57,0,0,1-18.93-1.85C984,42,969,72.39,939.84,66.65c-117-23-186.43,7-205.45,23.29-25.1,21.51,132.38,24.45,295.68,24.45S1327.56,114.39,1326.65,89.94Z"/><path class="cls-2" d="M26.74,123.17C27.32,107.65,60.6,111,113.35,107c30-2.29,33.91-16.74,99.84-7.6a56.2,56.2,0,0,0,28-3.23c18.33-7.1,31.78-6.49,42.25-5.9a57.91,57.91,0,0,0,17.09-1.67c35.5-8.64,49,18.77,75.33,13.59,105.57-20.79,168.27,6.31,185.43,21,22.65,19.41-119.48,22.07-266.85,22.07S25.93,145.24,26.74,123.17Z"/><circle class="cls-3" cx="593.66" cy="155.76" r="116"/><path class="cls-4" d="M-6.34,208a2.28,2.28,0,0,1,2.2-2.28c24.72-.88,250.23-8.92,274.8-8.92,26,0,179-16,207-15s170-14,190-10,78,4,97-1,57,3,69,5,21-17,62-15,102,15,126,8,56-1,67,1,84,9,142,2,84-2,101,0c10.32,1.21,12.16,1.69,12,1.88a3.18,3.18,0,0,0-1,1.91l1,161.81a2.28,2.28,0,0,1-2.32,2.29L-4.1,318.23A2.28,2.28,0,0,1-6.34,316Z"/><path class="cls-5" d="M-19.34,288c0-24.38,19.2-44.65,44.08-46.52l168.7-12.69s143.08-12.54,167.57-7.3c1,.22,2.05.43,3.09.6,13.23,2.17,92.85,15.37,110.66,22.7,19.43,8,75.7-26,95.13-25s51.15,22,71.61,19c17.65-2.59,34.53-29,82.81-48.37a48.51,48.51,0,0,1,45,4.77c20.91,14.06,52.9,34.3,65.52,35.6,18.35,1.89,88.72,16.27,140.43-11.63a47.35,47.35,0,0,1,21.23-5.77c35.23-.92,138.06-2,202.52,14.4,36.48,9.26,73.84,5.66,103.44-.89,29.83-6.59,58.19,15.64,58.19,45.53V520.85c0,25.87-21.53,46.8-48,46.67L28.15,561c-26.27-.13-47.49-21-47.49-46.66Z"/><rect class="cls-6" x="-9" y="257.68" width="1352" height="194.08"/><path class="cls-7" d="M-9,271.87l287.83,2L408.56,282l33.4-2.27,115.58-7.86,237.16,2,91.21,3,84.12-3,105.41-8.11,162.16,6.08,105.4,2v34.46l-174.32-9.13-66.89-2-37.5,11.15h-58.78s-61.83-3-69.94-8.11-84.12-4.06-94.25-1-72,10.14-98.31,1-193.58,12.16-204.72,8.11-40.54-17.23-77-15.21-30.4,7.1-94.25,2S229.17,284,189.64,286.06s-84.12-1-116.55,2S-9,295.18-9,295.18Z"/><path class="cls-8" d="M-9,316.46s95.27,7.1,115.54,10.14,22.29-4.06,32.43-5.07,26.35-2,40.54-3,66.89,8.11,79.05,7.09,64.87-7.09,75-11.14,23.31-8.11,23.31-8.11l32.43,8.11,45.61,9.12,18.24-1h42.57l23.31-1,44.59,7.1L594,333.69s12.16,6.08,32.43,1,24.32-5.07,39.53-3,32.43,5.06,41.55,3,48.65,11.14,58.78,11.14,67.91-14.18,76-14.18,41.56,2,41.56,2l58.78,6.08,44.59-7.09S1068.34,356,1090.64,354s39.53-1,49.66-5.06,22.3-16.22,36.49-16.22,57.77,1,57.77,1h38.51l40.54,7.1h11.15l18.13-4.7,0,29.16s-14.06-2.17-19.13-.14-18.24-1-18.24-1h-28.38l-19.25,4s-21.29-4-25.34-8.11-21.29-4.05-29.39-5.06-23.31-1-27.37,0-45.6,8.1-70.94,8.1-111.49-2-111.49-2l-22.29,6.08-27.37-3h-67.9s-38.51-1-52.7,3-32.43,2-41.56,0-58.78-6.08-58.78-6.08-24.32-4.06-45.61,0-69.93,16.21-95.26,12.16-41.56-18.24-72-12.16S440,369.17,440,369.17l-81.08-4.06H309.24l-54.73,2L204.85,358s-33.45,12.16-51.69,11.15S131.88,357,88.3,356A624.91,624.91,0,0,0,5.19,360H-9Z"/><path class="cls-9" d="M618.6,128h-.84a2.62,2.62,0,0,0-2.61,1.79c-1.88,6-11.88,25.23-62.79,31.56,0,0,0,0,0,0A51.19,51.19,0,0,0,560.56,141c4-26.05-3.75-1.93-4-1.05C553.7,150.62,546,160.48,537,168.57l.1-.64a1.7,1.7,0,0,1-1.24-.86c-2.49-3.61.91-30.59,2.29-37.08,0,0,0,0,0,0l-6,2v0c-3.86,18-3.59,35-2.88,39.63a3.61,3.61,0,0,0,1.31,2.25,0,0,0,0,1,0,0,102.48,102.48,0,0,1-22.46,13.26h0a2.52,2.52,0,0,0-1.19-1.2c-4.32-2-8.57-8.51-12.39-16.58h0c7.16-6.32,11.29-10,13.15-14.71,2.11-5.32,4-19.13,3.89-19.67h0l-5-4s0,0,0,0a103,103,0,0,1-4,20c-1.84,5.54-7.06,9.63-10.85,12,0,0,0,0,0,0a276.37,276.37,0,0,1-9.44-27.59,2.66,2.66,0,0,0-2.31-2,2.61,2.61,0,0,0-2.76,3.17c2.42,10.67,10.7,44.53,25.55,53.44,0,0,0,0,0,0-5.67,4.55-10.92,14.29-16,29.57-2.72,8.23-4.93,16.69-6.54,23.56,0,0,0,0,0,0-1.78-12.77-7.85-30.2-25.43-47,0,0,0,0,0,0,26.66-31.71,18.46-56.19,17-59.75a1.57,1.57,0,0,0-.52-.67,1.69,1.69,0,0,0-2.61,1.72c1.16,6.79,2,20.63-5.56,36.7,0,0,0,0,0,0-15.79-9.11-22-33.38-23.22-39a1.52,1.52,0,0,0-2-1.07,1.57,1.57,0,0,0-.92,1.73c1.14,7,5.91,32.14,24.21,42.23,0,0,0,0,0,0a81.15,81.15,0,0,1-9.8,14.09,1.56,1.56,0,0,0-.3.57l-.31-.27C433.47,177.61,426.81,167,425.57,160c-.82-4.73-1.84-11.14-2-13-1.13-13.23-4-14-4-11,0,4.51-2.51,18.21,4.68,34.82,0,0,0,0,0,0-3.27-.81-8.34-3.19-15.69-9.2-5.29-4.32-15.76-21.31-18-23.64-.8-.84-3.83,1.12-3,2,2.33,2.45,12.31,20.33,18,25,9.31,7.62,14.74,14.16,20.87,14.16a14,14,0,0,0,1.85-.12,1.41,1.41,0,0,0,.22-.06,83,83,0,0,0,16.73,19.35s0,0,0,0c-8.07-1.22-22.93-4.6-27.65-13.36h-3s0,0,0,0c5.81,10.75,27,16.31,36,18.21h0c24.13,23.93,22.87,48.59,21.93,55.52-.14,1,1.07,1,2.08,1.25h4a10,10,0,0,0,4.81-1.09,1.66,1.66,0,0,0,1.94-1.32,322.37,322.37,0,0,1,8.07-32.43h0c4.37-.37,9.36-5.62,21.6-13.89h0c3.37.57,10.41,1.61,12.15,1.61h0c14.08-2.81,41.24-25.11,43.3-26.79,0,0,0,0,0,0l-8.87,4.31c1-2.36-25,20.75-41.68,17.68l1.67-1.05c12.89-8,33.72-20.23,34.95-21,0,0,0,0,0,0l-10.82,1.29h0c-.17.13-11.85,8.86-24.62,16.84-13.41,8.37-20.8,11.45-24.75,12.52,0,0,0,0,0,0,6.32-17.1,11.25-20.67,13.2-21.4,10.84-4.06,27.38-14.27,38.79-28.35a2.6,2.6,0,0,0,.56,0c58.76-6.64,70.12-27.48,72.26-35.72A2.56,2.56,0,0,0,618.6,128Z"/><path class="cls-10" d="M352.45,138.13c4,5,21.4,23.57,48.44,7.85a4.52,4.52,0,0,1,3.52-.42c4.58,1.32,16.74,3.77,25.55-4a4.66,4.66,0,0,1,3.89-1.14c4.92.87,16.8,2.51,25.37,0a4.48,4.48,0,0,1,2.78.09c4,1.43,15.9,5.06,25.53,2.19a4.58,4.58,0,0,1,3.77.47c4.11,2.59,14.88,8,25.48,1.09a4.66,4.66,0,0,1,4-.49c4.23,1.36,13.73,3.53,20.08-2a4.6,4.6,0,0,1,4.25-1c5.08,1.42,17.41,3.46,32.1-4.08a4.64,4.64,0,0,1,2.9-.47c4.76.82,19.82,2.8,27.54-3.33a4.64,4.64,0,0,1,4.63-.75c5.45,2.2,17.73,5.79,22.34-4.2,6-13,8-12,0-27-5.89-11.06-17.21-8-22.77-5.61a4.54,4.54,0,0,1-5.12-1.17c-2.22-2.41-6.7-5.41-14.93-4.67a4.57,4.57,0,0,1-4.48-2.37c-3-5.72-11.63-18.07-29.26-17.28a4.53,4.53,0,0,1-2.57-.6c-5.5-3.19-30-15.51-52.4,3.46a4.54,4.54,0,0,1-5.17.43c-3.88-2.17-11.34-4.86-18.51,1a4.48,4.48,0,0,1-5.8-.15c-7.06-6.23-25.22-18.76-40.78.37a4.53,4.53,0,0,1-3.11,1.66c-4,.36-13.17,1.9-17.54,8.64a4.56,4.56,0,0,1-5.15,2c-8.37-2.58-28.73-6.27-32.87,17.17a4.5,4.5,0,0,1-4.26,3.77c-4.64.15-12.69,2.33-18.73,14.24a4.4,4.4,0,0,0-.46,2.34l.82,11.42A4.51,4.51,0,0,0,352.45,138.13Z"/><path class="cls-10" d="M406.11,164.62a3.35,3.35,0,0,1-1.13.45c-2.52.5-12.15,2.8-10.41,8.9,0,0,1.71,10.26,10.68,7.85a3.3,3.3,0,0,1,3.48,1c1.76,2.18,5.69,5,12.87.48a3.33,3.33,0,0,1,3.68.11,10.27,10.27,0,0,0,12,.29,3.38,3.38,0,0,1,2-.52c2.36.18,7.61-.17,5.25-7.24,0,0-.47-7.5-8.63-6.19a3.35,3.35,0,0,1-3.62-2.11c-1.57-4-5-10.69-10.32-9.86C415.65,158.8,408.15,163.33,406.11,164.62Z"/><path class="cls-10" d="M541.63,173.88a9,9,0,0,1-5.58,1.93c-3.62-.05-8.83.22-9.48,2.16,0,0-2,5,4,5a17.71,17.71,0,0,0,2.33.38,8.62,8.62,0,0,1,5.8,2.93c2.3,2.71,6.57,5.78,13.37,3.66a8.86,8.86,0,0,1,5-.12c3.41,1,9.62,2.1,14.47-.5a9.1,9.1,0,0,1,4.86-1.12c5.19.33,15.38.53,13.12-3.23-1.56-2.6-4.47-4.12-6.91-5a8.28,8.28,0,0,1-4.67-3.92c-.89-1.76-3.09-3.63-8.43-3.41a8.37,8.37,0,0,1-5.18-1.57c-3.1-2.23-9.2-5.06-16.31-.24a9.25,9.25,0,0,1-2.91,1.33A9.32,9.32,0,0,0,541.63,173.88Z"/><path class="cls-11" d="M389.12,135.79a4.77,4.77,0,0,0-1-.38c-3.28-.83-21.84-6-12-14.18,0,0,10.34-8.41,16.73-11.47a4.9,4.9,0,0,0,2.81-4.14c.23-4.19,2.19-10.7,12.92-6.83a4.9,4.9,0,0,0,4.5-.57c3.93-2.74,12.46-7.86,17.47-4.62a5.48,5.48,0,0,0,2.29.9c2.33.27,7.18,1.33,9.42,5.49a5,5,0,0,0,3.93,2.63c4.15.38,10.91,1.68,9.07,6.08a4.39,4.39,0,0,0-.26,2c.11,1.86-.74,5.86-8.81,9.64a4.75,4.75,0,0,0-2.55,3c-.79,2.7-2.93,7.09-8.6,6.92a4.58,4.58,0,0,0-1.52.2c-2.62.9-11.84,3.66-17.15.14a4.76,4.76,0,0,0-5.9.31C406.19,134.81,398.09,140.22,389.12,135.79Z"/><path class="cls-11" d="M501.22,88c-3.67-1-9.82-1.83-12.69,2.55a3.88,3.88,0,0,1-1.87,1.55c-2.52,1-7.75,3.48-5.36,7.3a3.66,3.66,0,0,1-.41,4.53c-3,3.13-6.92,8.45-.1,9.94a3.74,3.74,0,0,1,2.87,2.86c.76,3.47,3.72,9.14,15.12,7.8a3.82,3.82,0,0,1,3.7,1.87c1.92,3.23,6.87,8.32,18,4.34a3.92,3.92,0,0,1,1.66-.23c4,.37,21.22,1.63,26.19-3.35a4,4,0,0,1,3.08-1.08c6.1.39,23,1,23.69-3.51a3.72,3.72,0,0,1,2.61-3c9.54-2.89,35-11.61,3.32-14.18a3.76,3.76,0,0,1-3.37-2.9c-1-4.33-4.25-12.26-14.68-11a3.78,3.78,0,0,1-2.21-.43c-4.16-2.24-19.14-9.83-24.3-5.94a3.88,3.88,0,0,1-4.79,0c-2.72-2.18-6.6-4.46-9.12-2.37a3.73,3.73,0,0,1-3.5.81c-3.5-1.1-10.23-2.35-13.65,2.77A3.79,3.79,0,0,1,501.22,88Z"/><path class="cls-12" d="M514.91,99.13c-3.43,1.7-8.29,4.77-4.6,7.15a10.52,10.52,0,0,1,2.95,3c1.63,2.43,4.83,6,9.59,6.19a10.75,10.75,0,0,1,5.92,2c3.49,2.53,9.36,6,13.35,4.1a9.09,9.09,0,0,1,3.12-.75c3.5-.28,10.43-1.34,13.08-5.35a10.53,10.53,0,0,1,4.8-3.95c3.48-1.4,7.59-3.7,4.17-5.79a8.53,8.53,0,0,1-3.23-3.7c-1.48-3.14-4.75-7.82-11-7.42a10.68,10.68,0,0,1-7.28-2.16c-2.09-1.63-4.94-3.06-7.68-1.86a11.08,11.08,0,0,1-7.76.17c-3.4-1.08-8-1-11.29,4.5A10.07,10.07,0,0,1,514.91,99.13Z"/><path class="cls-12" d="M407.07,110.15c-2.25,1.43-5.74,4.13-2.7,5.5a5.12,5.12,0,0,1,1.88,1.44c1.26,1.57,4,4.24,7.69,3.76a5.42,5.42,0,0,1,3.46.66c2.51,1.45,7.13,3.64,9.88,2a5.61,5.61,0,0,1,1.79-.74c2.3-.44,7.67-1.79,9-5.15a5.21,5.21,0,0,1,2.42-2.57c2.35-1.24,5.47-3.33,2.76-4.55a5.39,5.39,0,0,1-2.41-2.12c-1.29-2.1-4.08-5.34-8.68-4.22a5.46,5.46,0,0,1-4.28-.69c-1.63-1.08-4-2.13-6-.85a5.82,5.82,0,0,1-4.57.82c-2.55-.66-6.18-.56-8.15,4.23A5.39,5.39,0,0,1,407.07,110.15Z"/></g></svg>
