<svg xmlns="http://www.w3.org/2000/svg" width="415.88" height="336.87" viewBox="0 0 415.88 336.87"><defs><style>.cls-1{fill:#b8b8b8;}.cls-2{fill:#9c9c9c;}.cls-3{fill:#b2b2b2;}.cls-4{fill:#c4c4c4;}.cls-5{fill:#f6b2e7;opacity:0.82;}.cls-6{fill:#cfcfcf;}.cls-7{fill:#fff;}</style></defs><title>Elefant_Reflected</title><g id="Layer_8" data-name="Layer 8"><path class="cls-1" d="M35.72,202.93,20.48,213.82,9.81,239a3,3,0,0,1-4.36,1.37,3.08,3.08,0,0,1-1.12-3.81l11.29-26.68,21.3-15.23"/><path d="M10.81,252.37h0a1.13,1.13,0,0,0-1.8,0L2,263.2a1.08,1.08,0,0,1-2-.56l.75-10.73a6.26,6.26,0,0,0,0-1.06l-.61-5a5.56,5.56,0,0,1,.68-3.41l3-5.42a1.08,1.08,0,0,1,1.08-.47l5.15.3c.56.09,1,1.52,1,2l1.69,13.18C12.66,252.92,11.34,253.15,10.81,252.37Z"/><rect class="cls-2" x="101.71" y="198.01" width="72.63" height="57.62" transform="translate(214.2 481.16) rotate(-165.35)"/><path class="cls-3" d="M150.42,329.63l11,3a7,7,0,0,0,1.88.25h16.56a7.09,7.09,0,0,0,1.88-.25l10.88-2.95c3.84-1,6.46-5.08,6.2-9.56l-.09-1.57L191.9,201.46c-.29-4.83-3.82-8.59-8.08-8.59H156.93c-4.33,0-7.9,3.88-8.09,8.8l-4.6,117.86,0,.74C144,324.68,146.64,328.61,150.42,329.63Z"/><path class="cls-2" d="M56.87,289.67c0,4.24,2.29,8,5.57,9l9.89,3a5.7,5.7,0,0,0,1.68.25H88.86a5.65,5.65,0,0,0,1.68-.25l9.76-2.95c3.37-1,5.69-4.91,5.56-9.28,0-.09,0-.19,0-.28l-3.42-65.24H59.17l-2.29,65.4C56.87,289.4,56.87,289.53,56.87,289.67Z"/><path class="cls-3" d="M223.64,333.63l11.44,3a7.56,7.56,0,0,0,1.95.25H254.2a7.54,7.54,0,0,0,1.94-.25l11.28-2.95a9.13,9.13,0,0,0,6.43-9.56l-.24-3L264.3,205.87c-.3-4.83-7.44-9-11.85-9H230.39c-4.49,0-8.18,3.88-8.38,8.8l-4.66,115.24-.14,3.36A9.11,9.11,0,0,0,223.64,333.63Z"/><path class="cls-4" d="M59.73,252.14l-23-26a23.57,23.57,0,0,1-5.86-17l3-50.09a23.44,23.44,0,0,0-3.26-13.41l-26-43.84A23.52,23.52,0,0,1,6.41,75.17l48-60.29a23.53,23.53,0,0,1,34.54-2.49l58.56,55.12a23.53,23.53,0,0,1,7.38,18.1L150.68,187.7a23.6,23.6,0,0,1-6.87,15.67L94,253.19A23.51,23.51,0,0,1,59.73,252.14Z"/><path class="cls-4" d="M357.44,246.14l23-26a23.57,23.57,0,0,0,5.86-17l-3-50.09a23.44,23.44,0,0,1,3.26-13.41l26-43.84a23.52,23.52,0,0,0-1.82-26.66l-48-60.29a23.53,23.53,0,0,0-34.54-2.49L269.69,61.51a23.53,23.53,0,0,0-7.38,18.1l4.18,102.09a23.6,23.6,0,0,0,6.87,15.67l49.83,49.82A23.51,23.51,0,0,0,357.44,246.14Z"/><path class="cls-5" d="M352,214.12l16.23-18.34a16.64,16.64,0,0,0,4.14-12l-2.11-35.36a16.58,16.58,0,0,1,2.3-9.47L391,108a16.62,16.62,0,0,0-1.28-18.82L355.82,46.62a16.61,16.61,0,0,0-24.38-1.75L290.1,83.78a16.62,16.62,0,0,0-5.22,12.77l3,72.08a16.6,16.6,0,0,0,4.85,11.06l35.17,35.17A16.6,16.6,0,0,0,352,214.12Z"/><path class="cls-5" d="M65.13,214.12,48.9,195.78a16.64,16.64,0,0,1-4.14-12l2.11-35.36a16.58,16.58,0,0,0-2.3-9.47L26.2,108a16.62,16.62,0,0,1,1.28-18.82L61.35,46.62a16.61,16.61,0,0,1,24.38-1.75l41.34,38.91a16.62,16.62,0,0,1,5.22,12.77l-3,72.08a16.6,16.6,0,0,1-4.85,11.06L89.31,214.86A16.6,16.6,0,0,1,65.13,214.12Z"/><path class="cls-4" d="M155,55H259.36a16.32,16.32,0,0,1,13.38,7l24.32,34.78a16.33,16.33,0,0,1,2.72,12l-13.65,82.57A16.32,16.32,0,0,1,270,205H147.25a16.33,16.33,0,0,1-16-13.12l-16.93-84.59a16.28,16.28,0,0,1,3-13L142,61.54A16.34,16.34,0,0,1,155,55Z"/><path class="cls-6" d="M68.87,228.87c1.88-1.15,5.7-.89,9-1,1.59-.05,12,16.64,13,18a101.12,101.12,0,0,0,18,18c3.06,2.45,11,6,16,6,10.73-.08,36.34-1.6,41-6,12.39-11.69,13.49-8.76,17.16-25.11a186.88,186.88,0,0,0,3.64-23.93,24,24,0,1,1,39.49,1.32,198.3,198.3,0,0,1-10.08,26.91c-4.72,10.55-11.78,24.33-22.21,33.81-11,10-27.72,15.23-39,16-15.45,1.07-31.34-5.1-43.49-11.47-10.64-5.59-23.51-20.53-29.51-27.53C80.21,251.94,67,230,68.87,228.87Z"/><path class="cls-5" d="M67.87,228.37c0,1.39,3.46,2.5,6.5,2.5s5.5-1.11,5.5-2.5-2.46-2.5-5.5-2.5S67.87,227,67.87,228.37Z"/><path class="cls-7" d="M56.87,289.67c0,4.24,2.29,8,5.57,9l9.89,3a5.7,5.7,0,0,0,1.68.25H88.86a5.65,5.65,0,0,0,1.68-.25l9.76-2.95c3.37-1,5.69-4.91,5.56-9.28-7.89,1.5-17.77,3.77-27.6,3.49C70.81,292.67,63.41,291.13,56.87,289.67Z"/><path class="cls-7" d="M150.42,329.63l11,3a7,7,0,0,0,1.88.25h16.56a7.09,7.09,0,0,0,1.88-.25l10.88-2.95c3.84-1,6.46-5.08,6.2-9.56l-.09-1.57c-8.44,1.22-20.5,4.68-32.5,4.34-7.69-.22-15.32-1.85-22-3.35l0,.74C144,324.68,146.64,328.61,150.42,329.63Z"/><path class="cls-7" d="M223.64,333.63l11.44,3a7.56,7.56,0,0,0,1.95.25H254.2a7.54,7.54,0,0,0,1.94-.25l11.28-2.95a9.13,9.13,0,0,0,6.43-9.56l-.24-3c-6.93,1.71-14.94,3.58-23,3.74-12.39.25-24.79-3.15-33.25-4l-.14,3.36A9.11,9.11,0,0,0,223.64,333.63Z"/><circle class="cls-7" cx="158.87" cy="165.87" r="23"/><circle cx="149.87" cy="165.87" r="14"/><circle cx="163.87" cy="151.87" r="3"/><circle class="cls-7" cx="249.87" cy="166.87" r="23"/><circle cx="240.87" cy="166.87" r="14"/><circle cx="254.87" cy="152.87" r="3"/><path d="M238.08,124.91c1.15-4.48,13.09-10.39,23.84-4.29,10.74,5.66,19.45,17.56,19.7,18.4,0,1.06-9.42-7.66-21.59-10.06C247.8,126.32,237,129.42,238.08,124.91Z"/><path d="M175.66,125.32c-.61-4.17-10.86-10.67-21.18-6.18-10.26,4.09-19.29,14-19.61,14.77-.09,1,9.27-6,20.52-7C166.72,125.66,176.24,129.51,175.66,125.32Z"/></g></svg>
