<svg xmlns="http://www.w3.org/2000/svg" width="420" height="340" viewBox="0 0 420 340"><defs><style>.cls-1{fill:#b8b8b8;}.cls-2{fill:#9c9c9c;}.cls-3{fill:#b2b2b2;}.cls-4{fill:#c4c4c4;}.cls-5{fill:#f6b2e7;opacity:0.82;}.cls-6{fill:#cfcfcf;}.cls-7{fill:#fff;}</style></defs><title>Elefant</title><g id="Layer_8" data-name="Layer 8"><path class="cls-1" d="M382.22,204.5l15.24,10.89,10.67,25.22a3,3,0,0,0,4.36,1.37,3.08,3.08,0,0,0,1.12-3.81l-11.29-26.68L381,196.26"/><path d="M407.13,253.94h0a1.12,1.12,0,0,1,1.8,0L416,264.77a1.09,1.09,0,0,0,2-.57l-.75-10.72a6.23,6.23,0,0,1,0-1.06l.61-5a5.59,5.59,0,0,0-.68-3.42l-3-5.41a1.07,1.07,0,0,0-1.08-.48l-5.15.31c-.56.08-1.05,1.51-1,2l-1.69,13.17C405.28,254.48,406.6,254.71,407.13,253.94Z"/><rect class="cls-2" x="243.61" y="199.57" width="72.63" height="57.62" transform="matrix(0.97, -0.25, 0.25, 0.97, -48.65, 78.2)"/><path class="cls-3" d="M267.52,331.2l-11,3a7,7,0,0,1-1.88.25H238.05a7.09,7.09,0,0,1-1.88-.25l-10.88-2.95c-3.84-1-6.46-5.08-6.2-9.56l.09-1.57L226,203c.29-4.83,3.82-8.59,8.08-8.59H261c4.33,0,7.9,3.88,8.09,8.8l4.6,117.86,0,.74C273.91,326.25,271.3,330.18,267.52,331.2Z"/><path class="cls-2" d="M361.07,291.24c0,4.24-2.29,8-5.57,9l-9.89,3a5.7,5.7,0,0,1-1.68.25H329.08a5.65,5.65,0,0,1-1.68-.25l-9.76-2.95c-3.37-1-5.69-4.91-5.56-9.28,0-.09,0-.19,0-.28l3.42-65.24h43.26l2.29,65.4C361.07,291,361.07,291.1,361.07,291.24Z"/><path class="cls-3" d="M194.3,335.2l-11.44,3a7.56,7.56,0,0,1-2,.25H163.74a7.54,7.54,0,0,1-1.94-.25l-11.28-2.95a9.13,9.13,0,0,1-6.43-9.56l.24-3,9.31-115.26c.3-4.83,7.44-9,11.85-9h22.06c4.49,0,8.18,3.88,8.38,8.8l4.66,115.24.14,3.36A9.11,9.11,0,0,1,194.3,335.2Z"/><path class="cls-4" d="M358.21,253.71l23-26a23.54,23.54,0,0,0,5.86-17l-3-50.09a23.48,23.48,0,0,1,3.26-13.41l26-43.84a23.5,23.5,0,0,0-1.82-26.65l-48-60.3A23.53,23.53,0,0,0,329,14L270.46,69.08a23.49,23.49,0,0,0-7.38,18.09l4.18,102.09a23.58,23.58,0,0,0,6.87,15.67L324,254.75A23.52,23.52,0,0,0,358.21,253.71Z"/><path class="cls-4" d="M60.5,247.71l-23-26a23.54,23.54,0,0,1-5.86-17l3-50.09a23.48,23.48,0,0,0-3.26-13.41l-26-43.84A23.5,23.5,0,0,1,7.18,70.74l48-60.3A23.53,23.53,0,0,1,89.69,8l58.56,55.12a23.49,23.49,0,0,1,7.38,18.09l-4.18,102.09a23.58,23.58,0,0,1-6.87,15.67L94.75,248.75A23.52,23.52,0,0,1,60.5,247.71Z"/><path class="cls-5" d="M65.9,215.69,49.67,197.34a16.61,16.61,0,0,1-4.14-12L47.64,150a16.54,16.54,0,0,0-2.3-9.47L27,109.57a16.62,16.62,0,0,1,1.28-18.82L62.12,48.18A16.61,16.61,0,0,1,86.5,46.43l41.34,38.91a16.63,16.63,0,0,1,5.22,12.78l-3,72.07a16.58,16.58,0,0,1-4.85,11.06L90.08,216.43A16.62,16.62,0,0,1,65.9,215.69Z"/><path class="cls-5" d="M352.81,215.69,369,197.34a16.61,16.61,0,0,0,4.14-12L371.07,150a16.54,16.54,0,0,1,2.3-9.47l18.37-31a16.62,16.62,0,0,0-1.28-18.82L356.59,48.18a16.61,16.61,0,0,0-24.38-1.75L290.87,85.34a16.63,16.63,0,0,0-5.22,12.78l3,72.07a16.58,16.58,0,0,0,4.85,11.06l35.17,35.18A16.62,16.62,0,0,0,352.81,215.69Z"/><path class="cls-4" d="M262.93,56.6H158.58a16.34,16.34,0,0,0-13.38,7L120.88,98.35a16.33,16.33,0,0,0-2.72,12l13.65,82.57a16.32,16.32,0,0,0,16.11,13.66H270.69a16.33,16.33,0,0,0,16-13.12l16.93-84.59a16.28,16.28,0,0,0-3-13L276,63.1A16.34,16.34,0,0,0,262.93,56.6Z"/><path class="cls-6" d="M349.07,230.44c-1.88-1.16-5.7-.9-9-1-1.59-.05-12,16.63-13,18a101.12,101.12,0,0,1-18,18c-3.06,2.45-11,6-16,6-10.73-.09-36.34-1.61-41-6-12.39-11.7-13.49-8.77-17.16-25.12a186.62,186.62,0,0,1-3.64-23.93,24,24,0,1,0-39.49,1.32,197.8,197.8,0,0,0,10.08,26.91c4.72,10.55,11.78,24.34,22.21,33.82,11,10,27.72,15.22,39,16,15.45,1.06,31.34-5.1,43.49-11.48,10.64-5.59,23.51-20.52,29.51-27.52C337.73,253.5,351,231.6,349.07,230.44Z"/><path class="cls-5" d="M350.07,229.94c0,1.38-3.46,2.5-6.5,2.5s-5.5-1.12-5.5-2.5,2.46-2.5,5.5-2.5S350.07,228.56,350.07,229.94Z"/><path class="cls-7" d="M361.07,291.24c0,4.24-2.29,8-5.57,9l-9.89,3a5.7,5.7,0,0,1-1.68.25H329.08a5.65,5.65,0,0,1-1.68-.25l-9.76-2.95c-3.37-1-5.69-4.91-5.56-9.28,7.89,1.5,17.77,3.77,27.6,3.49C347.13,294.24,354.53,292.7,361.07,291.24Z"/><path class="cls-7" d="M267.52,331.2l-11,3a7,7,0,0,1-1.88.25H238.05a7.09,7.09,0,0,1-1.88-.25l-10.88-2.95c-3.84-1-6.46-5.08-6.2-9.56l.09-1.57c8.44,1.22,20.5,4.68,32.5,4.34,7.69-.22,15.32-1.85,22-3.35l0,.74C273.91,326.25,271.3,330.18,267.52,331.2Z"/><path class="cls-7" d="M194.3,335.2l-11.44,3a7.56,7.56,0,0,1-2,.25H163.74a7.54,7.54,0,0,1-1.94-.25l-11.28-2.95a9.13,9.13,0,0,1-6.43-9.56l.24-3c6.93,1.71,14.94,3.58,23,3.74,12.39.25,24.79-3.15,33.25-4l.14,3.36A9.11,9.11,0,0,1,194.3,335.2Z"/><circle class="cls-7" cx="259.07" cy="167.44" r="23"/><circle cx="268.07" cy="167.44" r="14"/><circle cx="254.07" cy="153.44" r="3"/><circle class="cls-7" cx="168.07" cy="168.44" r="23"/><circle cx="177.07" cy="168.44" r="14"/><circle cx="163.07" cy="154.44" r="3"/><path d="M179.86,126.47c-1.15-4.48-13.09-10.38-23.84-4.29-10.74,5.66-19.45,17.56-19.7,18.4,0,1.07,9.42-7.66,21.59-10.05C170.14,127.88,181,131,179.86,126.47Z"/><path d="M242.28,126.88c.61-4.17,10.86-10.66,21.18-6.18,10.26,4.1,19.29,14,19.61,14.78.1,1-9.27-6-20.52-7C251.22,127.22,241.7,131.07,242.28,126.88Z"/></g></svg>
