<svg xmlns="http://www.w3.org/2000/svg" width="1334" height="750" viewBox="0 0 1334 750"><defs><style>.cls-1{fill:#c3c034;}.cls-2{fill:#603813;}.cls-3{fill:#4c8c11;}.cls-4{fill:#95c730;}.cls-5{fill:#415715;}</style></defs><title>Forgrund_2</title><g id="Layer_14" data-name="Layer 14"><path class="cls-1" d="M-8.9,584l251.34,5.07L305.28,581l36.48-2,40.54,14.19L452.23,584l52.71-5.07L583,584l62.84-9.12s53.72-5.07,84.12,2,52.7,5.07,73,2,97.3,3,97.3,3l33.44-7.09,24.33,4s8.1,2,27.36,0,105.4-2,105.4-2L1182,581s11.15-2,62.84,0,69.93-11.15,69.93-11.15l28.37,2V756.28H-8.9Z"/><path class="cls-2" d="M1642.07,64.28c-7.25,7.63-41.51,63.21-58.8,77.34-24.06,19.66-40.62,27.43-51.31,30.1a.05.05,0,0,1-.06-.07c23.54-54.32,15.31-99.15,15.31-113.91,0-9.81-9.38-7.29-13.08,36-.53,6.1-3.84,27.05-6.55,42.53-4,23.12-25.82,57.71-82.13,106.2-.34.29-.65.59-1,.88a5.47,5.47,0,0,0-1-1.85,267.36,267.36,0,0,1-32-46.1,0,0,0,0,1,0-.06c59.88-33,75.49-115.15,79.2-138.14a5.07,5.07,0,0,0-3-5.64A5,5,0,0,0,1481,55c-4.12,18.41-24.32,97.8-76,127.58a.05.05,0,0,1-.08,0c-24.69-52.56-22-97.83-18.16-120,.83-4.79-4.68-8.57-8.55-5.63a5.33,5.33,0,0,0-1.7,2.2c-4.82,11.65-31.64,91.74,55.57,195.45,0,0,0,.05,0,.06-57.5,54.87-77.34,111.9-83.19,153.68a0,0,0,0,1-.09,0c-5.27-22.44-12.49-50.12-21.38-77.05-16.51-50-33.71-81.85-52.26-96.72a.05.05,0,0,1,0-.08c48.58-29.15,75.65-139.88,83.57-174.77a8.53,8.53,0,0,0-9-10.38,8.72,8.72,0,0,0-7.57,6.45c-7.3,25.16-18.08,59.32-30.86,90.24a.05.05,0,0,1-.08,0c-12.4-7.73-29.46-21.1-35.5-39.22-9.54-28.62-12.91-63.38-13.08-65.34,0,0-.05,0-.08,0l-16.26,13,0,0c-.4,1.75,5.83,46.92,12.72,64.33,6.11,15.42,19.62,27.45,43,48.11a.06.06,0,0,1,0,.07c-12.51,26.36-26.4,47.61-40.53,54.22a8.31,8.31,0,0,0-3.91,3.92,0,0,0,0,1-.06,0c-21-8.56-47.76-23.67-73.45-43.37a0,0,0,0,1,0-.08,11.92,11.92,0,0,0,4.29-7.39c2.3-15.17,3.19-70.91-9.43-129.62,0,0,0,0,0,0l-19.52-6.51a0,0,0,0,0-.06.06c4.52,21.22,15.62,109.46,7.47,121.29-1.4,2-2.62,2.6-4,2.82l.32,2.07c-29.39-26.44-54.59-58.72-64-93.55-.78-2.88-26.17-81.78-13,3.43,3.66,23.77,13.47,46,26.87,66.33,0,0,0,.08-.05.08C946.36,120,913.63,57,907.47,37.43A8.54,8.54,0,0,0,899,31.57h-2.74A8.37,8.37,0,0,0,888.06,42c7,27,44.15,95.11,236.37,116.83a8.58,8.58,0,0,0,1.83,0c37.32,46.06,91.41,79.45,126.88,92.75,6.36,2.39,22.51,14.06,43.16,70l9.41,27.84a.05.05,0,0,1,0,0c1.41,4.53,2.78,9.07,4.1,13.59a4.37,4.37,0,0,0-.2,1.26v206a4.49,4.49,0,0,0,4.49,4.49h23a4.49,4.49,0,0,0,4.49-4.49l-2-109.88a35,35,0,0,0,14.54,2.95h13.09c3.31-.86,7.28-.66,6.82-4.07-3.07-22.66-7.21-103.33,71.73-181.6l0,0c29.31-6.21,98.62-24.4,117.63-59.55a.05.05,0,0,0,0-.08h-9.7s0,0,0,0c-15.44,28.63-64.06,39.68-90.46,43.68,0,0-.07-.06,0-.09,24.55-21.26,42.13-42.68,54.73-63.3a5.83,5.83,0,0,0,.72.18,46.28,46.28,0,0,0,6.06.39c20,0,37.8-21.38,68.25-46.31,18.64-15.25,51.28-73.74,58.88-81.77C1654.59,68,1644.68,61.53,1642.07,64.28Z"/><path class="cls-2" d="M1296.24,321.6s.08,0,.06-.07"/><path class="cls-3" d="M1766.77,64.81c-13,16.28-70,77.11-158.46,25.69a14.7,14.7,0,0,0-11.51-1.36c-15,4.31-54.75,12.32-83.57-13.13a15.16,15.16,0,0,0-12.71-3.74c-16.1,2.84-55,8.22-83,0a14.76,14.76,0,0,0-9.08.3c-13.21,4.69-52,16.56-83.51,7.18a15,15,0,0,0-12.36,1.54c-13.43,8.47-48.67,26-83.32,3.55a15.23,15.23,0,0,0-12.93-1.62c-13.82,4.47-44.92,11.55-65.68-6.39a15.08,15.08,0,0,0-13.9-3.28c-16.61,4.63-57,11.31-105-13.35a15,15,0,0,0-9.47-1.54c-15.59,2.69-64.84,9.17-90.1-10.89A15.2,15.2,0,0,0,917,45.31C899.22,52.5,859,64.25,844,31.57c-19.62-42.52-26.16-39.25,0-88.31,19.28-36.15,56.32-26.13,74.48-18.36a14.84,14.84,0,0,0,16.77-3.81c7.26-7.89,21.89-17.7,48.81-15.27a15,15,0,0,0,14.68-7.76c9.89-18.69,38-59.09,95.71-56.5a15.29,15.29,0,0,0,8.4-2c18-10.43,98.17-50.74,171.38,11.32a14.88,14.88,0,0,0,16.92,1.4c12.69-7.12,37.11-15.9,60.54,3.37a14.73,14.73,0,0,0,19-.49c23.08-20.39,82.49-61.36,133.36,1.19a14.84,14.84,0,0,0,10.2,5.45c13,1.16,43,6.21,57.35,28.27a14.87,14.87,0,0,0,16.86,6.41c27.36-8.43,94-20.48,107.52,56.17A14.73,14.73,0,0,0,1709.85-35c15.17.49,41.5,7.62,61.28,46.57a14.61,14.61,0,0,1,1.49,7.64L1770,56.62A14.77,14.77,0,0,1,1766.77,64.81Z"/><path class="cls-4" d="M1280.15-99.23c12-3.24,32.13-6,41.52,8.35a12.73,12.73,0,0,0,6.1,5.08c8.24,3.13,25.36,11.38,17.53,23.86a12,12,0,0,0,1.35,14.84c9.93,10.23,22.65,27.63.33,32.49a12.22,12.22,0,0,0-9.38,9.38c-2.49,11.34-12.19,29.87-49.47,25.51a12.42,12.42,0,0,0-12.11,6.1c-6.28,10.57-22.45,27.23-58.75,14.19a12.62,12.62,0,0,0-5.41-.73c-13.08,1.2-69.41,5.32-85.69-11a13,13,0,0,0-10.06-3.54c-19.95,1.27-75.28,3.42-77.48-11.49a12.13,12.13,0,0,0-8.56-9.77c-31.2-9.45-114.33-38-10.84-46.37a12.31,12.31,0,0,0,11-9.49c3.25-14.18,13.89-40.13,48-36a12.18,12.18,0,0,0,7.22-1.4c13.62-7.33,62.63-32.15,79.48-19.42a12.68,12.68,0,0,0,15.68.11c8.89-7.12,21.58-14.56,29.84-7.72a12.25,12.25,0,0,0,11.45,2.65c11.46-3.62,33.44-7.71,44.63,9A12.44,12.44,0,0,0,1280.15-99.23Z"/><path class="cls-5" d="M1235.37-62.74c11.22,5.55,27.11,15.58,15.05,23.37a34.34,34.34,0,0,0-9.66,9.92c-5.33,8-15.78,19.68-31.36,20.25a35.06,35.06,0,0,0-19.35,6.51c-11.43,8.27-30.64,19.55-43.7,13.41a29.49,29.49,0,0,0-10.19-2.45c-11.44-.92-34.1-4.41-42.78-17.5a34.39,34.39,0,0,0-15.72-12.93c-11.36-4.59-24.82-12.11-13.61-18.95a27.9,27.9,0,0,0,10.54-12.08c4.84-10.28,15.53-25.59,36-24.27a34.94,34.94,0,0,0,23.81-7.08c6.83-5.31,16.17-10,25.14-6.09,8,3.48,17.08,3.2,25.38.57,11.11-3.53,26-3.44,36.93,14.7A33,33,0,0,0,1235.37-62.74Z"/></g></svg>
