<svg xmlns="http://www.w3.org/2000/svg" width="720" height="490" viewBox="0 0 720 490"><defs><style>.cls-1{fill:#c6e3a1;}</style></defs><title>Game_Over</title><g id="Layer_32" data-name="Layer 32"><rect class="cls-1" x="4.63" y="1.5" width="710.73" height="487" rx="65.04" ry="65.04"/><path d="M295.13,53.69c7,0,16.88,1.48,25.24,7.38l1.47-1.64c4.43-4.92,6.23-6.06,10.66-6.06,3.28,0,7.05,1.63,11,5.73L330.7,73.69c3.11,6.23,5.08,14.1,5.08,24.59,0,49.34-35.57,70.82-58.69,70.82a48.45,48.45,0,0,1-24.26-6.4l-.82,1c-4.42,4.91-6.23,6.06-10.65,6.06-3.28,0-7.05-1.64-11-5.74l10.5-12.13c-4.92-7-8.2-16.55-8.2-29.67C232.67,75,268.24,53.69,295.13,53.69ZM300.21,84c-3.12-5.57-8.36-8.52-14.59-9-12.3,5.25-20.17,25.08-20.17,48.69Zm3.27,20.82L270.7,142.21c3.11,3.94,7.05,5.9,10.33,5.9C292.34,144.67,302,127.13,303.48,104.84Z"/><path d="M388.23,110.58A221.53,221.53,0,0,1,386.76,137h.82C402,124,407.91,103,407.91,87.46c0-3.77-1.48-17.37-7.22-22.78,5.41-5.41,14.76-8.86,21.8-8.86,6.73,0,19,1.64,19,23.45,0,38.19-32.46,89.83-62.78,89.83-10.49,0-18-3.28-24.59-10.5a140.22,140.22,0,0,0,2.95-26.71c0-24.27-6.07-51.8-18.85-61.8,0,0,8.36-14.27,23.77-14.27C379.87,55.82,388.23,77.63,388.23,110.58Z"/><path d="M466.1,141.72c9.18,0,15.41,5.25,15.41,12.29,0,9.18-7.87,15.74-19.18,15.74-8.85,0-15.41-5.24-15.41-12.46C446.92,148.44,455.12,141.72,466.1,141.72Zm-6.72-56.39c0-10.49-1.15-19.83-3.61-23.93,3.44-1.64,12.79-5.58,23.44-5.58,9.67,0,13,4.92,13,16.89a226.71,226.71,0,0,1-5.24,44.91c-2.3,9.84-6.23,14.76-16.4,14.76-2.62,0-12-.66-17-3.61C457.57,115.17,459.38,100.74,459.38,85.33Z"/><path d="M87.12,230c0-5.81,9.8-11.7,26.36-11.7s23.24,10.51,23.24,23.17c0,17.75-11.38,32.16-32.32,32.16-4.62,0-13.53-1.11-18.87-4,3.67-6.53,8.84-23.33,11-36.78a24.22,24.22,0,0,0-5.81,4.06C88.64,234.81,87.12,233.06,87.12,230ZM105.83,262c9.16,0,15.61-8.2,15.61-21.66,0-6.77-2.71-11.14-9.24-11.14-1,0-1.91,0-2.86.07A193.53,193.53,0,0,1,103,261.64,9.51,9.51,0,0,0,105.83,262Z"/><path d="M169,273.58c-3.42,0-5-1.51-5-4.7,0-1,.16-2.7.31-4.38h-.39c-3.67,8.28-10,9.08-13.7,9.08-5.09,0-9.55-2.63-11.06-6.93,1.11-3.42,4.45-14.25,4.45-21.49,0-2.63-1.27-5.57-3.18-6.45a13.1,13.1,0,0,1,11.54-6.53c5.58,0,7.25,3.42,7.25,7.41,0,5.33-2.23,13.37-4.46,22.13a3.28,3.28,0,0,0,1.83.48c2.87,0,5.81-3,7.33-8,2.07-6.6,2.54-17,2.54-21.41a53.46,53.46,0,0,1,7-.56c5.81,0,7.64,3.19,7.64,7,0,6.13-3.34,11.06-3.34,16.72,0,2.15.4,7.88,3.42,11.14C178.45,271.75,173.59,273.58,169,273.58Z"/><path d="M206,242.61a34.65,34.65,0,0,0-5.34.32c0-3.9.24-9.16,3.9-9.16.88,0,2.15.08,3.11.08,0-2-.24-6.76-1.59-8.44A24.22,24.22,0,0,1,217.22,222c3.66,0,4.62,2.39,4.62,5.26a46.11,46.11,0,0,1-.72,6.68,23.71,23.71,0,0,0,5.89-.87,13.53,13.53,0,0,1,1.28,5.65c0,4.14-4.78,4.3-8.52,4.3-1.83,8.68-3.66,15-3.66,17.51,0,1.52.4,2.31.87,2.63,1.6-.4,3.59-1.35,5.66-4.38,2.7,1.83,3.5,3.82,3.5,5.81,0,5.74-6.85,8.68-13,8.68-8.36,0-11.22-3.34-11.22-9.15C201.94,260.05,203.85,254.31,206,242.61Z"/><path d="M259.74,235.6c2.07-1.35,5.33-1.51,8.12-1.51a15.87,15.87,0,0,1,2.71.16,125.11,125.11,0,0,0-3.19,25.64,13.69,13.69,0,0,0,2.87,9,15.83,15.83,0,0,1-11.15,4.38c-3.42,0-4.38-1.43-4.38-4.54a30.54,30.54,0,0,1,.88-6.13l-.72-.08c-3.58,9-7.64,11.07-12.74,11.07-4.77,0-13.45-2.79-13.45-16.32,0-18.79,13.14-25.08,21.18-25.08A14.3,14.3,0,0,1,259.74,235.6Zm-15.6,21.58c0,3.58.55,6,1,6.37,1.91,0,4.38-2.15,6.69-7.8A62.61,62.61,0,0,0,255,242.53a8,8,0,0,0-4.54-1.19C247.16,241.34,244.14,249.7,244.14,257.18Z"/><path d="M293.82,223.9a44.3,44.3,0,0,1-2.95,14.73l.48.16c4-4.94,7.56-6.61,12.82-6.61,8.51,0,12.26,7.09,12.26,14.41,0,13.62-6.93,27-20.38,27a11.57,11.57,0,0,1-9.64-5.18l-.24.16-.31,4.54s-3.91.48-6,.48c-5.25,0-7.48-1.75-7.48-4.22a43.62,43.62,0,0,1,2.07-10.19,95.08,95.08,0,0,0,4.06-26.59c0-3.82-1-8.68-3.34-10.27,2.62-3.74,7.4-5.26,11.62-5.26C291.83,217.05,293.82,219.76,293.82,223.9Zm-5.1,37.26c1.35,1.51,2.71,2.63,5,2.63,3.66,0,7.32-8.36,7.32-16.64a8.77,8.77,0,0,0-1-4.78C295.81,242.61,292.3,247.94,288.72,261.16Z"/><path d="M324.55,242.61a34.6,34.6,0,0,0-5.33.32c0-3.9.23-9.16,3.9-9.16.87,0,2.15.08,3.1.08,0-2-.24-6.76-1.59-8.44A24.22,24.22,0,0,1,335.77,222c3.67,0,4.62,2.39,4.62,5.26a46.11,46.11,0,0,1-.71,6.68,23.71,23.71,0,0,0,5.89-.87,13.65,13.65,0,0,1,1.27,5.65c0,4.14-4.78,4.3-8.52,4.3-1.83,8.68-3.66,15-3.66,17.51,0,1.52.4,2.31.88,2.63,1.59-.4,3.58-1.35,5.65-4.38,2.71,1.83,3.5,3.82,3.5,5.81,0,5.74-6.84,8.68-13,8.68-8.36,0-11.23-3.34-11.23-9.15C320.49,260.05,322.4,254.31,324.55,242.61Z"/><path d="M365.79,273.58c-10.19,0-18.15-5.18-18.15-18.47,0-18.31,13.77-22.93,22.69-22.93,6.77,0,14.25,1.67,14.25,9.87,0,10.27-12.82,13.3-21.34,14.81.16,3,1,6.21,2.47,7.56,5.1-1.91,10.27-7.16,10.27-7.16s4.7,1.11,4.7,6.93S373.12,273.58,365.79,273.58Zm-2.7-23.25c4.77-.63,7.4-3,7.4-6.6a4,4,0,0,0-1.67-3.51C366.75,240.86,363.56,242.85,363.09,250.33Z"/><path d="M437.45,239.51c0,5.33-7.72,7.32-7.72,7.32-1.44-4.78-3.9-7.09-6.21-7.72-1.83.71-2.79,1.83-2.79,3.5,0,2.07,2.63,3.66,5,5,4.61,2.62,10,5.49,10,12.26,0,8.44-8,13.69-19.43,13.69-10.43,0-14.25-4.14-14.25-8.36,0-6.13,7.64-8.92,7.64-8.92,2.47,4.62,6.21,9.64,7.33,10.43,1.51-.39,3.9-2.07,3.9-4.46,0-2.94-3.5-4.45-6.45-6.28-5.33-3.27-9-6.45-9-11.79,0-8.83,10.19-12,19.11-12C429.09,232.18,437.45,232.82,437.45,239.51Z"/><path d="M459,237.2a12.48,12.48,0,0,1-.72,3.42l.48.16c2.7-4.86,5.81-8.6,13.21-8.6,7.81,0,12.82,5.26,12.82,14.41,0,15.13-8,27-20.3,27a11.41,11.41,0,0,1-9.47-4.46l-.24.08c.16,1.75.55,5.65.55,7.4,0,10.12-2.46,16.09-8.2,16.09-2.54,0-8-.72-11.3-4.54,6.21-8.6,8.36-30,8.36-37.82,0-3.9-1.12-10-3.19-11.46,2.47-4.94,7.09-6.69,12.18-6.69C457,232.18,459,233.77,459,237.2Zm9.39,5.17c-3.5,0-7.56,4.3-11.38,18.79,1.43,1.43,2.94,2.63,4.93,2.63,4.54,0,7.41-10,7.41-16.48C469.38,246,469.38,243.73,468.42,242.37Z"/><path d="M506.72,238.47c0,4.3-1.91,9.87-3,15.29a40.49,40.49,0,0,0-.95,7.72,8.52,8.52,0,0,0,3.34,6.92,15.7,15.7,0,0,1-11.46,5.18c-6.61,0-7-5.65-7-8,0-3.35.88-7.49,1.83-12,.88-4.14,2.07-8.2,2.07-11a7.75,7.75,0,0,0-2.31-5.81c.88-1.35,4.62-4.22,10.19-4.22C504.49,232.58,506.72,235.21,506.72,238.47ZM501,214c5,0,8.44,2.87,8.44,7.09,0,4.53-4.38,7.32-9.08,7.32-5,0-8.52-3-8.52-6.69C491.83,217,496,214,501,214Z"/><path d="M530.44,224.06c0,5.33-1.83,12.5-3.1,18.95-1,5.25-2,10.43-2,14.73,0,7.48,3.5,10.19,3.5,10.19a12.07,12.07,0,0,1-10.27,5.33c-7,0-8.6-4.86-8.6-9.63,0-5.5,2-13.46,3.11-20.86a105.22,105.22,0,0,0,1.43-13.38c0-3.66-.32-6.44-1.91-8.43,1.35-1.52,5.42-3.91,10.11-3.91C528.29,217.05,530.44,220.16,530.44,224.06Z"/><path d="M552.9,224.06c0,5.33-1.83,12.5-3.11,18.95-1,5.25-2,10.43-2,14.73,0,7.48,3.51,10.19,3.51,10.19A12.1,12.1,0,0,1,541,273.26c-7,0-8.59-4.86-8.59-9.63,0-5.5,2-13.46,3.1-20.86A103.42,103.42,0,0,0,537,229.39c0-3.66-.31-6.44-1.91-8.43,1.36-1.52,5.42-3.91,10.11-3.91C550.75,217.05,552.9,220.16,552.9,224.06Z"/><path d="M572.64,273.58c-10.19,0-18.15-5.18-18.15-18.47,0-18.31,13.78-22.93,22.69-22.93,6.77,0,14.25,1.67,14.25,9.87,0,10.27-12.82,13.3-21.33,14.81.15,3,1,6.21,2.46,7.56,5.1-1.91,10.27-7.16,10.27-7.16s4.7,1.11,4.7,6.93S580,273.58,572.64,273.58Zm-2.7-23.25c4.77-.63,7.4-3,7.4-6.6a4,4,0,0,0-1.67-3.51C573.6,240.86,570.41,242.85,569.94,250.33Z"/><path d="M599.16,242.61a34.65,34.65,0,0,0-5.34.32c0-3.9.24-9.16,3.9-9.16.88,0,2.15.08,3.11.08,0-2-.24-6.76-1.59-8.44A24.22,24.22,0,0,1,610.38,222c3.67,0,4.62,2.39,4.62,5.26a46.11,46.11,0,0,1-.72,6.68,23.87,23.87,0,0,0,5.9-.87,13.65,13.65,0,0,1,1.27,5.65c0,4.14-4.78,4.3-8.52,4.3-1.83,8.68-3.66,15-3.66,17.51,0,1.52.4,2.31.87,2.63,1.6-.4,3.59-1.35,5.66-4.38,2.7,1.83,3.5,3.82,3.5,5.81,0,5.74-6.85,8.68-13,8.68-8.36,0-11.22-3.34-11.22-9.15C595.1,260.05,597,254.31,599.16,242.61Z"/></g></svg>
