<svg xmlns="http://www.w3.org/2000/svg" width="475.34" height="445.55" viewBox="0 0 475.34 445.55"><defs><style>.cls-1{fill:#f3b227;}.cls-2{fill:#f39f18;}.cls-3{fill:#f3c54b;}.cls-4{fill:#fff;}.cls-5{fill:#603813;}.cls-6{fill:#f6b2e7;opacity:0.82;}</style></defs><title>Giraf</title><g id="Layer_27" data-name="Layer 27"><path class="cls-1" d="M112.23,384.6a6,6,0,0,0,.23,2.63l.2.61,1.21,3.73c1,3.23-.88,6.74-3.7,6.74H98.08c-2.85,0-4.78-3.61-3.65-6.85l.21-.61a6.7,6.7,0,0,0,.23-.88,6.1,6.1,0,0,0,.06-1.6l-2.39-26.6c-.26-2.91,1.58-5.46,4-5.46h14.85c2.46,0,4.33,2.73,3.93,5.72Z"/><path d="M110.17,398.31H98.08c-2.85,0-4.78-3.61-3.65-6.85l.21-.61a6.7,6.7,0,0,0,.23-.88l17.79-2.13,1.21,3.73C114.91,394.8,113,398.31,110.17,398.31Z"/><path class="cls-1" d="M231.17,432a4.24,4.24,0,0,1-4.08,5.56H202.45a4.25,4.25,0,0,1-4.19-5.18l1.67-7.08a3.2,3.2,0,0,0,.09-.75c0-.11,0-.21,0-.32l-2.86-102.33a4.26,4.26,0,0,1,4.29-4.34h27a4.25,4.25,0,0,1,4.29,4.46l-5.69,97a4.23,4.23,0,0,0,.21,1.58l.09.28Z"/><path d="M227.09,438.55H202.45c-4.4,0-4.81-3.62-4.19-7.42L199.93,421a6.56,6.56,0,0,0,.09-1.08l27.38-5.23,3.77,15.91C233.05,435.55,230,438.55,227.09,438.55Z"/><path class="cls-2" d="M323,140.11l-4.36,6.9-23,36.34L278.81,210,262.2,236.28,245.56,262.6l-6.78,10.71-7.73,12.24-.23,2.77c-.27,3.19-.72,8.57-1.09,13.12s-.68,8.1-.68,8.11l-.39,8-.72,14.85-.89,18.14c.35,3.28-21.73,3.19-25,3.42l-4,.27-20.15,1.4-32.78,2.27h0l-11.22.78-20,1.39h0l-6.68.46-2.87.2-19.84,1.37-10.6.74-8.11.56-2,.14a4.33,4.33,0,0,0-4.29,3.75l-1,7.1-3.4,25.15a4.49,4.49,0,0,0,.14,1.79c0,.06,0,.11,0,.16l1.78,5.35a4.33,4.33,0,0,1-4.11,5.7H36.62a4.33,4.33,0,0,1-4-5.93,5.09,5.09,0,0,0,.38-1.56,3.49,3.49,0,0,0,0-.56L30.08,364a4.32,4.32,0,0,1,0-.88l5.58-42.31a.08.08,0,0,0-.13-.08L20.5,331.49l0,0L10.55,355l-.74,1.75a3,3,0,0,1-4.27,1.43,3.15,3.15,0,0,1-1.22-3.84l0-.12,11.24-26.57,0,0,21.28-15.21,0,0a4.32,4.32,0,0,1,2.74-2.63l15.25-4.83,23.94-7.58,10.89-3.45h0l32.73-10.37,13.93-4.42,23.92-7.57h0l12.25-3.88,16-5.06a.08.08,0,0,0,0,0l10-14.32,7.48-10.7,10.47-15h0l4.6-6.58,17.73-25.36L265,153.31l25.26-36.12a.08.08,0,0,1,.12,0l7.59,5.31,9.07,6.35h0L323,140S323,140.06,323,140.11Z"/><path class="cls-3" d="M438.91,100.53l4.89,5.56a4.22,4.22,0,0,1,1,3.32L432.49,210.24A4.25,4.25,0,0,1,428.6,214L390,216.91l-1.38.1-57.29,4.35-2.44.19-42.77,3.24a4.23,4.23,0,0,1-4.44-3.22l-23.48-96a4.24,4.24,0,0,1,.48-3.17l3.21-5.43a4.24,4.24,0,0,0-.88-5.38L220.7,76.89A4.23,4.23,0,0,1,220,71.3l8-11.85A4.24,4.24,0,0,1,233.32,58l45.73,22.21a4.24,4.24,0,0,0,5.5-1.66L286,76.19a4.23,4.23,0,0,1,3.33-2.07l21.48-1.64a4.24,4.24,0,0,0,3.91-4.55l-2-26.61-.21-2.81a4.29,4.29,0,0,0-1.75-3.07,16,16,0,1,1,21.69-2.39,4.3,4.3,0,0,0-1.06,3.14l.24,3.26,2.06,27a4.25,4.25,0,0,0,4.56,3.91l33.4-2.54a4.25,4.25,0,0,0,3.91-4.56l-2.29-30.07-.1-1.33a4.24,4.24,0,0,0-1.74-3.07,16,16,0,1,1,21.69-2.4A4.34,4.34,0,0,0,392,29.56l.17,2.25,2.29,30.06A4.26,4.26,0,0,0,399,65.78l6.63-.5a4.24,4.24,0,0,1,3.5,1.42h0a4.24,4.24,0,0,0,5.59.69L459,36.85a4.25,4.25,0,0,1,5.53.61L474.21,48a4.26,4.26,0,0,1,.11,5.65L438.87,95A4.24,4.24,0,0,0,438.91,100.53Z"/><circle class="cls-4" cx="314.05" cy="169.55" r="23"/><circle cx="323.05" cy="169.55" r="14"/><circle cx="309.05" cy="155.55" r="3"/><circle class="cls-4" cx="408.05" cy="165.55" r="23"/><circle cx="417.05" cy="165.55" r="14"/><circle cx="403.05" cy="151.55" r="3"/><path d="M323.85,125.58c-1.16-4.48-13.09-10.38-23.85-4.29-10.73,5.66-19.44,17.56-19.7,18.4,0,1.07,9.43-7.66,21.6-10.06C314.12,127,325,130.09,323.85,125.58Z"/><path d="M394.26,121c.62-4.17,10.86-10.67,21.18-6.18,10.27,4.1,19.3,14,19.61,14.78.1,1-9.27-6-20.52-7C403.21,121.33,393.69,125.18,394.26,121Z"/><path d="M10.81,370.05h0A1.11,1.11,0,0,0,9,370L2,380.88a1.09,1.09,0,0,1-2-.57l.75-10.72a6.38,6.38,0,0,0,0-1.07l-.61-5a5.59,5.59,0,0,1,.68-3.42l3-5.41a1.07,1.07,0,0,1,1.08-.48l5.15.31c.56.08,1,1.51,1,2l1.69,13.17C12.66,370.59,11.34,370.82,10.81,370.05Z"/><path d="M53,412.55H36.62a4.33,4.33,0,0,1-4-5.93,5.09,5.09,0,0,0,.38-1.56l22.35-3.72c0,.06,0,.11,0,.16l1.78,5.35A4.33,4.33,0,0,1,53,412.55Z"/><path class="cls-1" d="M178.46,440.51a3.8,3.8,0,0,1-3.44,5H148.53a3.78,3.78,0,0,1-3.54-4.63l2-9.72a.22.22,0,0,0,0-.08,3.88,3.88,0,0,0,.07-.83l-2.89-109.8a3.74,3.74,0,0,1,3.62-3.94h28.44a3.75,3.75,0,0,1,3.62,4.05l-5.74,105.18a3.63,3.63,0,0,0,.16,1.35.24.24,0,0,0,0,.08Z"/><path d="M175,445.55H148.53a3.78,3.78,0,0,1-3.54-4.63l2-9.72a.22.22,0,0,0,0-.08l27.28-4a.24.24,0,0,0,0,.08l4.19,13.3A3.8,3.8,0,0,1,175,445.55Z"/><path class="cls-2" d="M392.05,214.55c0,.79,0,1.58-.09,2.36l-1.38.1-57.29,4.35-2.44.19a30.47,30.47,0,0,1-.8-7,31,31,0,0,1,62,0Z"/><path d="M372.64,203.29c-1.16,5-3.68,6.74-6.11,4.59s-1.87-5.46,1.7-8.25l2.87-2.25a1.59,1.59,0,0,1,2.53,1.6C373.34,200.24,373,201.71,372.64,203.29Z"/><path d="M353.05,206.34c2,4.71,4.82,6,6.83,3.44s.87-5.71-3.13-7.82l-3.11-1.65a1.64,1.64,0,0,0-2.27,2.09C351.86,203.56,352.43,204.9,353.05,206.34Z"/><path class="cls-5" d="M331.18,34.31l.39,5.14a22.84,22.84,0,0,1-11.52,3.1,22.6,22.6,0,0,1-7.39-1.23l-.37-4.83a16,16,0,1,1,18.89-2.18Z"/><path class="cls-5" d="M391.85,27.69l.31,4.12a23.91,23.91,0,0,1-19,1.42L373,29.88a16,16,0,1,1,18.89-2.19Z"/><path class="cls-6" d="M431.62,81.89l-4.56-5a5.53,5.53,0,0,1,.69-8.14L454,48.66a5.55,5.55,0,0,1,7.44.64h0a5.53,5.53,0,0,1,.12,7.37L439.88,81.76A5.54,5.54,0,0,1,431.62,81.89Z"/><path class="cls-6" d="M267.31,90.64l-3.94,5.46a5.53,5.53,0,0,1-8.12.94l-24.94-21.7a5.53,5.53,0,0,1-.86-7.42h0a5.54,5.54,0,0,1,7.2-1.58l28.89,16.24A5.52,5.52,0,0,1,267.31,90.64Z"/><ellipse class="cls-5" cx="317.71" cy="95.31" rx="10.07" ry="17.62" transform="translate(179.98 397.06) rotate(-82.16)"/><ellipse class="cls-5" cx="400.71" cy="87.31" rx="18.33" ry="10.47" transform="translate(-4.86 148.15) rotate(-20.82)"/><path class="cls-5" d="M374.36,99.27c-1,11.55-4.37,28.25-12.27,28.51s-12.7-16.63-16.34-27.56c-3.75-11.3-15.81-28.87,11.62-22a5.47,5.47,0,0,0,3.81-.44C383.75,66.19,375.36,88.08,374.36,99.27Z"/><path class="cls-5" d="M251.24,212.32c-3.21,7.93-14.11,11-24.35,6.86a25.47,25.47,0,0,1-5.73-3.23l17.73-25.36C248.9,194.82,254.42,204.48,251.24,212.32Z"/><path class="cls-5" d="M262.2,236.28,245.56,262.6c-9.4-4.43-14.46-13.72-11.39-21.3,3.22-7.93,14.12-11,24.36-6.86A25.16,25.16,0,0,1,262.2,236.28Z"/><path class="cls-5" d="M229.73,301.44c-.38,4.46-.68,8.1-.68,8.11l-.39,8-.72,14.85a24,24,0,0,1-2.88-.33c-10.88-1.88-18.52-10.25-17.06-18.68C209.43,305.12,219.09,299.85,229.73,301.44Z"/><path class="cls-5" d="M133.91,358.69l-20,1.39h0c-1.49-6.88,1.58-13.39,6.91-14.62s11.06,3.39,12.66,10.34A15.44,15.44,0,0,1,133.91,358.69Z"/><path class="cls-5" d="M104.39,360.74l-19.84,1.37-10.6.74c.25-8.16,4.63-15,11.27-16.53C93.14,344.5,101.45,350.87,104.39,360.74Z"/><path class="cls-5" d="M65.84,363.41l-2,.14a4.33,4.33,0,0,0-4.29,3.75l-1,7.1c-2.83-1.27-5.48-5.11-6.62-10-1.52-6.6.27-12.64,4-13.5s8,3.79,9.5,10.38A18.84,18.84,0,0,1,65.84,363.41Z"/><path class="cls-5" d="M238.78,273.31l-7.73,12.24-.23,2.77c-.46-.14-.91-.3-1.37-.48-5.72-2.32-8.9-7.79-7.1-12.23s7.89-6.15,13.61-3.83A14.1,14.1,0,0,1,238.78,273.31Z"/><path class="cls-5" d="M79.83,306.13c-2.27,5.62-10,7.79-17.24,4.85a16.63,16.63,0,0,1-7.67-6.09l23.94-7.58A9.91,9.91,0,0,1,79.83,306.13Z"/><path class="cls-5" d="M122.24,292.32c-3.21,7.93-14.11,11-24.35,6.86a24.58,24.58,0,0,1-8.13-5.32l32.73-10.37A13.05,13.05,0,0,1,122.24,292.32Z"/><path class="cls-5" d="M161.83,281.13c-2.27,5.62-10,7.79-17.24,4.85a16.34,16.34,0,0,1-8.17-6.91l23.92-7.57h0C162.42,274.51,163.09,278,161.83,281.13Z"/><path class="cls-5" d="M206.24,267.32c-3.21,7.93-14.11,11-24.35,6.86a24.29,24.29,0,0,1-9.29-6.56l16-5.06a.08.08,0,0,0,0,0l10-14.32C205.54,253.07,208.88,260.82,206.24,267.32Z"/><path class="cls-5" d="M223.63,235.24c-1.89,4.67-8.32,6.48-14.35,4a14.46,14.46,0,0,1-3.19-1.77l10.47-15C222.33,225.06,225.48,230.67,223.63,235.24Z"/></g></svg>
