<svg xmlns="http://www.w3.org/2000/svg" width="475.34" height="445.55" viewBox="0 0 475.34 445.55"><defs><style>.cls-1{fill:#f3b227;}.cls-2{fill:#f39f18;}.cls-3{fill:#f3c54b;}.cls-4{fill:#fff;}.cls-5{fill:#603813;}.cls-6{fill:#f6b2e7;opacity:0.82;}</style></defs><title>Giraf_Reflected</title><g id="Layer_27" data-name="Layer 27"><path class="cls-1" d="M363.1,384.6a6,6,0,0,1-.23,2.63l-.2.61-1.21,3.73c-1,3.23.88,6.74,3.7,6.74h12.09c2.85,0,4.78-3.61,3.65-6.85l-.21-.61a6.7,6.7,0,0,1-.23-.88,6.1,6.1,0,0,1-.06-1.6l2.39-26.6c.26-2.91-1.58-5.46-4-5.46H364c-2.46,0-4.33,2.73-3.93,5.72Z"/><path d="M365.16,398.31h12.09c2.85,0,4.78-3.61,3.65-6.85l-.21-.61a6.7,6.7,0,0,1-.23-.88l-17.79-2.13-1.21,3.73C360.42,394.8,362.34,398.31,365.16,398.31Z"/><path class="cls-1" d="M244.16,432a4.24,4.24,0,0,0,4.08,5.56h24.64a4.25,4.25,0,0,0,4.19-5.18l-1.67-7.08a3.2,3.2,0,0,1-.09-.75c0-.11,0-.21,0-.32l2.86-102.33a4.26,4.26,0,0,0-4.29-4.34h-27a4.25,4.25,0,0,0-4.29,4.46l5.69,97a4.23,4.23,0,0,1-.21,1.58l-.09.28Z"/><path d="M248.24,438.55h24.64c4.4,0,4.81-3.62,4.19-7.42L275.4,421a6.56,6.56,0,0,1-.09-1.08l-27.38-5.23-3.77,15.91C242.28,435.55,245.31,438.55,248.24,438.55Z"/><path class="cls-2" d="M152.34,140.11l4.36,6.9,23,36.34L196.52,210l16.61,26.28,16.64,26.32,6.78,10.71,7.73,12.24.23,2.77c.27,3.19.72,8.57,1.09,13.12s.68,8.1.68,8.11l.39,8,.72,14.85.89,18.14c-.35,3.28,21.73,3.19,25,3.42l4,.27,20.15,1.4,32.78,2.27h0l11.22.78,20,1.39h0l6.68.46,2.87.2,19.84,1.37,10.6.74,8.11.56,2,.14a4.33,4.33,0,0,1,4.29,3.75l1,7.1,3.4,25.15a4.49,4.49,0,0,1-.14,1.79c0,.06,0,.11-.05.16l-1.78,5.35a4.33,4.33,0,0,0,4.11,5.7h16.42a4.33,4.33,0,0,0,4-5.93,5.09,5.09,0,0,1-.38-1.56,3.49,3.49,0,0,1,0-.56l2.9-40.51a4.32,4.32,0,0,0,0-.88l-5.58-42.31a.08.08,0,0,1,.13-.08l15.06,10.77,0,0L464.78,355l.74,1.75a3,3,0,0,0,4.27,1.43,3.15,3.15,0,0,0,1.22-3.84l-.05-.12-11.24-26.57,0,0-21.28-15.21,0,0a4.32,4.32,0,0,0-2.74-2.63l-15.25-4.83-23.94-7.58-10.89-3.45h0l-32.73-10.37-13.93-4.42L315,271.5h0l-12.25-3.88-16-5.06a.08.08,0,0,1,0,0l-10-14.32-7.48-10.7-10.47-15h0l-4.6-6.58-17.73-25.36-26.06-37.28-25.26-36.12a.08.08,0,0,0-.12,0l-7.59,5.31-9.07,6.35h0l-16,11.16S152.35,140.06,152.34,140.11Z"/><path class="cls-3" d="M36.43,100.53l-4.89,5.56a4.27,4.27,0,0,0-1,3.32L42.85,210.24A4.24,4.24,0,0,0,46.74,214l38.63,2.95,1.38.1L144,221.36l2.44.19,42.77,3.24a4.25,4.25,0,0,0,4.45-3.22l23.47-96a4.19,4.19,0,0,0-.47-3.17l-3.21-5.43a4.24,4.24,0,0,1,.88-5.38l40.27-34.66a4.25,4.25,0,0,0,.75-5.59l-8-11.85A4.23,4.23,0,0,0,242,58L196.29,80.22a4.26,4.26,0,0,1-5.51-1.66l-1.4-2.37a4.25,4.25,0,0,0-3.33-2.07l-21.49-1.64a4.26,4.26,0,0,1-3.91-4.55l2-26.61.22-2.81a4.25,4.25,0,0,1,1.75-3.07A16,16,0,1,0,143,33.05,4.3,4.3,0,0,1,144,36.19l-.25,3.26-2,27a4.25,4.25,0,0,1-4.56,3.91l-33.4-2.54a4.25,4.25,0,0,1-3.91-4.56l2.28-30.07.1-1.33A4.25,4.25,0,0,1,104,28.83a16,16,0,1,0-21.69-2.4,4.29,4.29,0,0,1,1.06,3.13l-.17,2.25L80.89,61.87a4.26,4.26,0,0,1-4.56,3.91l-6.62-.5a4.22,4.22,0,0,0-3.5,1.42h0a4.26,4.26,0,0,1-5.6.69L16.36,36.85a4.25,4.25,0,0,0-5.53.61L1.13,48A4.26,4.26,0,0,0,1,53.61L36.46,95A4.23,4.23,0,0,1,36.43,100.53Z"/><circle class="cls-4" cx="161.28" cy="169.55" r="23"/><circle cx="152.28" cy="169.55" r="14"/><circle cx="166.28" cy="155.55" r="3"/><circle class="cls-4" cx="67.28" cy="165.55" r="23"/><circle cx="58.28" cy="165.55" r="14"/><circle cx="72.28" cy="151.55" r="3"/><path d="M151.49,125.58c1.15-4.48,13.09-10.38,23.85-4.29,10.73,5.66,19.44,17.56,19.7,18.4,0,1.07-9.43-7.66-21.6-10.06C161.22,127,150.37,130.09,151.49,125.58Z"/><path d="M81.07,121c-.61-4.17-10.85-10.67-21.18-6.18-10.26,4.1-19.29,14-19.61,14.78-.09,1,9.28-6,20.53-7C72.13,121.33,81.65,125.18,81.07,121Z"/><path d="M464.52,370.05h0a1.12,1.12,0,0,1,1.81,0l7.05,10.86a1.08,1.08,0,0,0,1.95-.57l-.74-10.72a6.38,6.38,0,0,1,0-1.07l.61-5a5.66,5.66,0,0,0-.68-3.42l-3-5.41a1,1,0,0,0-1.07-.48l-5.16.31c-.55.08-1,1.51-1,2l-1.69,13.17A1.07,1.07,0,0,0,464.52,370.05Z"/><path d="M422.29,412.55h16.42a4.33,4.33,0,0,0,4-5.93,5.09,5.09,0,0,1-.38-1.56L420,401.34c0,.06,0,.11-.05.16l-1.78,5.35A4.33,4.33,0,0,0,422.29,412.55Z"/><path class="cls-1" d="M296.87,440.51a3.8,3.8,0,0,0,3.44,5H326.8a3.78,3.78,0,0,0,3.54-4.63l-2-9.72a.22.22,0,0,1,0-.08,3.88,3.88,0,0,1-.07-.83l2.89-109.8a3.74,3.74,0,0,0-3.62-3.94H299.12a3.75,3.75,0,0,0-3.62,4.05l5.74,105.18a3.63,3.63,0,0,1-.16,1.35.24.24,0,0,1,0,.08Z"/><path d="M300.31,445.55H326.8a3.78,3.78,0,0,0,3.54-4.63l-2-9.72a.22.22,0,0,1,0-.08l-27.28-4a.24.24,0,0,1,0,.08l-4.19,13.3A3.8,3.8,0,0,0,300.31,445.55Z"/><path class="cls-2" d="M83.28,214.55c0,.79,0,1.58.09,2.36l1.38.1L142,221.36l2.44.19a30.47,30.47,0,0,0,.8-7,31,31,0,0,0-62,0Z"/><path d="M102.7,203.29c1.16,5,3.68,6.74,6.11,4.59s1.87-5.46-1.7-8.25l-2.88-2.25a1.59,1.59,0,0,0-2.53,1.6C102,200.24,102.33,201.71,102.7,203.29Z"/><path d="M122.29,206.34c-2,4.71-4.82,6-6.83,3.44s-.87-5.71,3.13-7.82l3.11-1.65A1.64,1.64,0,0,1,124,202.4C123.48,203.56,122.9,204.9,122.29,206.34Z"/><path class="cls-5" d="M144.15,34.31l-.39,5.14a22.84,22.84,0,0,0,11.52,3.1,22.6,22.6,0,0,0,7.39-1.23l.37-4.83a16,16,0,1,0-18.89-2.18Z"/><path class="cls-5" d="M83.48,27.69l-.31,4.12a23.91,23.91,0,0,0,19,1.42l.25-3.35a16,16,0,1,0-18.89-2.19Z"/><path class="cls-6" d="M43.71,81.89l4.57-5a5.52,5.52,0,0,0-.7-8.14L21.36,48.66a5.55,5.55,0,0,0-7.44.64h0a5.53,5.53,0,0,0-.12,7.37L35.45,81.76A5.54,5.54,0,0,0,43.71,81.89Z"/><path class="cls-6" d="M208,90.64,212,96.1a5.54,5.54,0,0,0,8.13.94L245,75.34a5.55,5.55,0,0,0,.86-7.42h0a5.55,5.55,0,0,0-7.21-1.58L209.8,82.58A5.53,5.53,0,0,0,208,90.64Z"/><ellipse class="cls-5" cx="157.62" cy="95.31" rx="17.62" ry="10.07" transform="translate(-11.52 22.38) rotate(-7.84)"/><ellipse class="cls-5" cx="74.62" cy="87.31" rx="10.47" ry="18.33" transform="translate(-33.51 126.02) rotate(-69.18)"/><path class="cls-5" d="M101,99.27c1,11.55,4.37,28.25,12.27,28.51s12.7-16.63,16.33-27.56c3.76-11.3,15.81-28.87-11.61-22a5.47,5.47,0,0,1-3.81-.44C91.58,66.19,100,88.08,101,99.27Z"/><path class="cls-5" d="M224.09,212.32c3.21,7.93,14.11,11,24.35,6.86a25.47,25.47,0,0,0,5.73-3.23l-17.73-25.36C226.43,194.82,220.91,204.48,224.09,212.32Z"/><path class="cls-5" d="M213.13,236.28l16.64,26.32c9.4-4.43,14.46-13.72,11.39-21.3-3.22-7.93-14.12-11-24.36-6.86A25.16,25.16,0,0,0,213.13,236.28Z"/><path class="cls-5" d="M245.6,301.44c.38,4.46.68,8.1.68,8.11l.39,8,.72,14.85a24,24,0,0,0,2.88-.33c10.88-1.88,18.52-10.25,17.06-18.68C265.9,305.12,256.24,299.85,245.6,301.44Z"/><path class="cls-5" d="M341.42,358.69l20,1.39h0c1.49-6.88-1.58-13.39-6.91-14.62s-11.06,3.39-12.66,10.34A15.44,15.44,0,0,0,341.42,358.69Z"/><path class="cls-5" d="M370.94,360.74l19.84,1.37,10.6.74c-.25-8.16-4.63-15-11.27-16.53C382.19,344.5,373.88,350.87,370.94,360.74Z"/><path class="cls-5" d="M409.49,363.41l2,.14a4.33,4.33,0,0,1,4.29,3.75l1,7.1c2.83-1.27,5.48-5.11,6.62-10,1.52-6.6-.27-12.64-4-13.5s-8,3.79-9.5,10.38A18.84,18.84,0,0,0,409.49,363.41Z"/><path class="cls-5" d="M236.55,273.31l7.73,12.24.23,2.77c.46-.14.91-.3,1.37-.48,5.72-2.32,8.9-7.79,7.1-12.23s-7.89-6.15-13.61-3.83A14.1,14.1,0,0,0,236.55,273.31Z"/><path class="cls-5" d="M395.5,306.13c2.27,5.62,10,7.79,17.24,4.85a16.63,16.63,0,0,0,7.67-6.09l-23.94-7.58A9.91,9.91,0,0,0,395.5,306.13Z"/><path class="cls-5" d="M353.09,292.32c3.21,7.93,14.11,11,24.35,6.86a24.58,24.58,0,0,0,8.13-5.32l-32.73-10.37A13.05,13.05,0,0,0,353.09,292.32Z"/><path class="cls-5" d="M313.5,281.13c2.27,5.62,10,7.79,17.24,4.85a16.34,16.34,0,0,0,8.17-6.91L315,271.5h0C312.91,274.51,312.24,278,313.5,281.13Z"/><path class="cls-5" d="M269.09,267.32c3.21,7.93,14.11,11,24.35,6.86a24.29,24.29,0,0,0,9.29-6.56l-16-5.06a.08.08,0,0,1,0,0l-10-14.32C269.79,253.07,266.45,260.82,269.09,267.32Z"/><path class="cls-5" d="M251.7,235.24c1.89,4.67,8.32,6.48,14.35,4a14.46,14.46,0,0,0,3.19-1.77l-10.47-15C253,225.06,249.85,230.67,251.7,235.24Z"/></g></svg>
