<svg xmlns="http://www.w3.org/2000/svg" width="80" height="60" viewBox="0 0 80 60"><defs><style>.cls-1{fill:#b1152d;}</style></defs><title>Hjerte</title><g id="Layer_16" data-name="Layer 16"><path class="cls-1" d="M37.86,11.48C34.07,4.5,24.34-7.83,8.33,8.06a1.86,1.86,0,0,0-.26.31C7.08,9.83.63,20,5.5,30.89a2,2,0,0,0,.36.54C7.07,32.77,13,39.21,18,42.26c0,0,15,8.56,20.46,16.55a2,2,0,0,0,3.11.29c3.52-3.54,11.22-11.08,16-14.29,0,0,15.32-9.79,17.45-17.45,0,0,5.93-12.7-8-24.17A2.83,2.83,0,0,0,66.8,3c-1.68-1-16.51-9-25.34,8.42A2,2,0,0,1,37.86,11.48Z"/></g></svg>
