<svg xmlns="http://www.w3.org/2000/svg" width="251" height="70" viewBox="0 0 251 70"><defs><style>.cls-1{fill:#f6b2e7;}</style></defs><title>Indstillinger_knap</title><g id="Layer_33" data-name="Layer 33"><rect class="cls-1" width="251" height="70" rx="22.52" ry="22.52"/><path d="M17.05,35.22c.8-4.16,1.68-8.4,1.68-10.72a14.29,14.29,0,0,0-.4-3.88,7.93,7.93,0,0,1,4.76-1.48c2.52,0,3.64,1,3.64,3,0,2.64-.84,5.52-1.52,8.84a52.34,52.34,0,0,0-1.36,9.68,22.87,22.87,0,0,0,.48,5,10.37,10.37,0,0,1-5.08,1.13c-2.64,0-3.64-1.49-3.64-3.88C15.61,41.34,16.41,38.7,17.05,35.22Z"/><path d="M34.73,26.14a2.33,2.33,0,0,1,2.56,2.64A19.32,19.32,0,0,1,37,31h.2c2-4.16,5.16-4.88,7-4.88a5.41,5.41,0,0,1,5.44,3.48,41.43,41.43,0,0,0-2.24,10.92A3.55,3.55,0,0,0,49,43.65a6.6,6.6,0,0,1-5.84,3.29c-2.88,0-3.6-1.88-3.6-3.88,0-2.48,1.16-6.8,2.24-10.88l-.28-.12c-1.56,0-3.44,1.84-4.2,4.44a42.8,42.8,0,0,0-1.08,10.15,27.11,27.11,0,0,1-3.64.29c-2.92,0-4-1.41-4-3.33,0-3.23,1.68-5.87,1.68-8.63a10.87,10.87,0,0,0-1.72-5.56C29.65,27,32.37,26.14,34.73,26.14Z"/><path d="M71.33,28.46A69,69,0,0,0,70,40.14a6.8,6.8,0,0,0,1.48,4.43A8.25,8.25,0,0,1,66,46.78c-1.24,0-2.32-.21-2.32-2.21a14.82,14.82,0,0,1,.44-3.15l-.36,0c-1.84,4.6-4.36,5.56-6.16,5.56-2.28,0-6.92-1.2-6.92-7.8,0-10.72,6.76-12.76,9.72-12.76a6.52,6.52,0,0,1,4.28,1.68,37.26,37.26,0,0,0,.24-4,4.72,4.72,0,0,0-1.32-3.6,7.09,7.09,0,0,1,5.24-2c1.68,0,3.6.52,3.6,3.4C72.41,23.14,71.73,26.14,71.33,28.46Zm-13,10.64A6.93,6.93,0,0,0,58.81,42c1.6-.48,4.2-2.68,5.12-10.32a4.21,4.21,0,0,0-2.44-.72C59.65,30.94,58.37,35.18,58.37,39.1Z"/><path d="M90.37,29.82c0,2.68-3.88,3.68-3.88,3.68-.72-2.4-2-3.56-3.12-3.88A1.84,1.84,0,0,0,82,31.38c0,1,1.32,1.84,2.52,2.52,2.32,1.32,5,2.76,5,6.16,0,4.24-4,6.88-9.76,6.88-5.24,0-7.16-2.08-7.16-4.2,0-3.08,3.84-4.48,3.84-4.48a23.78,23.78,0,0,0,3.68,5.24,2.62,2.62,0,0,0,2-2.24c0-1.48-1.76-2.24-3.24-3.16-2.68-1.64-4.52-3.24-4.52-5.92,0-4.44,5.12-6,9.6-6C86.17,26.14,90.37,26.46,90.37,29.82Z"/><path d="M94.45,31.38a17.48,17.48,0,0,0-2.68.16c0-2,.12-4.6,2-4.6.44,0,1.08,0,1.56,0,0-1-.12-3.4-.8-4.24a12.16,12.16,0,0,1,5.6-1.72c1.84,0,2.32,1.2,2.32,2.64a23.33,23.33,0,0,1-.36,3.36,11.75,11.75,0,0,0,3-.44,6.83,6.83,0,0,1,.64,2.84c0,2.08-2.4,2.16-4.28,2.16-.92,4.36-1.84,7.52-1.84,8.8,0,.76.2,1.16.44,1.32a4.77,4.77,0,0,0,2.84-2.2,3.38,3.38,0,0,1,1.76,2.92c0,2.87-3.44,4.36-6.52,4.36-4.2,0-5.64-1.68-5.64-4.6C92.41,40.14,93.37,37.26,94.45,31.38Z"/><path d="M116.25,29.3c0,2.16-1,5-1.52,7.68a20.12,20.12,0,0,0-.48,3.88,4.29,4.29,0,0,0,1.68,3.48,7.89,7.89,0,0,1-5.76,2.6c-3.32,0-3.52-2.84-3.52-4a32.24,32.24,0,0,1,.92-6,34,34,0,0,0,1-5.52,3.89,3.89,0,0,0-1.16-2.92,6.56,6.56,0,0,1,5.12-2.12C115.13,26.34,116.25,27.66,116.25,29.3ZM113.37,17c2.52,0,4.24,1.44,4.24,3.56,0,2.28-2.2,3.68-4.56,3.68-2.52,0-4.28-1.52-4.28-3.36C108.77,18.5,110.85,17,113.37,17Z"/><path d="M128.17,22.06c0,2.68-.92,6.28-1.56,9.52a41.17,41.17,0,0,0-1,7.4c0,3.76,1.76,5.12,1.76,5.12a6.07,6.07,0,0,1-5.16,2.68c-3.52,0-4.32-2.44-4.32-4.84,0-2.76,1-6.76,1.56-10.48a52.3,52.3,0,0,0,.72-6.72c0-1.84-.16-3.24-1-4.24a7.55,7.55,0,0,1,5.08-2C127.09,18.54,128.17,20.1,128.17,22.06Z"/><path d="M139.45,22.06c0,2.68-.92,6.28-1.56,9.52a41.17,41.17,0,0,0-1,7.4c0,3.76,1.76,5.12,1.76,5.12a6.07,6.07,0,0,1-5.16,2.68c-3.52,0-4.32-2.44-4.32-4.84,0-2.76,1-6.76,1.56-10.48a52.3,52.3,0,0,0,.72-6.72c0-1.84-.16-3.24-1-4.24a7.55,7.55,0,0,1,5.08-2C138.37,18.54,139.45,20.1,139.45,22.06Z"/><path d="M150.05,29.3c0,2.16-1,5-1.52,7.68a20.12,20.12,0,0,0-.48,3.88,4.29,4.29,0,0,0,1.68,3.48,7.89,7.89,0,0,1-5.76,2.6c-3.32,0-3.52-2.84-3.52-4a32.24,32.24,0,0,1,.92-6,34,34,0,0,0,1-5.52,3.89,3.89,0,0,0-1.16-2.92,6.56,6.56,0,0,1,5.12-2.12C148.93,26.34,150.05,27.66,150.05,29.3ZM147.17,17c2.52,0,4.24,1.44,4.24,3.56,0,2.28-2.2,3.68-4.56,3.68-2.52,0-4.28-1.52-4.28-3.36C142.57,18.5,144.65,17,147.17,17Z"/><path d="M158.09,26.14a2.33,2.33,0,0,1,2.56,2.64,19.32,19.32,0,0,1-.28,2.24h.2c2-4.16,5.16-4.88,7-4.88A5.41,5.41,0,0,1,173,29.62a41.43,41.43,0,0,0-2.24,10.92,3.55,3.55,0,0,0,1.6,3.11,6.6,6.6,0,0,1-5.84,3.29c-2.88,0-3.6-1.88-3.6-3.88,0-2.48,1.16-6.8,2.24-10.88l-.28-.12c-1.56,0-3.44,1.84-4.2,4.44a42.8,42.8,0,0,0-1.08,10.15,27.11,27.11,0,0,1-3.64.29c-2.92,0-4-1.41-4-3.33,0-3.23,1.68-5.87,1.68-8.63a10.87,10.87,0,0,0-1.72-5.56C153,27,155.73,26.14,158.09,26.14Z"/><path d="M193.85,34.78c-.32,3.72-.32,8.52-1.32,12.35-2,8.08-7.88,9.4-12.6,9.4-4.08,0-6.8-1.2-6.8-4.32,0-3.28,3.32-4.2,5.24-4.52a6.9,6.9,0,0,0,2.52,4.2c1.68-.64,5.28-2.08,6.16-10.07l-.16-.08c-2,3.75-4.48,4.63-6.6,4.63-1.6,0-6.28-.68-6.28-7.47,0-9.92,6.48-12.76,10.44-12.76a9,9,0,0,1,5.28,1.72A8.81,8.81,0,0,1,194,27.1a10.57,10.57,0,0,1,1.16.08A48.89,48.89,0,0,0,193.85,34.78ZM182.29,41.3c1.52-.36,2.44-1.68,3.4-3.72a22.39,22.39,0,0,0,1.64-6,4.59,4.59,0,0,0-2.52-.76c-1.44,0-3,2.64-3,7.28A8.92,8.92,0,0,0,182.29,41.3Z"/><path d="M205.17,46.94c-5.12,0-9.12-2.6-9.12-9.28,0-9.2,6.92-11.52,11.4-11.52,3.4,0,7.16.84,7.16,5,0,5.16-6.44,6.68-10.72,7.44a6.22,6.22,0,0,0,1.24,3.8,17.69,17.69,0,0,0,5.16-3.6,3.36,3.36,0,0,1,2.36,3.48C212.65,45.1,208.85,46.94,205.17,46.94Zm-1.36-11.68c2.4-.32,3.72-1.52,3.72-3.32a2,2,0,0,0-.84-1.76C205.65,30.5,204.05,31.5,203.81,35.26Z"/><path d="M227.89,32.26c-2.92,1.08-4,7.52-4,12.56,0,.32,0,.67.08,1.83a28.06,28.06,0,0,1-3.68.29c-2.48,0-4.24-.77-4.24-3.25,0-3.59,1.68-5.79,1.68-8.87A10.12,10.12,0,0,0,216,29.46c.68-1.76,3.2-3.32,6-3.32,1.6,0,2.64.68,2.64,2.8a16.85,16.85,0,0,1-.16,2h.24c1.24-3.72,3.28-4.84,5.76-4.84a4.41,4.41,0,0,1,4.6,4.68c0,2.6-1.4,5.8-6.52,5.8C228.61,35.34,228.57,33.26,227.89,32.26Z"/></g></svg>
