<svg xmlns="http://www.w3.org/2000/svg" width="720" height="490" viewBox="0 0 720 490"><defs><style>.cls-1{fill:#c6e3a1;}.cls-2{fill:#f6b2e7;}</style></defs><title>Setting_Skærm</title><g id="Layer_33" data-name="Layer 33"><rect class="cls-1" x="4.63" y="1.5" width="710.73" height="487" rx="65.04" ry="65.04"/><rect class="cls-2" x="86.09" y="186.5" width="169" height="70" rx="22.69" ry="22.69"/><path d="M107.59,235.2c3.65-5,5.67-17.91,6.17-21.77a7.61,7.61,0,0,0-2.79-1.62,6.44,6.44,0,0,1,6.48-4.78c5,0,6.93,5,8.82,12.51h.22C130.4,211,135.63,207,137.79,207s4,1.54,4.67,2.16c-.67,2.84-3.37,14.72-3.37,22.28a6.92,6.92,0,0,0,1,3.91,9.66,9.66,0,0,1-6.12,2.75c-2.93,0-3.65-1.22-3.65-3.78,0-2.25,1.53-9.81,2.61-14.67h-.27c-2,2.83-5.71,9.45-5.71,9.45a4.21,4.21,0,0,1-2.39.9c-1.8,0-2.2-.86-2.7-2.43s-1.48-5-2.34-7.83h-.27c-1.3,15.25-1.53,18.36-6.16,18.36A6,6,0,0,1,107.59,235.2Z"/><path d="M159.79,238.31c-1.93,0-2.83-.86-2.83-2.66,0-.58.09-1.53.18-2.47h-.23a7.84,7.84,0,0,1-7.74,5.13,6.36,6.36,0,0,1-6.25-3.92c.63-1.93,2.52-8,2.52-12.15,0-1.48-.72-3.15-1.8-3.64a7.42,7.42,0,0,1,6.52-3.69c3.15,0,4.1,1.94,4.1,4.18,0,3-1.26,7.56-2.52,12.51a1.84,1.84,0,0,0,1,.27c1.62,0,3.29-1.71,4.14-4.54,1.17-3.74,1.44-9.63,1.44-12.1a28.86,28.86,0,0,1,4-.32c3.29,0,4.32,1.8,4.32,4,0,3.46-1.89,6.25-1.89,9.45,0,1.21.22,4.45,1.94,6.3A7.68,7.68,0,0,1,159.79,238.31Z"/><path d="M188.23,219.05c0,3-4.36,4.14-4.36,4.14-.82-2.7-2.21-4-3.51-4.37a2.08,2.08,0,0,0-1.58,2c0,1.17,1.49,2.07,2.84,2.84,2.6,1.48,5.67,3.1,5.67,6.93,0,4.77-4.5,7.74-11,7.74-5.9,0-8.06-2.34-8.06-4.73,0-3.46,4.32-5,4.32-5a26.65,26.65,0,0,0,4.14,5.9,3,3,0,0,0,2.21-2.52c0-1.67-2-2.52-3.65-3.56-3-1.84-5.08-3.64-5.08-6.66,0-5,5.76-6.79,10.8-6.79C183.51,214.91,188.23,215.27,188.23,219.05Z"/><path d="M200.61,218.46c0,2.44-1.08,5.58-1.72,8.64a23,23,0,0,0-.53,4.37,4.83,4.83,0,0,0,1.88,3.91,8.85,8.85,0,0,1-6.47,2.93c-3.74,0-4-3.2-4-4.5a36.43,36.43,0,0,1,1-6.8A37.65,37.65,0,0,0,192,220.8a4.39,4.39,0,0,0-1.3-3.28,7.33,7.33,0,0,1,5.75-2.38C199.34,215.14,200.61,216.62,200.61,218.46Zm-3.24-13.81c2.83,0,4.76,1.62,4.76,4,0,2.57-2.47,4.14-5.12,4.14-2.84,0-4.82-1.7-4.82-3.77C192.19,206.32,194.53,204.65,197.37,204.65Z"/><path d="M211.81,229.4h-.36a54.19,54.19,0,0,0-.63,8.59c-1.31.18-3.47.32-3.92.32-3.42,0-4.68-1.44-4.68-3.65,0-3.87,2.88-7.6,2.88-17.59,0-3.2-.27-6.34-1.44-7.74,1.63-2.3,4.82-3,6.48-3,3.2,0,4.1,1.71,4.1,3.87a28.79,28.79,0,0,1-2.43,9.94H212c2.35-4.45,5.81-5.26,7.83-5.26,3.42,0,5.9,2.25,5.9,5.62,0,2.88-1.53,6.57-7.16,8,1,2.43,3.83,4.64,6.08,5.63,0,0-1.94,4.14-5.67,4.14S213.38,234,211.81,229.4Zm.22-3.06c3.29,0,6-1.67,6-4.05a1.84,1.84,0,0,0-.85-1.58C216,221,213.47,222.47,212,226.34Z"/><path class="cls-2" d="M106.37,304.5h237a22.75,22.75,0,0,1,22.75,22.75v27a20.28,20.28,0,0,1-20.28,20.28H106.37a20.28,20.28,0,0,1-20.28-20.28V324.78A20.28,20.28,0,0,1,106.37,304.5Z"/><path d="M118.47,324.14c0,3.68-1.44,13-3.77,20.38,0,0,0,.05,0,.05h2.56c2,0,5.1-.09,7.26-1.38a0,0,0,0,1,0,0,5.58,5.58,0,0,1,1.82,4.07c0,2.7-2.47,4-8.14,4H114c-4.07,0-7.17-.18-9.2-1.52,0,0,0,0,0,0,1.89-4.92,4.89-16.59,4.89-23.28a17.83,17.83,0,0,0-.66-4.57s0,0,0,0a11,11,0,0,1,5.65-1.38C117.52,320.45,118.47,321.67,118.47,324.14Z"/><path d="M135,357.3h0c2.83-.91,6-3.52,7.05-10.16l-.18-.14a7.78,7.78,0,0,1-6.8,3.42c-3,0-5.52-1.57-6.29-3.9a0,0,0,0,1,0,0c1-3.28,2.24-7.28,2.24-10.87,0-1.25-.62-3.08-1.76-3.59,0,0,0,0,0,0a7.39,7.39,0,0,1,6.55-3.66c3.06,0,4.05,1.8,4.05,4.27,0,3.6-1.44,8.46-2.29,11.12a1.75,1.75,0,0,0,1,.27c1.22,0,3-.95,4-4.05,1.25-3.71,1.26-9.82,1.26-11.23a0,0,0,0,1,0,0,35.76,35.76,0,0,1,4.38-.35c2.34,0,3.92,1.39,3.92,4.05,0,2.47-1.67,5.53-2.16,8.64-.63,3.82-.59,5.8-1.08,9.4-1.43,10.35-10.35,13.08-18.63,11.82a4.75,4.75,0,0,1-4.06-5.12c.45-3.91,5.41-4.5,5.83-4.54,0,0,0,0,0,0A7.77,7.77,0,0,0,135,357.3Z"/><path d="M176.38,330.94a77.47,77.47,0,0,0-1.53,13.14,7.71,7.71,0,0,0,1.65,5,0,0,0,0,1,0,0,9.25,9.25,0,0,1-6.14,2.45c-1.39,0-2.61-.22-2.61-2.47a16.32,16.32,0,0,1,.5-3.55l-.41,0c-2.07,5.18-4.9,6.26-6.93,6.26-2.56,0-7.78-1.36-7.78-8.78,0-12.06,7.6-14.35,10.93-14.35a7.37,7.37,0,0,1,4.77,1.84s.05,0,.06,0a43.45,43.45,0,0,0,.26-4.39,5.31,5.31,0,0,0-1.46-4s0,0,0-.06a8,8,0,0,1,5.87-2.17c1.89,0,4,.58,4,3.82C177.6,325,176.83,328.33,176.38,330.94Zm-14.58,12a8.09,8.09,0,0,0,.48,3.22s0,0,.05,0c1.8-.56,4.69-3.05,5.72-11.58,0,0,0,0,0,0a4.78,4.78,0,0,0-2.73-.79C163.24,333.73,161.8,338.5,161.8,342.9Z"/><path d="M188.31,351.73c-5.76,0-10.26-2.93-10.26-10.44,0-10.35,7.78-13,12.82-13,3.83,0,8.06.94,8.06,5.58,0,5.79-7.22,7.5-12,8.36,0,0,0,0,0,0a7,7,0,0,0,1.37,4.22s0,0,0,0a19.83,19.83,0,0,0,5.77-4h0a3.8,3.8,0,0,1,2.64,3.92C196.72,349.65,192.45,351.73,188.31,351.73Zm-1.53-13.19a0,0,0,0,0,.05,0c2.66-.37,4.13-1.72,4.13-3.73a2.25,2.25,0,0,0-.93-2h0C188.83,333.24,187.06,334.37,186.78,338.54Z"/><path d="M199.47,362.53c-3.56,0-5.27-1.58-5.27-3.83a9.65,9.65,0,0,1,.67-3s0,0,0,0a7.66,7.66,0,0,0,1.81.3c3.11,0,4.5-3.91,5.22-6.47a81.35,81.35,0,0,0,2-12.56s0,0,0,0a30.22,30.22,0,0,0-3.43.35,0,0,0,0,1,0,0c0-3.53.5-5.94,3.1-5.94h1.08c.27-1.57.36-3.28.72-4.59,1.31-4.68,4.55-6.84,10.67-6.84,3.73,0,5.58,1.22,5.58,3.74s-2.92,4.91-3.3,5.19c0,0,0,0-.05,0A6,6,0,0,0,215,325s0,0,0,0c-1.11.94-1.91,2.95-2.27,6.55,0,0,0,.05,0,0,2.86-.08,5.76-.13,8.39-.13,0,0,0,0,0,0,1.71-7,3.83-11.58,11.15-11.58,3.74,0,7.29,1.4,7.29,4.59,0,3.73-4.81,4.52-5.27,4.59a0,0,0,0,1,0,0c0-.39-.34-3.8-2.95-4.45h0c-1.12.95-2,3.23-2.32,6.83a0,0,0,0,0,0,.05,14.19,14.19,0,0,0,4.25-.45s0,0,0,0a7.83,7.83,0,0,1,.85,3.3c0,2.82-2.82,3-5.73,3,0,0,0,0,0,0-2.11,20.49-6.75,25.26-12.64,25.26-3.55,0-5.26-1.58-5.26-3.83a9.61,9.61,0,0,1,.66-3s0,0,0,0a7.73,7.73,0,0,0,1.82.3c3.1,0,4.5-3.91,5.22-6.47a81.35,81.35,0,0,0,2-12.56s0,0,0,0c-1.32,0-6.75,0-8.09.13t0,0C210,357.53,205.36,362.53,199.47,362.53Z"/><path d="M244.87,351.73c-5.76,0-10.26-2.93-10.26-10.44,0-10.35,7.79-13,12.83-13,3.82,0,8.05.94,8.05,5.58,0,5.79-7.21,7.5-12,8.36,0,0,0,0,0,0,.1,1.69.58,3.45,1.38,4.22,0,0,0,0,0,0a19.83,19.83,0,0,0,5.77-4h0a3.8,3.8,0,0,1,2.65,3.92C253.29,349.65,249,351.73,244.87,351.73Zm-1.52-13.19s0,0,0,0c2.67-.37,4.14-1.72,4.14-3.73a2.28,2.28,0,0,0-.93-2h0C245.4,333.24,243.62,334.37,243.35,338.54Z"/><path d="M265.75,342.82h-.36a53.83,53.83,0,0,0-.63,8.56,0,0,0,0,1,0,0c-1.3.18-3.44.32-3.88.32-3.42,0-4.68-1.45-4.68-3.65,0-3.87,2.88-7.6,2.88-17.59,0-3.18-.27-6.32-1.43-7.72a0,0,0,0,1,0,0c1.63-2.27,4.81-2.94,6.47-2.94,3.19,0,4.09,1.71,4.09,3.87a28.66,28.66,0,0,1-2.43,9.94H266c2.34-4.45,5.8-5.26,7.83-5.26,3.42,0,5.89,2.25,5.89,5.62,0,2.87-1.52,6.55-7.11,8,0,0,0,0,0,.05,1,2.4,3.8,4.58,6,5.57,0,0,0,0,0,.05-.19.38-2.12,4.11-5.66,4.11C269.13,351.73,267.33,347.4,265.75,342.82Zm.25-3.12s0,.06,0,.06c3.26,0,6-1.68,6-4.05a1.84,1.84,0,0,0-.84-1.57h0C270,334.41,267.43,335.89,266,339.7Z"/><path d="M284,334.22a19.6,19.6,0,0,0-2.94.17s0,0,0,0c0-2.2.15-5.13,2.21-5.13.48,0,1.18,0,1.72,0a0,0,0,0,0,0,0c0-1.14-.14-3.75-.88-4.71,0,0,0,0,0,0a13.78,13.78,0,0,1,6.27-1.91c2.07,0,2.61,1.35,2.61,3a26.07,26.07,0,0,1-.4,3.74,0,0,0,0,0,0,0,13.63,13.63,0,0,0,3.26-.49s0,0,0,0a7.77,7.77,0,0,1,.71,3.17c0,2.33-2.68,2.43-4.79,2.43l0,0c-1,4.89-2.06,8.44-2.06,9.88a1.77,1.77,0,0,0,.48,1.47h0a5.36,5.36,0,0,0,3.16-2.44,0,0,0,0,1,.05,0,3.78,3.78,0,0,1,1.95,3.26c0,3.24-3.87,4.9-7.33,4.9-4.73,0-6.35-1.89-6.35-5.17,0-2.29,1.08-5.52,2.29-12.11C284.06,334.24,284.05,334.22,284,334.22Z"/><path d="M307.38,351.73c-5.76,0-10.26-2.93-10.26-10.44,0-10.35,7.78-13,12.82-13,3.82,0,8.05.94,8.05,5.58,0,5.79-7.21,7.5-12,8.36,0,0,0,0,0,0a7,7,0,0,0,1.37,4.22s0,0,0,0a19.78,19.78,0,0,0,5.78-4h0a3.81,3.81,0,0,1,2.64,3.92C315.79,349.65,311.51,351.73,307.38,351.73Zm-1.53-13.19a0,0,0,0,0,0,0c2.67-.37,4.14-1.72,4.14-3.73a2.25,2.25,0,0,0-.93-2h0C307.9,333.24,306.13,334.37,305.85,338.54Z"/><path d="M333,335.24s0,0-.05,0c-3.26,1.25-4.47,8.47-4.47,14.12,0,.36,0,.76.09,2,0,0,0,0,0,0a32.44,32.44,0,0,1-4.11.32c-2.79,0-4.76-.86-4.76-3.65,0-4.05,1.89-6.52,1.89-10a11.42,11.42,0,0,0-1.93-6,0,0,0,0,1,0,0c.77-2,3.6-3.71,6.79-3.71,1.8,0,3,.76,3,3.15a19,19,0,0,1-.18,2.29h.26c1.4-4.18,3.69-5.44,6.48-5.44a5,5,0,0,1,5.18,5.26c0,2.92-1.57,6.51-7.3,6.53,0,0,0,0,0,0C333.74,338.65,333.69,336.36,333,335.24Z"/><path d="M160.68,92.46c1.56-8.11,3.28-16.38,3.28-20.9a28,28,0,0,0-.78-7.57,15.42,15.42,0,0,1,9.28-2.89c4.91,0,7.1,1.95,7.1,5.77,0,5.15-1.64,10.77-3,17.24-1.4,6.79-2.65,13.58-2.65,18.88a44.93,44.93,0,0,0,.94,9.83S171.29,115,165,115c-5.15,0-7.1-2.88-7.1-7.56C157.87,104.39,159.43,99.25,160.68,92.46Z"/><path d="M195.16,74.75c2.42,0,5,1,5,5.15a36.19,36.19,0,0,1-.55,4.37H200c3.83-8.11,10.07-9.52,13.65-9.52,5.07,0,9.13,2.5,10.61,6.79-1.56,4.13-4.37,15-4.37,21.29,0,2.42,1.25,5.23,3.12,6.09a12.9,12.9,0,0,1-11.38,6.4c-5.62,0-7-3.67-7-7.57,0-4.84,2.26-13.26,4.36-21.22l-.54-.23c-3,0-6.71,3.59-8.19,8.66-1.8,6.24-2.11,15.52-2.11,19.81a55,55,0,0,1-7.1.55c-5.69,0-7.87-2.74-7.87-6.48,0-6.32,3.27-11.47,3.27-16.85,0-2-.78-7.33-3.35-10.84C185.25,76.47,190.56,74.75,195.16,74.75Z"/><path d="M266.53,79.28c-1.41,7.56-2.65,16-2.65,22.77,0,3.12,1,6.71,2.88,8.66A16.13,16.13,0,0,1,256.07,115c-2.41,0-4.52-.39-4.52-4.29a28.63,28.63,0,0,1,.86-6.16l-.7-.08c-3.59,9-8.51,10.85-12,10.85-4.44,0-13.49-2.35-13.49-15.22,0-20.9,13.18-24.88,19-24.88a12.71,12.71,0,0,1,8.35,3.28,73.3,73.3,0,0,0,.47-7.72c0-1.17,0-4.76-2.57-7,3.19-3.35,7.56-3.82,10.21-3.82,3.28,0,7,1,7,6.63C268.63,68.9,267.31,74.75,266.53,79.28ZM241.25,100a13.44,13.44,0,0,0,.86,5.61c3.12-.93,8.19-5.22,10-20.12a8.23,8.23,0,0,0-4.76-1.41C243.75,84.11,241.25,92.38,241.25,100Z"/><path d="M303.65,81.93c0,5.23-7.56,7.18-7.56,7.18-1.41-4.68-3.82-7-6.09-7.57-1.79.7-2.73,1.79-2.73,3.43,0,2,2.58,3.59,4.92,4.92,4.52,2.57,9.83,5.38,9.83,12,0,8.27-7.8,13.42-19,13.42-10.21,0-14-4.06-14-8.2,0-6,7.49-8.73,7.49-8.73,2.42,4.52,6.08,9.44,7.18,10.22,1.48-.39,3.82-2,3.82-4.37,0-2.89-3.43-4.37-6.32-6.16-5.23-3.2-8.82-6.32-8.82-11.55,0-8.66,10-11.78,18.73-11.78C295.46,74.75,303.65,75.38,303.65,81.93Z"/><path d="M311.61,85a34.35,34.35,0,0,0-5.23.31c0-3.82.24-9,3.82-9,.86,0,2.11.08,3.05.08,0-2-.24-6.63-1.56-8.27a23.7,23.7,0,0,1,10.92-3.35c3.58,0,4.52,2.34,4.52,5.15a45.72,45.72,0,0,1-.7,6.55,22.83,22.83,0,0,0,5.77-.86,13.4,13.4,0,0,1,1.25,5.54c0,4.06-4.68,4.21-8.35,4.21-1.79,8.5-3.59,14.67-3.59,17.16,0,1.48.39,2.26.86,2.58,1.56-.39,3.51-1.33,5.54-4.29,2.65,1.79,3.43,3.74,3.43,5.69,0,5.62-6.71,8.5-12.71,8.5-8.19,0-11-3.27-11-9C307.63,102.05,309.5,96.44,311.61,85Z"/><path d="M354.12,80.92c0,4.21-1.87,9.67-3,15a39.71,39.71,0,0,0-.93,7.57,8.36,8.36,0,0,0,3.27,6.78,15.37,15.37,0,0,1-11.23,5.08c-6.47,0-6.86-5.54-6.86-7.81,0-3.27.86-7.33,1.79-11.77.86-4.06,2-8,2-10.77A7.57,7.57,0,0,0,337,79.28c.86-1.33,4.52-4.14,10-4.14C351.93,75.14,354.12,77.72,354.12,80.92ZM348.5,57c4.92,0,8.27,2.81,8.27,6.94,0,4.45-4.29,7.18-8.89,7.18-4.92,0-8.35-3-8.35-6.56C339.53,59.86,343.59,57,348.5,57Z"/><path d="M377.36,66.8c0,5.22-1.79,12.24-3,18.56-1,5.15-1.95,10.22-1.95,14.43,0,7.33,3.43,10,3.43,10A11.83,11.83,0,0,1,365.74,115c-6.87,0-8.43-4.76-8.43-9.44,0-5.38,1.95-13.18,3.05-20.43A102.21,102.21,0,0,0,361.76,72c0-3.58-.31-6.32-1.87-8.27,1.32-1.48,5.3-3.82,9.9-3.82C375.26,59.93,377.36,63,377.36,66.8Z"/><path d="M399.36,66.8c0,5.22-1.8,12.24-3,18.56-1,5.15-2,10.22-2,14.43,0,7.33,3.44,10,3.44,10A11.84,11.84,0,0,1,387.73,115c-6.86,0-8.42-4.76-8.42-9.44,0-5.38,1.95-13.18,3-20.43A102.4,102.4,0,0,0,383.76,72c0-3.58-.32-6.32-1.88-8.27a14.75,14.75,0,0,1,9.91-3.82C397.25,59.93,399.36,63,399.36,66.8Z"/><path d="M420,80.92c0,4.21-1.87,9.67-3,15a39.71,39.71,0,0,0-.93,7.57,8.36,8.36,0,0,0,3.27,6.78,15.37,15.37,0,0,1-11.23,5.08c-6.47,0-6.86-5.54-6.86-7.81,0-3.27.85-7.33,1.79-11.77.86-4.06,2-8,2-10.77a7.57,7.57,0,0,0-2.26-5.69c.86-1.33,4.52-4.14,10-4.14C417.84,75.14,420,77.72,420,80.92Zm-5.62-24c4.92,0,8.27,2.81,8.27,6.94,0,4.45-4.29,7.18-8.89,7.18-4.92,0-8.35-3-8.35-6.56C405.44,59.86,409.5,57,414.41,57Z"/><path d="M435.7,74.75c2.42,0,5,1,5,5.15a38.41,38.41,0,0,1-.55,4.37h.39c3.82-8.11,10.06-9.52,13.65-9.52,5.07,0,9.13,2.5,10.61,6.79-1.56,4.13-4.37,15-4.37,21.29,0,2.42,1.25,5.23,3.12,6.09a12.9,12.9,0,0,1-11.39,6.4c-5.61,0-7-3.67-7-7.57,0-4.84,2.26-13.26,4.37-21.22L449,86.3c-3,0-6.7,3.59-8.19,8.66-1.79,6.24-2.1,15.52-2.1,19.81a55.13,55.13,0,0,1-7.1.55c-5.69,0-7.88-2.74-7.88-6.48,0-6.32,3.28-11.47,3.28-16.85,0-2-.78-7.33-3.36-10.84C425.8,76.47,431.1,74.75,435.7,74.75Z"/><path d="M505.44,91.6c-.63,7.26-.63,16.62-2.58,24.1-4,15.76-15.36,18.34-24.57,18.34-8,0-13.26-2.35-13.26-8.43,0-6.4,6.48-8.19,10.22-8.81.78,3.27,2.5,6.71,4.91,8.19,3.28-1.25,10.3-4.06,12-19.66l-.32-.16c-3.82,7.34-8.73,9-12.87,9-3.12,0-12.24-1.32-12.24-14.58,0-19.35,12.63-24.89,20.36-24.89a17.55,17.55,0,0,1,10.29,3.36c2.26-1.33,5.46-1.48,8.35-1.48a20.09,20.09,0,0,1,2.26.15A95.21,95.21,0,0,0,505.44,91.6Zm-22.55,12.72c3-.71,4.76-3.28,6.63-7.26a43.41,43.41,0,0,0,3.2-11.78,8.93,8.93,0,0,0-4.91-1.48C485,83.8,482,89,482,98,482,100,482.19,102.91,482.89,104.32Z"/><path d="M527.51,115.32c-10,0-17.79-5.08-17.79-18.1,0-17.94,13.5-22.47,22.23-22.47,6.64,0,14,1.64,14,9.68,0,10.06-12.56,13-20.91,14.5.16,3,1,6.09,2.42,7.41,5-1.87,10.06-7,10.06-7s4.61,1.1,4.61,6.79S534.69,115.32,527.51,115.32Zm-2.65-22.78c4.68-.63,7.25-3,7.25-6.48a3.9,3.9,0,0,0-1.64-3.43C528.44,83.26,525.32,85.21,524.86,92.54Z"/><path d="M571.81,86.69c-5.69,2.1-7.8,14.66-7.8,24.49,0,.62,0,1.33.16,3.59a59.51,59.51,0,0,1-7.18.55c-4.83,0-8.27-1.49-8.27-6.32,0-7,3.28-11.31,3.28-17.32a19.73,19.73,0,0,0-3.35-10.45c1.32-3.43,6.24-6.48,11.77-6.48,3.12,0,5.15,1.33,5.15,5.46a32.08,32.08,0,0,1-.31,4h.47c2.42-7.25,6.39-9.44,11.23-9.44,5.38,0,9,3.75,9,9.13,0,5.07-2.73,11.31-12.71,11.31C573.22,92.69,573.14,88.64,571.81,86.69Z"/></g></svg>
