<svg xmlns="http://www.w3.org/2000/svg" width="810" height="430" viewBox="0 0 810 430"><defs><style>.cls-1{fill:#f6b2e7;}</style></defs><title>Intro_Tekst_Spil</title><g id="Layer_14" data-name="Layer 14"><path class="cls-1" d="M742.77,2.5H166.57c-35.69,0-64.9,32.84-64.9,73v250C94.18,346,71.36,382.58,2.33,398.86c0,0,51.1,6.82,111.4-2.13,11.8,18.59,31.11,30.77,52.84,30.77h576.2c35.7,0,64.9-32.84,64.9-73V75.47C807.67,35.34,778.47,2.5,742.77,2.5Z"/><path d="M343.75,67.39c-1.69,11.83-2.41,17.49-8.65,17.49-5.85,0-7.86-4.16-7.86-4.16,6-8.71,7.41-29.06,7.41-32.31a21.62,21.62,0,0,0-.91-5.65,12.64,12.64,0,0,1,8.12-2.8c4.23,0,5.46,1.95,5.46,4.68a89.06,89.06,0,0,1-1.75,13h11.24a70.38,70.38,0,0,0,1-9.55,14.13,14.13,0,0,0-1.1-5.47A14.78,14.78,0,0,1,364.94,40c3.64,0,5.33,1.62,5.33,4.81,0,4.16-1.3,10.47-2.41,15.67a76.56,76.56,0,0,0-2,15,10.63,10.63,0,0,0,1.49,5.46s-3.77,3.9-9,3.9c-3.57,0-5.13-1.62-5.13-5.2,0-2.08.65-5.85,1.95-12.22Z"/><path d="M390.16,53.87a32,32,0,0,0-1.82-11.11,16.05,16.05,0,0,1,8.71-2.8c4,0,5.85,2.28,5.85,7.28A97.15,97.15,0,0,1,401,64.66c-2.53,11.83-6.63,20.22-19.63,20.22-6.3,0-10.79-3.51-10.79-8.65,0-5.39,4.74-6.76,9.43-8.12.39,4.16,2.34,7.21,3.31,7.21C388.79,75.32,390.16,59.59,390.16,53.87Z"/><path d="M429,72.4H418.88C416,79.29,413.29,84.88,408,84.88c-3.25,0-6.18-1.63-7.41-7.28C406,75.19,410.56,67.26,416.29,56l4.94-9.75a11.85,11.85,0,0,0-4.75-1.57c1.3-3.44,4.48-5.65,10.21-5.65,7.15,0,15.21.58,22.75.58a75.9,75.9,0,0,0,8.77-.45,11.67,11.67,0,0,1,1.3,4.81c0,4.16-2.27,5-7,5-3.05,0-6-.26-9.42-.46-.13,2.54-.52,6.31-.72,8.45h1.89a31.75,31.75,0,0,0,8.12-1,12.93,12.93,0,0,1,1.24,5.2c0,4.74-3.45,4.81-6.89,4.81-.78,0-3.64-.13-5.4-.33-.45,3.58-1.1,7.15-1.56,9.23,9.3,0,11.25-.45,15.08-2,1.56,2.08,2.41,3.44,2.41,5.85,0,4.42-4.1,5.72-12.35,5.72h-8.58a29.52,29.52,0,0,1-9.88-1.37A56,56,0,0,0,429,72.4Zm1.23-8.58c.78-4.81,1.3-10,1.63-15.15H430c-1.95,4.23-4.55,9.75-7.28,15.21,1-.06,3.38-.13,4.42-.13C427.47,63.75,429.29,63.75,430.26,63.82Z"/><path d="M479.59,45.29c0,5.33-2.08,18.79-5.46,29.51h3.77c2.93,0,7.41-.13,10.54-2,1.88,2.08,2.66,3.64,2.66,5.91,0,3.9-3.57,5.79-11.77,5.79h-6.17c-5.92,0-10.4-.26-13.33-2.21,2.73-7.09,7.09-24,7.09-33.67a25.46,25.46,0,0,0-1-6.64,15.84,15.84,0,0,1,8.19-2C478.23,40,479.59,41.72,479.59,45.29Z"/><path d="M502.21,51.34a19.35,19.35,0,0,0-4.22,3c-1.37-1.5-3.06-4.43-3.06-6.57,0-2.79,4.36-7.8,21.32-7.8,11.18,0,16.19,5.4,16.19,13.46,0,9.55-7.09,16.9-22,17.81-1.69,12.15-3.64,13.65-9.36,13.65-3.51,0-6.24-1.3-7.67-3.38C498.25,75.65,501.11,61.61,502.21,51.34Zm9.17,11.11c6.63-.78,9.1-3.83,9.1-8.84a4.87,4.87,0,0,0-5.27-5.2c-.84,0-1.69.07-2.47.13C512.35,53.74,511.77,58.55,511.38,62.45Z"/><path d="M541.34,74c3.64,0,6.11,2.08,6.11,4.88,0,3.64-3.12,6.24-7.6,6.24-3.51,0-6.11-2.08-6.11-4.94C533.74,76.69,537,74,541.34,74Zm-2.66-22.36c0-4.16-.46-7.86-1.43-9.49A22.75,22.75,0,0,1,546.54,40c3.84,0,5.14,1.95,5.14,6.69a90.16,90.16,0,0,1-2.08,17.82c-.91,3.9-2.47,5.85-6.5,5.85-1,0-4.75-.26-6.76-1.43A59.55,59.55,0,0,0,538.68,51.66Z"/><path d="M155.32,139.63a43.51,43.51,0,0,1-.29,5.15h.16a13.54,13.54,0,0,0,4-9.67c0-.73-.29-3.39-1.41-4.44a6.59,6.59,0,0,1,4.25-1.73c1.32,0,3.72.32,3.72,4.57,0,7.46-6.34,17.54-12.26,17.54a6,6,0,0,1-4.8-2.05,27.34,27.34,0,0,0,.58-5.21c0-4.74-1.19-10.12-3.68-12.07a5.87,5.87,0,0,1,4.64-2.78C153.69,128.94,155.32,133.19,155.32,139.63Z"/><path d="M174.45,137.07c0,1.72-.76,4-1.21,6.14a15.63,15.63,0,0,0-.39,3.1,3.44,3.44,0,0,0,1.35,2.79,6.32,6.32,0,0,1-4.61,2.08c-2.66,0-2.82-2.28-2.82-3.2a26,26,0,0,1,.74-4.83,27.57,27.57,0,0,0,.83-4.42,3.13,3.13,0,0,0-.93-2.34,5.29,5.29,0,0,1,4.1-1.69C173.56,134.7,174.45,135.75,174.45,137.07Zm-2.3-9.83c2,0,3.39,1.15,3.39,2.85s-1.76,2.94-3.65,2.94-3.42-1.21-3.42-2.68C168.47,128.43,170.13,127.24,172.15,127.24Z"/><path d="M184,131.27a46,46,0,0,1-1.25,7.62,33.44,33.44,0,0,0-.8,5.92c0,3,1.41,4.09,1.41,4.09a4.86,4.86,0,0,1-4.13,2.15c-2.81,0-3.45-2-3.45-3.87,0-2.21.8-5.41,1.24-8.39a41.45,41.45,0,0,0,.58-5.37,5.3,5.3,0,0,0-.77-3.39,6.05,6.05,0,0,1,4.07-1.57C183.12,128.46,184,129.71,184,131.27Z"/><path d="M207.57,136.39a55.87,55.87,0,0,0-1.09,9.35,5.45,5.45,0,0,0,1.19,3.55,6.63,6.63,0,0,1-4.39,1.76c-1,0-1.85-.16-1.85-1.76a12.13,12.13,0,0,1,.35-2.53l-.29,0c-1.47,3.68-3.49,4.45-4.93,4.45-1.82,0-5.53-1-5.53-6.24,0-8.58,5.41-10.21,7.77-10.21a5.25,5.25,0,0,1,3.43,1.34,29.17,29.17,0,0,0,.19-3.16,3.76,3.76,0,0,0-1.06-2.88,5.69,5.69,0,0,1,4.2-1.57c1.34,0,2.88.41,2.88,2.72C208.44,132.14,207.89,134.54,207.57,136.39Zm-10.36,8.51a5.42,5.42,0,0,0,.35,2.31c1.28-.39,3.36-2.14,4.09-8.26a3.35,3.35,0,0,0-2-.57C198.23,138.38,197.21,141.77,197.21,144.9Z"/><path d="M220.76,151.18c-1.38,0-2-.61-2-1.89,0-.42.06-1.09.13-1.76h-.16a5.57,5.57,0,0,1-5.51,3.65,4.52,4.52,0,0,1-4.44-2.79c.44-1.37,1.79-5.72,1.79-8.64a3,3,0,0,0-1.28-2.59,5.28,5.28,0,0,1,4.64-2.62c2.24,0,2.91,1.37,2.91,3,0,2.15-.9,5.38-1.79,8.9a1.3,1.3,0,0,0,.73.19c1.16,0,2.34-1.22,3-3.23a34.76,34.76,0,0,0,1-8.61,21.72,21.72,0,0,1,2.82-.22c2.33,0,3.07,1.28,3.07,2.81,0,2.47-1.34,4.45-1.34,6.72,0,.87.16,3.17,1.37,4.48A5.45,5.45,0,0,1,220.76,151.18Z"/><path d="M239.06,128.46c2,0,2.82,1,2.82,2.69a22.75,22.75,0,0,1-1.76,7.26h.16c1.69-3.46,4.35-3.87,5.56-3.87a4.34,4.34,0,0,1,4.36,2.78,30.59,30.59,0,0,0-1.8,8.93,3,3,0,0,0,1.28,2.3,5.28,5.28,0,0,1-4.44,2.63c-2.31,0-3.11-1.16-3.11-3.11s.93-5.44,1.79-8.7l-.22-.1c-1.66.16-3,2-3.49,3.88a36.55,36.55,0,0,0-.73,7.8c-1.32.16-2.63.23-3,.23-2.34,0-3.11-1.19-3.11-2.69a14.84,14.84,0,0,1,.8-3.78,33,33,0,0,0,1.28-9.63c0-1-.22-3.61-1-4.51C235.16,129.29,237.2,128.46,239.06,128.46Z"/><path d="M251.83,136.65a5.22,5.22,0,0,1,4.06-1.79c2.43,0,3,1.44,3,3.58,0,9.47-2.18,20.42-9.25,20.42-2.3,0-3.48-1.06-3.48-2.85a7.94,7.94,0,0,1,.48-2.5,3.3,3.3,0,0,0,1.37.32c3.87,0,5.06-7.52,5.06-12.57A6.84,6.84,0,0,0,251.83,136.65Zm4.19-9.54c2,0,3.39,1.16,3.39,2.85s-1.76,2.95-3.65,2.95-3.42-1.22-3.42-2.69C252.34,128.3,254,127.11,256,127.11Z"/><path d="M276.5,151.18a6,6,0,0,1-5.28-2.37,8.87,8.87,0,0,1-5.89,2.37c-3.2,0-5-1.16-5-3.91,0-4.51,6.11-5.5,9.44-5.53a11.92,11.92,0,0,0,.26-2.05,1.88,1.88,0,0,0-.58-1.63,4.53,4.53,0,0,0-4.16,3.07c-1.82-.29-3.46-.61-3.46-2.59,0-2.56,3.33-4,7.59-4a5.41,5.41,0,0,1,4.06,1.53,8.12,8.12,0,0,1,4.58-1.53c2.72,0,5.73.67,5.73,4,0,4.12-5.16,5.34-8.58,6a6.41,6.41,0,0,0,1.18,3.45c1.83-.57,3.43-3.52,3.43-3.52s2.59.77,2.59,3.11S279.44,151.18,276.5,151.18ZM266,147.11a1,1,0,0,0,.87,1.12c.92-.16,2.4-1.21,2.75-4C267.63,144.27,266,145.7,266,147.11Zm9.19-5.28c1.92-.25,3-1.21,3-2.65a1.6,1.6,0,0,0-.67-1.41C276.66,138,275.38,138.83,275.19,141.83Z"/><path d="M293,131.27a46,46,0,0,1-1.25,7.62,33.44,33.44,0,0,0-.8,5.92c0,3,1.41,4.09,1.41,4.09a4.86,4.86,0,0,1-4.13,2.15c-2.81,0-3.45-2-3.45-3.87,0-2.21.8-5.41,1.25-8.39a43.08,43.08,0,0,0,.57-5.37,5.3,5.3,0,0,0-.77-3.39,6.05,6.05,0,0,1,4.07-1.57C292.15,128.46,293,129.71,293,131.27Z"/><path d="M301.36,136.55a5,5,0,0,1-.28,1.38l.19.06c1.09-2,2.33-3.45,5.31-3.45,3.13,0,5.15,2.11,5.15,5.79,0,6.08-3.2,10.85-8.16,10.85a4.61,4.61,0,0,1-3.81-1.8l-.09,0c.06.7.22,2.27.22,3,0,4.07-1,6.47-3.29,6.47a6.21,6.21,0,0,1-4.55-1.83c2.5-3.45,3.36-12.06,3.36-15.2,0-1.56-.45-4-1.28-4.6a5,5,0,0,1,4.9-2.69C300.53,134.54,301.36,135.18,301.36,136.55Zm3.78,2.08c-1.41,0-3,1.73-4.58,7.55a2.87,2.87,0,0,0,2,1.06c1.82,0,3-4,3-6.62A3.73,3.73,0,0,0,305.14,138.63Z"/><path d="M320,151.18c-4.1,0-7.3-2.08-7.3-7.43,0-7.36,5.54-9.21,9.12-9.21,2.72,0,5.73.67,5.73,4,0,4.12-5.15,5.34-8.58,6a5.08,5.08,0,0,0,1,3,14.18,14.18,0,0,0,4.13-2.88A2.69,2.69,0,0,1,326,147.4C326,149.7,322.93,151.18,320,151.18Zm-1.09-9.35c1.92-.25,3-1.21,3-2.65a1.6,1.6,0,0,0-.67-1.41C320.37,138,319.09,138.83,318.9,141.83Z"/><path d="M350.35,137.23a5.72,5.72,0,0,1-.06.67h.13a5.34,5.34,0,0,1,4.64-3.36,4.25,4.25,0,0,1,4.25,2.78,30.78,30.78,0,0,0-1.79,8.93,2.6,2.6,0,0,0,1.28,2.3,5.57,5.57,0,0,1-4.48,2.63c-2.27,0-3.07-1.06-3.07-3.11s.9-5.44,1.79-8.7l-.25-.1c-1.28.2-2.15,1.38-2.76,3.2-.89,2.56-.92,6.72-.92,8.48a27.12,27.12,0,0,1-3.2.23c-2,0-2.79-.61-2.79-2.4,0-2,1.28-6,2.12-9.44l-.23-.1c-1.28,0-2.37,1.38-2.88,3.36a28,28,0,0,0-.89,8.35,25.15,25.15,0,0,1-3,.23c-2.43,0-3.14-1.32-3.14-2.85,0-2.37,1.35-4.58,1.35-6.75a8.82,8.82,0,0,0-1.38-4.42c.86-1.85,3-2.62,4.9-2.62a1.83,1.83,0,0,1,2.08,2,6.24,6.24,0,0,1-.36,1.95h.16c1.54-3.23,3.36-3.9,4.9-3.9C348,134.54,350.35,134.6,350.35,137.23Z"/><path d="M368,137.07c0,1.72-.77,4-1.22,6.14a16.35,16.35,0,0,0-.38,3.1,3.45,3.45,0,0,0,1.34,2.79,6.32,6.32,0,0,1-4.61,2.08c-2.65,0-2.81-2.28-2.81-3.2a25.93,25.93,0,0,1,.73-4.83,27.57,27.57,0,0,0,.83-4.42,3.11,3.11,0,0,0-.92-2.34A5.24,5.24,0,0,1,365,134.7C367.06,134.7,368,135.75,368,137.07Zm-2.31-9.83c2,0,3.39,1.15,3.39,2.85S367.28,133,365.4,133s-3.43-1.21-3.43-2.68C362,128.43,363.64,127.24,365.65,127.24Z"/><path d="M385,141.45c-.26,3-.26,6.81-1.06,9.89-1.63,6.46-6.3,7.52-10.08,7.52-3.26,0-5.44-1-5.44-3.46s2.66-3.36,4.19-3.62a5.54,5.54,0,0,0,2,3.36c1.34-.51,4.22-1.66,4.93-8.06l-.13-.06c-1.57,3-3.58,3.71-5.28,3.71-1.28,0-5-.55-5-6,0-7.94,5.18-10.21,8.35-10.21a7.23,7.23,0,0,1,4.22,1.37,7.11,7.11,0,0,1,3.43-.6,8.71,8.71,0,0,1,.92.06A38.8,38.8,0,0,0,385,141.45Zm-9.25,5.21c1.22-.28,1.95-1.34,2.72-3a18.18,18.18,0,0,0,1.31-4.83,3.66,3.66,0,0,0-2-.61c-1.16,0-2.4,2.11-2.4,5.82A7.07,7.07,0,0,0,375.73,146.66Z"/><path d="M408.75,137.23a5.72,5.72,0,0,1-.06.67h.13a5.34,5.34,0,0,1,4.64-3.36,4.27,4.27,0,0,1,4.25,2.78,30.78,30.78,0,0,0-1.79,8.93,2.6,2.6,0,0,0,1.28,2.3,5.59,5.59,0,0,1-4.48,2.63c-2.27,0-3.07-1.06-3.07-3.11s.89-5.44,1.79-8.7l-.26-.1c-1.27.2-2.14,1.38-2.75,3.2-.89,2.56-.93,6.72-.93,8.48a26.86,26.86,0,0,1-3.19.23c-2,0-2.79-.61-2.79-2.4,0-2,1.28-6,2.11-9.44l-.22-.1c-1.28,0-2.37,1.38-2.88,3.36a27.63,27.63,0,0,0-.9,8.35,24.9,24.9,0,0,1-3,.23c-2.44,0-3.14-1.32-3.14-2.85,0-2.37,1.34-4.58,1.34-6.75a8.8,8.8,0,0,0-1.37-4.42c.86-1.85,3-2.62,4.89-2.62a1.83,1.83,0,0,1,2.08,2,6.19,6.19,0,0,1-.35,1.95h.16c1.54-3.23,3.36-3.9,4.9-3.9C406.38,134.54,408.75,134.6,408.75,137.23Z"/><path d="M425.81,151.18c-4.1,0-7.3-2.08-7.3-7.43,0-7.36,5.54-9.21,9.12-9.21,2.72,0,5.73.67,5.73,4,0,4.12-5.15,5.34-8.57,6a5,5,0,0,0,1,3,14.18,14.18,0,0,0,4.13-2.88,2.69,2.69,0,0,1,1.88,2.78C431.79,149.7,428.75,151.18,425.81,151.18Zm-1.09-9.35c1.92-.25,3-1.21,3-2.65a1.62,1.62,0,0,0-.67-1.41C426.19,138,424.91,138.83,424.72,141.83Z"/><path d="M450.38,136.39a55.81,55.81,0,0,0-1.08,9.35,5.44,5.44,0,0,0,1.18,3.55,6.62,6.62,0,0,1-4.38,1.76c-1,0-1.86-.16-1.86-1.76a12.13,12.13,0,0,1,.35-2.53l-.29,0c-1.47,3.68-3.48,4.45-4.92,4.45-1.83,0-5.54-1-5.54-6.24,0-8.58,5.41-10.21,7.78-10.21a5.22,5.22,0,0,1,3.42,1.34,29.17,29.17,0,0,0,.19-3.16,3.78,3.78,0,0,0-1.05-2.88,5.65,5.65,0,0,1,4.19-1.57c1.34,0,2.88.41,2.88,2.72C451.25,132.14,450.7,134.54,450.38,136.39ZM440,144.9a5.59,5.59,0,0,0,.35,2.31c1.28-.39,3.36-2.14,4.09-8.26a3.35,3.35,0,0,0-1.95-.57C441,138.38,440,141.77,440,144.9Z"/><path d="M470.45,135.91a6.37,6.37,0,0,1,3.26-.6,6.83,6.83,0,0,1,1.09.06,50.22,50.22,0,0,0-1.28,10.3,5.51,5.51,0,0,0,1.15,3.62,6.35,6.35,0,0,1-4.48,1.76c-1.37,0-1.76-.58-1.76-1.83a12.42,12.42,0,0,1,.35-2.46l-.28,0c-1.44,3.61-3.08,4.45-5.12,4.45s-5.41-1.12-5.41-6.56c0-7.55,5.28-10.08,8.51-10.08A5.76,5.76,0,0,1,470.45,135.91Zm-6.27,8.68a5.6,5.6,0,0,0,.38,2.55c.77,0,1.76-.86,2.69-3.13a25.53,25.53,0,0,0,1.31-5.31,3.14,3.14,0,0,0-1.82-.48C465.39,138.22,464.18,141.58,464.18,144.59Z"/><path d="M478,138.73a13.72,13.72,0,0,0-2.14.13c0-1.57.09-3.68,1.56-3.68l1.25,0c0-.8-.09-2.72-.64-3.39a9.74,9.74,0,0,1,4.48-1.38c1.47,0,1.86,1,1.86,2.11a18.3,18.3,0,0,1-.29,2.69,9.55,9.55,0,0,0,2.37-.35,5.54,5.54,0,0,1,.51,2.27c0,1.67-1.92,1.73-3.42,1.73-.74,3.49-1.48,6-1.48,7,0,.61.16.93.36,1.06a3.88,3.88,0,0,0,2.27-1.76,2.69,2.69,0,0,1,1.41,2.33c0,2.3-2.76,3.49-5.22,3.49-3.36,0-4.51-1.35-4.51-3.68C476.37,145.74,477.14,143.43,478,138.73Z"/><path d="M504.65,131.82c-.8.67-1.4,2.3-1.66,4.89a10,10,0,0,0,3.07-.32,5.61,5.61,0,0,1,.61,2.37c0,2-2,2.11-4.09,2.11-1.51,14.59-4.8,18-9,18-2.52,0-3.74-1.12-3.74-2.72a6.85,6.85,0,0,1,.48-2.18,5.27,5.27,0,0,0,1.31.22c2.21,0,3.2-2.78,3.71-4.6a57,57,0,0,0,1.44-9c-.7,0-1.72.13-2.49.25,0-2.52.35-4.25,2.21-4.25h.76c.2-1.12.26-2.34.52-3.27.92-3.32,3.23-4.86,7.58-4.86,2.65,0,5.18,1,5.18,3.26,0,2.79-3.77,3.27-3.77,3.27S506.64,132.3,504.65,131.82Z"/><path d="M519.18,135.91a6.41,6.41,0,0,1,3.27-.6,6.7,6.7,0,0,1,1.08.06,50.22,50.22,0,0,0-1.28,10.3,5.52,5.52,0,0,0,1.16,3.62,6.37,6.37,0,0,1-4.48,1.76c-1.38,0-1.76-.58-1.76-1.83a12.42,12.42,0,0,1,.35-2.46l-.29,0c-1.44,3.61-3.07,4.45-5.12,4.45s-5.41-1.12-5.41-6.56c0-7.55,5.28-10.08,8.51-10.08A5.73,5.73,0,0,1,519.18,135.91Zm-6.27,8.68a5.76,5.76,0,0,0,.38,2.55c.77,0,1.76-.86,2.69-3.13a24.92,24.92,0,0,0,1.31-5.31,3.14,3.14,0,0,0-1.82-.48C514.13,138.22,512.91,141.58,512.91,144.59Zm5.34-19.91c2.76,0,4,1.47,4,3.52,0,3.07-2.75,4.71-5.16,4.71s-4-1.12-4-3.59C513.1,126.57,515.7,124.68,518.25,124.68Zm-.7,5.38a1.4,1.4,0,0,0,1.41-1.38,1,1,0,0,0-1.12-1.12,1.37,1.37,0,0,0-1.41,1.41A1,1,0,0,0,517.55,130.06Z"/><path d="M546.61,137.23a5.88,5.88,0,0,1-.07.67h.13a5.34,5.34,0,0,1,4.64-3.36,4.25,4.25,0,0,1,4.25,2.78,30.78,30.78,0,0,0-1.79,8.93,2.6,2.6,0,0,0,1.28,2.3,5.57,5.57,0,0,1-4.48,2.63c-2.27,0-3.07-1.06-3.07-3.11s.9-5.44,1.79-8.7l-.25-.1c-1.28.2-2.15,1.38-2.75,3.2-.9,2.56-.93,6.72-.93,8.48a27.12,27.12,0,0,1-3.2.23c-2,0-2.79-.61-2.79-2.4,0-2,1.28-6,2.12-9.44l-.23-.1c-1.28,0-2.37,1.38-2.88,3.36a28,28,0,0,0-.89,8.35,25.15,25.15,0,0,1-3,.23c-2.43,0-3.14-1.32-3.14-2.85,0-2.37,1.35-4.58,1.35-6.75a8.82,8.82,0,0,0-1.38-4.42c.86-1.85,3-2.62,4.9-2.62a1.83,1.83,0,0,1,2.08,2,6.24,6.24,0,0,1-.36,1.95h.16c1.54-3.23,3.36-3.9,4.9-3.9C544.24,134.54,546.61,134.6,546.61,137.23Z"/><path d="M564.21,137.07c0,1.72-.77,4-1.22,6.14a16.35,16.35,0,0,0-.38,3.1A3.45,3.45,0,0,0,564,149.1a6.32,6.32,0,0,1-4.61,2.08c-2.65,0-2.81-2.28-2.81-3.2a25.93,25.93,0,0,1,.73-4.83,27.57,27.57,0,0,0,.83-4.42,3.11,3.11,0,0,0-.92-2.34,5.24,5.24,0,0,1,4.09-1.69C563.31,134.7,564.21,135.75,564.21,137.07Zm-2.31-9.83c2,0,3.39,1.15,3.39,2.85s-1.76,2.94-3.64,2.94-3.43-1.21-3.43-2.68C558.22,128.43,559.89,127.24,561.9,127.24Z"/><path d="M570.64,134.54a1.86,1.86,0,0,1,2.05,2.11,15.36,15.36,0,0,1-.23,1.79h.16a6.07,6.07,0,0,1,5.6-3.9,4.33,4.33,0,0,1,4.35,2.78,33.21,33.21,0,0,0-1.79,8.74,2.85,2.85,0,0,0,1.28,2.49,5.28,5.28,0,0,1-4.67,2.63c-2.31,0-2.88-1.51-2.88-3.11,0-2,.93-5.44,1.79-8.7l-.22-.1c-1.25,0-2.75,1.48-3.36,3.56a34,34,0,0,0-.87,8.12,23.3,23.3,0,0,1-2.91.23c-2.33,0-3.23-1.12-3.23-2.66,0-2.59,1.34-4.7,1.34-6.91a8.75,8.75,0,0,0-1.37-4.45C566.57,135.24,568.75,134.54,570.64,134.54Z"/><path d="M590.67,151.18c-4.1,0-7.3-2.08-7.3-7.43,0-7.36,5.54-9.21,9.12-9.21,2.72,0,5.73.67,5.73,4,0,4.12-5.15,5.34-8.57,6a5,5,0,0,0,1,3,14.23,14.23,0,0,0,4.12-2.88,2.69,2.69,0,0,1,1.89,2.78C596.65,149.7,593.61,151.18,590.67,151.18Zm-1.09-9.35c1.92-.25,3-1.21,3-2.65a1.61,1.61,0,0,0-.68-1.41C591.05,138,589.77,138.83,589.58,141.83Z"/><path d="M619.47,137.48c0,2.15-3.1,3-3.1,3-.58-1.92-1.57-2.85-2.5-3.11a1.47,1.47,0,0,0-1.12,1.41c0,.83,1.06,1.47,2,2,1.85,1.05,4,2.2,4,4.92,0,3.39-3.2,5.51-7.81,5.51-4.19,0-5.73-1.67-5.73-3.36,0-2.47,3.07-3.59,3.07-3.59a19.06,19.06,0,0,0,2.95,4.19,2.09,2.09,0,0,0,1.57-1.79c0-1.18-1.41-1.79-2.6-2.52-2.14-1.32-3.61-2.6-3.61-4.74,0-3.55,4.09-4.83,7.68-4.83C616.11,134.54,619.47,134.79,619.47,137.48Z"/><path d="M622.73,138.73a13.72,13.72,0,0,0-2.14.13c0-1.57.1-3.68,1.57-3.68l1.25,0c0-.8-.1-2.72-.64-3.39a9.7,9.7,0,0,1,4.48-1.38c1.47,0,1.85,1,1.85,2.11a18.3,18.3,0,0,1-.29,2.69,9.48,9.48,0,0,0,2.37-.35,5.38,5.38,0,0,1,.51,2.27c0,1.67-1.92,1.73-3.42,1.73-.74,3.49-1.47,6-1.47,7,0,.61.16.93.35,1.06a3.88,3.88,0,0,0,2.27-1.76,2.69,2.69,0,0,1,1.41,2.33c0,2.3-2.75,3.49-5.22,3.49-3.36,0-4.51-1.35-4.51-3.68C621.1,145.74,621.87,143.43,622.73,138.73Z"/><path d="M642.16,139.43c-2.34.87-3.2,6-3.2,10,0,.26,0,.54.06,1.47a23.13,23.13,0,0,1-2.94.23c-2,0-3.39-.61-3.39-2.6,0-2.88,1.34-4.64,1.34-7.1a8.13,8.13,0,0,0-1.38-4.29c.55-1.4,2.56-2.65,4.84-2.65,1.28,0,2.11.54,2.11,2.24a14.34,14.34,0,0,1-.13,1.63h.19c1-3,2.63-3.87,4.61-3.87a3.52,3.52,0,0,1,3.68,3.74c0,2.08-1.12,4.64-5.22,4.64A7.43,7.43,0,0,0,642.16,139.43Z"/><path d="M656.27,137.07c0,1.72-.77,4-1.22,6.14a16.35,16.35,0,0,0-.38,3.1A3.45,3.45,0,0,0,656,149.1a6.29,6.29,0,0,1-4.6,2.08c-2.66,0-2.82-2.28-2.82-3.2a25.22,25.22,0,0,1,.74-4.83,27.57,27.57,0,0,0,.83-4.42,3.13,3.13,0,0,0-.93-2.34,5.27,5.27,0,0,1,4.1-1.69C655.37,134.7,656.27,135.75,656.27,137.07Zm-2.3-9.83c2,0,3.39,1.15,3.39,2.85S655.6,133,653.71,133s-3.42-1.21-3.42-2.68C650.29,128.43,652,127.24,654,127.24Z"/><path d="M665.87,131.21a18,18,0,0,1-1.18,5.92l.19.06a6,6,0,0,1,5.15-2.65c3.42,0,4.93,2.85,4.93,5.79,0,5.47-2.79,10.85-8.19,10.85a4.67,4.67,0,0,1-3.88-2.08l-.09.06-.13,1.82s-1.57.2-2.4.2c-2.11,0-3-.71-3-1.7a17.94,17.94,0,0,1,.83-4.1,38.14,38.14,0,0,0,1.64-10.68c0-1.54-.42-3.49-1.35-4.13a5.69,5.69,0,0,1,4.67-2.11C665.07,128.46,665.87,129.55,665.87,131.21Zm-2,15a2.55,2.55,0,0,0,2,1.06c1.47,0,2.94-3.36,2.94-6.69a3.58,3.58,0,0,0-.41-1.92C666.67,138.73,665.26,140.87,663.82,146.18Z"/><path d="M683.21,151.18c-4.09,0-7.29-2.08-7.29-7.43,0-7.36,5.53-9.21,9.12-9.21,2.72,0,5.73.67,5.73,4,0,4.12-5.16,5.34-8.58,6a5,5,0,0,0,1,3,14.18,14.18,0,0,0,4.13-2.88,2.69,2.69,0,0,1,1.89,2.78C689.2,149.7,686.16,151.18,683.21,151.18Zm-1.08-9.35c1.92-.25,3-1.21,3-2.65a1.6,1.6,0,0,0-.67-1.41C683.6,138,682.32,138.83,682.13,141.83Z"/><path d="M701.39,139.43c-2.34.87-3.2,6-3.2,10,0,.26,0,.54.06,1.47a23.13,23.13,0,0,1-2.94.23c-2,0-3.39-.61-3.39-2.6,0-2.88,1.34-4.64,1.34-7.1a8.11,8.11,0,0,0-1.37-4.29c.54-1.4,2.56-2.65,4.83-2.65,1.28,0,2.11.54,2.11,2.24a12.36,12.36,0,0,1-.13,1.63h.19c1-3,2.63-3.87,4.61-3.87a3.52,3.52,0,0,1,3.68,3.74c0,2.08-1.12,4.64-5.21,4.64A7.44,7.44,0,0,0,701.39,139.43Z"/><path d="M153.24,187.07c0,1.72-.77,4-1.22,6.14a16.35,16.35,0,0,0-.38,3.1A3.45,3.45,0,0,0,153,199.1a6.3,6.3,0,0,1-4.61,2.08c-2.65,0-2.81-2.28-2.81-3.2a25.93,25.93,0,0,1,.73-4.83,26.66,26.66,0,0,0,.84-4.42,3.13,3.13,0,0,0-.93-2.34,5.24,5.24,0,0,1,4.09-1.69C152.34,184.7,153.24,185.75,153.24,187.07Zm-2.31-9.83c2,0,3.4,1.15,3.4,2.85s-1.76,2.94-3.65,2.94-3.43-1.21-3.43-2.68C147.25,178.43,148.92,177.24,150.93,177.24Z"/><path d="M170.26,191.45c-.26,3-.26,6.81-1.06,9.89-1.63,6.46-6.3,7.52-10.07,7.52-3.27,0-5.44-1-5.44-3.46s2.65-3.36,4.19-3.62a5.49,5.49,0,0,0,2,3.36c1.35-.51,4.23-1.66,4.93-8.06l-.13-.06c-1.57,3-3.58,3.71-5.28,3.71-1.28,0-5-.55-5-6,0-7.94,5.18-10.21,8.35-10.21a7.23,7.23,0,0,1,4.22,1.37,7.11,7.11,0,0,1,3.43-.6,9.09,9.09,0,0,1,.93.06A39.51,39.51,0,0,0,170.26,191.45ZM161,196.66c1.22-.28,2-1.34,2.72-3a17.46,17.46,0,0,0,1.31-4.83,3.63,3.63,0,0,0-2-.61c-1.15,0-2.4,2.11-2.4,5.82A7.29,7.29,0,0,0,161,196.66Z"/><path d="M179.32,201.18c-4.1,0-7.3-2.08-7.3-7.43,0-7.36,5.54-9.21,9.12-9.21,2.72,0,5.73.67,5.73,4,0,4.12-5.15,5.34-8.58,6a5,5,0,0,0,1,3,14.23,14.23,0,0,0,4.12-2.88,2.69,2.69,0,0,1,1.89,2.78C185.3,199.7,182.26,201.18,179.32,201.18Zm-1.09-9.35c1.92-.25,3-1.21,3-2.65a1.6,1.6,0,0,0-.67-1.41C179.7,188,178.42,188.83,178.23,191.83Z"/><path d="M193,184.54a1.86,1.86,0,0,1,2.05,2.11,15.36,15.36,0,0,1-.23,1.79h.16a6.07,6.07,0,0,1,5.6-3.9,4.32,4.32,0,0,1,4.35,2.78,33.21,33.21,0,0,0-1.79,8.74,2.85,2.85,0,0,0,1.28,2.49,5.28,5.28,0,0,1-4.67,2.63c-2.3,0-2.88-1.51-2.88-3.11,0-2,.93-5.44,1.79-8.7l-.22-.1c-1.25,0-2.75,1.48-3.36,3.56a34,34,0,0,0-.86,8.12,23.55,23.55,0,0,1-2.92.23c-2.33,0-3.23-1.12-3.23-2.66,0-2.59,1.35-4.7,1.35-6.91a8.68,8.68,0,0,0-1.38-4.45C188.89,185.24,191.06,184.54,193,184.54Z"/><path d="M212.37,187.29c1.31-.93,2.5-1.95,2.5-3.65a2.54,2.54,0,0,0-.61-1.79c-1.63,0-3.3,1.57-3.58,3.84a6.27,6.27,0,0,1-1.38.13c-1.6,0-3.13-.58-3.13-2.24,0-3.43,4.12-4.64,8.35-4.64,1.31,0,6.24.29,6.24,4.38,0,2.56-1.8,4-3.59,5.12s-3.74,1.89-3.74,3.17a1.85,1.85,0,0,0,.8,1.44,4.55,4.55,0,0,1-3,1.41,2.6,2.6,0,0,1-2.62-2.56C208.63,189.63,210.64,188.54,212.37,187.29Zm-.16,8.16A2.52,2.52,0,0,1,215,198a3.16,3.16,0,0,1-3.39,3.23,2.57,2.57,0,0,1-2.75-2.59A3.21,3.21,0,0,1,212.21,195.45Z"/><path d="M145.22,239.28c0-2.33,3.93-4.7,10.59-4.7s9.34,4.22,9.34,9.31c0,7.13-4.57,12.93-13,12.93a18.9,18.9,0,0,1-7.58-1.6c1.47-2.63,3.55-9.38,4.41-14.79a9.89,9.89,0,0,0-2.33,1.64A3.69,3.69,0,0,1,145.22,239.28Zm7.52,12.9c3.68,0,6.27-3.3,6.27-8.71,0-2.72-1.09-4.48-3.71-4.48a11.24,11.24,0,0,0-1.16,0,77.34,77.34,0,0,1-2.56,13A4.1,4.1,0,0,0,152.74,252.18Z"/><path d="M173.41,256.82c-4.1,0-7.3-2.08-7.3-7.43,0-7.36,5.54-9.21,9.12-9.21,2.72,0,5.73.67,5.73,4,0,4.12-5.15,5.34-8.58,5.95a5,5,0,0,0,1,3,14.23,14.23,0,0,0,4.12-2.88,2.68,2.68,0,0,1,1.89,2.78C179.39,255.34,176.35,256.82,173.41,256.82Zm-1.09-9.35c1.92-.25,3-1.21,3-2.65a1.6,1.6,0,0,0-.67-1.41C173.79,243.67,172.51,244.47,172.32,247.47Z"/><path d="M200.64,241.55a6.37,6.37,0,0,1,3.26-.6A6.83,6.83,0,0,1,205,241a50.22,50.22,0,0,0-1.28,10.3,5.51,5.51,0,0,0,1.15,3.62,6.35,6.35,0,0,1-4.48,1.76c-1.37,0-1.76-.58-1.76-1.83a11.79,11.79,0,0,1,.36-2.46l-.29,0c-1.44,3.61-3.07,4.45-5.12,4.45s-5.41-1.12-5.41-6.56c0-7.55,5.28-10.08,8.51-10.08A5.76,5.76,0,0,1,200.64,241.55Zm-6.27,8.67a5.7,5.7,0,0,0,.38,2.56c.77,0,1.76-.86,2.69-3.13a24.92,24.92,0,0,0,1.31-5.31,3.14,3.14,0,0,0-1.82-.48C195.58,243.86,194.37,247.22,194.37,250.22Z"/><path d="M211.17,240.18a1.85,1.85,0,0,1,2,2.11,14.75,14.75,0,0,1-.22,1.79h.16a6.07,6.07,0,0,1,5.6-3.9A4.33,4.33,0,0,1,223.1,243a33.21,33.21,0,0,0-1.79,8.74,2.85,2.85,0,0,0,1.28,2.49,5.28,5.28,0,0,1-4.67,2.63c-2.31,0-2.88-1.51-2.88-3.11,0-2,.93-5.44,1.79-8.7l-.22-.1c-1.25,0-2.76,1.47-3.36,3.56a34,34,0,0,0-.87,8.12,23.43,23.43,0,0,1-2.91.23c-2.33,0-3.23-1.12-3.23-2.66,0-2.59,1.34-4.7,1.34-6.91a8.75,8.75,0,0,0-1.37-4.45C207.1,240.88,209.28,240.18,211.17,240.18Z"/><path d="M240.45,242a54.84,54.84,0,0,0-1.09,9.35,5.44,5.44,0,0,0,1.18,3.55,6.62,6.62,0,0,1-4.38,1.76c-1,0-1.86-.16-1.86-1.76a12.13,12.13,0,0,1,.35-2.53l-.28,0c-1.48,3.68-3.49,4.45-4.93,4.45-1.83,0-5.54-1-5.54-6.24,0-8.58,5.41-10.21,7.78-10.21a5.22,5.22,0,0,1,3.42,1.34,29.17,29.17,0,0,0,.19-3.16,3.78,3.78,0,0,0-1-2.88,5.65,5.65,0,0,1,4.19-1.57c1.34,0,2.88.41,2.88,2.72C241.31,237.78,240.77,240.18,240.45,242Zm-10.37,8.51a5.62,5.62,0,0,0,.35,2.31c1.28-.39,3.36-2.15,4.1-8.26a3.38,3.38,0,0,0-2-.57C231.1,244,230.08,247.41,230.08,250.54Z"/><path d="M251.45,245.07c-2.33.87-3.2,6-3.2,10.05,0,.26,0,.54.07,1.47a23.31,23.31,0,0,1-2.95.23c-2,0-3.39-.61-3.39-2.6,0-2.88,1.35-4.64,1.35-7.1a8.13,8.13,0,0,0-1.38-4.29c.54-1.4,2.56-2.65,4.83-2.65,1.28,0,2.11.54,2.11,2.24a14.36,14.36,0,0,1-.12,1.63H249c1-3,2.62-3.87,4.61-3.87a3.53,3.53,0,0,1,3.68,3.74c0,2.08-1.13,4.64-5.22,4.64A7.31,7.31,0,0,0,251.45,245.07Z"/><path d="M265,256.82c-4.09,0-7.29-2.08-7.29-7.43,0-7.36,5.53-9.21,9.12-9.21,2.72,0,5.72.67,5.72,4,0,4.12-5.15,5.34-8.57,5.95a5,5,0,0,0,1,3,14.18,14.18,0,0,0,4.13-2.88A2.67,2.67,0,0,1,271,253C271,255.34,268,256.82,265,256.82Zm-1.09-9.35c1.92-.25,3-1.21,3-2.65a1.62,1.62,0,0,0-.67-1.41C265.41,243.67,264.13,244.47,263.93,247.47Z"/><path d="M296.32,242a54.84,54.84,0,0,0-1.09,9.35,5.5,5.5,0,0,0,1.18,3.55,6.59,6.59,0,0,1-4.38,1.76c-1,0-1.86-.16-1.86-1.76a11.58,11.58,0,0,1,.36-2.53l-.29,0c-1.47,3.68-3.49,4.45-4.93,4.45-1.82,0-5.54-1-5.54-6.24,0-8.58,5.41-10.21,7.78-10.21a5.22,5.22,0,0,1,3.42,1.34,29.39,29.39,0,0,0,.2-3.16,3.76,3.76,0,0,0-1.06-2.88,5.65,5.65,0,0,1,4.19-1.57c1.35,0,2.88.41,2.88,2.72C297.18,237.78,296.64,240.18,296.32,242ZM286,250.54a5.62,5.62,0,0,0,.35,2.31c1.28-.39,3.36-2.15,4.1-8.26a3.35,3.35,0,0,0-1.95-.57C287,244,286,247.41,286,250.54Z"/><path d="M302.14,260.78c2-.64,4.29-2.49,5-7.23l-.13-.09a5.52,5.52,0,0,1-4.83,2.43,4.5,4.5,0,0,1-4.48-2.79,27.49,27.49,0,0,0,1.6-7.74,3,3,0,0,0-1.28-2.56,5.26,5.26,0,0,1,4.67-2.62c2.17,0,2.88,1.28,2.88,3a30.06,30.06,0,0,1-1.63,7.9,1.22,1.22,0,0,0,.73.19c.87,0,2.15-.67,2.88-2.88.9-2.65.9-7,.9-8a24.81,24.81,0,0,1,3.13-.25,2.6,2.6,0,0,1,2.79,2.88c0,1.76-1.19,3.93-1.54,6.14-.45,2.72-.41,4.13-.77,6.69-.86,6.27-5.6,8.61-10.62,8.61-2.53,0-5.54-.9-5.54-3.43,0-3.29,4.2-3.65,4.2-3.65A5.53,5.53,0,0,0,302.14,260.78Z"/><path d="M324.86,245.07c-2.33.87-3.2,6-3.2,10.05,0,.26,0,.54.07,1.47a23.31,23.31,0,0,1-3,.23c-2,0-3.39-.61-3.39-2.6,0-2.88,1.34-4.64,1.34-7.1a8.11,8.11,0,0,0-1.37-4.29c.54-1.4,2.56-2.65,4.83-2.65,1.28,0,2.11.54,2.11,2.24a12.36,12.36,0,0,1-.13,1.63h.2c1-3,2.62-3.87,4.6-3.87a3.52,3.52,0,0,1,3.68,3.74c0,2.08-1.12,4.64-5.21,4.64A7.31,7.31,0,0,0,324.86,245.07Z"/><path d="M345.25,242.19a5.09,5.09,0,0,1-.29,1.38l.19.06c1.09-1.95,2.34-3.45,5.31-3.45,3.14,0,5.15,2.11,5.15,5.79,0,6.08-3.2,10.85-8.16,10.85a4.58,4.58,0,0,1-3.8-1.8l-.1,0c.06.7.22,2.27.22,3,0,4.07-1,6.47-3.29,6.47a6.23,6.23,0,0,1-4.55-1.83c2.5-3.45,3.36-12.06,3.36-15.2,0-1.57-.44-4-1.28-4.6a5.05,5.05,0,0,1,4.9-2.69C344.41,240.18,345.25,240.82,345.25,242.19Zm3.77,2.08c-1.41,0-3,1.73-4.57,7.55a2.83,2.83,0,0,0,2,1.06c1.82,0,3-4,3-6.62A3.65,3.65,0,0,0,349,244.27Z"/><path d="M368.89,241.55a6.41,6.41,0,0,1,3.27-.6,6.7,6.7,0,0,1,1.08.06,50.22,50.22,0,0,0-1.28,10.3,5.52,5.52,0,0,0,1.16,3.62,6.37,6.37,0,0,1-4.48,1.76c-1.38,0-1.76-.58-1.76-1.83a12.42,12.42,0,0,1,.35-2.46l-.29,0c-1.44,3.61-3.07,4.45-5.12,4.45s-5.41-1.12-5.41-6.56c0-7.55,5.28-10.08,8.51-10.08A5.73,5.73,0,0,1,368.89,241.55Zm-6.27,8.67a5.86,5.86,0,0,0,.38,2.56c.77,0,1.76-.86,2.69-3.13a24.92,24.92,0,0,0,1.31-5.31,3.14,3.14,0,0,0-1.82-.48C363.84,243.86,362.62,247.22,362.62,250.22Zm5.34-19.9c2.76,0,4,1.47,4,3.52,0,3.07-2.75,4.71-5.16,4.71s-4-1.12-4-3.59C362.81,232.21,365.41,230.32,368,230.32Zm-.7,5.38a1.4,1.4,0,0,0,1.41-1.38,1,1,0,0,0-1.12-1.12,1.37,1.37,0,0,0-1.41,1.41A1,1,0,0,0,367.26,235.7Z"/><path d="M394.75,243.12c0,2.15-3.11,2.95-3.11,2.95-.57-1.92-1.56-2.85-2.49-3.11a1.47,1.47,0,0,0-1.12,1.41c0,.83,1.05,1.47,2,2,1.86,1.06,4,2.21,4,4.93,0,3.39-3.2,5.51-7.81,5.51-4.19,0-5.73-1.67-5.73-3.36,0-2.47,3.07-3.59,3.07-3.59a18.72,18.72,0,0,0,2.95,4.19,2.1,2.1,0,0,0,1.56-1.79c0-1.18-1.4-1.79-2.59-2.53-2.14-1.31-3.61-2.59-3.61-4.73,0-3.55,4.09-4.83,7.68-4.83C391.39,240.18,394.75,240.43,394.75,243.12Z"/><path d="M408.19,241.55a6.37,6.37,0,0,1,3.26-.6,6.83,6.83,0,0,1,1.09.06,50.22,50.22,0,0,0-1.28,10.3,5.51,5.51,0,0,0,1.15,3.62,6.35,6.35,0,0,1-4.48,1.76c-1.37,0-1.76-.58-1.76-1.83a12.42,12.42,0,0,1,.35-2.46l-.28,0c-1.44,3.61-3.08,4.45-5.12,4.45s-5.41-1.12-5.41-6.56c0-7.55,5.28-10.08,8.51-10.08A5.76,5.76,0,0,1,408.19,241.55Zm-6.27,8.67a5.7,5.7,0,0,0,.38,2.56c.77,0,1.76-.86,2.69-3.13a25.53,25.53,0,0,0,1.31-5.31,3.14,3.14,0,0,0-1.82-.48C403.13,243.86,401.92,247.22,401.92,250.22Z"/><path d="M421.92,246.86a14.87,14.87,0,0,1-.87,5.16l.19.16a9.62,9.62,0,0,0,3.65-7,4.79,4.79,0,0,0-1.06-3,4.66,4.66,0,0,1,3.84-2c1.32,0,3.17.45,3.17,3.52,0,5.56-6.21,13.12-11.2,13.12a6.09,6.09,0,0,1-4.06-1.73,29.66,29.66,0,0,0,.54-5.38c0-3-.54-5.69-2.68-6.88a4.74,4.74,0,0,1,4.28-2.65C421,240.18,421.92,243.38,421.92,246.86Z"/><path d="M443.8,241.55a6.41,6.41,0,0,1,3.27-.6,6.7,6.7,0,0,1,1.08.06,50.22,50.22,0,0,0-1.28,10.3,5.52,5.52,0,0,0,1.16,3.62,6.37,6.37,0,0,1-4.48,1.76c-1.38,0-1.76-.58-1.76-1.83a12.42,12.42,0,0,1,.35-2.46l-.29,0c-1.44,3.61-3.07,4.45-5.12,4.45s-5.41-1.12-5.41-6.56c0-7.55,5.28-10.08,8.51-10.08A5.73,5.73,0,0,1,443.8,241.55Zm-6.27,8.67a5.48,5.48,0,0,0,.39,2.56c.76,0,1.75-.86,2.68-3.13a25.48,25.48,0,0,0,1.32-5.31,3.2,3.2,0,0,0-1.83-.48C438.75,243.86,437.53,247.22,437.53,250.22Z"/><path d="M454.33,240.18a1.86,1.86,0,0,1,2.05,2.11,15.36,15.36,0,0,1-.23,1.79h.16a6.07,6.07,0,0,1,5.6-3.9,4.34,4.34,0,0,1,4.36,2.78,33.2,33.2,0,0,0-1.8,8.74,2.87,2.87,0,0,0,1.28,2.49,5.28,5.28,0,0,1-4.67,2.63c-2.3,0-2.88-1.51-2.88-3.11,0-2,.93-5.44,1.79-8.7l-.22-.1c-1.25,0-2.75,1.47-3.36,3.56a34,34,0,0,0-.86,8.12,23.55,23.55,0,0,1-2.92.23c-2.33,0-3.23-1.12-3.23-2.66,0-2.59,1.35-4.7,1.35-6.91a8.68,8.68,0,0,0-1.38-4.45C450.27,240.88,452.44,240.18,454.33,240.18Z"/><path d="M472.35,240.18a1.85,1.85,0,0,1,2,2.11,14.75,14.75,0,0,1-.22,1.79h.16a6.07,6.07,0,0,1,5.6-3.9,4.33,4.33,0,0,1,4.35,2.78,33.21,33.21,0,0,0-1.79,8.74,2.85,2.85,0,0,0,1.28,2.49,5.28,5.28,0,0,1-4.67,2.63c-2.31,0-2.88-1.51-2.88-3.11,0-2,.93-5.44,1.79-8.7l-.22-.1c-1.25,0-2.76,1.47-3.36,3.56a34,34,0,0,0-.87,8.12,23.43,23.43,0,0,1-2.91.23c-2.34,0-3.23-1.12-3.23-2.66,0-2.59,1.34-4.7,1.34-6.91a8.75,8.75,0,0,0-1.37-4.45C468.28,240.88,470.46,240.18,472.35,240.18Z"/><path d="M492.38,256.82c-4.1,0-7.3-2.08-7.3-7.43,0-7.36,5.54-9.21,9.12-9.21,2.72,0,5.73.67,5.73,4,0,4.12-5.15,5.34-8.58,5.95a5,5,0,0,0,1,3,14.23,14.23,0,0,0,4.12-2.88,2.68,2.68,0,0,1,1.89,2.78C498.36,255.34,495.32,256.82,492.38,256.82Zm-1.09-9.35c1.92-.25,3-1.21,3-2.65a1.61,1.61,0,0,0-.68-1.41C492.76,243.67,491.48,244.47,491.29,247.47Z"/><path d="M506,240.18a1.86,1.86,0,0,1,2.05,2.11,15.36,15.36,0,0,1-.23,1.79H508a6.07,6.07,0,0,1,5.6-3.9,4.32,4.32,0,0,1,4.35,2.78,33.21,33.21,0,0,0-1.79,8.74,2.87,2.87,0,0,0,1.28,2.49,5.28,5.28,0,0,1-4.67,2.63c-2.3,0-2.88-1.51-2.88-3.11,0-2,.93-5.44,1.79-8.7l-.22-.1c-1.25,0-2.75,1.47-3.36,3.56a34,34,0,0,0-.86,8.12,23.55,23.55,0,0,1-2.92.23c-2.33,0-3.23-1.12-3.23-2.66,0-2.59,1.35-4.7,1.35-6.91a8.68,8.68,0,0,0-1.38-4.45C502,240.88,504.12,240.18,506,240.18Z"/><path d="M530.87,234.1c2,0,2.82,1.05,2.82,2.69a22.49,22.49,0,0,1-1.76,7.26h.16c1.7-3.46,4.35-3.87,5.57-3.87A4.34,4.34,0,0,1,542,243a30.63,30.63,0,0,0-1.79,8.93,2.93,2.93,0,0,0,1.28,2.3,5.31,5.31,0,0,1-4.45,2.63c-2.3,0-3.1-1.16-3.1-3.11s.92-5.44,1.79-8.7l-.23-.1c-1.66.16-3,2-3.48,3.87a36.77,36.77,0,0,0-.74,7.81c-1.31.16-2.62.23-3,.23-2.34,0-3.1-1.19-3.1-2.69a14.42,14.42,0,0,1,.8-3.78,33.37,33.37,0,0,0,1.28-9.63c0-1-.23-3.61-1-4.51C527,234.93,529,234.1,530.87,234.1Z"/><path d="M555.29,241.55a6.37,6.37,0,0,1,3.26-.6,6.76,6.76,0,0,1,1.09.06,50.22,50.22,0,0,0-1.28,10.3,5.51,5.51,0,0,0,1.15,3.62,6.35,6.35,0,0,1-4.48,1.76c-1.37,0-1.76-.58-1.76-1.83a12.42,12.42,0,0,1,.35-2.46l-.28,0c-1.44,3.61-3.07,4.45-5.12,4.45s-5.41-1.12-5.41-6.56c0-7.55,5.28-10.08,8.51-10.08A5.76,5.76,0,0,1,555.29,241.55ZM549,250.22a5.7,5.7,0,0,0,.38,2.56c.77,0,1.76-.86,2.69-3.13a24.92,24.92,0,0,0,1.31-5.31,3.14,3.14,0,0,0-1.82-.48C550.23,243.86,549,247.22,549,250.22Z"/><path d="M570.36,245.07c-2.33.87-3.2,6-3.2,10.05,0,.26,0,.54.06,1.47a23,23,0,0,1-2.94.23c-2,0-3.39-.61-3.39-2.6,0-2.88,1.34-4.64,1.34-7.1a8.11,8.11,0,0,0-1.37-4.29c.54-1.4,2.56-2.65,4.83-2.65,1.28,0,2.11.54,2.11,2.24a12.36,12.36,0,0,1-.13,1.63h.2c1-3,2.62-3.87,4.6-3.87a3.52,3.52,0,0,1,3.68,3.74c0,2.08-1.12,4.64-5.21,4.64A7.31,7.31,0,0,0,570.36,245.07Z"/><path d="M585.34,244.37a13.84,13.84,0,0,0-2.15.13c0-1.57.1-3.68,1.57-3.68l1.25,0c0-.8-.1-2.72-.64-3.39a9.74,9.74,0,0,1,4.48-1.38c1.47,0,1.85,1,1.85,2.11a19.76,19.76,0,0,1-.28,2.69,9.4,9.4,0,0,0,2.36-.35,5.41,5.41,0,0,1,.52,2.27c0,1.67-1.92,1.73-3.43,1.73-.73,3.49-1.47,6-1.47,7,0,.61.16.93.35,1.05a3.79,3.79,0,0,0,2.27-1.76,2.72,2.72,0,0,1,1.41,2.34c0,2.3-2.75,3.49-5.21,3.49-3.36,0-4.51-1.35-4.51-3.68C583.71,251.38,584.47,249.07,585.34,244.37Z"/><path d="M606.94,241.55a6.37,6.37,0,0,1,3.26-.6,6.89,6.89,0,0,1,1.09.06,50.22,50.22,0,0,0-1.28,10.3,5.51,5.51,0,0,0,1.15,3.62,6.35,6.35,0,0,1-4.48,1.76c-1.38,0-1.76-.58-1.76-1.83a12.42,12.42,0,0,1,.35-2.46l-.29,0c-1.44,3.61-3.07,4.45-5.12,4.45s-5.4-1.12-5.4-6.56c0-7.55,5.28-10.08,8.51-10.08A5.76,5.76,0,0,1,606.94,241.55Zm-6.28,8.67a5.63,5.63,0,0,0,.39,2.56c.77,0,1.76-.86,2.69-3.13a25.53,25.53,0,0,0,1.31-5.31,3.2,3.2,0,0,0-1.83-.48C601.88,243.86,600.66,247.22,600.66,250.22Z"/><path d="M628.06,247.09c-.26,3-.26,6.81-1.06,9.89-1.63,6.46-6.3,7.52-10.08,7.52-3.26,0-5.44-1-5.44-3.46s2.66-3.36,4.19-3.62a5.5,5.5,0,0,0,2,3.36c1.34-.51,4.22-1.66,4.93-8.06l-.13-.06c-1.57,3-3.59,3.71-5.28,3.71-1.28,0-5-.55-5-6,0-7.93,5.19-10.2,8.36-10.2a7.25,7.25,0,0,1,4.22,1.37,7.09,7.09,0,0,1,3.42-.6,9.09,9.09,0,0,1,.93.06A38.8,38.8,0,0,0,628.06,247.09Zm-9.25,5.21c1.21-.28,2-1.34,2.72-3a18.18,18.18,0,0,0,1.31-4.83,3.69,3.69,0,0,0-2-.61c-1.15,0-2.4,2.11-2.4,5.82A7.06,7.06,0,0,0,618.81,252.3Z"/><path d="M637.11,256.82c-4.09,0-7.29-2.08-7.29-7.43,0-7.36,5.53-9.21,9.12-9.21,2.72,0,5.72.67,5.72,4,0,4.12-5.15,5.34-8.57,5.95a5,5,0,0,0,1,3,14.18,14.18,0,0,0,4.13-2.88,2.67,2.67,0,0,1,1.88,2.78C643.09,255.34,640.05,256.82,637.11,256.82ZM636,247.47c1.92-.25,3-1.21,3-2.65a1.62,1.62,0,0,0-.67-1.41C637.5,243.67,636.22,244.47,636,247.47Z"/><path d="M647.77,244.37a13.84,13.84,0,0,0-2.15.13c0-1.57.1-3.68,1.57-3.68l1.25,0c0-.8-.1-2.72-.64-3.39a9.74,9.74,0,0,1,4.48-1.38c1.47,0,1.86,1,1.86,2.11a18.3,18.3,0,0,1-.29,2.69,9.55,9.55,0,0,0,2.37-.35,5.54,5.54,0,0,1,.51,2.27c0,1.67-1.92,1.73-3.43,1.73-.73,3.49-1.47,6-1.47,7,0,.61.16.93.35,1.05a3.83,3.83,0,0,0,2.28-1.76,2.72,2.72,0,0,1,1.4,2.34c0,2.3-2.75,3.49-5.21,3.49-3.36,0-4.51-1.35-4.51-3.68C646.14,251.38,646.9,249.07,647.77,244.37Z"/><path d="M680.31,242a55.87,55.87,0,0,0-1.09,9.35,5.45,5.45,0,0,0,1.19,3.55,6.63,6.63,0,0,1-4.39,1.76c-1,0-1.85-.16-1.85-1.76a12.13,12.13,0,0,1,.35-2.53l-.29,0c-1.47,3.68-3.49,4.45-4.93,4.45-1.82,0-5.53-1-5.53-6.24,0-8.58,5.41-10.21,7.77-10.21a5.25,5.25,0,0,1,3.43,1.34,29.17,29.17,0,0,0,.19-3.16,3.76,3.76,0,0,0-1.06-2.88,5.69,5.69,0,0,1,4.2-1.57c1.34,0,2.88.41,2.88,2.72C681.18,237.78,680.63,240.18,680.31,242Zm-10.37,8.51a5.41,5.41,0,0,0,.36,2.31c1.28-.39,3.36-2.15,4.09-8.26a3.35,3.35,0,0,0-1.95-.57C671,244,669.94,247.41,669.94,250.54Z"/><path d="M688.79,256.82c-4.09,0-7.29-2.08-7.29-7.43,0-7.36,5.53-9.21,9.12-9.21,2.72,0,5.72.67,5.72,4,0,4.12-5.15,5.34-8.57,5.95a5,5,0,0,0,1,3,14.18,14.18,0,0,0,4.13-2.88,2.68,2.68,0,0,1,1.89,2.78C694.78,255.34,691.74,256.82,688.79,256.82Zm-1.08-9.35c1.91-.25,3-1.21,3-2.65a1.62,1.62,0,0,0-.67-1.41C689.18,243.67,687.9,244.47,687.71,247.47Z"/><path d="M712.76,242.87a5.72,5.72,0,0,1-.06.67h.12a5.37,5.37,0,0,1,4.64-3.36,4.27,4.27,0,0,1,4.26,2.78,30.78,30.78,0,0,0-1.79,8.93,2.59,2.59,0,0,0,1.28,2.3,5.59,5.59,0,0,1-4.48,2.63c-2.27,0-3.07-1.06-3.07-3.11s.89-5.44,1.79-8.7l-.26-.1c-1.28.2-2.14,1.38-2.75,3.2-.9,2.56-.93,6.72-.93,8.48a27,27,0,0,1-3.2.23c-2,0-2.78-.61-2.78-2.4,0-2,1.28-6,2.11-9.44l-.22-.1c-1.28,0-2.37,1.38-2.88,3.36a27.63,27.63,0,0,0-.9,8.35,25,25,0,0,1-3,.23c-2.43,0-3.13-1.32-3.13-2.85,0-2.37,1.34-4.58,1.34-6.75a8.7,8.7,0,0,0-1.38-4.42c.87-1.85,3-2.62,4.9-2.62a1.83,1.83,0,0,1,2.08,1.95,6.49,6.49,0,0,1-.35,2h.16c1.53-3.23,3.36-3.9,4.89-3.9C710.39,240.18,712.76,240.24,712.76,242.87Z"/><path d="M726.26,250.38c1.76,0,3.11,1,3.11,2.79a3.52,3.52,0,0,1-3.81,3.65c-2.37,0-3.2-1.35-3.2-2.82A3.63,3.63,0,0,1,726.26,250.38Z"/><path d="M153.21,308a19.72,19.72,0,0,0-5.92.8,4.33,4.33,0,0,1-1.15-2.52c0-2.66,1.73-3.27,3.94-3.27,3.36,0,6.75.26,10.53.26a17.64,17.64,0,0,0,4.57-.45,8,8,0,0,1,.64,2.94c0,2.21-1.6,2.47-2.69,2.47S160.32,308,159,308c-.23,2.33-.42,4.06-1,8-1.15,7.93-1.76,9-4.38,9a6.48,6.48,0,0,1-3.81-1.5c.74-1.25,2-6.24,2.66-10.08C152.8,311.59,153.05,309.57,153.21,308Z"/><path d="M173.73,313.48c-2.34.86-3.2,6-3.2,10,0,.26,0,.55.06,1.48a25.36,25.36,0,0,1-2.94.22c-2,0-3.39-.61-3.39-2.59,0-2.88,1.34-4.64,1.34-7.1a8.1,8.1,0,0,0-1.38-4.29c.55-1.41,2.56-2.66,4.83-2.66,1.28,0,2.12.55,2.12,2.24a14.34,14.34,0,0,1-.13,1.63h.19c1-3,2.62-3.87,4.61-3.87a3.53,3.53,0,0,1,3.68,3.74c0,2.08-1.12,4.64-5.22,4.64A7.39,7.39,0,0,0,173.73,313.48Z"/><path d="M184.64,329.19c2-.64,4.29-2.5,5-7.23l-.13-.1a5.52,5.52,0,0,1-4.83,2.43,4.53,4.53,0,0,1-4.48-2.78,27.28,27.28,0,0,0,1.6-7.74,3,3,0,0,0-1.28-2.57,5.26,5.26,0,0,1,4.67-2.62c2.18,0,2.88,1.28,2.88,3a29.58,29.58,0,0,1-1.63,7.9,1.25,1.25,0,0,0,.74.2c.86,0,2.14-.68,2.88-2.88.89-2.66.89-7,.89-8a25.33,25.33,0,0,1,3.14-.26,2.6,2.6,0,0,1,2.78,2.88c0,1.76-1.18,3.94-1.53,6.14-.45,2.72-.42,4.13-.77,6.69-.86,6.27-5.6,8.61-10.62,8.61-2.53,0-5.54-.9-5.54-3.42,0-3.3,4.19-3.65,4.19-3.65A5.56,5.56,0,0,0,184.64,329.19Z"/><path d="M204.35,318.88h-.26a38.33,38.33,0,0,0-.44,6.12c-.93.12-2.47.22-2.79.22-2.43,0-3.33-1-3.33-2.59,0-2.75,2.05-5.41,2.05-12.51,0-2.27-.19-4.51-1-5.51a6,6,0,0,1,4.61-2.11c2.27,0,2.91,1.22,2.91,2.75a20.38,20.38,0,0,1-1.73,7.07h.16a6.23,6.23,0,0,1,5.57-3.74,3.92,3.92,0,0,1,4.19,4c0,2.05-1.09,4.67-5.09,5.7a8.84,8.84,0,0,0,4.32,4s-1.37,2.94-4,2.94S205.47,322.15,204.35,318.88Zm.16-2.17c2.34,0,4.29-1.18,4.29-2.88a1.31,1.31,0,0,0-.61-1.12C207.36,312.9,205.53,314,204.51,316.71Z"/><path d="M229.18,310.6a5,5,0,0,1-.29,1.37l.2.07c1.08-2,2.33-3.46,5.31-3.46s5.15,2.11,5.15,5.79c0,6.08-3.2,10.85-8.16,10.85a4.62,4.62,0,0,1-3.81-1.79l-.09,0c.06.7.22,2.27.22,3,0,4.06-1,6.46-3.3,6.46a6.23,6.23,0,0,1-4.54-1.82c2.5-3.46,3.36-12.07,3.36-15.2,0-1.57-.45-4-1.28-4.61a5,5,0,0,1,4.9-2.69C228.35,308.58,229.18,309.22,229.18,310.6Zm3.78,2.08c-1.41,0-3,1.72-4.58,7.55a2.89,2.89,0,0,0,2,1c1.82,0,3-4,3-6.62A3.7,3.7,0,0,0,233,312.68Z"/><path d="M252.83,310a6.27,6.27,0,0,1,3.26-.61,6.83,6.83,0,0,1,1.09.06,50.31,50.31,0,0,0-1.28,10.31,5.5,5.5,0,0,0,1.15,3.61,6.35,6.35,0,0,1-4.48,1.76c-1.37,0-1.76-.57-1.76-1.82a12.51,12.51,0,0,1,.35-2.47l-.28,0c-1.44,3.62-3.08,4.45-5.12,4.45s-5.41-1.12-5.41-6.56c0-7.55,5.28-10.08,8.51-10.08A5.72,5.72,0,0,1,252.83,310Zm-6.27,8.67a5.7,5.7,0,0,0,.38,2.56c.77,0,1.76-.87,2.69-3.14a25.53,25.53,0,0,0,1.31-5.31,3.22,3.22,0,0,0-1.82-.48C247.77,312.26,246.56,315.62,246.56,318.63Zm5.34-19.9c2.75,0,4,1.47,4,3.52,0,3.07-2.75,4.7-5.15,4.7s-4-1.12-4-3.58C246.75,300.61,249.34,298.73,251.9,298.73Zm-.7,5.37a1.38,1.38,0,0,0,1.4-1.37,1,1,0,0,0-1.12-1.12,1.35,1.35,0,0,0-1.4,1.4A1,1,0,0,0,251.2,304.1Z"/><path d="M281.18,310.44a54.73,54.73,0,0,0-1.09,9.34,5.45,5.45,0,0,0,1.19,3.55,6.63,6.63,0,0,1-4.39,1.76c-1,0-1.85-.16-1.85-1.76a11.5,11.5,0,0,1,.35-2.53l-.29,0c-1.47,3.68-3.49,4.45-4.93,4.45-1.82,0-5.53-1-5.53-6.24,0-8.58,5.4-10.21,7.77-10.21a5.16,5.16,0,0,1,3.42,1.35A29.57,29.57,0,0,0,276,307a3.77,3.77,0,0,0-1.06-2.88,5.67,5.67,0,0,1,4.19-1.57c1.35,0,2.88.42,2.88,2.72C282,306.18,281.5,308.58,281.18,310.44ZM270.81,319a5.57,5.57,0,0,0,.35,2.3c1.28-.38,3.36-2.14,4.1-8.25a3.37,3.37,0,0,0-1.95-.58C271.84,312.42,270.81,315.81,270.81,319Z"/><path d="M289.66,325.22c-4.1,0-7.3-2.08-7.3-7.42,0-7.36,5.54-9.22,9.12-9.22,2.72,0,5.73.67,5.73,4,0,4.13-5.15,5.34-8.57,5.95a4.91,4.91,0,0,0,1,3,14.23,14.23,0,0,0,4.12-2.88,2.69,2.69,0,0,1,1.89,2.78C295.64,323.75,292.6,325.22,289.66,325.22Zm-1.09-9.34c1.92-.26,3-1.22,3-2.66a1.61,1.61,0,0,0-.68-1.41C290,312.07,288.76,312.87,288.57,315.88Z"/><path d="M316.89,310a6.27,6.27,0,0,1,3.26-.61,6.76,6.76,0,0,1,1.09.06A50.31,50.31,0,0,0,320,319.72a5.5,5.5,0,0,0,1.15,3.61,6.35,6.35,0,0,1-4.48,1.76c-1.37,0-1.76-.57-1.76-1.82a12.58,12.58,0,0,1,.36-2.47l-.29,0c-1.44,3.62-3.07,4.45-5.12,4.45s-5.41-1.12-5.41-6.56c0-7.55,5.28-10.08,8.51-10.08A5.72,5.72,0,0,1,316.89,310Zm-6.27,8.67a5.7,5.7,0,0,0,.38,2.56c.77,0,1.76-.87,2.69-3.14a24.92,24.92,0,0,0,1.31-5.31,3.22,3.22,0,0,0-1.82-.48C311.83,312.26,310.62,315.62,310.62,318.63Z"/><path d="M327.42,308.58a1.87,1.87,0,0,1,2.05,2.11,15.46,15.46,0,0,1-.23,1.8h.16a6.09,6.09,0,0,1,5.6-3.91,4.33,4.33,0,0,1,4.35,2.78,33.21,33.21,0,0,0-1.79,8.74,2.88,2.88,0,0,0,1.28,2.5,5.29,5.29,0,0,1-4.67,2.62c-2.3,0-2.88-1.5-2.88-3.1,0-2,.93-5.44,1.79-8.71l-.22-.09c-1.25,0-2.75,1.47-3.36,3.55a34.15,34.15,0,0,0-.87,8.13,22.64,22.64,0,0,1-2.91.22c-2.33,0-3.23-1.12-3.23-2.66,0-2.59,1.34-4.7,1.34-6.91a8.78,8.78,0,0,0-1.37-4.45C323.36,309.28,325.53,308.58,327.42,308.58Z"/><path d="M356.7,310.44a54.73,54.73,0,0,0-1.09,9.34,5.5,5.5,0,0,0,1.18,3.55,6.59,6.59,0,0,1-4.38,1.76c-1,0-1.86-.16-1.86-1.76a11.58,11.58,0,0,1,.36-2.53l-.29,0c-1.47,3.68-3.49,4.45-4.93,4.45-1.82,0-5.54-1-5.54-6.24,0-8.58,5.41-10.21,7.78-10.21a5.18,5.18,0,0,1,3.42,1.35,29.57,29.57,0,0,0,.2-3.17,3.77,3.77,0,0,0-1.06-2.88,5.65,5.65,0,0,1,4.19-1.57c1.35,0,2.88.42,2.88,2.72C357.56,306.18,357,308.58,356.7,310.44ZM346.33,319a5.57,5.57,0,0,0,.35,2.3c1.28-.38,3.36-2.14,4.1-8.25a3.37,3.37,0,0,0-1.95-.58C347.35,312.42,346.33,315.81,346.33,319Z"/><path d="M367.71,313.48c-2.34.86-3.2,6-3.2,10,0,.26,0,.55.06,1.48a25.36,25.36,0,0,1-2.94.22c-2,0-3.4-.61-3.4-2.59,0-2.88,1.35-4.64,1.35-7.1a8.1,8.1,0,0,0-1.38-4.29c.55-1.41,2.56-2.66,4.83-2.66,1.28,0,2.12.55,2.12,2.24a14.34,14.34,0,0,1-.13,1.63h.19c1-3,2.62-3.87,4.61-3.87a3.53,3.53,0,0,1,3.68,3.74c0,2.08-1.12,4.64-5.22,4.64A7.39,7.39,0,0,0,367.71,313.48Z"/><path d="M381.27,325.22c-4.09,0-7.29-2.08-7.29-7.42,0-7.36,5.53-9.22,9.12-9.22,2.72,0,5.73.67,5.73,4,0,4.13-5.16,5.34-8.58,5.95a5,5,0,0,0,1,3,14.18,14.18,0,0,0,4.13-2.88,2.69,2.69,0,0,1,1.89,2.78C387.26,323.75,384.22,325.22,381.27,325.22Zm-1.08-9.34c1.92-.26,3-1.22,3-2.66a1.6,1.6,0,0,0-.67-1.41C381.66,312.07,380.38,312.87,380.19,315.88Z"/><path d="M412.57,310.44a54.73,54.73,0,0,0-1.09,9.34,5.45,5.45,0,0,0,1.19,3.55,6.63,6.63,0,0,1-4.39,1.76c-1,0-1.85-.16-1.85-1.76a11.5,11.5,0,0,1,.35-2.53l-.29,0c-1.47,3.68-3.49,4.45-4.93,4.45-1.82,0-5.53-1-5.53-6.24,0-8.58,5.4-10.21,7.77-10.21a5.21,5.21,0,0,1,3.43,1.35c.12-1,.19-2.4.19-3.17a3.77,3.77,0,0,0-1.06-2.88,5.67,5.67,0,0,1,4.19-1.57c1.35,0,2.88.42,2.88,2.72C413.43,306.18,412.89,308.58,412.57,310.44ZM402.2,319a5.57,5.57,0,0,0,.35,2.3c1.28-.38,3.36-2.14,4.1-8.25a3.37,3.37,0,0,0-1.95-.58C403.23,312.42,402.2,315.81,402.2,319Z"/><path d="M418.39,329.19c2-.64,4.29-2.5,5-7.23l-.13-.1a5.52,5.52,0,0,1-4.83,2.43,4.51,4.51,0,0,1-4.48-2.78,27.63,27.63,0,0,0,1.6-7.74,3,3,0,0,0-1.28-2.57,5.26,5.26,0,0,1,4.67-2.62c2.18,0,2.88,1.28,2.88,3a29.58,29.58,0,0,1-1.63,7.9,1.24,1.24,0,0,0,.73.2c.87,0,2.15-.68,2.88-2.88.9-2.66.9-7,.9-8a25.18,25.18,0,0,1,3.14-.26,2.6,2.6,0,0,1,2.78,2.88c0,1.76-1.19,3.94-1.54,6.14-.44,2.72-.41,4.13-.76,6.69-.87,6.27-5.6,8.61-10.63,8.61-2.53,0-5.53-.9-5.53-3.42,0-3.3,4.19-3.65,4.19-3.65A5.56,5.56,0,0,0,418.39,329.19Z"/><path d="M441.11,313.48c-2.33.86-3.2,6-3.2,10,0,.26,0,.55.07,1.48a25.55,25.55,0,0,1-3,.22c-2,0-3.39-.61-3.39-2.59,0-2.88,1.35-4.64,1.35-7.1a8.1,8.1,0,0,0-1.38-4.29c.54-1.41,2.56-2.66,4.83-2.66,1.28,0,2.11.55,2.11,2.24a14.36,14.36,0,0,1-.12,1.63h.19c1-3,2.62-3.87,4.61-3.87a3.53,3.53,0,0,1,3.68,3.74c0,2.08-1.12,4.64-5.22,4.64A7.27,7.27,0,0,0,441.11,313.48Z"/><path d="M447.29,318.79c1.76,0,3.1,1,3.1,2.78a3.52,3.52,0,0,1-3.8,3.65c-2.37,0-3.2-1.34-3.2-2.82A3.62,3.62,0,0,1,447.29,318.79Z"/><path d="M458.55,323c2.6-3.58,4-12.73,4.39-15.48a5.52,5.52,0,0,0-2-1.16,4.56,4.56,0,0,1,4.6-3.39c3.55,0,4.93,3.52,6.27,8.9H472c2.79-6.11,6.5-8.9,8-8.9a5.46,5.46,0,0,1,3.32,1.54c-.48,2-2.4,10.46-2.4,15.84a5,5,0,0,0,.74,2.78,6.81,6.81,0,0,1-4.35,1.95c-2.08,0-2.59-.86-2.59-2.69A84.73,84.73,0,0,1,476.6,312h-.19c-1.41,2-4.06,6.72-4.06,6.72a3,3,0,0,1-1.7.64c-1.28,0-1.57-.61-1.92-1.73s-1.06-3.55-1.66-5.56h-.2c-.92,10.84-1.08,13-4.38,13A4.23,4.23,0,0,1,458.55,323Z"/><path d="M491,325.22c-4.1,0-7.3-2.08-7.3-7.42,0-7.36,5.54-9.22,9.12-9.22,2.72,0,5.73.67,5.73,4,0,4.13-5.15,5.34-8.57,5.95a4.91,4.91,0,0,0,1,3,14.18,14.18,0,0,0,4.13-2.88,2.69,2.69,0,0,1,1.88,2.78C497,323.75,493.91,325.22,491,325.22Zm-1.09-9.34c1.92-.26,3-1.22,3-2.66a1.62,1.62,0,0,0-.67-1.41C491.35,312.07,490.07,312.87,489.88,315.88Z"/><path d="M504.6,308.58a1.87,1.87,0,0,1,2,2.11,17.27,17.27,0,0,1-.22,1.8h.16a6.07,6.07,0,0,1,5.6-3.91,4.34,4.34,0,0,1,4.35,2.78,33.21,33.21,0,0,0-1.79,8.74,2.88,2.88,0,0,0,1.28,2.5,5.3,5.3,0,0,1-4.68,2.62c-2.3,0-2.88-1.5-2.88-3.1,0-2,.93-5.44,1.8-8.71l-.23-.09c-1.25,0-2.75,1.47-3.36,3.55a34.61,34.61,0,0,0-.86,8.13,22.87,22.87,0,0,1-2.91.22c-2.34,0-3.24-1.12-3.24-2.66,0-2.59,1.35-4.7,1.35-6.91a8.71,8.71,0,0,0-1.38-4.45C500.54,309.28,502.71,308.58,504.6,308.58Z"/><path d="M531.45,310.6a5,5,0,0,1-.29,1.37l.19.07c1.09-2,2.34-3.46,5.32-3.46,3.13,0,5.15,2.11,5.15,5.79,0,6.08-3.2,10.85-8.16,10.85a4.61,4.61,0,0,1-3.81-1.79l-.1,0c.07.7.23,2.27.23,3,0,4.06-1,6.46-3.3,6.46a6.23,6.23,0,0,1-4.54-1.82c2.49-3.46,3.36-12.07,3.36-15.2,0-1.57-.45-4-1.28-4.61a5,5,0,0,1,4.89-2.69C530.62,308.58,531.45,309.22,531.45,310.6Zm3.78,2.08c-1.41,0-3,1.72-4.58,7.55a2.87,2.87,0,0,0,2,1c1.83,0,3-4,3-6.62A3.7,3.7,0,0,0,535.23,312.68Z"/><path d="M555.26,310a6.27,6.27,0,0,1,3.26-.61,6.89,6.89,0,0,1,1.09.06,50.31,50.31,0,0,0-1.28,10.31,5.5,5.5,0,0,0,1.15,3.61,6.35,6.35,0,0,1-4.48,1.76c-1.38,0-1.76-.57-1.76-1.82a12.51,12.51,0,0,1,.35-2.47l-.29,0c-1.43,3.62-3.07,4.45-5.11,4.45s-5.41-1.12-5.41-6.56c0-7.55,5.28-10.08,8.51-10.08A5.72,5.72,0,0,1,555.26,310ZM549,318.63a5.7,5.7,0,0,0,.38,2.56c.77,0,1.76-.87,2.69-3.14a25.53,25.53,0,0,0,1.31-5.31,3.25,3.25,0,0,0-1.83-.48C550.2,312.26,549,315.62,549,318.63Z"/><path d="M574.55,311.53c0,2.14-3.1,2.94-3.1,2.94-.58-1.92-1.57-2.85-2.5-3.11a1.48,1.48,0,0,0-1.12,1.41c0,.84,1.06,1.47,2,2,1.85,1,4,2.21,4,4.93,0,3.39-3.2,5.5-7.81,5.5-4.19,0-5.72-1.66-5.72-3.36,0-2.46,3.07-3.58,3.07-3.58a19,19,0,0,0,2.94,4.19,2.09,2.09,0,0,0,1.57-1.79c0-1.19-1.41-1.8-2.59-2.53-2.15-1.31-3.62-2.59-3.62-4.74,0-3.55,4.1-4.83,7.68-4.83C571.19,308.58,574.55,308.84,574.55,311.53Z"/><path d="M589.62,310.6a4.9,4.9,0,0,1-.28,1.37l.19.07c1.09-2,2.33-3.46,5.31-3.46,3.14,0,5.15,2.11,5.15,5.79,0,6.08-3.2,10.85-8.16,10.85a4.62,4.62,0,0,1-3.81-1.79l-.09,0c.06.7.22,2.27.22,3,0,4.06-1,6.46-3.29,6.46a6.24,6.24,0,0,1-4.55-1.82c2.5-3.46,3.36-12.07,3.36-15.2,0-1.57-.45-4-1.28-4.61a5,5,0,0,1,4.9-2.69C588.79,308.58,589.62,309.22,589.62,310.6Zm3.78,2.08c-1.41,0-3,1.72-4.58,7.55a2.89,2.89,0,0,0,2,1c1.82,0,3-4,3-6.62A3.7,3.7,0,0,0,593.4,312.68Z"/><path d="M613.27,310a6.29,6.29,0,0,1,3.26-.61,6.76,6.76,0,0,1,1.09.06,50.31,50.31,0,0,0-1.28,10.31,5.5,5.5,0,0,0,1.15,3.61,6.35,6.35,0,0,1-4.48,1.76c-1.37,0-1.76-.57-1.76-1.82a12.58,12.58,0,0,1,.36-2.47l-.29,0c-1.44,3.62-3.07,4.45-5.12,4.45s-5.41-1.12-5.41-6.56c0-7.55,5.28-10.08,8.51-10.08A5.72,5.72,0,0,1,613.27,310ZM607,318.63a5.7,5.7,0,0,0,.38,2.56c.77,0,1.76-.87,2.69-3.14a24.92,24.92,0,0,0,1.31-5.31,3.22,3.22,0,0,0-1.82-.48C608.21,312.26,607,315.62,607,318.63Zm5.34-19.9c2.75,0,4,1.47,4,3.52,0,3.07-2.75,4.7-5.15,4.7s-4-1.12-4-3.58C607.19,300.61,609.78,298.73,612.34,298.73Zm-.7,5.37a1.39,1.39,0,0,0,1.41-1.37,1,1,0,0,0-1.12-1.12,1.36,1.36,0,0,0-1.41,1.4A1,1,0,0,0,611.64,304.1Z"/><path d="M622.58,319.75c1.79,0,3,1,3,2.4,0,1.79-1.54,3.07-3.74,3.07-1.73,0-3-1-3-2.43C618.84,321.06,620.44,319.75,622.58,319.75Zm-1.31-11a11,11,0,0,0-.7-4.67,11.16,11.16,0,0,1,4.57-1.09c1.89,0,2.53,1,2.53,3.3a44.64,44.64,0,0,1-1,8.76c-.45,1.92-1.22,2.88-3.2,2.88a8.15,8.15,0,0,1-3.33-.7A29.17,29.17,0,0,0,621.27,308.74Z"/><path d="M651.73,310.44a55.7,55.7,0,0,0-1.08,9.34,5.44,5.44,0,0,0,1.18,3.55,6.62,6.62,0,0,1-4.38,1.76c-1,0-1.86-.16-1.86-1.76a12.13,12.13,0,0,1,.35-2.53l-.28,0c-1.48,3.68-3.49,4.45-4.93,4.45-1.83,0-5.54-1-5.54-6.24,0-8.58,5.41-10.21,7.78-10.21a5.18,5.18,0,0,1,3.42,1.35,29.34,29.34,0,0,0,.19-3.17,3.79,3.79,0,0,0-1.05-2.88,5.65,5.65,0,0,1,4.19-1.57c1.34,0,2.88.42,2.88,2.72C652.6,306.18,652.05,308.58,651.73,310.44ZM641.37,319a5.57,5.57,0,0,0,.35,2.3c1.28-.38,3.36-2.14,4.1-8.25a3.42,3.42,0,0,0-2-.58C642.39,312.42,641.37,315.81,641.37,319Z"/><path d="M660.21,325.22c-4.09,0-7.29-2.08-7.29-7.42,0-7.36,5.54-9.22,9.12-9.22,2.72,0,5.73.67,5.73,4,0,4.13-5.16,5.34-8.58,5.95a5,5,0,0,0,1,3,14.18,14.18,0,0,0,4.13-2.88,2.69,2.69,0,0,1,1.89,2.78C666.2,323.75,663.16,325.22,660.21,325.22Zm-1.08-9.34c1.92-.26,3-1.22,3-2.66a1.6,1.6,0,0,0-.67-1.41C660.6,312.07,659.32,312.87,659.13,315.88Z"/><path d="M681.78,318.88h-.25a36.85,36.85,0,0,0-.45,6.12c-.93.12-2.46.22-2.79.22-2.43,0-3.32-1-3.32-2.59,0-2.75,2-5.41,2-12.51,0-2.27-.19-4.51-1-5.51a6,6,0,0,1,4.61-2.11c2.27,0,2.91,1.22,2.91,2.75a20.38,20.38,0,0,1-1.73,7.07h.16c1.67-3.16,4.13-3.74,5.57-3.74a3.92,3.92,0,0,1,4.19,4c0,2.05-1.09,4.67-5.09,5.7a8.84,8.84,0,0,0,4.32,4s-1.37,2.94-4,2.94S682.9,322.15,681.78,318.88Zm.16-2.17c2.34,0,4.29-1.18,4.29-2.88a1.31,1.31,0,0,0-.61-1.12C684.79,312.9,683,314,681.94,316.71Z"/><path d="M705,310a6.29,6.29,0,0,1,3.27-.61,6.7,6.7,0,0,1,1.08.06,50.31,50.31,0,0,0-1.28,10.31,5.51,5.51,0,0,0,1.16,3.61,6.37,6.37,0,0,1-4.48,1.76c-1.38,0-1.76-.57-1.76-1.82a12.51,12.51,0,0,1,.35-2.47l-.29,0c-1.44,3.62-3.07,4.45-5.12,4.45s-5.41-1.12-5.41-6.56c0-7.55,5.28-10.08,8.51-10.08A5.68,5.68,0,0,1,705,310Zm-6.27,8.67a5.7,5.7,0,0,0,.38,2.56c.77,0,1.76-.87,2.69-3.14a24.92,24.92,0,0,0,1.31-5.31,3.22,3.22,0,0,0-1.82-.48C699.93,312.26,698.71,315.62,698.71,318.63Z"/><path d="M715.51,308.58a1.87,1.87,0,0,1,2,2.11,15.46,15.46,0,0,1-.23,1.8h.16a6.09,6.09,0,0,1,5.6-3.91,4.33,4.33,0,0,1,4.35,2.78,33.21,33.21,0,0,0-1.79,8.74,2.9,2.9,0,0,0,1.28,2.5,5.29,5.29,0,0,1-4.67,2.62c-2.3,0-2.88-1.5-2.88-3.1,0-2,.93-5.44,1.79-8.71l-.22-.09c-1.25,0-2.75,1.47-3.36,3.55a34.09,34.09,0,0,0-.86,8.13,22.88,22.88,0,0,1-2.92.22c-2.33,0-3.23-1.12-3.23-2.66,0-2.59,1.35-4.7,1.35-6.91a8.71,8.71,0,0,0-1.38-4.45C711.45,309.28,713.62,308.58,715.51,308.58Z"/><path d="M154,365.27a15.05,15.05,0,0,1-.86,5.15l.19.16a9.6,9.6,0,0,0,3.65-7,4.83,4.83,0,0,0-1.06-3,4.64,4.64,0,0,1,3.84-2c1.31,0,3.17.45,3.17,3.52,0,5.57-6.21,13.12-11.2,13.12a6.07,6.07,0,0,1-4.06-1.73,30.56,30.56,0,0,0,.54-5.37c0-3-.54-5.7-2.69-6.88a4.74,4.74,0,0,1,4.29-2.66C153.09,358.58,154,361.78,154,365.27Z"/><path d="M179.52,375.22a6,6,0,0,1-5.28-2.37,8.82,8.82,0,0,1-5.89,2.37c-3.2,0-5-1.15-5-3.9,0-4.52,6.11-5.51,9.44-5.54a11.92,11.92,0,0,0,.26-2,1.88,1.88,0,0,0-.58-1.63,4.53,4.53,0,0,0-4.16,3.07c-1.82-.29-3.46-.6-3.46-2.59,0-2.56,3.33-4,7.59-4a5.38,5.38,0,0,1,4.06,1.54,8.06,8.06,0,0,1,4.58-1.54c2.72,0,5.72.67,5.72,4,0,4.13-5.15,5.34-8.57,5.95a6.45,6.45,0,0,0,1.18,3.46c1.83-.58,3.43-3.52,3.43-3.52s2.59.76,2.59,3.1S182.46,375.22,179.52,375.22ZM169,371.16a1.05,1.05,0,0,0,.87,1.12c.92-.16,2.4-1.22,2.75-4C170.65,368.31,169,369.75,169,371.16Zm9.19-5.28c1.92-.26,3-1.22,3-2.66a1.6,1.6,0,0,0-.67-1.41C179.68,362.07,178.4,362.87,178.21,365.88Z"/><path d="M197.47,363.48c-2.34.86-3.2,6-3.2,10,0,.26,0,.55.06,1.48a25.36,25.36,0,0,1-2.94.22c-2,0-3.39-.61-3.39-2.59,0-2.88,1.34-4.64,1.34-7.1a8.08,8.08,0,0,0-1.37-4.29c.54-1.41,2.56-2.66,4.83-2.66,1.28,0,2.11.55,2.11,2.24a12.36,12.36,0,0,1-.13,1.63H195c1-3,2.63-3.87,4.61-3.87a3.53,3.53,0,0,1,3.68,3.74c0,2.08-1.12,4.64-5.21,4.64A7.4,7.4,0,0,0,197.47,363.48Z"/><path d="M211,375.22c-4.1,0-7.3-2.08-7.3-7.42,0-7.36,5.54-9.22,9.12-9.22,2.72,0,5.73.67,5.73,4,0,4.13-5.15,5.34-8.58,5.95a5,5,0,0,0,1,3,14.23,14.23,0,0,0,4.12-2.88,2.69,2.69,0,0,1,1.89,2.78C217,373.75,214,375.22,211,375.22ZM210,365.88c1.92-.26,3-1.22,3-2.66a1.61,1.61,0,0,0-.68-1.41C211.42,362.07,210.14,362.87,210,365.88Z"/><path d="M236.45,355.86c-.8.67-1.41,2.31-1.67,4.9a10,10,0,0,0,3.07-.32,5.55,5.55,0,0,1,.61,2.37c0,2-2,2.11-4.09,2.11-1.51,14.59-4.8,18-9,18-2.52,0-3.74-1.12-3.74-2.72a6.85,6.85,0,0,1,.48-2.18,5.32,5.32,0,0,0,1.31.23c2.21,0,3.2-2.79,3.71-4.61a56.84,56.84,0,0,0,1.44-9,22.67,22.67,0,0,0-2.49.26c0-2.53.35-4.26,2.21-4.26h.76c.2-1.12.26-2.34.52-3.26.92-3.33,3.23-4.87,7.58-4.87,2.66,0,5.18,1,5.18,3.27,0,2.78-3.77,3.26-3.77,3.26S238.43,356.34,236.45,355.86Z"/><path d="M251.13,360a6.31,6.31,0,0,1,3.27-.61,6.7,6.7,0,0,1,1.08.06,50.25,50.25,0,0,0-1.27,10.31,5.5,5.5,0,0,0,1.15,3.61,6.37,6.37,0,0,1-4.48,1.76c-1.38,0-1.76-.57-1.76-1.82a12.51,12.51,0,0,1,.35-2.47l-.29,0c-1.44,3.62-3.07,4.45-5.12,4.45s-5.41-1.12-5.41-6.56c0-7.55,5.28-10.08,8.52-10.08A5.68,5.68,0,0,1,251.13,360Zm-6.27,8.67a5.48,5.48,0,0,0,.39,2.56c.76,0,1.75-.87,2.68-3.14a25.48,25.48,0,0,0,1.32-5.31,3.28,3.28,0,0,0-1.83-.48C246.08,362.26,244.86,365.62,244.86,368.63Z"/><path d="M266.21,363.48c-2.34.86-3.2,6-3.2,10,0,.26,0,.55.06,1.48a25.36,25.36,0,0,1-2.94.22c-2,0-3.4-.61-3.4-2.59,0-2.88,1.35-4.64,1.35-7.1a8.1,8.1,0,0,0-1.38-4.29c.55-1.41,2.56-2.66,4.83-2.66,1.28,0,2.12.55,2.12,2.24a14.34,14.34,0,0,1-.13,1.63h.19c1-3,2.62-3.87,4.61-3.87a3.53,3.53,0,0,1,3.68,3.74c0,2.08-1.12,4.64-5.22,4.64A7.39,7.39,0,0,0,266.21,363.48Z"/><path d="M280.86,355.32a46,46,0,0,1-1.25,7.61,33.44,33.44,0,0,0-.8,5.92c0,3,1.41,4.1,1.41,4.1a4.86,4.86,0,0,1-4.13,2.14c-2.81,0-3.45-1.95-3.45-3.87,0-2.21.8-5.41,1.25-8.38a43.22,43.22,0,0,0,.57-5.38,5.3,5.3,0,0,0-.77-3.39,6.05,6.05,0,0,1,4.07-1.57C280,352.5,280.86,353.75,280.86,355.32Z"/><path d="M289.34,361.11c0,1.73-.77,4-1.22,6.14a16.35,16.35,0,0,0-.38,3.11,3.44,3.44,0,0,0,1.34,2.78,6.29,6.29,0,0,1-4.6,2.08c-2.66,0-2.82-2.27-2.82-3.2a25.33,25.33,0,0,1,.74-4.83,27.37,27.37,0,0,0,.83-4.42,3.11,3.11,0,0,0-.93-2.33,5.23,5.23,0,0,1,4.1-1.7C288.45,358.74,289.34,359.8,289.34,361.11Zm-2.3-9.82c2,0,3.39,1.15,3.39,2.84s-1.76,2.95-3.65,2.95-3.42-1.22-3.42-2.69C283.36,352.47,285,351.29,287,351.29Z"/><path d="M306.36,365.49c-.25,3-.25,6.82-1.05,9.89-1.63,6.46-6.31,7.52-10.08,7.52-3.26,0-5.44-1-5.44-3.46s2.66-3.36,4.19-3.61a5.51,5.51,0,0,0,2,3.36c1.34-.51,4.22-1.67,4.92-8.07l-.12-.06c-1.57,3-3.59,3.71-5.28,3.71-1.28,0-5-.54-5-6,0-7.94,5.19-10.21,8.35-10.21a7.2,7.2,0,0,1,4.23,1.38,7,7,0,0,1,3.42-.61,9.09,9.09,0,0,1,.93.06A39.51,39.51,0,0,0,306.36,365.49Zm-9.24,5.22c1.21-.29,1.95-1.35,2.72-3a18.08,18.08,0,0,0,1.31-4.83,3.69,3.69,0,0,0-2-.61c-1.15,0-2.4,2.11-2.4,5.83A7.1,7.1,0,0,0,297.12,370.71Z"/><path d="M315.42,375.22c-4.09,0-7.29-2.08-7.29-7.42,0-7.36,5.53-9.22,9.12-9.22,2.72,0,5.72.67,5.72,4,0,4.13-5.15,5.34-8.57,5.95a4.91,4.91,0,0,0,1,3,14.18,14.18,0,0,0,4.13-2.88,2.69,2.69,0,0,1,1.89,2.78C321.41,373.75,318.37,375.22,315.42,375.22Zm-1.09-9.34c1.92-.26,3-1.22,3-2.66a1.62,1.62,0,0,0-.67-1.41C315.81,362.07,314.53,362.87,314.33,365.88Z"/><path d="M327.52,368.79c1.76,0,3.1,1,3.1,2.78a3.52,3.52,0,0,1-3.81,3.65c-2.36,0-3.2-1.34-3.2-2.82A3.63,3.63,0,0,1,327.52,368.79Z"/></g></svg>
