<svg xmlns="http://www.w3.org/2000/svg" width="80" height="70" viewBox="0 0 80 70"><defs><style>.cls-1{fill:#fff;}.cls-2{fill:#f6b2e7;}</style></defs><title>Kryds_Knap</title><g id="Layer_15" data-name="Layer 15"><path class="cls-1" d="M76.8,43.05a32.38,32.38,0,0,1-4.49,8.66,39.06,39.06,0,0,1-7,7.4,43,43,0,0,1-11.68,6.77,40.32,40.32,0,0,1-4.94,1.53A43.2,43.2,0,0,1,41,68.52a46.26,46.26,0,0,1-9.63-.46A44.37,44.37,0,0,1,20.51,65a36,36,0,0,1-9-5.51,28.58,28.58,0,0,1-4.62-4.91,24.17,24.17,0,0,1-3.88-8q-.26-.93-.45-1.89A31.78,31.78,0,0,1,2,35.53,33.23,33.23,0,0,1,4.68,25a35.76,35.76,0,0,1,2.64-5,38.29,38.29,0,0,1,7.24-8.32,39.88,39.88,0,0,1,8.31-5.48A41.36,41.36,0,0,1,30.33,3.4c.82-.23,1.62-.43,2.4-.61A48.44,48.44,0,0,1,40.55,1.5,24.64,24.64,0,0,1,50.67,2.64a25.72,25.72,0,0,1,5.94,3,53.7,53.7,0,0,1,7.77,6.58c1.42,1.4,2.89,2.94,4.45,4.62,1.23,1.31,2.51,2.72,3.86,4.21a21.82,21.82,0,0,1,2.85,4,20.31,20.31,0,0,1,2.4,7.22A24.15,24.15,0,0,1,76.8,43.05Z"/><path d="M32.43,31,7.32,20a38.29,38.29,0,0,1,7.24-8.32L33.46,29.4A1,1,0,0,1,32.43,31Z"/><path d="M35.18,28.24l-12.31-22A41.36,41.36,0,0,1,30.33,3.4c.82-.23,1.62-.43,2.4-.61l4.21,24.83A1,1,0,0,1,35.18,28.24Z"/><path d="M50.67,2.64,46.54,26a1,1,0,0,1-1.87,0L40.55,1.5A24.64,24.64,0,0,1,50.67,2.64Z"/><path d="M64.38,12.22l-14,17.89a.94.94,0,0,1-1.64-.88L56.61,5.64A53.7,53.7,0,0,1,64.38,12.22Z"/><path d="M75.54,25,51.42,34.8a1,1,0,0,1-1-1.58l18.4-16.38c1.23,1.31,2.51,2.72,3.86,4.21A21.82,21.82,0,0,1,75.54,25Z"/><path d="M76.8,43.05,52,40.88A1,1,0,0,1,51.85,39l26.09-6.79A24.15,24.15,0,0,1,76.8,43.05Z"/><path d="M72.31,51.71a39.06,39.06,0,0,1-7,7.4L48.06,44.67A1,1,0,0,1,49,43.06Z"/><path d="M28.5,37.23,2,35.53A33.23,33.23,0,0,1,4.68,25L28.93,35.42A.94.94,0,0,1,28.5,37.23Z"/><path d="M29.4,42.64,6.87,54.55a24.17,24.17,0,0,1-3.88-8q-.26-.93-.45-1.89l26.28-3.81A.94.94,0,0,1,29.4,42.64Z"/><path d="M34.41,46.65,20.51,65a36,36,0,0,1-9-5.51L33.14,45.28A1,1,0,0,1,34.41,46.65Z"/><path d="M57.68,64.07a42.42,42.42,0,0,1-4.06,1.81,40.32,40.32,0,0,1-4.94,1.53L43.37,45.67a.94.94,0,0,1,1.71-.74Z"/><path d="M41,68.52a46.26,46.26,0,0,1-9.63-.46L36,45.78a.94.94,0,0,1,1.86.06Z"/><path class="cls-2" d="M58.75,45.39l-8.08-8.24,8.23-8.08a7,7,0,0,0,.1-9.79l-.81-.83a7,7,0,0,0-9.8-.09l-8.23,8.09-8.09-8.24a6.94,6.94,0,0,0-9.79-.09l-.82.81a6.94,6.94,0,0,0-.09,9.79L29.45,37,21.22,45a7,7,0,0,0-.1,9.79l.81.83a7,7,0,0,0,9.79.09L40,47.66,48,55.9a7,7,0,0,0,9.8.09l.82-.81A6.94,6.94,0,0,0,58.75,45.39Z"/></g></svg>
