<svg xmlns="http://www.w3.org/2000/svg" width="720" height="490" viewBox="0 0 720 490"><defs><style>.cls-1{fill:#c6e3a1;}</style></defs><title>Level_Complete</title><g id="Layer_33" data-name="Layer 33"><rect class="cls-1" x="4.63" y="1.5" width="710.73" height="487" rx="65.04" ry="65.04"/><path d="M92.55,124.31c-8,.13-17.3.77-23.7,3.2-2.95-3.07-4.62-7.68-4.62-10.12,0-10.63,6.92-13.06,15.76-13.06,13.45,0,27,1,42.15,1a71.1,71.1,0,0,0,18.32-1.79c1.41,2.43,2.56,8.58,2.56,11.78,0,8.84-6.41,9.87-10.76,9.87-4.1,0-11.28-.64-16.53-.77-.89,9.35-1.66,16.27-4,32.15-4.61,31.77-7.05,36.26-17.55,36.26-6.53,0-11.53-3.33-15.24-6,2.94-5,8.07-25,10.63-40.36C90.88,138.79,91.9,130.72,92.55,124.31Z"/><path d="M147,155.82c2.57-13.32,5.38-26.9,5.38-34.33,0-4.22-.25-9.35-1.28-12.42,4.49-3.59,10.76-4.74,15.25-4.74,8.07,0,11.65,3.2,11.65,9.48,0,8.45-2.69,17.68-4.86,28.31-2.31,11.14-4.36,22.29-4.36,31,0,3.59.26,11.66,1.54,16.14,0,0-5.89,3.59-16.27,3.59-8.46,0-11.66-4.74-11.66-12.43C142.38,175.42,144.94,167,147,155.82Z"/><path d="M219.5,114.83c0,10.51-4.1,37-10.76,58.16h7.43c5.76,0,14.6-.25,20.75-4,3.72,4.1,5.26,7.17,5.26,11.66,0,7.68-7.05,11.4-23.19,11.4H206.82c-11.66,0-20.5-.51-26.26-4.36,5.38-14,14-47.27,14-66.35,0-3.08-.77-10.12-1.92-13.07,4.1-2.69,10.38-4,16.14-4C216.81,104.33,219.5,107.79,219.5,114.83Z"/><path d="M288.81,114.83c0,10.51-4.1,37-10.76,58.16h7.43c5.76,0,14.6-.25,20.75-4,3.71,4.1,5.25,7.17,5.25,11.66,0,7.68-7.05,11.4-23.19,11.4H276.12c-11.65,0-20.49-.51-26.26-4.36,5.38-14,14-47.27,14-66.35,0-3.08-.77-10.12-1.93-13.07,4.1-2.69,10.38-4,16.15-4C286.12,104.33,288.81,107.79,288.81,114.83Z"/><path d="M356.06,164.79a86.26,86.26,0,0,0-2.17,13.07c-.77,6.92-1.41,10-2.69,11.66-2.05,2.56-7.18,3.33-11.41,3.33a21.49,21.49,0,0,1-15.5-6c5.26-8.84,7.82-17.81,7.82-23.45,0-14-11.28-36.63-24.21-48.68,6.79-8.07,13.19-10.37,19.21-10.37,7.56,0,16.91,5.38,21.52,36.12h.52c9.22-22.93,20.36-36.12,31.25-36.12,10.51,0,13.84,7.94,15.12,14.09C377.71,127.13,359.65,151.85,356.06,164.79Z"/><path d="M402.57,123.41c0-5-.26-10.24-1.92-13.32,2.69-3.07,9.22-5.76,16.27-5.76s10.63,2.43,10.63,10.12c0,5-2.44,15.37-3.84,21.13h1c10.63-17.8,19.47-31.25,33.56-31.25,9.61,0,11.66,7.3,11.66,11.14a27.88,27.88,0,0,1-1.54,8.71,9.66,9.66,0,0,0-3.33-.64c-10,0-22.29,15.76-26.9,22.16,5.64,13.33,14.35,29.72,23.19,32-3.21,10.38-10.38,15.12-16.53,15.12-10.12,0-18.83-23.19-22.16-37.79L420,157.75c-3.33,25.75-5.12,35.1-17.29,35.1-11.15,0-15.5-8.2-15.5-8.2C396.93,169.66,402.57,139.17,402.57,123.41Z"/><path d="M479.56,123.41c0-5-.25-10.24-1.92-13.32,2.69-3.07,9.22-5.76,16.27-5.76s10.63,2.43,10.63,10.12c0,5-2.43,15.37-3.84,21.13h1c10.64-17.8,19.48-31.25,33.57-31.25,9.6,0,11.65,7.3,11.65,11.14a28,28,0,0,1-1.53,8.71,9.76,9.76,0,0,0-3.33-.64c-10,0-22.29,15.76-26.91,22.16,5.64,13.33,14.35,29.72,23.19,32-3.2,10.38-10.38,15.12-16.52,15.12-10.12,0-18.84-23.19-22.17-37.79L497,157.75c-3.33,25.75-5.12,35.1-17.29,35.1-11.15,0-15.5-8.2-15.5-8.2C473.93,169.66,479.56,139.17,479.56,123.41Z"/><path d="M560.91,122.77c-2.82.39-6.15.9-7.56,1.54a37,37,0,0,1-2.43-9.61c0-10.37,8.58-10.37,17.93-10.37,8.46,0,18.19,1,27.8,1a151.63,151.63,0,0,0,17.29-.89,23,23,0,0,1,2.57,9.47c0,8.2-4.49,9.87-13.84,9.87-6,0-13.06-.51-19.73-.9-.25,5-1,10.76-1.41,15h4.87a62.24,62.24,0,0,0,16-1.92,25.49,25.49,0,0,1,2.43,10.25c0,9.35-6.79,9.48-13.58,9.48-1.54,0-6.28-.26-11.78-.64-.9,7-2.18,14.09-3.08,18.19,18.32,0,24-.9,31.51-4,2.69,3.71,4.1,6.79,4.1,11.53,0,8.71-8.07,11.27-24.34,11.27H569.62c-12,0-18.45-2.44-21.39-4.23C554.76,169.15,559.37,148,560.91,122.77Z"/><path d="M634.7,171.45c7.17,0,12,4.1,12,9.61,0,7.18-6.15,12.3-15,12.3-6.91,0-12-4.1-12-9.74C619.71,176.71,626.12,171.45,634.7,171.45Zm-5.25-44.06c0-8.2-.9-15.5-2.82-18.71A44.91,44.91,0,0,1,645,104.33c7.56,0,10.12,3.84,10.12,13.19a177.2,177.2,0,0,1-4.1,35.1c-1.79,7.69-4.87,11.53-12.81,11.53-2,0-9.35-.51-13.32-2.82A116.94,116.94,0,0,0,629.45,127.39Z"/><path d="M80.46,245.2c0-5.7,9.6-11.47,25.83-11.47s22.8,10.3,22.8,22.71c0,17.41-11.17,31.53-31.69,31.53-4.53,0-13.27-1.09-18.5-3.9,3.59-6.4,8.66-22.87,10.77-36.06a23.78,23.78,0,0,0-5.7,4C81.94,250,80.46,248.25,80.46,245.2ZM98.8,276.66c9,0,15.3-8,15.3-21.23,0-6.64-2.65-10.93-9-10.93-.94,0-1.88,0-2.81.08A189.67,189.67,0,0,1,96,276.27,9.5,9.5,0,0,0,98.8,276.66Z"/><path d="M160.69,288c-3.35,0-4.91-1.48-4.91-4.6,0-1,.15-2.65.31-4.29h-.39c-3.59,8.11-9.84,8.89-13.43,8.89-5,0-9.36-2.57-10.85-6.79,1.1-3.35,4.37-14,4.37-21.07,0-2.58-1.24-5.46-3.12-6.32a12.86,12.86,0,0,1,11.32-6.4c5.46,0,7.1,3.35,7.1,7.26,0,5.23-2.18,13.11-4.37,21.69a3.17,3.17,0,0,0,1.8.47c2.81,0,5.69-3,7.18-7.88,2-6.48,2.5-16.7,2.5-21a53.64,53.64,0,0,1,6.86-.54c5.7,0,7.5,3.12,7.5,6.87,0,6-3.28,10.85-3.28,16.39,0,2.1.39,7.72,3.36,10.93C170,286.18,165.22,288,160.69,288Z"/><path d="M212.05,263.7a36.48,36.48,0,0,1-2.11,12.57l.47.39c4.21-3,8.9-10.31,8.9-17a11.83,11.83,0,0,0-2.58-7.34,11.35,11.35,0,0,1,9.37-4.91c3.2,0,7.72,1.09,7.72,8.58,0,13.58-15.14,32-27.31,32a14.85,14.85,0,0,1-9.92-4.21,72.62,72.62,0,0,0,1.33-13.11c0-7.26-1.33-13.9-6.56-16.78a11.57,11.57,0,0,1,10.46-6.48C209.86,247.39,212.05,255.19,212.05,263.7Z"/><path d="M265.43,250.74c2-1.32,5.23-1.48,8-1.48a15.3,15.3,0,0,1,2.66.16,122.68,122.68,0,0,0-3.13,25.13,13.44,13.44,0,0,0,2.81,8.82,15.5,15.5,0,0,1-10.92,4.29c-3.36,0-4.3-1.4-4.3-4.45a30,30,0,0,1,.86-6l-.7-.07C257.16,286,253.18,288,248.18,288c-4.68,0-13.19-2.73-13.19-16,0-18.42,12.88-24.58,20.76-24.58A14,14,0,0,1,265.43,250.74Zm-15.3,21.16c0,3.51.55,5.85.94,6.24,1.87,0,4.29-2.11,6.56-7.65a61.82,61.82,0,0,0,3.2-13,7.9,7.9,0,0,0-4.45-1.17C253.1,256.36,250.13,264.56,250.13,271.9Z"/><path d="M291.11,247.39c2.42,0,5,1,5,5.15a37.76,37.76,0,0,1-.54,4.37H296c3.82-8.12,10.07-9.52,13.66-9.52,5.07,0,9.13,2.5,10.61,6.79-1.56,4.14-4.37,15.06-4.37,21.31,0,2.42,1.25,5.23,3.12,6.09A12.9,12.9,0,0,1,307.58,288c-5.62,0-7-3.66-7-7.57,0-4.84,2.26-13.27,4.37-21.23l-.54-.23c-3.05,0-6.72,3.59-8.2,8.66-1.79,6.25-2.11,15.54-2.11,19.83a54.49,54.49,0,0,1-7.1.54c-5.7,0-7.88-2.73-7.88-6.47,0-6.33,3.27-11.48,3.27-16.86,0-2-.78-7.34-3.35-10.85C281.19,249.1,286.5,247.39,291.11,247.39Z"/><path d="M362.52,251.91c-1.4,7.58-2.65,16-2.65,22.8,0,3.12,1,6.71,2.89,8.66a16.17,16.17,0,0,1-10.7,4.29c-2.42,0-4.53-.39-4.53-4.29a29.44,29.44,0,0,1,.86-6.17l-.7-.07c-3.59,9-8.51,10.84-12,10.84-4.45,0-13.5-2.34-13.5-15.22,0-20.91,13.19-24.89,19-24.89a12.77,12.77,0,0,1,8.35,3.27,73.15,73.15,0,0,0,.47-7.72c0-1.17,0-4.76-2.58-7,3.2-3.36,7.57-3.82,10.22-3.82,3.28,0,7,1,7,6.63C364.63,241.53,363.3,247.39,362.52,251.91Zm-25.29,20.77a13.5,13.5,0,0,0,.86,5.62c3.12-.94,8.2-5.23,10-20.14a8.23,8.23,0,0,0-4.76-1.41C339.73,256.75,337.23,265,337.23,272.68Z"/><path d="M371,257.61a34.23,34.23,0,0,0-5.22.31c0-3.82.23-9,3.82-9,.86,0,2.11.08,3,.08,0-1.95-.23-6.64-1.56-8.28A23.74,23.74,0,0,1,382,237.4c3.59,0,4.53,2.34,4.53,5.15a44.34,44.34,0,0,1-.71,6.55,23.3,23.3,0,0,0,5.78-.85,13.21,13.21,0,0,1,1.25,5.54c0,4.06-4.68,4.21-8.35,4.21-1.8,8.51-3.59,14.68-3.59,17.17,0,1.49.39,2.27.86,2.58,1.56-.39,3.51-1.33,5.54-4.29,2.65,1.79,3.43,3.74,3.43,5.7,0,5.62-6.71,8.5-12.72,8.5-8.2,0-11-3.28-11-9C367,274.71,368.92,269.09,371,257.61Z"/><path d="M444.31,254.57c0,5.23-7.57,7.18-7.57,7.18-1.4-4.68-3.82-6.95-6.09-7.57-1.79.7-2.73,1.79-2.73,3.43,0,2,2.58,3.59,4.92,4.92,4.53,2.58,9.83,5.39,9.83,12,0,8.27-7.8,13.42-19,13.42-10.23,0-14-4.05-14-8.19,0-6,7.49-8.74,7.49-8.74,2.42,4.52,6.09,9.44,7.18,10.22,1.48-.39,3.83-2,3.83-4.37,0-2.89-3.44-4.37-6.33-6.16-5.23-3.2-8.82-6.33-8.82-11.56,0-8.66,10-11.78,18.74-11.78C436.12,247.39,444.31,248,444.31,254.57Z"/><path d="M465.46,252.3a12.23,12.23,0,0,1-.7,3.36l.47.16c2.65-4.76,5.7-8.43,13-8.43,7.64,0,12.56,5.15,12.56,14.13,0,14.82-7.8,26.45-19.9,26.45a11.21,11.21,0,0,1-9.29-4.37l-.23.08c.15,1.72.54,5.54.54,7.26,0,9.91-2.42,15.77-8,15.77-2.5,0-7.88-.7-11.08-4.45,6.09-8.43,8.19-29.43,8.19-37.08,0-3.82-1.09-9.75-3.12-11.24,2.42-4.84,6.95-6.55,11.94-6.55C463.43,247.39,465.46,249,465.46,252.3Zm9.21,5.08c-3.43,0-7.41,4.21-11.16,18.42,1.41,1.4,2.89,2.57,4.84,2.57,4.45,0,7.26-9.83,7.26-16.15C475.61,260.89,475.61,258.71,474.67,257.38Z"/><path d="M512.21,253.55c0,4.22-1.87,9.68-3,15a39,39,0,0,0-.94,7.57,8.36,8.36,0,0,0,3.28,6.79A15.41,15.41,0,0,1,500.35,288c-6.48,0-6.87-5.54-6.87-7.8,0-3.28.86-7.34,1.79-11.79.86-4.06,2-8,2-10.77a7.61,7.61,0,0,0-2.26-5.7c.86-1.32,4.53-4.13,10-4.13C510,247.78,512.21,250.35,512.21,253.55Zm-5.62-24c4.92,0,8.28,2.81,8.28,6.95,0,4.45-4.3,7.18-8.9,7.18-4.92,0-8.35-3-8.35-6.56C497.62,232.48,501.67,229.59,506.59,229.59Z"/><path d="M535.47,239.43c0,5.23-1.8,12.25-3.05,18.57-1,5.15-1.95,10.23-1.95,14.44,0,7.34,3.44,10,3.44,10a11.85,11.85,0,0,1-10.07,5.23c-6.87,0-8.43-4.76-8.43-9.44,0-5.39,2-13.19,3-20.45a100.81,100.81,0,0,0,1.41-13.11c0-3.6-.31-6.33-1.88-8.28a14.76,14.76,0,0,1,9.92-3.82C533.36,232.56,535.47,235.6,535.47,239.43Z"/><path d="M557.48,239.43c0,5.23-1.8,12.25-3.05,18.57-1,5.15-1.95,10.23-1.95,14.44,0,7.34,3.44,10,3.44,10a11.85,11.85,0,0,1-10.07,5.23c-6.87,0-8.43-4.76-8.43-9.44,0-5.39,2-13.19,3-20.45a102.59,102.59,0,0,0,1.41-13.11c0-3.6-.32-6.33-1.88-8.28a14.76,14.76,0,0,1,9.92-3.82C555.37,232.56,557.48,235.6,557.48,239.43Z"/><path d="M576.83,288c-10,0-17.79-5.07-17.79-18.1,0-18,13.5-22.48,22.24-22.48,6.64,0,14,1.64,14,9.68,0,10.06-12.56,13-20.91,14.51.15,3,1,6.09,2.42,7.42,5-1.87,10.06-7,10.06-7s4.61,1.1,4.61,6.8S584,288,576.83,288Zm-2.65-22.79c4.68-.62,7.26-3,7.26-6.47a3.93,3.93,0,0,0-1.64-3.44C577.77,255.9,574.65,257.85,574.18,265.18Z"/><path d="M602.82,257.61a34.35,34.35,0,0,0-5.23.31c0-3.82.24-9,3.83-9,.86,0,2.1.08,3,.08,0-1.95-.23-6.64-1.56-8.28a23.74,23.74,0,0,1,10.93-3.35c3.59,0,4.52,2.34,4.52,5.15a45.72,45.72,0,0,1-.7,6.55,23.37,23.37,0,0,0,5.78-.85,13.37,13.37,0,0,1,1.25,5.54c0,4.06-4.69,4.21-8.35,4.21-1.8,8.51-3.6,14.68-3.6,17.17,0,1.49.39,2.27.86,2.58,1.56-.39,3.52-1.33,5.55-4.29,2.65,1.79,3.43,3.74,3.43,5.7,0,5.62-6.71,8.5-12.72,8.5-8.2,0-11-3.28-11-9C598.84,274.71,600.71,269.09,602.82,257.61Z"/></g></svg>
