<svg xmlns="http://www.w3.org/2000/svg" width="378" height="78" viewBox="0 0 378 78"><defs><style>.cls-1{fill:#fff;}</style></defs><title>Liv_boks</title><g id="Layer_16" data-name="Layer 16"><rect class="cls-1" width="378" height="78" rx="20.43" ry="20.43"/><path d="M39.55,20.37c0,4.42-1.72,15.6-4.52,24.51h3.12c2.43,0,6.14-.1,8.73-1.67,1.56,1.73,2.21,3,2.21,4.91,0,3.24-3,4.81-9.75,4.81H34.22c-4.9,0-8.62-.22-11-1.84,2.26-5.88,5.87-19.92,5.87-28a21.1,21.1,0,0,0-.81-5.51A13.1,13.1,0,0,1,35,15.94C38.42,15.94,39.55,17.4,39.55,20.37Z"/><path d="M64.71,29.65c0,2.92-1.29,6.7-2,10.37A27.87,27.87,0,0,0,62,45.26,5.8,5.8,0,0,0,64.28,50a10.63,10.63,0,0,1-7.76,3.51c-4.47,0-4.74-3.83-4.74-5.4A44.24,44.24,0,0,1,53,39.91c.59-2.8,1.4-5.56,1.4-7.45a5.25,5.25,0,0,0-1.56-3.94c.59-.92,3.12-2.86,6.89-2.86C63.2,25.66,64.71,27.44,64.71,29.65ZM60.83,13.08c3.39,0,5.71,1.94,5.71,4.8,0,3.08-3,5-6.14,5-3.39,0-5.76-2.05-5.76-4.53C54.64,15.07,57.44,13.08,60.83,13.08Z"/><path d="M80.92,36.68a25.47,25.47,0,0,1-1.45,8.69l.32.27c2.91-2,6.14-7.13,6.14-11.77a8.23,8.23,0,0,0-1.77-5.08,7.79,7.79,0,0,1,6.46-3.4c2.21,0,5.33.76,5.33,5.94,0,9.4-10.45,22.14-18.85,22.14a10.22,10.22,0,0,1-6.84-2.92,50.83,50.83,0,0,0,.91-9.07c0-5-.91-9.61-4.52-11.61a8,8,0,0,1,7.22-4.48C79.42,25.39,80.92,30.79,80.92,36.68Z"/></g></svg>
