<svg xmlns="http://www.w3.org/2000/svg" width="380" height="79" viewBox="0 0 380 79"><defs><style>.cls-1{fill:#fff;}.cls-2{fill:#b1152d;}</style></defs><title>Liv_Eksempel</title><g id="Layer_16" data-name="Layer 16"><rect class="cls-1" x="1" y="0.5" width="378" height="78" rx="20.43" ry="20.43"/><path d="M40.55,20.87c0,4.42-1.72,15.6-4.52,24.51h3.12c2.43,0,6.14-.1,8.73-1.67,1.56,1.73,2.21,3,2.21,4.91,0,3.24-3,4.81-9.75,4.81H35.22c-4.9,0-8.62-.22-11-1.84,2.26-5.88,5.87-19.92,5.87-28a21.1,21.1,0,0,0-.81-5.51A13.1,13.1,0,0,1,36,16.44C39.42,16.44,40.55,17.9,40.55,20.87Z"/><path d="M65.71,30.15c0,2.92-1.29,6.7-2,10.37A27.87,27.87,0,0,0,63,45.76a5.8,5.8,0,0,0,2.26,4.7A10.63,10.63,0,0,1,57.52,54c-4.47,0-4.74-3.83-4.74-5.4A44.24,44.24,0,0,1,54,40.41c.59-2.8,1.4-5.56,1.4-7.45A5.25,5.25,0,0,0,53.86,29c.59-.92,3.12-2.86,6.89-2.86C64.2,26.16,65.71,27.94,65.71,30.15ZM61.83,13.58c3.39,0,5.71,1.94,5.71,4.8,0,3.08-3,5-6.14,5-3.39,0-5.76-2.05-5.76-4.53C55.64,15.57,58.44,13.58,61.83,13.58Z"/><path d="M81.92,37.18a25.47,25.47,0,0,1-1.45,8.69l.32.27c2.91-2,6.14-7.13,6.14-11.77a8.23,8.23,0,0,0-1.77-5.08,7.79,7.79,0,0,1,6.46-3.4c2.21,0,5.33.76,5.33,5.94C97,41.23,86.5,54,78.1,54a10.22,10.22,0,0,1-6.84-2.92A50.83,50.83,0,0,0,72.17,42c0-5-.91-9.61-4.52-11.61a8,8,0,0,1,7.22-4.48C80.42,25.89,81.92,31.29,81.92,37.18Z"/><path class="cls-2" d="M148.86,23c-3.79-7-13.52-19.31-29.53-3.42a1.86,1.86,0,0,0-.26.31c-1,1.46-7.44,11.6-2.57,22.52a2,2,0,0,0,.36.54c1.21,1.34,7.18,7.78,12.13,10.83,0,0,15,8.56,20.46,16.55a2,2,0,0,0,3.11.29c3.52-3.54,11.22-11.08,16-14.29,0,0,15.32-9.79,17.45-17.45,0,0,5.93-12.7-8-24.17a2.83,2.83,0,0,0-.28-.2c-1.68-1-16.51-9-25.34,8.42A2,2,0,0,1,148.86,23Z"/><path class="cls-2" d="M237.86,23c-3.79-7-13.52-19.31-29.53-3.42a1.86,1.86,0,0,0-.26.31c-1,1.46-7.44,11.6-2.57,22.52a2,2,0,0,0,.36.54c1.21,1.34,7.18,7.78,12.13,10.83,0,0,15,8.56,20.46,16.55a2,2,0,0,0,3.11.29c3.52-3.54,11.22-11.08,16-14.29,0,0,15.32-9.79,17.45-17.45,0,0,5.93-12.7-8-24.17a2.83,2.83,0,0,0-.28-.2c-1.68-1-16.51-9-25.34,8.42A2,2,0,0,1,237.86,23Z"/></g></svg>
