<svg xmlns="http://www.w3.org/2000/svg" width="366.09" height="396.09" viewBox="0 0 366.09 396.09"><defs><style>.cls-1{fill:#fd9b0a;}.cls-2{fill:#e07c03;}.cls-3{fill:#eebb5c;}.cls-4{fill:#b12c05;}.cls-5{fill:#eea733;}.cls-6{fill:#fff;}.cls-7{fill:#f6b2e7;opacity:0.82;}.cls-8{fill:#c69c6d;}.cls-9{fill:#42210b;}</style></defs><title>Løve_Reflected</title><g id="Layer_7" data-name="Layer 7"><path class="cls-1" d="M254.87,326.8l17.44,6.85,16.48,21.87a3,3,0,0,0,3.13,1.1,3,3,0,0,0,1.44-.83,3.08,3.08,0,0,0,.15-4l-17.44-23.13L251.7,319.1"/><path d="M291.07,368.69h0a1.13,1.13,0,0,1,1.74-.47l9.48,8.82a1.08,1.08,0,0,0,1.76-1l-3.33-10.21a5.38,5.38,0,0,1-.23-1l-.62-5a5.56,5.56,0,0,0-1.49-3.14l-4.26-4.52a1.06,1.06,0,0,0-1.16-.2L288,353.47c-.52.22-.65,1.73-.48,2.19l1.56,13.18A1.07,1.07,0,0,0,291.07,368.69Z"/><path class="cls-2" d="M90.41,367.64v1.69a5.41,5.41,0,0,0,5.42,5.42H268a5.41,5.41,0,0,0,5.42-5.42,5.35,5.35,0,0,0-1-3.12,5.45,5.45,0,0,0-2.62-2l-1.55-.55L259,360.42a5.41,5.41,0,0,1-3.48-6.32L260,334.5a5.46,5.46,0,0,0-.44-3.64l-31.63-63.12a5.42,5.42,0,0,0-4.84-3H165.72a5.39,5.39,0,0,0-3.91,1.67L139.6,289.55a3.62,3.62,0,0,0-.36.42l-21.91,28.08a5.48,5.48,0,0,0-1.1,2.68l-3.49,28.68a5.43,5.43,0,0,1-2.73,4.07l-15,8.39-1.87,1.05A5.41,5.41,0,0,0,90.41,367.64Z"/><path class="cls-3" d="M156.41,343.25c0,10.77,12.82,17.33,24.5,19.5,21.5,4,24.5-8.73,24.5-19.5s-3.47-28.5-17-28.5C168.41,314.75,156.41,332.48,156.41,343.25Z"/><path class="cls-1" d="M189.48,270.81l7.33,116.46a7.37,7.37,0,0,0,6.87,6.89l29.44,1.91c.21,0,.41,0,.62,0a7.37,7.37,0,0,0,7.23-7.4v-1.75a7.34,7.34,0,0,0-3.76-6.38L234.39,379l-10.19-5.72a7.36,7.36,0,0,1-3.75-6l-5.1-98.3a7.37,7.37,0,0,0-8-7L196.15,263A7.38,7.38,0,0,0,189.48,270.81Z"/><path class="cls-1" d="M120.06,385.16a6.89,6.89,0,0,0,6.23,6.9,6.08,6.08,0,0,0,1.13,0l30.32-1.95a6.92,6.92,0,0,0,6.46-6.47l7.42-117.29a6.91,6.91,0,0,0-6.24-7.32l-12.06-1.14a6.92,6.92,0,0,0-7.56,6.52l-5.18,99a6.9,6.9,0,0,1-3.52,5.67l-12.92,7.25-.53.3a6.89,6.89,0,0,0-3.53,6Z"/><path class="cls-4" d="M46.45,299.11,99.07,282a2.21,2.21,0,0,1,2.88,1.8l4.72,33.7a2.22,2.22,0,0,0,4,1L131,291.92a2.22,2.22,0,0,1,3.83.56l13.72,36.33a2.22,2.22,0,0,0,4.09.14l14.2-30.79a2.22,2.22,0,0,1,3.8-.38l16.89,23a2.21,2.21,0,0,0,3.95-.83l5.94-26.71a2.21,2.21,0,0,1,3.89-.91l29.75,37.19A2.22,2.22,0,0,0,235,328.4l4.07-38.29a2.21,2.21,0,0,1,3.3-1.69L299.8,321a2.21,2.21,0,0,0,3.05-3l-29.38-55.41a2.21,2.21,0,0,1,2.28-3.23l75.67,11.31a2.22,2.22,0,0,0,1.85-3.81l-53.4-50.34a2.21,2.21,0,0,1,.84-3.72l57.06-18.28a2.22,2.22,0,0,0,.2-4.15L303.56,167a2.22,2.22,0,0,1-.49-3.78l62.17-48.67a2.22,2.22,0,0,0-1.62-4l-75.22,8.58a2.22,2.22,0,0,1-2.24-3.19l31.33-63.37a2.22,2.22,0,0,0-3-3l-62.1,31.05a2.21,2.21,0,0,1-3.16-2.4l9.71-51a2.21,2.21,0,0,0-3.8-1.92l-42,45.35a2.21,2.21,0,0,1-3.77-1L191.93,1.67a2.22,2.22,0,0,0-4.15-.41l-26,54.58a2.21,2.21,0,0,1-3.73.43L122.44,11.8a2.21,2.21,0,0,0-3.94,1.41l.86,62.65a2.21,2.21,0,0,1-3.32,2L39.69,33.94a2.21,2.21,0,0,0-3,3l39.1,66.22a2.22,2.22,0,0,1-2.11,3.34L5.22,100.36a2.22,2.22,0,0,0-1.66,3.88L53.82,148a2.22,2.22,0,0,1-.72,3.76L1.48,170a2.21,2.21,0,0,0-.21,4.09L50.64,197.5a2.21,2.21,0,0,1,.51,3.66L5.83,240.88a2.22,2.22,0,0,0,1.46,3.88l58.58.06a2.22,2.22,0,0,1,2,3.21L43.79,296A2.21,2.21,0,0,0,46.45,299.11Z"/><path class="cls-5" d="M93,156h0A2.5,2.5,0,0,1,92.6,158l-4.54,6a2.44,2.44,0,0,0-.44,1.92L108,267.82a2.41,2.41,0,0,0,2.36,1.93h146a2.4,2.4,0,0,0,2.37-2l16.51-99.82a2.41,2.41,0,0,0-.4-1.77l-6.68-9.55a3.77,3.77,0,0,0,.14-.58l13.2-76.59A4.21,4.21,0,0,0,274.12,76l-35.37,42.84a2.42,2.42,0,0,1-1.85.87H124.43a2.42,2.42,0,0,1-1.85-.87L87.22,76a4.21,4.21,0,0,0-7.39,3.39Z"/><circle class="cls-6" cx="224.41" cy="226.75" r="23"/><circle cx="215.41" cy="221.75" r="3"/><circle class="cls-6" cx="129.41" cy="223.75" r="23"/><circle cx="120.41" cy="218.75" r="3"/><path class="cls-7" d="M106.15,135.35l5.2-2.42a4.81,4.81,0,0,0,2-6.8L98.81,101a4.78,4.78,0,0,0-6.13-2h0a4.76,4.76,0,0,0-2.41,5.89l9.35,27.59A4.81,4.81,0,0,0,106.15,135.35Z"/><path class="cls-7" d="M254.87,135.35l-5.19-2.42a4.82,4.82,0,0,1-2-6.8L262.22,101a4.78,4.78,0,0,1,6.13-2h0a4.76,4.76,0,0,1,2.41,5.89l-9.35,27.59A4.82,4.82,0,0,1,254.87,135.35Z"/><path class="cls-8" d="M142.21,257.52l0,10.25a2,2,0,0,0,2,2h65.29a2,2,0,0,0,2-2l0-10.46a2,2,0,0,0-1-1.72l-32.7-18.74a2,2,0,0,0-2,0L143.2,255.79A2,2,0,0,0,142.21,257.52Z"/><path class="cls-9" d="M167.4,248.28l6.52,5.52a5.18,5.18,0,0,0,6.85-.15l6.76-6.24a5.18,5.18,0,0,0,1.1-6.15l-1.88-3.69a5.19,5.19,0,0,0-4.65-2.82l-9.43.07a5.17,5.17,0,0,0-4.67,3l-2,4.33A5.17,5.17,0,0,0,167.4,248.28Z"/><path class="cls-9" d="M183.2,265.14a1.5,1.5,0,0,0,1.28-2.27l-7.64-12.8-6.92,12.41a1.5,1.5,0,0,0,2.62,1.46l4.39-7.87,5,8.34A1.5,1.5,0,0,0,183.2,265.14Z"/><path d="M188.7,202.76q3.62,2.9,7,5.75a1.2,1.2,0,0,0,2-.32,169.82,169.82,0,0,1,21.66-33.86,1.4,1.4,0,0,0-.31-2l-2.22-1.73a1.91,1.91,0,0,0-2.39,0,170.44,170.44,0,0,0-26.19,29.94A1.76,1.76,0,0,0,188.7,202.76Z"/><path d="M163.57,201.5c-2.36,2-4.63,4.1-6.8,6.18a1.2,1.2,0,0,1-2-.1,207,207,0,0,0-23.27-33.21,1.48,1.48,0,0,1,.18-2.11l2.1-1.79a1.88,1.88,0,0,1,2.39,0A241.78,241.78,0,0,1,164,199.3,1.66,1.66,0,0,1,163.57,201.5Z"/><path class="cls-3" d="M232.41,388.25a21.87,21.87,0,0,0,1.33,7.83,7.37,7.37,0,0,0,7.23-7.4v-1.75a7.34,7.34,0,0,0-3.76-6.38L234.39,379A20.49,20.49,0,0,0,232.41,388.25Z"/><path class="cls-3" d="M120.06,385.16a6.89,6.89,0,0,0,6.23,6.9,17.06,17.06,0,0,0,1.12-6.31c0-4.3-1.36-8-3.27-9.38l-.53.3a6.89,6.89,0,0,0-3.53,6Z"/><path class="cls-3" d="M90.41,367.64v1.69a5.41,5.41,0,0,0,5.42,5.42h.09a24.93,24.93,0,0,0,.49-5,21,21,0,0,0-1.36-7.88l-1.87,1.05A5.41,5.41,0,0,0,90.41,367.64Z"/><path class="cls-3" d="M267.41,369.75a22.47,22.47,0,0,0,.54,5h0a5.41,5.41,0,0,0,5.42-5.42,5.35,5.35,0,0,0-1-3.12,5.45,5.45,0,0,0-2.62-2l-1.55-.55A21.07,21.07,0,0,0,267.41,369.75Z"/></g></svg>
