<svg xmlns="http://www.w3.org/2000/svg" width="370" height="400" viewBox="0 0 370 400"><defs><style>.cls-1{fill:#fd9b0a;}.cls-2{fill:#e07c03;}.cls-3{fill:#eebb5c;}.cls-4{fill:#b12c05;}.cls-5{fill:#eea733;}.cls-6{fill:#fff;}.cls-7{fill:#f6b2e7;opacity:0.82;}.cls-8{fill:#c69c6d;}.cls-9{fill:#42210b;}</style></defs><title>Løve</title><g id="Layer_7" data-name="Layer 7"><path class="cls-1" d="M113.17,328.76l-17.43,6.85L79.25,357.48a3,3,0,0,1-4.56.26,3.07,3.07,0,0,1-.16-4L92,330.65l24.36-9.59"/><path d="M77,370.65h0a1.12,1.12,0,0,0-1.74-.47L65.75,379c-.72.67-2.06-.1-1.76-1l3.34-10.22a6.12,6.12,0,0,0,.23-1l.62-5a5.67,5.67,0,0,1,1.48-3.15l4.27-4.51a1.05,1.05,0,0,1,1.16-.2L80,355.43c.52.21.65,1.72.49,2.18L78.93,370.8A1.07,1.07,0,0,1,77,370.65Z"/><path class="cls-2" d="M277.64,369.6v1.69a5.41,5.41,0,0,1-5.42,5.42H100.06a5.41,5.41,0,0,1-5.42-5.42,5.35,5.35,0,0,1,1-3.12,5.45,5.45,0,0,1,2.62-2l1.55-.55,9.27-3.25a5.41,5.41,0,0,0,3.48-6.32l-4.49-19.6a5.46,5.46,0,0,1,.44-3.64l31.63-63.12a5.42,5.42,0,0,1,4.84-3h57.35a5.39,5.39,0,0,1,3.91,1.67l22.21,23.13a3.62,3.62,0,0,1,.36.42L250.72,320a5.48,5.48,0,0,1,1.1,2.68l3.49,28.68a5.43,5.43,0,0,0,2.73,4.07l15,8.39,1.87,1.05A5.41,5.41,0,0,1,277.64,369.6Z"/><path class="cls-3" d="M211.64,345.21c0,10.77-12.82,17.32-24.5,19.5-21.5,4-24.5-8.73-24.5-19.5s3.47-28.5,17-28.5C199.64,316.71,211.64,334.44,211.64,345.21Z"/><path class="cls-1" d="M178.57,272.77l-7.33,116.46a7.37,7.37,0,0,1-6.87,6.89L134.93,398c-.21,0-.41,0-.62,0a7.37,7.37,0,0,1-7.23-7.4v-1.75a7.34,7.34,0,0,1,3.76-6.38l2.81-1.58,10.19-5.72a7.36,7.36,0,0,0,3.75-6l5.1-98.3a7.37,7.37,0,0,1,8.05-6.95L171.9,265A7.38,7.38,0,0,1,178.57,272.77Z"/><path class="cls-1" d="M248,387.12a6.89,6.89,0,0,1-6.23,6.9,6.08,6.08,0,0,1-1.13,0l-30.32-1.95a6.92,6.92,0,0,1-6.46-6.47l-7.42-117.29a6.91,6.91,0,0,1,6.24-7.32l12.06-1.14a6.92,6.92,0,0,1,7.56,6.52l5.18,99a6.9,6.9,0,0,0,3.52,5.67l12.92,7.25.53.3a6.89,6.89,0,0,1,3.53,6Z"/><path class="cls-4" d="M321.59,301.07,269,284a2.21,2.21,0,0,0-2.88,1.8l-4.73,33.7a2.21,2.21,0,0,1-3.95,1l-20.36-26.62a2.21,2.21,0,0,0-3.83.56L219.5,330.76a2.21,2.21,0,0,1-4.08.15l-14.21-30.79a2.22,2.22,0,0,0-3.8-.38l-16.88,23a2.22,2.22,0,0,1-3.95-.83l-5.94-26.72a2.22,2.22,0,0,0-3.89-.9L137,331.5a2.21,2.21,0,0,1-3.93-1.15L129,292.07a2.2,2.2,0,0,0-3.29-1.69L68.25,323a2.22,2.22,0,0,1-3-3l29.38-55.4a2.22,2.22,0,0,0-2.28-3.23l-75.67,11.3a2.21,2.21,0,0,1-1.85-3.8l53.4-50.34a2.22,2.22,0,0,0-.85-3.72l-57-18.28a2.22,2.22,0,0,1-.2-4.15L64.48,169a2.21,2.21,0,0,0,.49-3.78L2.81,116.54a2.21,2.21,0,0,1,1.62-3.94l75.21,8.57A2.21,2.21,0,0,0,81.88,118L50.56,54.62a2.22,2.22,0,0,1,3-3l62.09,31.05a2.22,2.22,0,0,0,3.17-2.4l-9.72-51a2.21,2.21,0,0,1,3.8-1.92l42,45.35a2.23,2.23,0,0,0,3.78-1L176.12,3.62a2.22,2.22,0,0,1,4.15-.4l26,54.58a2.22,2.22,0,0,0,3.73.43L245.6,13.75a2.22,2.22,0,0,1,4,1.42l-.86,62.65a2.21,2.21,0,0,0,3.32,2l76.34-43.88a2.22,2.22,0,0,1,3,3l-39.1,66.22a2.21,2.21,0,0,0,2.1,3.33l68.46-6.17a2.22,2.22,0,0,1,1.65,3.88L314.23,150a2.22,2.22,0,0,0,.72,3.76l51.62,18.18a2.22,2.22,0,0,1,.21,4.09L317.4,199.45a2.22,2.22,0,0,0-.51,3.67l45.32,39.71a2.21,2.21,0,0,1-1.45,3.88l-58.58.07a2.21,2.21,0,0,0-2,3.21l24.06,48A2.22,2.22,0,0,1,321.59,301.07Z"/><path class="cls-5" d="M275,158h0a2.52,2.52,0,0,0,.43,1.94l4.54,6a2.39,2.39,0,0,1,.43,1.92L260,269.78a2.4,2.4,0,0,1-2.35,1.93h-146a2.41,2.41,0,0,1-2.38-2L92.8,169.88a2.36,2.36,0,0,1,.4-1.77l6.68-9.55a3.77,3.77,0,0,1-.14-.58L86.54,81.39A4.21,4.21,0,0,1,93.93,78l35.37,42.84a2.39,2.39,0,0,0,1.85.87H243.61a2.4,2.4,0,0,0,1.86-.88L280.83,78a4.21,4.21,0,0,1,7.39,3.39Z"/><circle class="cls-6" cx="143.64" cy="228.71" r="23"/><circle cx="152.64" cy="223.71" r="3"/><circle class="cls-6" cx="238.64" cy="225.71" r="23"/><circle cx="247.64" cy="220.71" r="3"/><path class="cls-7" d="M261.89,137.31l-5.19-2.43a4.81,4.81,0,0,1-2-6.79l14.55-25.18a4.78,4.78,0,0,1,6.13-2h0a4.77,4.77,0,0,1,2.41,5.9l-9.36,27.59A4.82,4.82,0,0,1,261.89,137.31Z"/><path class="cls-7" d="M113.17,137.31l5.19-2.43a4.8,4.8,0,0,0,2-6.79l-14.55-25.18a4.77,4.77,0,0,0-6.12-2h0a4.79,4.79,0,0,0-2.42,5.9l9.36,27.59A4.82,4.82,0,0,0,113.17,137.31Z"/><path class="cls-8" d="M225.83,259.48l0,10.24a2,2,0,0,1-2,2H158.52a2,2,0,0,1-2-2l0-10.46a2,2,0,0,1,1-1.72l32.71-18.74a2,2,0,0,1,2,0l32.58,18.95A2,2,0,0,1,225.83,259.48Z"/><path class="cls-9" d="M200.65,250.24l-6.52,5.51a5.17,5.17,0,0,1-6.86-.15l-6.75-6.23a5.18,5.18,0,0,1-1.1-6.16l1.88-3.68a5.17,5.17,0,0,1,4.65-2.82l9.43.07a5.17,5.17,0,0,1,4.67,3l2,4.33A5.18,5.18,0,0,1,200.65,250.24Z"/><path class="cls-9" d="M184.85,267.1a1.54,1.54,0,0,1-.77-.21,1.51,1.51,0,0,1-.52-2.06L191.2,252l6.93,12.4a1.5,1.5,0,0,1-2.62,1.47L191.12,258l-5,8.34A1.5,1.5,0,0,1,184.85,267.1Z"/><path d="M179.35,204.72c-2.41,1.92-4.73,3.85-7,5.75a1.2,1.2,0,0,1-1.95-.32,169.15,169.15,0,0,0-21.67-33.86,1.4,1.4,0,0,1,.32-2l2.21-1.73a1.94,1.94,0,0,1,2.4,0,171.57,171.57,0,0,1,26.19,29.94A1.78,1.78,0,0,1,179.35,204.72Z"/><path d="M204.48,203.46c2.36,2,4.62,4.1,6.79,6.18a1.2,1.2,0,0,0,2-.11,207.51,207.51,0,0,1,23.26-33.2,1.47,1.47,0,0,0-.17-2.11c-.69-.6-1.39-1.19-2.1-1.79a1.88,1.88,0,0,0-2.39,0A240.24,240.24,0,0,0,204,201.26,1.66,1.66,0,0,0,204.48,203.46Z"/><path class="cls-3" d="M135.64,390.21a21.87,21.87,0,0,1-1.33,7.83,7.37,7.37,0,0,1-7.23-7.4v-1.75a7.34,7.34,0,0,1,3.76-6.38l2.81-1.58A20.49,20.49,0,0,1,135.64,390.21Z"/><path class="cls-3" d="M248,387.12a6.89,6.89,0,0,1-6.23,6.9,17.06,17.06,0,0,1-1.12-6.31c0-4.3,1.36-8,3.27-9.38l.53.3a6.89,6.89,0,0,1,3.53,6Z"/><path class="cls-3" d="M277.64,369.6v1.69a5.41,5.41,0,0,1-5.42,5.42h-.09a24.93,24.93,0,0,1-.49-5,21,21,0,0,1,1.36-7.88l1.87,1.05A5.41,5.41,0,0,1,277.64,369.6Z"/><path class="cls-3" d="M100.64,371.71a22.47,22.47,0,0,1-.54,5h0a5.41,5.41,0,0,1-5.42-5.42,5.35,5.35,0,0,1,1-3.12,5.45,5.45,0,0,1,2.62-2l1.55-.55A21.07,21.07,0,0,1,100.64,371.71Z"/></g></svg>
