<svg xmlns="http://www.w3.org/2000/svg" width="1334" height="750" viewBox="0 0 1334 750"><defs><style>.cls-1{fill:#919e1d;}.cls-2{fill:#efbb56;}.cls-3{fill:#603813;}.cls-4{fill:#4c8c11;}.cls-5{fill:#95c730;}.cls-6{fill:#415715;}</style></defs><title>Mellemgrund</title><g id="Layer_14" data-name="Layer 14"><rect class="cls-1" x="-9" y="451.76" width="1352" height="304.56"/><path class="cls-2" d="M1343,463.94l-287.83-2L925.44,453.8,892,456.08l-115.58,7.86-237.16-2-91.21-3-84.12,3L258.56,470,96.4,463.94l-105.4-2V427.45l174.32,9.13,66.89,2,37.5-11.15h58.78s61.83,3,69.93,8.11,84.12,4.06,94.26,1,72-10.14,98.31-1,193.57-12.16,204.72-8.11,40.54,17.23,77,15.21,30.4-7.1,94.25-2,137.84,11.15,177.36,9.12,84.12,1,116.56-2,82.09-7.09,82.09-7.09Z"/><path class="cls-3" d="M61.83,282.4h1A3.13,3.13,0,0,1,66,284.55c2.26,7.16,14.25,30.24,75.27,37.83,0,0,0,0,0,0A61.17,61.17,0,0,1,131.39,298c-4.81-31.22,4.5-2.31,4.78-1.25,3.45,12.76,12.68,24.59,23.45,34.28l-.12-.76a2,2,0,0,0,1.48-1c3-4.34-1.08-36.67-2.73-44.45,0,0,0,0,0,0l7.15,2.38v0c4.63,21.51,4.3,41.94,3.46,47.5a4.41,4.41,0,0,1-1.58,2.71s0,0,0,0a122.43,122.43,0,0,0,26.91,15.9h0a2.93,2.93,0,0,1,1.43-1.43c5.18-2.43,10.26-10.21,14.85-19.88v0c-8.57-7.57-13.52-12-15.76-17.63-2.52-6.38-4.81-22.93-4.66-23.57h0l6-4.77s0,0,0,0c.06.72,1.29,13.45,4.79,23.94,2.21,6.64,8.46,11.54,13,14.38h0a335.77,335.77,0,0,0,11.31-33.07A3.2,3.2,0,0,1,228,288.9a3.13,3.13,0,0,1,3.3,3.81c-2.9,12.78-12.82,53.36-30.62,64,0,0,0,0,0,0,6.8,5.45,13.1,17.13,19.15,35.45,3.26,9.87,5.9,20,7.84,28.23a0,0,0,0,0,0,0c2.14-15.31,9.42-36.21,30.49-56.32v0c-32-38-22.13-67.35-20.37-71.62a1.92,1.92,0,0,1,.62-.81,2,2,0,0,1,3.14,2.06c-1.4,8.14-2.39,24.73,6.65,44h0c18.93-10.91,26.33-40,27.84-46.75a1.81,1.81,0,0,1,2.44-1.28,1.86,1.86,0,0,1,1.1,2.07c-1.36,8.42-7.08,38.53-29,50.62,0,0,0,0,0,0a97.9,97.9,0,0,0,11.75,16.89,2.13,2.13,0,0,1,.36.68l.36-.32c20.64-17.77,28.62-30.45,30.1-38.92,1-5.67,2.21-13.35,2.4-15.58,1.36-15.86,4.79-16.78,4.79-13.19,0,5.41,3,21.84-5.61,41.74a0,0,0,0,0,0,0c3.91-1,10-3.83,18.8-11,6.34-5.18,18.89-25.55,21.55-28.34,1-1,4.58,1.35,3.59,2.4-2.79,2.94-14.75,24.37-21.57,30-11.16,9.14-17.67,17-25,17a16.34,16.34,0,0,1-2.22-.14,1.25,1.25,0,0,1-.26-.07,99.36,99.36,0,0,1-20.05,23.2s0,0,0,0c9.67-1.46,27.49-5.51,33.15-16h3.57s0,0,0,0c-7,12.88-32.36,19.55-43.1,21.83h0c-28.93,28.69-27.42,58.25-26.29,66.55.17,1.25-1.29,1.18-2.5,1.49h-4.8a12,12,0,0,1-5.76-1.3,2,2,0,0,1-2.32-1.58,385.15,385.15,0,0,0-9.68-38.87h0c-5.23-.45-11.22-6.75-25.89-16.65h0c-4,.69-12.47,1.93-14.56,1.93h0C154.53,380.77,122,354,119.51,352c0,0,0,0,0,0l10.63,5.16c-1.18-2.82,29.93,24.87,50,21.19l-2-1.25c-15.44-9.62-40.42-24.25-41.88-25.14,0,0,0,0,0,0l13,1.55h0c.21.16,14.2,10.62,29.51,20.19,16.07,10,24.94,13.73,29.67,15,0,0,0,0,0,0-7.57-20.5-13.49-24.78-15.82-25.65-13-4.88-32.82-17.11-46.49-34a3.74,3.74,0,0,1-.67,0c-70.44-8-84.06-32.94-86.62-42.81A3.07,3.07,0,0,1,61.83,282.4Z"/><path class="cls-4" d="M380.84,294.58c-4.78,6-25.64,28.26-58.06,9.41a5.42,5.42,0,0,0-4.22-.49c-5.49,1.57-20.07,4.51-30.63-4.81a5.56,5.56,0,0,0-4.65-1.38c-5.9,1.05-20.15,3-30.42,0a5.38,5.38,0,0,0-3.32.11c-4.85,1.71-19.07,6.06-30.61,2.62a5.54,5.54,0,0,0-4.53.57c-4.92,3.1-17.83,9.52-30.53,1.3a5.61,5.61,0,0,0-4.74-.59c-5.06,1.64-16.46,4.23-24.06-2.34a5.53,5.53,0,0,0-5.1-1.21c-6.08,1.7-20.87,4.15-38.48-4.89a5.5,5.5,0,0,0-3.47-.56c-5.71,1-23.76,3.36-33-4a5.54,5.54,0,0,0-5.55-.9c-6.52,2.63-21.25,6.94-26.77-5-7.19-15.58-9.59-14.38,0-32.36,7.06-13.25,20.63-9.58,27.29-6.73a5.42,5.42,0,0,0,6.14-1.4c2.67-2.89,8-6.48,17.89-5.59a5.49,5.49,0,0,0,5.38-2.84c3.62-6.85,13.94-21.66,35.07-20.71a5.59,5.59,0,0,0,3.08-.72c6.59-3.82,36-18.59,62.8,4.15a5.45,5.45,0,0,0,6.2.51c4.65-2.61,13.6-5.83,22.19,1.23a5.39,5.39,0,0,0,7-.17c8.46-7.48,30.23-22.49,48.87.43a5.45,5.45,0,0,0,3.74,2c4.77.42,15.77,2.28,21,10.36a5.45,5.45,0,0,0,6.18,2.35c10-3.09,34.44-7.51,39.4,20.58A5.41,5.41,0,0,0,360,258c5.55.18,15.2,2.79,22.45,17.06a5.42,5.42,0,0,1,.55,2.8l-1,13.7A5.42,5.42,0,0,1,380.84,294.58Z"/><path class="cls-4" d="M316.52,326.34a3.92,3.92,0,0,0,1.36.54c3,.59,14.56,3.36,12.47,10.66,0,0-2.05,12.31-12.79,9.41a4,4,0,0,0-4.18,1.23c-2.11,2.62-6.82,5.95-15.42.58a4,4,0,0,0-4.42.14,12.32,12.32,0,0,1-14.39.35,4,4,0,0,0-2.44-.63c-2.82.21-9.12-.21-6.29-8.68,0,0,.57-9,10.35-7.42A4,4,0,0,0,285.1,330c1.88-4.75,6-12.81,12.37-11.82C305.09,319.36,314.08,324.79,316.52,326.34Z"/><path class="cls-4" d="M154.08,337.43a10.75,10.75,0,0,0,6.69,2.32c4.34-.06,10.59.27,11.36,2.58,0,0,2.4,6-4.79,6a21.63,21.63,0,0,1-2.8.46,10.31,10.31,0,0,0-6.94,3.51c-2.76,3.25-7.88,6.93-16,4.38a10.65,10.65,0,0,0-6-.14c-4.1,1.16-11.54,2.52-17.35-.59a10.81,10.81,0,0,0-5.83-1.35c-6.22.39-18.43.63-15.72-3.87,1.87-3.12,5.36-4.94,8.28-6a9.88,9.88,0,0,0,5.6-4.7c1.07-2.11,3.71-4.35,10.11-4.08a10,10,0,0,0,6.2-1.89c3.72-2.67,11-6.06,19.56-.29a10.43,10.43,0,0,0,3.49,1.59A11.6,11.6,0,0,1,154.08,337.43Z"/><path class="cls-5" d="M336.88,291.77a6.37,6.37,0,0,1,1.17-.44c3.93-1,26.17-7.21,14.43-17,0,0-12.4-10.08-20.07-13.75a5.92,5.92,0,0,1-3.37-5c-.26-5-2.61-12.82-15.48-8.18a5.91,5.91,0,0,1-5.39-.68c-4.71-3.29-14.94-9.43-20.94-5.54a6.56,6.56,0,0,1-2.75,1.08c-2.79.32-8.6,1.59-11.29,6.58a6,6,0,0,1-4.71,3.15c-5,.46-13.08,2-10.87,7.29a5.25,5.25,0,0,1,.31,2.36c-.14,2.23.88,7,10.56,11.55a5.74,5.74,0,0,1,3.06,3.58c.94,3.25,3.51,8.5,10.3,8.31a5.13,5.13,0,0,1,1.83.24c3.14,1.07,14.19,4.38,20.56.16a5.7,5.7,0,0,1,7.06.38C316.42,290.6,326.14,297.09,336.88,291.77Z"/><path class="cls-5" d="M202.52,234.47c4.4-1.19,11.77-2.19,15.21,3.06a4.68,4.68,0,0,0,2.24,1.86c3,1.15,9.29,4.17,6.42,8.74a4.4,4.4,0,0,0,.5,5.44c3.64,3.75,8.3,10.13.12,11.91a4.46,4.46,0,0,0-3.44,3.43c-.91,4.16-4.46,10.95-18.13,9.35A4.55,4.55,0,0,0,201,280.5c-2.3,3.87-8.23,10-21.53,5.2a4.62,4.62,0,0,0-2-.27c-4.8.44-25.44,1.95-31.41-4a4.74,4.74,0,0,0-3.68-1.29c-7.31.46-27.59,1.25-28.39-4.21a4.46,4.46,0,0,0-3.14-3.58c-11.43-3.46-41.9-13.92-4-17a4.49,4.49,0,0,0,4-3.47c1.2-5.2,5.09-14.71,17.6-13.18a4.42,4.42,0,0,0,2.64-.52c5-2.68,23-11.78,29.13-7.11a4.66,4.66,0,0,0,5.75,0c3.25-2.61,7.9-5.34,10.93-2.83a4.5,4.5,0,0,0,4.2,1c4.19-1.33,12.25-2.83,16.35,3.32A4.56,4.56,0,0,0,202.52,234.47Z"/><path class="cls-6" d="M186.11,247.84c4.11,2,9.93,5.71,5.52,8.57a12.41,12.41,0,0,0-3.55,3.63c-2,2.92-5.78,7.21-11.49,7.42a12.81,12.81,0,0,0-7.09,2.39c-4.18,3-11.22,7.16-16,4.91a10.91,10.91,0,0,0-3.73-.9c-4.2-.34-12.5-1.61-15.68-6.41a12.64,12.64,0,0,0-5.76-4.74c-4.17-1.68-9.1-4.44-5-6.94a10.19,10.19,0,0,0,3.86-4.43c1.78-3.77,5.7-9.38,13.18-8.89a12.81,12.81,0,0,0,8.72-2.6c2.51-1.94,5.93-3.66,9.21-2.23a13.31,13.31,0,0,0,9.31.21c4.07-1.3,9.52-1.26,13.53,5.39A12.1,12.1,0,0,0,186.11,247.84Z"/><path class="cls-6" d="M315.37,261c2.7,1.72,6.89,5,3.24,6.6a6,6,0,0,0-2.25,1.73c-1.52,1.88-4.79,5.08-9.22,4.5a6.65,6.65,0,0,0-4.15.79c-3,1.74-8.55,4.36-11.84,2.4a6.85,6.85,0,0,0-2.15-.89c-2.76-.52-9.19-2.14-10.83-6.17a6.27,6.27,0,0,0-2.91-3.08c-2.81-1.49-6.55-4-3.3-5.45a6.53,6.53,0,0,0,2.89-2.54c1.54-2.53,4.88-6.4,10.4-5.07a6.51,6.51,0,0,0,5.13-.82c2-1.3,4.82-2.55,7.21-1a6.89,6.89,0,0,0,5.47,1c3.06-.79,7.41-.66,9.77,5.08A6.47,6.47,0,0,0,315.37,261Z"/></g></svg>
