<svg xmlns="http://www.w3.org/2000/svg" width="170" height="150" viewBox="0 0 170 150"><defs><style>.cls-1{fill:#fff;}.cls-2{fill:#f6b2e7;}</style></defs><title>Play_button</title><g id="Layer_15" data-name="Layer 15"><path class="cls-1" d="M165.41,92.58a70.53,70.53,0,0,1-9.82,18.93,85.33,85.33,0,0,1-15.3,16.18,93.67,93.67,0,0,1-25.53,14.78A85.78,85.78,0,0,1,104,145.81a95,95,0,0,1-16.81,2.44,101.23,101.23,0,0,1-21-1,97,97,0,0,1-23.72-6.74,78.55,78.55,0,0,1-19.7-12,61.66,61.66,0,0,1-10.1-10.73,52.82,52.82,0,0,1-8.48-17.43c-.37-1.37-.7-2.75-1-4.13a69,69,0,0,1-1.22-20,72.87,72.87,0,0,1,5.89-23A77.19,77.19,0,0,1,13.6,42.29,82.79,82.79,0,0,1,29.42,24.11a87.18,87.18,0,0,1,18.15-12A90.46,90.46,0,0,1,63.86,6q2.7-.74,5.25-1.34a107.59,107.59,0,0,1,17.1-2.82,54.08,54.08,0,0,1,22.1,2.5,55.41,55.41,0,0,1,13,6.56,116.69,116.69,0,0,1,17,14.37c3.1,3.06,6.32,6.42,9.73,10.09q4,4.32,8.42,9.21a46.54,46.54,0,0,1,6.23,8.66,44,44,0,0,1,5.24,15.76A52.59,52.59,0,0,1,165.41,92.58Z"/><path d="M68.46,66.17,13.6,42.29A82.79,82.79,0,0,1,29.42,24.11L70.7,62.76A2.07,2.07,0,0,1,68.46,66.17Z"/><path d="M74.46,60.22,47.57,12.13A90.46,90.46,0,0,1,63.86,6q2.7-.74,5.25-1.34l9.2,54.26A2.07,2.07,0,0,1,74.46,60.22Z"/><path d="M108.31,4.29l-9,51a2.07,2.07,0,0,1-4.08,0l-9-53.45A54.08,54.08,0,0,1,108.31,4.29Z"/><path d="M138.27,25.22l-30.56,39.1a2.07,2.07,0,0,1-3.59-1.93l17.17-51.54A116.69,116.69,0,0,1,138.27,25.22Z"/><path d="M162.65,53.18,110,74.57a2.07,2.07,0,0,1-2.16-3.46L148,35.31q4,4.32,8.42,9.21A46.54,46.54,0,0,1,162.65,53.18Z"/><path d="M165.41,92.58l-54.17-4.73a2.07,2.07,0,0,1-.34-4.07l57-14.84A52.59,52.59,0,0,1,165.41,92.58Z"/><path d="M155.59,111.51a85.33,85.33,0,0,1-15.3,16.18L102.61,96.13a2.07,2.07,0,0,1,2-3.52Z"/><path d="M59.86,79.88,1.93,76.15a72.87,72.87,0,0,1,5.89-23l53,22.8A2.07,2.07,0,0,1,59.86,79.88Z"/><path d="M61.84,91.7l-49.23,26a52.82,52.82,0,0,1-8.48-17.43c-.37-1.37-.7-2.75-1-4.13l57.42-8.34A2.07,2.07,0,0,1,61.84,91.7Z"/><path d="M72.78,100.46l-30.37,40a78.55,78.55,0,0,1-19.7-12L70,97.47A2.07,2.07,0,0,1,72.78,100.46Z"/><path d="M123.62,138.53a93,93,0,0,1-8.86,3.94A85.78,85.78,0,0,1,104,145.81L92.36,98.31a2.07,2.07,0,0,1,3.74-1.62Z"/><path d="M87.16,148.25a101.23,101.23,0,0,1-21-1L76.25,98.56a2.07,2.07,0,0,1,4.08.13Z"/><path class="cls-2" d="M135.42,69.68a5.42,5.42,0,0,1,.1,9.39L101.13,99.43l-34.4,20.36a5.42,5.42,0,0,1-8.18-4.61l-.43-40-.43-40a5.41,5.41,0,0,1,8.07-4.78l34.83,19.61Z"/></g></svg>
