<svg xmlns="http://www.w3.org/2000/svg" width="270" height="80" viewBox="0 0 270 80"><defs><style>.cls-1{fill:#fff;}</style></defs><title>Point_boks</title><g id="Layer_17" data-name="Layer 17"><rect class="cls-1" x="1" y="1" width="268" height="78" rx="20.43" ry="20.43"/><path d="M23.71,28.41A16.6,16.6,0,0,0,20.2,30.9c-1.13-1.25-2.54-3.68-2.54-5.46,0-2.32,3.62-6.48,17.72-6.48,9.28,0,13.44,4.48,13.44,11.18,0,7.94-5.88,14-18.3,14.8-1.41,10.09-3,11.34-7.78,11.34-2.92,0-5.18-1.08-6.37-2.81C20.42,48.61,22.79,36.94,23.71,28.41Zm7.62,9.24c5.5-.65,7.56-3.19,7.56-7.35A4,4,0,0,0,34.51,26c-.7,0-1.4.06-2,.11C32.14,30.41,31.65,34.41,31.33,37.65Z"/><path d="M64.75,28.41c5.4,0,11.29,2.38,11.29,11.23,0,10.64-7.45,16.85-15.5,16.85-6.43,0-12-3.18-12-10.74C48.55,35,55.79,28.41,64.75,28.41ZM59,45.85c0,2.65.65,4.65,3.18,5.13,1.84-1.08,3.68-5.94,3.68-11.44,0-2.65-.65-4.65-3.19-5.13C60.86,35.49,59,40.35,59,45.85Z"/><path d="M90.89,32.68c0,2.91-1.3,6.69-2,10.37a26.94,26.94,0,0,0-.65,5.23A5.79,5.79,0,0,0,90.46,53a10.68,10.68,0,0,1-7.78,3.51c-4.48,0-4.75-3.83-4.75-5.4a43.31,43.31,0,0,1,1.24-8.15c.59-2.81,1.4-5.56,1.4-7.45a5.25,5.25,0,0,0-1.56-4c.59-.91,3.13-2.86,6.91-2.86C89.38,28.68,90.89,30.46,90.89,32.68ZM87,16.1c3.4,0,5.72,1.94,5.72,4.81,0,3.07-3,5-6.15,5-3.4,0-5.78-2.05-5.78-4.53C80.79,18.1,83.6,16.1,87,16.1Z"/><path d="M101.74,28.41c1.68,0,3.46.7,3.46,3.57a25.28,25.28,0,0,1-.38,3h.27c2.65-5.62,7-6.59,9.45-6.59,3.51,0,6.32,1.73,7.34,4.7-1.08,2.86-3,10.42-3,14.74,0,1.68.86,3.62,2.16,4.21a8.92,8.92,0,0,1-7.88,4.43c-3.89,0-4.86-2.54-4.86-5.24,0-3.34,1.56-9.18,3-14.68l-.38-.17c-2.1,0-4.64,2.49-5.67,6-1.24,4.32-1.46,10.74-1.46,13.71a37.09,37.09,0,0,1-4.91.38c-3.94,0-5.45-1.89-5.45-4.48,0-4.37,2.26-7.94,2.26-11.66a14.69,14.69,0,0,0-2.32-7.51C94.88,29.6,98.56,28.41,101.74,28.41Z"/><path d="M127.12,35.49a24.29,24.29,0,0,0-3.62.21c0-2.64.16-6.21,2.65-6.21.59,0,1.46.06,2.1.06,0-1.35-.16-4.59-1.08-5.73a16.43,16.43,0,0,1,7.57-2.32c2.48,0,3.13,1.62,3.13,3.56a30.91,30.91,0,0,1-.49,4.54,16.09,16.09,0,0,0,4-.59,9.2,9.2,0,0,1,.86,3.83c0,2.81-3.24,2.92-5.78,2.92C135.22,41.64,134,45.91,134,47.64c0,1,.27,1.56.59,1.78a6.48,6.48,0,0,0,3.84-3,4.57,4.57,0,0,1,2.37,3.94c0,3.89-4.64,5.89-8.8,5.89-5.67,0-7.61-2.27-7.61-6.21C124.37,47.31,125.66,43.42,127.12,35.49Z"/><path d="M188.64,49.9a13.82,13.82,0,0,0,.38,3.45,25,25,0,0,1-7.61,1.19c-2.22,0-3.08-.92-3.08-2.86,0-4.27,2.54-11.18,4.48-16.26l-.16-.16c-1.62,1.51-3.89,3-5.78,3-2.37,0-2.86-1.78-2.86-3.67a19.9,19.9,0,0,1,.65-4.37,38.73,38.73,0,0,0,12.42-3.73c2.75,1.24,4.48,2.21,4.48,4.05a23.25,23.25,0,0,1-.6,3.29C189.83,39.1,188.64,45,188.64,49.9Z"/><path d="M205.22,47.14l-.05.38c4.32-.11,9.82-.49,12.36-1.89a7.75,7.75,0,0,1,1.24,3.73c0,4.21-2.91,4.64-7.5,4.64h-12.8c-2.81,0-3.94-3-3.94-6.26,5.13-6.21,15.82-7.13,15.82-13.5A3.13,3.13,0,0,0,209,31.43c-2.65.05-5.13,2.54-5.18,6.48-2.54,0-7-.49-7-3.94,0-6,8.15-7.51,13.17-7.51,5.46,0,9.83,2.21,9.83,7.67C219.8,41.58,213.16,45.14,205.22,47.14Z"/></g></svg>
