<svg xmlns="http://www.w3.org/2000/svg" width="1334" height="750" viewBox="0 0 1334 750"><defs><style>.cls-1{fill:#b8e1f3;}.cls-2{fill:#f2f2f2;}.cls-3{fill:#fef364;}.cls-4{fill:#9ab3b8;}.cls-5{fill:#589283;}.cls-6{fill:#919e1d;}.cls-7{fill:#efbb56;}.cls-8{fill:#c3c034;}.cls-9{fill:#435c21;}.cls-10{fill:#603813;}.cls-11{fill:#4c8c11;}.cls-12{fill:#95c730;}.cls-13{fill:#415715;}</style></defs><title>Scene_hel</title><g id="Layer_14" data-name="Layer 14"><polygon class="cls-1" points="-6.34 -14.24 1343.66 -14.24 1344.09 407.88 -6.34 388.86 -6.34 -14.24"/><path class="cls-2" d="M1326.65,89.94c-.63-17.2-37.51-13.5-96-18-33.19-2.54-37.58-18.55-110.63-8.42a62.15,62.15,0,0,1-31-3.59c-20.32-7.86-35.22-7.18-46.82-6.53a64.57,64.57,0,0,1-18.93-1.85C984,42,969,72.39,939.84,66.65c-117-23-186.43,7-205.45,23.29-25.1,21.51,132.38,24.45,295.68,24.45S1327.56,114.39,1326.65,89.94Z"/><path class="cls-2" d="M26.74,123.17C27.32,107.65,60.6,111,113.35,107c30-2.29,33.91-16.74,99.84-7.6a56.2,56.2,0,0,0,28-3.23c18.33-7.1,31.78-6.49,42.25-5.9a57.91,57.91,0,0,0,17.09-1.67c35.5-8.64,49,18.77,75.33,13.59,105.57-20.79,168.27,6.31,185.43,21,22.65,19.41-119.48,22.07-266.85,22.07S25.93,145.24,26.74,123.17Z"/><circle class="cls-3" cx="593.66" cy="155.76" r="116"/><path class="cls-4" d="M-6.34,208a2.28,2.28,0,0,1,2.2-2.28c24.72-.88,250.23-8.92,274.8-8.92,26,0,179-16,207-15s170-14,190-10,78,4,97-1,57,3,69,5,21-17,62-15,102,15,126,8,56-1,67,1,84,9,142,2,84-2,101,0c10.32,1.21,12.16,1.69,12,1.88a3.18,3.18,0,0,0-1,1.91l1,161.81a2.28,2.28,0,0,1-2.32,2.29L-4.1,318.23A2.28,2.28,0,0,1-6.34,316Z"/><path class="cls-5" d="M-19.34,288c0-24.38,19.2-44.65,44.08-46.52l168.7-12.69s143.08-12.54,167.57-7.3c1,.22,2.05.43,3.09.6,13.23,2.17,92.85,15.37,110.66,22.7,19.43,8,75.7-26,95.13-25s51.15,22,71.61,19c17.65-2.59,34.53-29,82.81-48.37a48.51,48.51,0,0,1,45,4.77c20.91,14.06,52.9,34.3,65.52,35.6,18.35,1.89,88.72,16.27,140.43-11.63a47.35,47.35,0,0,1,21.23-5.77c35.23-.92,138.06-2,202.52,14.4,36.48,9.26,73.84,5.66,103.44-.89,29.83-6.59,58.19,15.64,58.19,45.53V520.85c0,25.87-21.53,46.8-48,46.67L28.15,561c-26.27-.13-47.49-21-47.49-46.66Z"/><rect class="cls-6" x="-9" y="257.68" width="1352" height="498.64"/><path class="cls-7" d="M-9,271.87l287.83,2L408.56,282l33.4-2.27,115.58-7.86,237.16,2,91.21,3,84.12-3,105.41-8.11,162.16,6.08,105.4,2v34.46l-174.32-9.13-66.89-2-37.5,11.15h-58.78s-61.83-3-69.94-8.11-84.12-4.06-94.25-1-72,10.14-98.31,1-193.58,12.16-204.72,8.11-40.54-17.23-77-15.21-30.4,7.1-94.25,2S229.17,284,189.64,286.06s-84.12-1-116.55,2S-9,295.18-9,295.18Z"/><path class="cls-7" d="M1343,463.94l-287.83-2L925.44,453.8,892,456.08l-115.58,7.86-237.16-2-91.21-3-84.12,3L258.56,470,96.4,463.94l-105.4-2V427.45l174.32,9.13,66.89,2,37.5-11.15h58.78s61.83,3,69.93,8.11,84.12,4.06,94.26,1,72-10.14,98.31-1,193.57-12.16,204.72-8.11,40.54,17.23,77,15.21,30.4-7.1,94.25-2,137.84,11.15,177.36,9.12,84.12,1,116.56-2,82.09-7.09,82.09-7.09Z"/><path class="cls-8" d="M-8.9,584l251.34,5.07L305.28,581l36.48-2,40.54,14.19L452.23,584l52.71-5.07L583,584l62.84-9.12s53.72-5.07,84.12,2,52.7,5.07,73,2,97.3,3,97.3,3l33.44-7.09,24.33,4s8.1,2,27.36,0,105.4-2,105.4-2L1182,581s11.15-2,62.84,0,69.93-11.15,69.93-11.15l28.37,2V756.28H-8.9Z"/><path class="cls-8" d="M-9,316.46s95.27,7.1,115.54,10.14,22.29-4.06,32.43-5.07,26.35-2,40.54-3,66.89,8.11,79.05,7.09,64.87-7.09,75-11.14,23.31-8.11,23.31-8.11l32.43,8.11,45.61,9.12,18.24-1h42.57l23.31-1,44.59,7.1L594,333.69s12.16,6.08,32.43,1,24.32-5.07,39.53-3,32.43,5.06,41.55,3,48.65,11.14,58.78,11.14,67.91-14.18,76-14.18,41.56,2,41.56,2l58.78,6.08,44.59-7.09S1068.34,356,1090.64,354s39.53-1,49.66-5.06,22.3-16.22,36.49-16.22,57.77,1,57.77,1h38.51l40.54,7.1h11.15l18.13-4.7,0,29.16s-14.06-2.17-19.13-.14-18.24-1-18.24-1h-28.38l-19.25,4s-21.29-4-25.34-8.11-21.29-4.05-29.39-5.06-23.31-1-27.37,0-45.6,8.1-70.94,8.1-111.49-2-111.49-2l-22.29,6.08-27.37-3h-67.9s-38.51-1-52.7,3-32.43,2-41.56,0-58.78-6.08-58.78-6.08-24.32-4.06-45.61,0-69.93,16.21-95.26,12.16-41.56-18.24-72-12.16S440,369.17,440,369.17l-81.08-4.06H309.24l-54.73,2L204.85,358s-33.45,12.16-51.69,11.15S131.88,357,88.3,356A624.91,624.91,0,0,0,5.19,360H-9Z"/><path class="cls-9" d="M237.46,634.79a56.22,56.22,0,0,0-1.46-6.07c-.56-2-1.19-3.88-1.91-5.78a66.86,66.86,0,0,0-5.23-11,47.93,47.93,0,0,0-7.62-9.76,33.56,33.56,0,0,0-10.51-6.76,30.27,30.27,0,0,1,8.29,8.29,41.42,41.42,0,0,1,4.65,10.14c1.13,3.51,0,16.32.43,19.94a28.84,28.84,0,0,1,0,7.37Z"/><path class="cls-9" d="M243.65,645.33c-.29-9.56,2.7-4.68.72-14-.76-4.69-5.7-23.69-6.88-28.28-.62-2.29-1.45-4.54-2.17-6.8l-1.11-3.38-1.3-3.33a165.85,165.85,0,0,0-12.44-25.75,148,148,0,0,0-16.82-23.4,143.1,143.1,0,0,1,14.29,24.49,158.09,158.09,0,0,1,9.6,26.1l.93,3.32.75,3.36c.47,2.24,1.05,4.45,1.42,6.71.69,4.51,1.53,9,1.8,13.52,1,9,.64,18.09,0,27Z"/><path class="cls-9" d="M252.9,648.9c.51-6.2.53-11.95.44-17.87s-.43-11.73-.88-17.56c-.92-11.66-2.48-23.24-4.43-34.74-1.11-5.73-2.08-11.48-3.42-17.17-.64-2.84-1.22-5.7-1.92-8.53l-2.15-8.49c-1.35-5.66-3.16-11.24-4.71-16.86s-3.57-11.13-5.34-16.68c1.32,5.66,2.74,11.3,4,17,1.09,5.7,2.44,11.34,3.32,17.06l1.46,8.55c.46,2.85.8,5.72,1.21,8.58.87,5.71,1.37,11.45,2,17.17,1,11.47,1.62,22.95,1.59,34.4,0,5.72-3.36,16.81-3.74,22.5s2.35,6.08,1.47,11.38Z"/><path class="cls-9" d="M264.4,637.08a2.87,2.87,0,0,1,.29.31l.06.08a.14.14,0,0,1,0,.06c0,.06,0-.06-.08-.08s-.19-.28-.3-.46a11.64,11.64,0,0,1-.62-1.39l-.49-1.71-.35-1.87c-.39-2.55.67,3.28.7.52,0-5.52-.5-19.72.37-25.36s2.07-11.28,3.44-16.89,2.91-11.21,4.47-16.81c-2.44,5.33-4.94,10.66-7.16,16.1s-4.36,10.92-6.22,16.52A120.89,120.89,0,0,0,254,623.37a57.53,57.53,0,0,0-.89,9.23l.06,2.43.29,2.55a20.71,20.71,0,0,0,.7,2.76,9.45,9.45,0,0,0,.62,1.53,7.54,7.54,0,0,0,.46.87l.35.52c.08.11.08.12.23.31s.31.35.48.51Z"/><path class="cls-9" d="M116.67,669.38c-.78-9-2.09-29.15-2-38.06s4.25-32.84,5.1-41.7c.44-4.42,1-8.84,1.82-13.18a62.18,62.18,0,0,1,3.6-12.56,63.44,63.44,0,0,0-2.5,12.8c-.47,4.35-.62,8.74-.68,13.12-.1,8.77.35,17.53,1,26.27s5.13,43.46,6.6,51.92Z"/><path class="cls-9" d="M137.61,674.28c-2.58-12.82-8.07-27.68-9.79-40.51s.45-23.42-.33-36.34c-.27-3.22-.36-6.47-.51-9.7s-.32-6.45-.32-9.69l-.1-9.71.24-9.7c.56-12.9,1.82-25.8,4.7-38.19a208.86,208.86,0,0,0-2.08,38.21l.4,9.55.76,9.53c.21,3.17.6,6.33,1,9.49s.66,6.32,1.14,9.46c1.62,12.59,8.88,24.72,11.36,37.09s.34,25.05,3.59,36.91Z"/><path class="cls-9" d="M141.65,663.86c2.22-8.94-1.06-14.54.36-24s7.49-22.93,7.92-32.53a173,173,0,0,0-.85-28.79,86,86,0,0,0-7.47-27.38c4.7,7.93,7.79,17.27,9.67,26.86a178.41,178.41,0,0,1,3.14,29.35,290.23,290.23,0,0,1-.68,29.64c-.72,9.9-1.77,19.6-3.43,29.56Z"/><path class="cls-9" d="M147.89,668.54c.46-1.06,1.05-2.77,1.53-4.27s1-3.18,1.43-4.78l1.23-4.94c.4-1.65.72-3.35,1.08-5l.52-2.54.43-2.57.86-5.14q.69-5.21,1.32-10.44a321.83,321.83,0,0,0,1.4-42.53c-.26-14.28-1.66-28.53-3.25-42.77-.91-7.09-2-14.15-3-21.25l-3.84-21.1,5.11,20.74c1.44,7,3,14,4.32,21,2.46,14.15,4.76,28.42,5.89,42.91S168,620.29,167.35,635c-.21,3.67-3.7,2-4,5.71l-.57,5.52-.29,2.76-.4,2.76c-.28,1.84-.5,3.68-.83,5.52l-1,5.51c-.43,1.84-.79,3.67-1.28,5.52s-.92,3.57-1.7,5.8Z"/><path class="cls-9" d="M166.79,662.26c-.25-7.44-.1-14.46.24-21.62s1-14.22,1.82-21.25,2-14,3.38-20.86,3.23-13.59,5.23-20.17a208.56,208.56,0,0,0-3,20.66c-.66,6.93-1.06,13.87-1.12,20.82s5.8,15.63,6.19,22.53-4.74,12.1-3.82,18.61Z"/><path class="cls-9" d="M303.29,643.14c-4.17-1-6.46-6.5-4.65-11.18,1.93-5,3.94-10.23,4.08-10.72.26-.93,1.47-5.68,1.47-5.68a154,154,0,0,0,3.48-23.73c.14-4,.44-8.12.3-12.2,0-2,0-4.09-.11-6.14l-.39-6.13c-.07-1-.11-2.06-.21-3.08l-.35-3-.72-6.13c-.58-4.07-1.35-8.1-2-12.18,1.08,3.93,2.25,7.84,3.26,11.83l1.34,6,.68,3c.2,1,.35,2,.52,3.07l1,6.17c.34,2.07.5,4.16.76,6.24.57,4.17.69,8.4,1,12.63.24,8.47.55,19.74-.46,29.57,0,0-.61,8-1.17,14.64-.39,4.67-4,7.92-7.82,7Z"/><path class="cls-9" d="M315.67,641.14c-3.55,0-6-4.33-4.68-8.34,1.15-3.53,2.27-7.07,2.49-8a95.08,95.08,0,0,0,1.86-13c.14-2.22.29-4.45.28-6.71s0-4.51-.09-6.78-.3-4.54-.44-6.83-.52-4.54-.79-6.83c.67,2.15,1.38,4.31,2,6.49s1.23,4.41,1.71,6.67,1,4.52,1.37,6.84.72,4.64,1,7a106.33,106.33,0,0,1,.59,14.45c-.05,1.34-.17,5.56-.3,9.2-.12,3.26-2.34,5.83-5,5.83Z"/><path class="cls-9" d="M432.34,631.9a59.69,59.69,0,0,1,2.12-7.31c.82-2.36,1.73-4.67,2.79-7a74.28,74.28,0,0,1,7.61-13.28,60.65,60.65,0,0,1,11.07-11.76,51.21,51.21,0,0,1,15.31-8.15,41,41,0,0,0-12.06,10,46.31,46.31,0,0,0-6.78,12.22c-1.65,4.22,0,19.67-.63,24s-.31,4.88,0,8.87Z"/><path class="cls-9" d="M423.33,644.6c.42-11.52-3.93-5.64-1.05-16.88,1.11-5.65,8.29-28.54,10-34.07.91-2.76,2.12-5.46,3.16-8.19l1.62-4.08,1.89-4a187.49,187.49,0,0,1,18.1-31,184.58,184.58,0,0,1,24.47-28.2,168.53,168.53,0,0,0-20.79,29.51,171.3,171.3,0,0,0-14,31.45l-1.36,4-1.08,4c-.68,2.7-1.53,5.37-2.07,8.08-1,5.44-2.23,10.84-2.62,16.3-1.45,10.87-.92,21.79,0,32.57Z"/><path class="cls-9" d="M409.87,648.9a175.94,175.94,0,0,1-.63-21.53c.12-7.08.62-14.13,1.27-21.15A393.33,393.33,0,0,1,417,564.36c1.61-6.91,3-13.83,5-20.68.94-3.43,1.78-6.87,2.79-10.28l3.14-10.22c2-6.83,4.59-13.55,6.85-20.32,2.46-6.73,5.19-13.41,7.76-20.1-1.92,6.83-4,13.62-5.78,20.45-1.59,6.86-3.55,13.66-4.84,20.55l-2.11,10.3c-.68,3.44-1.18,6.9-1.77,10.34-1.27,6.87-2,13.8-2.92,20.69a381.58,381.58,0,0,0-2.32,41.44c0,6.9,4.89,20.26,5.45,27.1S424.76,641,426,647.34Z"/><path class="cls-9" d="M393.14,634.66a3.7,3.7,0,0,0-.42.37l-.09.1a.2.2,0,0,0,0,.08c0,.07.08-.08.13-.11a2.37,2.37,0,0,0,.43-.55,13.38,13.38,0,0,0,.9-1.67l.72-2.07.51-2.24c.57-3.08-1,3.95-1,.63,0-6.66.72-23.77-.54-30.56s-3-13.59-5-20.35-4.23-13.51-6.5-20.26c3.55,6.43,7.18,12.85,10.41,19.4s6.35,13.16,9.06,19.91a125,125,0,0,1,6.53,20.81,57.62,57.62,0,0,1,1.3,11.11l-.09,2.93-.43,3.07a21.35,21.35,0,0,1-1,3.32,10.69,10.69,0,0,1-.9,1.85,8.29,8.29,0,0,1-.68,1.05l-.51.63a3.53,3.53,0,0,1-.33.37c-.22.21-.45.42-.69.62Z"/><path class="cls-9" d="M560.23,655.58c.68-7.26,1.83-23.57,1.77-30.77s-3.73-26.55-4.47-33.71c-.39-3.58-.86-7.15-1.6-10.66a47.14,47.14,0,0,0-3.16-10.15,47.35,47.35,0,0,1,2.2,10.35c.4,3.51.54,7.06.59,10.6.09,7.09-.3,14.18-.9,21.24s-4.49,35.14-5.78,42Z"/><path class="cls-9" d="M541.86,659.55c2.26-10.37,7.08-22.38,8.59-32.75s-.39-18.94.29-29.39c.23-2.6.31-5.22.44-7.83s.28-5.22.28-7.85l.09-7.84-.21-7.84a156.75,156.75,0,0,0-4.12-30.88,156,156,0,0,1,1.83,30.89l-.36,7.72-.66,7.71c-.19,2.56-.53,5.12-.84,7.67s-.59,5.11-1,7.64c-1.42,10.18-7.78,20-10,30s-.3,20.25-3.15,29.83Z"/><path class="cls-9" d="M538.32,651.12c-2-7.23.92-11.75-.32-19.36s-6.57-18.54-7-26.3a129.32,129.32,0,0,1,.75-23.28,65.18,65.18,0,0,1,6.55-22.13,65,65,0,0,0-8.48,21.71,131.84,131.84,0,0,0-2.75,23.73,215.43,215.43,0,0,0,.59,24c.64,8,1.55,15.84,3,23.9Z"/><path class="cls-9" d="M532.84,654.9c-.4-.85-.92-2.23-1.35-3.45s-.82-2.57-1.24-3.86l-1.09-4c-.35-1.34-.62-2.72-.94-4.07l-.46-2-.38-2.08-.75-4.16c-.41-2.8-.79-5.61-1.16-8.44a240,240,0,0,1-1.22-34.38,343.38,343.38,0,0,1,2.84-34.58c.81-5.74,1.77-11.45,2.66-17.19l3.36-17.06-4.48,16.77c-1.26,5.66-2.6,11.31-3.79,17a345.2,345.2,0,0,0-5.17,34.69c-1.09,11.7-4.5,27.84-3.9,39.73.19,3,3.24,1.64,3.48,4.62l.51,4.46.25,2.23.35,2.23c.24,1.49.44,3,.72,4.46l.9,4.46c.37,1.49.7,3,1.12,4.46s.81,2.89,1.5,4.69Z"/><path class="cls-9" d="M516.26,649.83c.22-6,.09-11.69-.21-17.48s-.85-11.49-1.59-17.18-1.74-11.32-3-16.87A155.86,155.86,0,0,0,506.9,582a157.61,157.61,0,0,1,2.65,16.7c.58,5.6.93,11.21,1,16.83s-5.09,12.64-5.44,18.22,4.16,9.78,3.35,15Z"/><path class="cls-9" d="M592.94,639.43a8.91,8.91,0,0,0,6.32-12.53c-2.62-5.6-5.35-11.5-5.55-12-.35-1.05-2-6.37-2-6.37A145.8,145.8,0,0,1,587,581.85c-.18-4.54-.59-9.11-.4-13.69.06-2.29,0-4.6.15-6.89l.53-6.88c.09-1.15.15-2.31.28-3.46l.48-3.42,1-6.88c.79-4.57,1.84-9.09,2.75-13.67-1.46,4.41-3.06,8.8-4.42,13.28L585.5,547l-.92,3.4c-.27,1.14-.47,2.3-.71,3.45l-1.4,6.92c-.45,2.32-.68,4.66-1,7-.77,4.68-.94,9.42-1.33,14.17-.33,9.52-.75,22.16.63,33.19,0,0,.82,9,1.58,16.44a8.91,8.91,0,0,0,10.62,7.84Z"/><path class="cls-9" d="M576.13,637.19a6.84,6.84,0,0,0,6.36-9.35c-1.56-4-3.09-7.94-3.38-9a88.82,88.82,0,0,1-2.53-14.55c-.19-2.49-.39-5-.38-7.53s0-5.06.12-7.62.41-5.09.6-7.66.71-5.09,1.07-7.66c-.91,2.41-1.86,4.83-2.74,7.28s-1.67,4.95-2.33,7.49-1.38,5.07-1.86,7.67-1,5.21-1.36,7.86a96.78,96.78,0,0,0-.8,16.21c.06,1.51.23,6.25.41,10.32a6.83,6.83,0,0,0,6.82,6.55Z"/><path class="cls-9" d="M1269.77,656.25c.64-6.06,1.71-19.65,1.66-25.65s-3.48-22.12-4.18-28.09a78.31,78.31,0,0,0-1.48-8.88,36.28,36.28,0,0,0-3-8.46,36.09,36.09,0,0,1,2,8.62,79.16,79.16,0,0,1,.55,8.84,161.09,161.09,0,0,1-.84,17.7c-.55,5.88-4.19,29.28-5.39,35Z"/><path class="cls-9" d="M1252.64,659.55c2.11-8.64,6.6-18.65,8-27.29s-.36-15.79.27-24.49c.22-2.17.29-4.36.42-6.53s.26-4.35.26-6.54l.08-6.53-.2-6.54a117.2,117.2,0,0,0-3.84-25.73,115.86,115.86,0,0,1,1.7,25.74l-.33,6.44-.62,6.42c-.17,2.13-.49,4.26-.78,6.39s-.55,4.26-.94,6.37c-1.32,8.49-7.26,16.66-9.29,25s-.28,16.87-2.94,24.86Z"/><path class="cls-9" d="M1249.34,652.53c-1.82-6,.86-9.8-.3-16.14s-6.13-15.45-6.48-21.92a96.09,96.09,0,0,1,.7-19.4,49.89,49.89,0,0,1,6.11-18.44,51,51,0,0,0-7.91,18.09,99.06,99.06,0,0,0-2.57,19.78,162.34,162.34,0,0,0,.55,20,181.07,181.07,0,0,0,2.81,19.92Z"/><path class="cls-9" d="M1244.23,655.68c-.38-.71-.86-1.87-1.26-2.88s-.77-2.14-1.16-3.21l-1-3.33c-.33-1.12-.58-2.27-.88-3.4l-.43-1.7-.35-1.73-.7-3.47q-.57-3.51-1.08-7a178.83,178.83,0,0,1-1.15-28.66,256.63,256.63,0,0,1,2.66-28.81c.75-4.78,1.65-9.54,2.47-14.32l3.14-14.22-4.18,14c-1.17,4.72-2.43,9.43-3.53,14.18a259.42,259.42,0,0,0-4.83,28.91c-1,9.75-4.19,23.19-3.63,33.1.17,2.48,3,1.37,3.24,3.85l.47,3.72.24,1.86.32,1.86c.23,1.24.42,2.48.68,3.72l.84,3.71c.35,1.24.65,2.47,1,3.72a39.26,39.26,0,0,0,1.4,3.9Z"/><path class="cls-9" d="M1228.76,651.45c.21-5,.08-9.74-.19-14.57s-.8-9.57-1.49-14.31a138.62,138.62,0,0,0-2.77-14.06,119.11,119.11,0,0,0-4.28-13.59,118.71,118.71,0,0,1,2.48,13.92,137.46,137.46,0,0,1,.91,14c.08,4.67-4.74,10.53-5.06,15.18s3.87,8.15,3.12,12.54Z"/><path class="cls-9" d="M1294.36,642.8c3.89-.84,6-5.41,4.34-9.31-1.8-4.15-3.68-8.53-3.81-8.93-.24-.78-1.37-4.74-1.37-4.74a116.35,116.35,0,0,1-3.25-19.77c-.12-3.37-.4-6.77-.27-10.17,0-1.7,0-3.41.1-5.11l.36-5.12c.07-.85.11-1.71.2-2.56l.33-2.54.66-5.11c.55-3.39,1.26-6.75,1.89-10.15-1,3.27-2.1,6.54-3,9.86l-1.25,5-.63,2.53c-.19.85-.33,1.7-.49,2.56l-1,5.14c-.31,1.72-.47,3.46-.71,5.2-.53,3.47-.65,7-.91,10.52-.23,7.06-.52,16.45.43,24.64,0,0,.56,6.68,1.08,12.21.37,3.89,3.75,6.59,7.3,5.82Z"/><path class="cls-9" d="M1282.82,641.14c3.31,0,5.58-3.61,4.36-6.95-1.07-3-2.12-5.89-2.32-6.68a70.44,70.44,0,0,1-1.74-10.81c-.13-1.85-.26-3.71-.26-5.59s0-3.76.08-5.66.28-3.77.42-5.68.48-3.79.73-5.69c-.63,1.79-1.28,3.58-1.89,5.4s-1.14,3.68-1.59,5.56-.95,3.77-1.28,5.7-.67,3.87-.94,5.84a78.56,78.56,0,0,0-.55,12c.05,1.12.16,4.64.29,7.67a4.87,4.87,0,0,0,4.69,4.86Z"/><path class="cls-9" d="M1030.53,636A58.11,58.11,0,0,1,1032,630c.57-2,1.19-3.88,1.92-5.78a66.06,66.06,0,0,1,5.23-11,48,48,0,0,1,7.61-9.76,33.54,33.54,0,0,1,10.52-6.76,30,30,0,0,0-8.29,8.29,41.45,41.45,0,0,0-4.66,10.14c-1.13,3.5,0,16.32-.43,19.94a29.3,29.3,0,0,0,0,7.37Z"/><path class="cls-9" d="M1024.33,646.56c.29-9.56-2.7-4.69-.72-14,.76-4.69,5.7-23.68,6.89-28.27.62-2.29,1.45-4.54,2.16-6.8l1.12-3.39,1.3-3.32A163.64,163.64,0,0,1,1047.52,565a149.13,149.13,0,0,1,16.81-23.41A144.15,144.15,0,0,0,1050,566.09a159.44,159.44,0,0,0-9.6,26.11l-.93,3.31-.74,3.36c-.47,2.25-1.06,4.46-1.43,6.71-.69,4.52-1.53,9-1.79,13.53-1,9-.64,18.08,0,27Z"/><path class="cls-9" d="M1015.09,650.13a176.81,176.81,0,0,1-.44-17.87c.08-5.88.43-11.73.88-17.56.92-11.66,2.47-23.24,4.42-34.74,1.11-5.74,2.09-11.48,3.42-17.17.65-2.84,1.23-5.7,1.92-8.53l2.15-8.49c1.36-5.67,3.16-11.24,4.72-16.86s3.56-11.13,5.33-16.68c-1.32,5.66-2.74,11.3-4,17s-2.44,11.34-3.33,17.06l-1.45,8.55c-.46,2.85-.81,5.72-1.22,8.58-.87,5.7-1.37,11.45-2,17.17-1,11.47-1.61,23-1.59,34.4,0,5.72,3.37,16.81,3.75,22.5s-2.35,6.08-1.48,11.38Z"/><path class="cls-9" d="M1003.58,638.31a4,4,0,0,0-.28.3l-.06.08s0,0,0,.07.06-.06.09-.09a1.74,1.74,0,0,0,.29-.45,10.23,10.23,0,0,0,.62-1.39l.5-1.71.35-1.87c.39-2.56-.68,3.28-.7.52,0-5.52.49-19.72-.38-25.36s-2.07-11.28-3.44-16.89-2.91-11.21-4.47-16.82c2.45,5.34,4.94,10.67,7.16,16.11s4.36,10.92,6.22,16.52a120.57,120.57,0,0,1,4.5,17.27,58.69,58.69,0,0,1,.89,9.22l-.06,2.44-.3,2.54a19.87,19.87,0,0,1-.69,2.76,10.54,10.54,0,0,1-.62,1.54,7.76,7.76,0,0,1-.47.87l-.35.52a2.19,2.19,0,0,1-.23.3c-.15.18-.31.36-.47.52Z"/><path class="cls-9" d="M1151.31,670.6c.78-9,2.09-29.15,2-38.06s-4.25-32.83-5.11-41.69c-.43-4.43-1-8.84-1.81-13.18a62.18,62.18,0,0,0-3.6-12.56,64.14,64.14,0,0,1,2.5,12.8c.46,4.35.62,8.74.68,13.12.1,8.76-.35,17.53-1,26.26s-5.13,43.46-6.59,51.92Z"/><path class="cls-9" d="M1130.38,675.51c2.57-12.82,8.06-27.68,9.78-40.51s-.44-23.43.34-36.35c.26-3.21.35-6.46.51-9.69s.31-6.45.31-9.7l.11-9.7-.25-9.7a210,210,0,0,0-4.69-38.19,209.7,209.7,0,0,1,2.08,38.21l-.41,9.55-.75,9.53c-.22,3.17-.61,6.33-1,9.49s-.67,6.31-1.15,9.45c-1.62,12.59-8.87,24.73-11.35,37.1s-.34,25-3.6,36.9Z"/><path class="cls-9" d="M1126.34,665.08c-2.22-8.94,1.05-14.53-.37-23.94s-7.48-22.93-7.92-32.53a175.28,175.28,0,0,1,.85-28.8,86,86,0,0,1,7.48-27.37c-4.71,7.93-7.8,17.27-9.67,26.85a176.5,176.5,0,0,0-3.14,29.36,290.23,290.23,0,0,0,.68,29.64c.72,9.9,1.76,19.59,3.42,29.56Z"/><path class="cls-9" d="M1120.1,669.76c-.46-1-1-2.76-1.54-4.26s-.94-3.19-1.42-4.78l-1.24-4.94c-.4-1.65-.71-3.36-1.07-5l-.53-2.53-.43-2.57-.85-5.15q-.7-5.19-1.32-10.43a321.83,321.83,0,0,1-1.4-42.53c.25-14.29,1.66-28.54,3.24-42.77.92-7.09,2-14.16,3-21.25l3.83-21.11-5.1,20.74c-1.44,7-3,14-4.33,21-2.46,14.15-4.75,28.42-5.89,42.91s-5.13,34.43-4.44,49.14c.21,3.67,3.69,2,4,5.71l.58,5.52.29,2.76.39,2.76c.28,1.83.51,3.68.83,5.51l1,5.52c.43,1.83.8,3.67,1.28,5.52s.92,3.57,1.71,5.79Z"/><path class="cls-9" d="M1101.19,663.48c.25-7.43.1-14.45-.24-21.62s-1-14.21-1.81-21.24-2-14-3.39-20.86a202.07,202.07,0,0,0-5.23-20.17c1.29,6.85,2.42,13.71,3,20.66s1.06,13.87,1.12,20.82-5.8,15.63-6.19,22.52,4.73,12.1,3.81,18.62Z"/><path class="cls-9" d="M761,646.82c4.18-1,6.46-6.5,4.66-11.17-1.93-5-3.95-10.24-4.09-10.72-.26-.94-1.47-5.69-1.47-5.69a153.83,153.83,0,0,1-3.48-23.73c-.13-4-.43-8.12-.3-12.2.05-2,0-4.09.12-6.13l.38-6.14c.07-1,.12-2,.21-3.07l.36-3.06.71-6.13c.58-4.07,1.35-8.1,2-12.18-1.07,3.93-2.25,7.85-3.25,11.83l-1.35,6.05-.67,3c-.21,1-.35,2-.53,3.07l-1,6.17c-.33,2.06-.5,4.15-.76,6.24-.56,4.17-.69,8.39-1,12.62-.24,8.48-.55,19.75.47,29.57,0,0,.6,8,1.16,14.65.39,4.67,4,7.91,7.82,7Z"/><path class="cls-9" d="M748.6,644.82c3.56,0,6-4.33,4.69-8.33-1.16-3.54-2.28-7.07-2.49-8a93.62,93.62,0,0,1-1.87-13c-.14-2.22-.28-4.46-.28-6.71s0-4.51.09-6.79.3-4.53.45-6.83.52-4.53.78-6.82c-.67,2.15-1.37,4.3-2,6.49s-1.22,4.41-1.71,6.66-1,4.53-1.37,6.84-.72,4.65-1,7a104.54,104.54,0,0,0-.58,14.44c0,1.35.17,5.57.3,9.2.11,3.26,2.33,5.83,5,5.83Z"/><path class="cls-9" d="M795.85,631.8a57,57,0,0,0-1.94-6.83c-.75-2.19-1.58-4.35-2.54-6.49a70.71,70.71,0,0,0-6.94-12.4,56.33,56.33,0,0,0-10.1-11,46.48,46.48,0,0,0-14-7.61,37.48,37.48,0,0,1,11,9.33,43.59,43.59,0,0,1,6.18,11.4c1.5,3.94,0,18.36.57,22.43s.29,4.56,0,8.28Z"/><path class="cls-9" d="M804.07,643.65c-.39-10.75,3.58-5.26.95-15.75-1-5.28-7.56-26.64-9.13-31.8-.83-2.58-1.93-5.1-2.88-7.65l-1.48-3.81-1.72-3.74A175.22,175.22,0,0,0,773.3,552,170.59,170.59,0,0,0,751,525.62a157.29,157.29,0,0,1,19,27.55,160.75,160.75,0,0,1,12.74,29.35l1.24,3.73,1,3.78c.62,2.52,1.4,5,1.89,7.55a141.75,141.75,0,0,1,2.39,15.21c1.32,10.15.84,20.34,0,30.4Z"/><path class="cls-9" d="M816.34,647.67a170.64,170.64,0,0,0,.58-20.1c-.11-6.6-.57-13.18-1.17-19.74a376.47,376.47,0,0,0-5.87-39.07c-1.48-6.45-2.77-12.91-4.54-19.31-.86-3.2-1.62-6.41-2.55-9.6l-2.85-9.54c-1.8-6.38-4.19-12.65-6.26-19-2.24-6.29-4.73-12.52-7.08-18.77,1.76,6.37,3.64,12.71,5.28,19.09,1.45,6.41,3.23,12.75,4.41,19.19l1.93,9.61c.61,3.21,1.07,6.44,1.61,9.65,1.15,6.42,1.82,12.88,2.67,19.31a366.39,366.39,0,0,1,2.11,38.69c0,6.44-4.46,18.91-5,25.3s3.12,6.85,2,12.8Z"/><path class="cls-9" d="M831.6,634.38a3.16,3.16,0,0,1,.38.34l.08.09a.3.3,0,0,1,0,.08c0,.07-.08-.07-.12-.1s-.25-.3-.39-.51a10.74,10.74,0,0,1-.82-1.56l-.66-1.93-.47-2.1c-.51-2.87.9,3.69.94.59,0-6.21-.66-22.19.49-28.52s2.75-12.69,4.56-19,3.87-12.61,5.94-18.91c-3.24,6-6.55,12-9.5,18.11s-5.79,12.28-8.26,18.58a119.16,119.16,0,0,0-6,19.42,55,55,0,0,0-1.18,10.38l.08,2.73.39,2.87a20.17,20.17,0,0,0,.92,3.1,11,11,0,0,0,.82,1.73,10.68,10.68,0,0,0,.62,1l.47.58a3,3,0,0,0,.3.34c.2.2.41.4.63.59Z"/><path class="cls-9" d="M864,654.13c-.69-7.26-1.84-23.57-1.78-30.77s3.73-26.55,4.48-33.71A105.75,105.75,0,0,1,868.28,579a47.52,47.52,0,0,1,3.16-10.15,47.84,47.84,0,0,0-2.19,10.34,104.47,104.47,0,0,0-.6,10.61c-.09,7.09.31,14.18.9,21.24s4.5,35.14,5.79,42Z"/><path class="cls-9" d="M882.35,658.1c-2.26-10.37-7.07-22.39-8.58-32.76s.39-18.94-.29-29.38c-.24-2.6-.32-5.23-.45-7.84s-.28-5.22-.28-7.84l-.09-7.84.21-7.85A157,157,0,0,1,877,533.71a156.09,156.09,0,0,0-1.82,30.9l.35,7.72.67,7.7c.18,2.57.53,5.12.84,7.68s.58,5.1,1,7.64c1.42,10.18,7.79,20,10,30s.3,20.25,3.16,29.84Z"/><path class="cls-9" d="M885.89,649.67c2-7.23-.92-11.76.32-19.36s6.57-18.54,6.95-26.31a130.16,130.16,0,0,0-.74-23.27,65.31,65.31,0,0,0-6.56-22.14,65.34,65.34,0,0,1,8.49,21.71A133.78,133.78,0,0,1,897.1,604a217.7,217.7,0,0,1-.6,24,239.69,239.69,0,0,1-3,23.9Z"/><path class="cls-9" d="M891.37,653.45c.4-.85.92-2.24,1.35-3.45s.83-2.57,1.25-3.86l1.08-4c.35-1.34.62-2.72.94-4.08l.46-2,.38-2.08.75-4.16c.41-2.8.79-5.62,1.16-8.44A241.51,241.51,0,0,0,900,587a345.91,345.91,0,0,0-2.85-34.57c-.8-5.74-1.77-11.45-2.65-17.19l-3.37-17.06,4.48,16.77c1.26,5.66,2.61,11.31,3.79,17a344.77,344.77,0,0,1,5.17,34.69c1.1,11.7,4.5,27.83,3.9,39.73-.18,3-3.24,1.64-3.48,4.62l-.5,4.46-.26,2.23-.34,2.23c-.25,1.48-.44,3-.73,4.46l-.9,4.46c-.37,1.48-.69,3-1.12,4.46s-.81,2.89-1.49,4.69Z"/><path class="cls-9" d="M908,648.37c-.22-6-.08-11.68.21-17.48s.85-11.49,1.6-17.17,1.73-11.32,3-16.87a153.64,153.64,0,0,1,4.59-16.31,155.51,155.51,0,0,0-2.66,16.7c-.58,5.61-.93,11.22-1,16.84s5.09,12.64,5.43,18.21-4.16,9.78-3.35,15.05Z"/><path class="cls-9" d="M932.52,643.13a8.53,8.53,0,0,1-6.12-12c2.53-5.35,5.18-11,5.36-11.5.35-1,1.93-6.1,1.93-6.1a137.12,137.12,0,0,0,4.58-25.48c.18-4.34.57-8.71.39-13.09-.06-2.19,0-4.4-.15-6.59l-.51-6.58c-.09-1.1-.14-2.21-.27-3.31l-.47-3.28-.94-6.58c-.76-4.36-1.77-8.69-2.65-13.07,1.41,4.22,3,8.42,4.28,12.7l1.76,6.49.89,3.25c.27,1.09.46,2.2.7,3.3l1.35,6.62c.43,2.21.65,4.46,1,6.7.75,4.47.91,9,1.29,13.55.32,9.1.72,21.19-.61,31.74,0,0-.8,8.6-1.53,15.72a8.62,8.62,0,0,1-10.27,7.51Z"/><path class="cls-9" d="M948.78,641a6.55,6.55,0,0,1-6.15-9c1.51-3.79,3-7.59,3.27-8.61a84.36,84.36,0,0,0,2.45-13.92c.18-2.38.37-4.78.36-7.2s0-4.84-.11-7.28-.4-4.87-.59-7.33-.68-4.87-1-7.33c.88,2.31,1.81,4.62,2.66,7s1.61,4.73,2.24,7.15,1.34,4.86,1.8,7.35,1,5,1.33,7.51a92.73,92.73,0,0,1,.77,15.51c-.06,1.44-.22,6-.4,9.87a6.57,6.57,0,0,1-6.6,6.26Z"/><path class="cls-9" d="M-8.75,631.25l49-12.5a64.71,64.71,0,0,1,16-2h28L143,628.85h.08l54.82-5.41H198c1.25-.25,36.64-7.15,80.38,4.81,44.88,12.28,57.13-5,58.19-6.63a.32.32,0,0,1,.22-.14l46.94-6.73h.1l40.42,9.8h.13c1.51-.47,30.35-9.2,49.45-9.5,31.06-.48,30.55.92,30.55.92S588,628.86,614.8,622.11s89.43-7.36,90.2-7.37h0c.6.1,33.19,5.56,60.8,8.6,27.88,3.07,93.75-4.3,99.33-6.14s45.15,7,46.58,7.36h.08c1.92-.19,74.86-7.46,82.05-11,8.39-4.18,47,16.65,49.07,17.76a.23.23,0,0,0,.18,0l64.35-14.87a26.7,26.7,0,0,1,4-.61c12.76-1,82.45-5.85,110.48,1.39,30.91,8,78.54,16.57,92.22,11s28.89-3.07,28.89-3.07V754.93a.36.36,0,0,1-.32.39H-8.68a.36.36,0,0,1-.32-.39V631.63A.39.39,0,0,1-8.75,631.25Z"/><path class="cls-10" d="M618,128h-.84a2.61,2.61,0,0,0-2.6,1.79c-1.88,6-11.89,25.23-62.79,31.56l0,0A51,51,0,0,0,560,141.05c4-26.05-3.75-1.93-4-1.05-2.87,10.65-10.58,20.52-19.56,28.6l.09-.63a1.71,1.71,0,0,1-1.23-.86c-2.49-3.62.9-30.6,2.28-37.09,0,0,0,0,0,0l-6,2h0c-3.86,18-3.59,35-2.88,39.63A3.63,3.63,0,0,0,530,173.9v0a102.71,102.71,0,0,1-22.46,13.26s0,0,0,0a2.5,2.5,0,0,0-1.19-1.19c-4.32-2-8.57-8.52-12.39-16.58a0,0,0,0,1,0,0c7.15-6.32,11.28-10,13.15-14.71,2.11-5.32,4-19.13,3.89-19.67h0l-5-4s0,0,0,0a103.05,103.05,0,0,1-4,20c-1.85,5.54-7.06,9.63-10.85,12,0,0,0,0,0,0a279.46,279.46,0,0,1-9.43-27.58,2.68,2.68,0,0,0-2.32-2,2.61,2.61,0,0,0-2.75,3.18c2.42,10.66,10.7,44.52,25.55,53.43,0,0,0,0,0,0-5.67,4.55-10.93,14.3-16,29.57-2.72,8.24-4.93,16.7-6.54,23.56,0,0,0,0,0,0-1.79-12.78-7.85-30.21-25.43-47,0,0,0,0,0,0,26.66-31.7,18.46-56.19,17-59.75a1.63,1.63,0,0,0-.52-.67,1.7,1.7,0,0,0-2.62,1.72c1.17,6.79,2,20.63-5.55,36.7,0,0,0,0,0,0-15.79-9.11-22-33.38-23.23-39a1.52,1.52,0,0,0-2-1.08,1.55,1.55,0,0,0-.91,1.73c1.13,7,5.9,32.15,24.21,42.23,0,0,0,0,0,0a82.27,82.27,0,0,1-9.8,14.09,1.67,1.67,0,0,0-.31.57l-.3-.27C432.89,177.64,426.23,167.07,425,160c-.83-4.73-1.84-11.13-2-13-1.13-13.23-4-14-4-11,0,4.51-2.52,18.22,4.68,34.82,0,0,0,0,0,0-3.27-.82-8.33-3.19-15.69-9.21-5.28-4.32-15.76-21.31-18-23.64-.8-.84-3.83,1.12-3,2,2.33,2.46,12.3,20.34,18,25,9.31,7.62,14.74,14.16,20.87,14.16a14,14,0,0,0,1.85-.12,1.41,1.41,0,0,0,.22-.06,82.55,82.55,0,0,0,16.73,19.36s0,0,0,0c-8.07-1.22-22.93-4.6-27.66-13.35h-3a0,0,0,0,0,0,0c5.82,10.75,27,16.31,36,18.21h0c24.14,23.93,22.87,48.59,21.93,55.52-.14,1,1.08,1,2.09,1.24h4a10.06,10.06,0,0,0,4.81-1.08,1.66,1.66,0,0,0,1.93-1.33,323.24,323.24,0,0,1,8.08-32.42h0c4.37-.37,9.36-5.63,21.6-13.9h0c3.36.57,10.4,1.61,12.15,1.61h0c14.09-2.81,41.24-25.11,43.31-26.79,0,0,0,0,0,0L561,190.37c1-2.35-25,20.75-41.68,17.68.54-.35,1.1-.7,1.67-1.05,12.89-8,33.72-20.23,34.94-21,0,0,0,0,0,0L545.1,187.3h0c-.18.13-11.85,8.86-24.62,16.84-13.41,8.38-20.81,11.45-24.75,12.53,0,0,0,0,0,0C502,199.54,507,196,508.9,195.25c10.85-4.07,27.38-14.28,38.79-28.36a2.62,2.62,0,0,0,.56,0c58.77-6.64,70.13-27.48,72.27-35.72A2.56,2.56,0,0,0,618,128Z"/><path class="cls-11" d="M351.88,138.16c4,5,21.39,23.57,48.44,7.85a4.51,4.51,0,0,1,3.52-.41c4.58,1.32,16.74,3.77,25.55-4a4.65,4.65,0,0,1,3.88-1.14c4.93.87,16.81,2.52,25.38,0a4.6,4.6,0,0,1,2.77.09c4,1.44,15.91,5.07,25.53,2.2a4.6,4.6,0,0,1,3.78.47c4.11,2.59,14.88,7.94,25.47,1.08a4.68,4.68,0,0,1,4-.49c4.22,1.37,13.73,3.53,20.08-1.95a4.61,4.61,0,0,1,4.25-1c5.07,1.42,17.41,3.46,32.1-4.08a4.6,4.6,0,0,1,2.89-.47c4.77.82,19.83,2.8,27.55-3.33a4.64,4.64,0,0,1,4.63-.75c5.44,2.2,17.73,5.79,22.34-4.2,6-13,8-12,0-27-5.89-11-17.22-8-22.77-5.61a4.54,4.54,0,0,1-5.13-1.17c-2.22-2.41-6.69-5.41-14.92-4.67a4.59,4.59,0,0,1-4.49-2.37c-3-5.71-11.63-18.06-29.26-17.27a4.7,4.7,0,0,1-2.57-.6c-5.49-3.19-30-15.52-52.39,3.46a4.54,4.54,0,0,1-5.17.43c-3.88-2.18-11.35-4.87-18.51,1a4.5,4.5,0,0,1-5.81-.15c-7.06-6.23-25.22-18.75-40.77.37a4.56,4.56,0,0,1-3.12,1.67c-4,.35-13.16,1.9-17.53,8.64a4.55,4.55,0,0,1-5.16,2c-8.36-2.58-28.73-6.26-32.87,17.17a4.5,4.5,0,0,1-4.25,3.78c-4.64.15-12.69,2.33-18.74,14.23a4.49,4.49,0,0,0-.45,2.34l.81,11.43A4.49,4.49,0,0,0,351.88,138.16Z"/><path class="cls-11" d="M405.54,164.65a3.17,3.17,0,0,1-1.13.46c-2.53.49-12.15,2.8-10.41,8.89,0,0,1.71,10.27,10.67,7.85a3.33,3.33,0,0,1,3.49,1c1.76,2.19,5.69,5,12.86.48a3.33,3.33,0,0,1,3.69.12,10.27,10.27,0,0,0,12,.29,3.34,3.34,0,0,1,2-.52c2.36.17,7.61-.18,5.25-7.25,0,0-.48-7.49-8.63-6.19a3.35,3.35,0,0,1-3.62-2.1c-1.57-4-5-10.7-10.32-9.87C415.08,158.83,407.58,163.36,405.54,164.65Z"/><path class="cls-11" d="M541.06,173.91a9.09,9.09,0,0,1-5.58,1.94c-3.63-.06-8.84.22-9.48,2.15,0,0-2,5,4,5a17.34,17.34,0,0,0,2.33.38,8.65,8.65,0,0,1,5.8,2.94c2.29,2.71,6.56,5.77,13.37,3.65a8.83,8.83,0,0,1,5-.12c3.42,1,9.63,2.11,14.48-.5a9.07,9.07,0,0,1,4.86-1.12c5.19.33,15.38.53,13.12-3.23-1.56-2.6-4.48-4.12-6.91-5a8.24,8.24,0,0,1-4.67-3.92c-.9-1.76-3.1-3.63-8.44-3.4a8.33,8.33,0,0,1-5.17-1.58c-3.11-2.22-9.21-5.06-16.31-.24a9.09,9.09,0,0,1-2.92,1.33A9.51,9.51,0,0,0,541.06,173.91Z"/><path class="cls-12" d="M388.55,135.82a4.4,4.4,0,0,0-1-.37c-3.28-.84-21.84-6-12-14.19,0,0,10.35-8.4,16.74-11.47a4.88,4.88,0,0,0,2.81-4.14c.22-4.18,2.18-10.7,12.92-6.82a4.92,4.92,0,0,0,4.49-.58c3.94-2.74,12.47-7.86,17.47-4.62a5.31,5.31,0,0,0,2.3.9c2.33.27,7.18,1.33,9.42,5.49a5,5,0,0,0,3.93,2.63c4.15.38,10.91,1.68,9.07,6.09a4.19,4.19,0,0,0-.26,2c.11,1.86-.74,5.87-8.81,9.64a4.76,4.76,0,0,0-2.56,3c-.78,2.71-2.92,7.09-8.59,6.93a4.16,4.16,0,0,0-1.53.2c-2.61.89-11.84,3.65-17.15.13a4.76,4.76,0,0,0-5.89.32C405.62,134.84,397.51,140.25,388.55,135.82Z"/><path class="cls-12" d="M500.65,88c-3.67-1-9.83-1.82-12.7,2.55a3.89,3.89,0,0,1-1.86,1.56c-2.52.95-7.76,3.48-5.36,7.29a3.66,3.66,0,0,1-.42,4.54c-3,3.12-6.92,8.44-.09,9.93a3.71,3.71,0,0,1,2.86,2.87c.76,3.47,3.73,9.13,15.13,7.8a3.8,3.8,0,0,1,3.7,1.86c1.92,3.23,6.86,8.33,18,4.34a3.72,3.72,0,0,1,1.65-.22c4,.36,21.22,1.62,26.2-3.35a4,4,0,0,1,3.08-1.09c6.1.39,23,1,23.68-3.51a3.73,3.73,0,0,1,2.62-3c9.54-2.88,34.95-11.61,3.32-14.17a3.75,3.75,0,0,1-3.37-2.9c-1-4.34-4.25-12.27-14.68-11a3.78,3.78,0,0,1-2.21-.43c-4.16-2.24-19.15-9.83-24.3-5.94a3.86,3.86,0,0,1-4.79,0c-2.72-2.18-6.6-4.45-9.13-2.36a3.73,3.73,0,0,1-3.49.81c-3.51-1.11-10.23-2.36-13.65,2.77A3.81,3.81,0,0,1,500.65,88Z"/><path class="cls-13" d="M514.33,99.16c-3.42,1.7-8.28,4.77-4.6,7.15a10.55,10.55,0,0,1,3,3c1.63,2.44,4.82,6,9.59,6.19a10.72,10.72,0,0,1,5.91,2c3.49,2.53,9.37,6,13.36,4.1a8.8,8.8,0,0,1,3.12-.74c3.49-.29,10.42-1.35,13.08-5.36a10.59,10.59,0,0,1,4.8-4c3.47-1.4,7.59-3.7,4.16-5.79a8.57,8.57,0,0,1-3.22-3.7c-1.48-3.14-4.75-7.82-11-7.41a10.67,10.67,0,0,1-7.28-2.17c-2.09-1.62-4.94-3.06-7.68-1.86a11.11,11.11,0,0,1-7.77.17c-3.39-1.08-7.94-1-11.29,4.5A10,10,0,0,1,514.33,99.16Z"/><path class="cls-13" d="M406.5,110.18c-2.25,1.43-5.75,4.14-2.7,5.5a5.12,5.12,0,0,1,1.88,1.45c1.26,1.56,4,4.24,7.68,3.75a5.57,5.57,0,0,1,3.47.66c2.51,1.45,7.13,3.64,9.88,2a5.33,5.33,0,0,1,1.79-.75c2.3-.43,7.67-1.79,9-5.15a5.17,5.17,0,0,1,2.42-2.57c2.34-1.24,5.47-3.33,2.76-4.54a5.49,5.49,0,0,1-2.42-2.13c-1.28-2.1-4.07-5.33-8.68-4.22a5.42,5.42,0,0,1-4.27-.68c-1.64-1.09-4-2.14-6-.86a5.78,5.78,0,0,1-4.57.82c-2.54-.66-6.18-.55-8.14,4.24A5.47,5.47,0,0,1,406.5,110.18Z"/><path class="cls-10" d="M65.83,282.4h1A3.13,3.13,0,0,1,70,284.55c2.26,7.16,14.25,30.24,75.27,37.83,0,0,0,0,0,0A61.17,61.17,0,0,1,135.39,298c-4.81-31.22,4.5-2.31,4.78-1.25,3.45,12.76,12.68,24.59,23.45,34.28l-.12-.76a2,2,0,0,0,1.48-1c3-4.34-1.08-36.67-2.73-44.45,0,0,0,0,0,0l7.15,2.38v0c4.63,21.51,4.3,41.94,3.46,47.5a4.41,4.41,0,0,1-1.58,2.71s0,0,0,0a122.43,122.43,0,0,0,26.91,15.9h0a2.93,2.93,0,0,1,1.43-1.43c5.18-2.43,10.26-10.21,14.85-19.88v0c-8.57-7.57-13.52-12-15.76-17.63-2.52-6.38-4.81-22.93-4.66-23.57h0l6-4.77s0,0,0,0c.06.72,1.29,13.45,4.79,23.94,2.21,6.64,8.46,11.54,13,14.38h0a335.77,335.77,0,0,0,11.31-33.07A3.2,3.2,0,0,1,232,288.9a3.13,3.13,0,0,1,3.3,3.81c-2.9,12.78-12.82,53.36-30.62,64,0,0,0,0,0,0,6.8,5.45,13.1,17.13,19.15,35.45,3.26,9.87,5.9,20,7.84,28.23a0,0,0,0,0,0,0c2.14-15.31,9.42-36.21,30.49-56.32v0c-32-38-22.13-67.35-20.37-71.62a1.92,1.92,0,0,1,.62-.81,2,2,0,0,1,3.14,2.06c-1.4,8.14-2.39,24.73,6.65,44h0c18.93-10.91,26.33-40,27.84-46.75a1.81,1.81,0,0,1,2.44-1.28,1.86,1.86,0,0,1,1.1,2.07c-1.36,8.42-7.08,38.53-29,50.62,0,0,0,0,0,0a97.9,97.9,0,0,0,11.75,16.89,2.13,2.13,0,0,1,.36.68l.36-.32c20.64-17.77,28.62-30.45,30.1-38.92,1-5.67,2.21-13.35,2.4-15.58,1.36-15.86,4.79-16.78,4.79-13.19,0,5.41,3,21.84-5.61,41.74a0,0,0,0,0,0,0c3.91-1,10-3.83,18.8-11,6.34-5.18,18.89-25.55,21.55-28.34,1-1,4.58,1.35,3.59,2.4-2.79,2.94-14.75,24.37-21.57,30-11.16,9.14-17.67,17-25,17a16.34,16.34,0,0,1-2.22-.14,1.25,1.25,0,0,1-.26-.07,99.36,99.36,0,0,1-20.05,23.2s0,0,0,0c9.67-1.46,27.49-5.51,33.15-16h3.57s0,0,0,0c-7,12.88-32.36,19.55-43.1,21.83h0c-28.93,28.69-27.42,58.25-26.29,66.55.17,1.25-1.29,1.18-2.5,1.49h-4.8a12,12,0,0,1-5.76-1.3,2,2,0,0,1-2.32-1.58,385.15,385.15,0,0,0-9.68-38.87h0c-5.23-.45-11.22-6.75-25.89-16.65h0c-4,.69-12.47,1.93-14.56,1.93h0C158.53,380.77,126,354,123.51,352c0,0,0,0,0,0l10.63,5.16c-1.18-2.82,29.93,24.87,50,21.19l-2-1.25c-15.44-9.62-40.42-24.25-41.88-25.14,0,0,0,0,0,0l13,1.55h0c.21.16,14.2,10.62,29.51,20.19,16.07,10,24.94,13.73,29.67,15,0,0,0,0,0,0-7.57-20.5-13.49-24.78-15.82-25.65-13-4.88-32.82-17.11-46.49-34a3.74,3.74,0,0,1-.67,0c-70.44-8-84.06-32.94-86.62-42.81A3.07,3.07,0,0,1,65.83,282.4Z"/><path class="cls-11" d="M384.84,294.58c-4.78,6-25.64,28.26-58.06,9.41a5.42,5.42,0,0,0-4.22-.49c-5.49,1.57-20.07,4.51-30.63-4.81a5.56,5.56,0,0,0-4.65-1.38c-5.9,1.05-20.15,3-30.42,0a5.38,5.38,0,0,0-3.32.11c-4.85,1.71-19.07,6.06-30.61,2.62a5.54,5.54,0,0,0-4.53.57c-4.92,3.1-17.83,9.52-30.53,1.3a5.61,5.61,0,0,0-4.74-.59c-5.06,1.64-16.46,4.23-24.06-2.34a5.53,5.53,0,0,0-5.1-1.21c-6.08,1.7-20.87,4.15-38.48-4.89a5.5,5.5,0,0,0-3.47-.56c-5.71,1-23.76,3.36-33-4a5.54,5.54,0,0,0-5.55-.9c-6.52,2.63-21.25,6.94-26.77-5-7.19-15.58-9.59-14.38,0-32.36,7.06-13.25,20.63-9.58,27.29-6.73a5.42,5.42,0,0,0,6.14-1.4c2.67-2.89,8-6.48,17.89-5.59a5.49,5.49,0,0,0,5.38-2.84c3.62-6.85,13.94-21.66,35.07-20.71a5.59,5.59,0,0,0,3.08-.72c6.59-3.82,36-18.59,62.8,4.15a5.45,5.45,0,0,0,6.2.51c4.65-2.61,13.6-5.83,22.19,1.23a5.39,5.39,0,0,0,7-.17c8.46-7.48,30.23-22.49,48.87.43a5.45,5.45,0,0,0,3.74,2c4.77.42,15.77,2.28,21,10.36a5.45,5.45,0,0,0,6.18,2.35c10-3.09,34.44-7.51,39.4,20.58A5.41,5.41,0,0,0,364,258c5.55.18,15.2,2.79,22.45,17.06a5.42,5.42,0,0,1,.55,2.8l-1,13.7A5.42,5.42,0,0,1,384.84,294.58Z"/><path class="cls-11" d="M320.52,326.34a3.92,3.92,0,0,0,1.36.54c3,.59,14.56,3.36,12.47,10.66,0,0-2.05,12.31-12.79,9.41a4,4,0,0,0-4.18,1.23c-2.11,2.62-6.82,5.95-15.42.58a4,4,0,0,0-4.42.14,12.32,12.32,0,0,1-14.39.35,4,4,0,0,0-2.44-.63c-2.82.21-9.12-.21-6.29-8.68,0,0,.57-9,10.35-7.42A4,4,0,0,0,289.1,330c1.88-4.75,6-12.81,12.37-11.82C309.09,319.36,318.08,324.79,320.52,326.34Z"/><path class="cls-11" d="M158.08,337.43a10.75,10.75,0,0,0,6.69,2.32c4.34-.06,10.59.27,11.36,2.58,0,0,2.4,6-4.79,6a21.63,21.63,0,0,1-2.8.46,10.31,10.31,0,0,0-6.94,3.51c-2.76,3.25-7.88,6.93-16,4.38a10.65,10.65,0,0,0-6-.14c-4.1,1.16-11.54,2.52-17.35-.59a10.81,10.81,0,0,0-5.83-1.35c-6.22.39-18.43.63-15.72-3.87,1.87-3.12,5.36-4.94,8.28-6a9.88,9.88,0,0,0,5.6-4.7c1.07-2.11,3.71-4.35,10.11-4.08a10,10,0,0,0,6.2-1.89c3.72-2.67,11-6.06,19.56-.29a10.43,10.43,0,0,0,3.49,1.59A11.6,11.6,0,0,1,158.08,337.43Z"/><path class="cls-12" d="M340.88,291.77a6.37,6.37,0,0,1,1.17-.44c3.93-1,26.17-7.21,14.43-17,0,0-12.4-10.08-20.07-13.75a5.92,5.92,0,0,1-3.37-5c-.26-5-2.61-12.82-15.48-8.18a5.91,5.91,0,0,1-5.39-.68c-4.71-3.29-14.94-9.43-20.94-5.54a6.56,6.56,0,0,1-2.75,1.08c-2.79.32-8.6,1.59-11.29,6.58a6,6,0,0,1-4.71,3.15c-5,.46-13.08,2-10.87,7.29a5.25,5.25,0,0,1,.31,2.36c-.14,2.23.88,7,10.56,11.55a5.74,5.74,0,0,1,3.06,3.58c.94,3.25,3.51,8.5,10.3,8.31a5.13,5.13,0,0,1,1.83.24c3.14,1.07,14.19,4.38,20.56.16a5.7,5.7,0,0,1,7.06.38C320.42,290.6,330.14,297.09,340.88,291.77Z"/><path class="cls-12" d="M206.52,234.47c4.4-1.19,11.77-2.19,15.21,3.06a4.68,4.68,0,0,0,2.24,1.86c3,1.15,9.29,4.17,6.42,8.74a4.4,4.4,0,0,0,.5,5.44c3.64,3.75,8.3,10.13.12,11.91a4.46,4.46,0,0,0-3.44,3.43c-.91,4.16-4.46,10.95-18.13,9.35A4.55,4.55,0,0,0,205,280.5c-2.3,3.87-8.23,10-21.53,5.2a4.62,4.62,0,0,0-2-.27c-4.8.44-25.44,1.95-31.41-4a4.74,4.74,0,0,0-3.68-1.29c-7.31.46-27.59,1.25-28.39-4.21a4.46,4.46,0,0,0-3.14-3.58c-11.43-3.46-41.9-13.92-4-17a4.49,4.49,0,0,0,4-3.47c1.2-5.2,5.09-14.71,17.6-13.18a4.42,4.42,0,0,0,2.64-.52c5-2.68,23-11.78,29.13-7.11a4.66,4.66,0,0,0,5.75,0c3.25-2.61,7.9-5.34,10.93-2.83a4.5,4.5,0,0,0,4.2,1c4.19-1.33,12.25-2.83,16.35,3.32A4.56,4.56,0,0,0,206.52,234.47Z"/><path class="cls-13" d="M190.11,247.84c4.11,2,9.93,5.71,5.52,8.57a12.41,12.41,0,0,0-3.55,3.63c-2,2.92-5.78,7.21-11.49,7.42a12.81,12.81,0,0,0-7.09,2.39c-4.18,3-11.22,7.16-16,4.91a10.91,10.91,0,0,0-3.73-.9c-4.2-.34-12.5-1.61-15.68-6.41a12.64,12.64,0,0,0-5.76-4.74c-4.17-1.68-9.1-4.44-5-6.94a10.19,10.19,0,0,0,3.86-4.43c1.78-3.77,5.7-9.38,13.18-8.89a12.81,12.81,0,0,0,8.72-2.6c2.51-1.94,5.93-3.66,9.21-2.23a13.31,13.31,0,0,0,9.31.21c4.07-1.3,9.52-1.26,13.53,5.39A12.1,12.1,0,0,0,190.11,247.84Z"/><path class="cls-13" d="M319.37,261c2.7,1.72,6.89,5,3.24,6.6a6,6,0,0,0-2.25,1.73c-1.52,1.88-4.79,5.08-9.22,4.5a6.65,6.65,0,0,0-4.15.79c-3,1.74-8.55,4.36-11.84,2.4a6.85,6.85,0,0,0-2.15-.89c-2.76-.52-9.19-2.14-10.83-6.17a6.27,6.27,0,0,0-2.91-3.08c-2.81-1.49-6.55-4-3.3-5.45a6.53,6.53,0,0,0,2.89-2.54c1.54-2.53,4.88-6.4,10.4-5.07a6.51,6.51,0,0,0,5.13-.82c2-1.3,4.82-2.55,7.21-1a6.89,6.89,0,0,0,5.47,1c3.06-.79,7.41-.66,9.77,5.08A6.47,6.47,0,0,0,319.37,261Z"/><path class="cls-10" d="M1644.07,65.28c-7.25,7.63-41.51,63.21-58.8,77.34-24.06,19.66-40.62,27.43-51.31,30.1a.05.05,0,0,1-.06-.07c23.54-54.32,15.31-99.15,15.31-113.91,0-9.81-9.38-7.29-13.08,36-.53,6.1-3.84,27.05-6.55,42.53-4,23.12-25.82,57.71-82.13,106.2-.34.29-.65.59-1,.88a5.47,5.47,0,0,0-1-1.85,267.36,267.36,0,0,1-32-46.1,0,0,0,0,1,0-.06c59.88-33,75.49-115.15,79.2-138.14a5.07,5.07,0,0,0-3-5.64A5,5,0,0,0,1483,56c-4.12,18.41-24.32,97.8-76,127.58a.05.05,0,0,1-.08,0c-24.69-52.56-22-97.83-18.16-120,.83-4.79-4.68-8.57-8.55-5.63a5.33,5.33,0,0,0-1.7,2.2c-4.82,11.65-31.64,91.74,55.57,195.45,0,0,0,.05,0,.06-57.5,54.87-77.34,111.9-83.19,153.68a0,0,0,0,1-.09,0c-5.27-22.44-12.49-50.12-21.38-77.05-16.51-50-33.71-81.85-52.26-96.72a.05.05,0,0,1,0-.08c48.58-29.15,75.65-139.88,83.57-174.77a8.53,8.53,0,0,0-9-10.38,8.72,8.72,0,0,0-7.57,6.45c-7.3,25.16-18.08,59.32-30.86,90.24a.05.05,0,0,1-.08,0c-12.4-7.73-29.46-21.1-35.5-39.22-9.54-28.62-12.91-63.38-13.08-65.34,0,0-.05,0-.08,0l-16.26,13,0,0c-.4,1.75,5.83,46.92,12.72,64.33,6.11,15.42,19.62,27.45,43,48.11a.06.06,0,0,1,0,.07c-12.51,26.36-26.4,47.61-40.53,54.22a8.31,8.31,0,0,0-3.91,3.92,0,0,0,0,1-.06,0c-21-8.56-47.76-23.67-73.45-43.37a0,0,0,0,1,0-.08,11.92,11.92,0,0,0,4.29-7.39c2.3-15.17,3.19-70.91-9.43-129.62,0,0,0,0,0,0l-19.52-6.51a0,0,0,0,0-.06.06c4.52,21.22,15.62,109.46,7.47,121.29-1.4,2-2.62,2.6-4,2.82l.32,2.07c-29.39-26.44-54.59-58.72-64-93.55-.78-2.88-26.17-81.78-13,3.43,3.66,23.77,13.47,46,26.87,66.33,0,0,0,.08-.05.08C948.36,121,915.63,58,909.47,38.43A8.54,8.54,0,0,0,901,32.57h-2.74A8.37,8.37,0,0,0,890.06,43c7,27,44.15,95.11,236.37,116.83a8.58,8.58,0,0,0,1.83,0c37.32,46.06,91.41,79.45,126.88,92.75,6.36,2.39,22.51,14.06,43.16,70l9.41,27.84a.05.05,0,0,1,0,0c1.41,4.53,2.78,9.07,4.1,13.59a4.37,4.37,0,0,0-.2,1.26v206a4.49,4.49,0,0,0,4.49,4.49h23a4.49,4.49,0,0,0,4.49-4.49l-2-109.88a35,35,0,0,0,14.54,2.95h13.09c3.31-.86,7.28-.66,6.82-4.07-3.07-22.66-7.21-103.33,71.73-181.6l0,0c29.31-6.21,98.62-24.4,117.63-59.55a.05.05,0,0,0,0-.08h-9.7s0,0,0,0c-15.44,28.63-64.06,39.68-90.46,43.68,0,0-.07-.06,0-.09,24.55-21.26,42.13-42.68,54.73-63.3a5.83,5.83,0,0,0,.72.18,46.28,46.28,0,0,0,6.06.39c20,0,37.8-21.38,68.25-46.31,18.64-15.25,51.28-73.74,58.88-81.77C1656.59,69,1646.68,62.53,1644.07,65.28Z"/><path class="cls-11" d="M1767.77,65.81c-13,16.28-70,77.11-158.46,25.69a14.7,14.7,0,0,0-11.51-1.36c-15,4.31-54.75,12.32-83.57-13.13a15.16,15.16,0,0,0-12.71-3.74c-16.1,2.84-55,8.22-83,0a14.76,14.76,0,0,0-9.08.3c-13.21,4.69-52,16.56-83.51,7.18a15,15,0,0,0-12.36,1.54c-13.43,8.47-48.67,26-83.32,3.55a15.23,15.23,0,0,0-12.93-1.62c-13.82,4.47-44.92,11.55-65.68-6.39a15.08,15.08,0,0,0-13.9-3.28c-16.61,4.63-57,11.31-105-13.35a15,15,0,0,0-9.47-1.54c-15.59,2.69-64.84,9.17-90.1-10.89A15.2,15.2,0,0,0,918,46.31C900.22,53.5,860,65.25,845,32.57c-19.62-42.52-26.16-39.25,0-88.31,19.28-36.15,56.32-26.13,74.48-18.36a14.84,14.84,0,0,0,16.77-3.81c7.26-7.89,21.89-17.7,48.81-15.27a15,15,0,0,0,14.68-7.76c9.89-18.69,38-59.09,95.71-56.5a15.29,15.29,0,0,0,8.4-2c18-10.43,98.17-50.74,171.38,11.32a14.88,14.88,0,0,0,16.92,1.4c12.69-7.12,37.11-15.9,60.54,3.37a14.73,14.73,0,0,0,19-.49c23.08-20.39,82.49-61.36,133.36,1.19a14.84,14.84,0,0,0,10.2,5.45c13,1.16,43,6.21,57.35,28.27a14.87,14.87,0,0,0,16.86,6.41c27.36-8.43,94-20.48,107.52,56.17A14.73,14.73,0,0,0,1710.85-34c15.17.49,41.5,7.62,61.28,46.57a14.61,14.61,0,0,1,1.49,7.64L1771,57.62A14.77,14.77,0,0,1,1767.77,65.81Z"/><path class="cls-12" d="M1281.15-98.23c12-3.24,32.13-6,41.52,8.35a12.73,12.73,0,0,0,6.1,5.08c8.24,3.13,25.36,11.38,17.53,23.86a12,12,0,0,0,1.35,14.84c9.93,10.23,22.65,27.63.33,32.49a12.22,12.22,0,0,0-9.38,9.38c-2.49,11.34-12.19,29.87-49.47,25.51a12.42,12.42,0,0,0-12.11,6.1c-6.28,10.57-22.45,27.23-58.75,14.19a12.62,12.62,0,0,0-5.41-.73c-13.08,1.2-69.41,5.32-85.69-11a13,13,0,0,0-10.06-3.54c-19.95,1.27-75.28,3.42-77.48-11.49a12.13,12.13,0,0,0-8.56-9.77c-31.2-9.45-114.33-38-10.84-46.37a12.31,12.31,0,0,0,11-9.49c3.25-14.18,13.89-40.13,48-36a12.18,12.18,0,0,0,7.22-1.4c13.62-7.33,62.63-32.15,79.48-19.42a12.68,12.68,0,0,0,15.68.11c8.89-7.12,21.58-14.56,29.84-7.72a12.25,12.25,0,0,0,11.45,2.65c11.46-3.62,33.44-7.71,44.63,9A12.44,12.44,0,0,0,1281.15-98.23Z"/><path class="cls-13" d="M1236.37-61.74c11.22,5.55,27.11,15.58,15.05,23.37a34.34,34.34,0,0,0-9.66,9.92c-5.33,8-15.78,19.68-31.36,20.25a35.06,35.06,0,0,0-19.35,6.51c-11.43,8.27-30.64,19.55-43.7,13.41a29.49,29.49,0,0,0-10.19-2.45c-11.44-.92-34.1-4.41-42.78-17.5a34.39,34.39,0,0,0-15.72-12.93c-11.36-4.59-24.82-12.11-13.61-18.95a27.9,27.9,0,0,0,10.54-12.08c4.84-10.28,15.53-25.59,36-24.27a34.94,34.94,0,0,0,23.81-7.08c6.83-5.31,16.17-10,25.14-6.09,8,3.48,17.08,3.2,25.38.57,11.11-3.53,26-3.44,36.93,14.7A33,33,0,0,0,1236.37-61.74Z"/></g></svg>
