<svg xmlns="http://www.w3.org/2000/svg" width="720" height="490" viewBox="0 0 720 490"><defs><style>.cls-1{fill:#c6e3a1;}.cls-2{fill:#f6b2e7;}</style></defs><title>Setting_Skærm</title><g id="Layer_33" data-name="Layer 33"><rect class="cls-1" x="4.63" y="1.5" width="710.73" height="487" rx="65.04" ry="65.04"/><path d="M261,69.11c0,5.27-4,7.91-9.86,10.46-2.21-5.95-5.27-9.18-8.42-10.37-3,.59-5.36,3.06-5.36,5.78,0,3.06,4.26,5.61,9,8.24,7.14,4,11.9,7,11.9,15.65,0,10.88-11.31,19.12-24.66,19.12-7.9,0-19-2.89-19-11.56,0-6.29,7.31-9.6,12.83-11,1.11,5,4.25,10.88,6,12.83,3.57-.59,7.56-3.57,7.56-7.73,0-3.4-1.44-5-8.92-8.76C226.05,88.75,221,85.35,221,77c0-11.73,12.58-17.77,22.78-17.77C252.74,59.25,261,61.8,261,69.11Z"/><path d="M281.89,118.33c-10.88,0-19.38-5.52-19.38-19.72,0-19.55,14.71-24.48,24.23-24.48C294,74.13,302,75.91,302,84.67c0,11-13.69,14.2-22.79,15.81.17,3.23,1.11,6.63,2.64,8.08,5.44-2,11-7.65,11-7.65s5,1.19,5,7.39S289.72,118.33,281.89,118.33ZM279,93.51c5.1-.68,7.9-3.23,7.9-7.05a4.27,4.27,0,0,0-1.78-3.75C282.92,83.39,279.51,85.52,279,93.51Z"/><path d="M310.2,85.26a37.2,37.2,0,0,0-5.7.34c0-4.16.26-9.77,4.17-9.77.93,0,2.29.08,3.31.08,0-2.12-.25-7.22-1.7-9a25.84,25.84,0,0,1,11.9-3.65c3.91,0,4.93,2.55,4.93,5.61a49.65,49.65,0,0,1-.76,7.14,25,25,0,0,0,6.29-.94,14.46,14.46,0,0,1,1.36,6c0,4.42-5.1,4.59-9.1,4.59C323,95,321,101.67,321,104.39c0,1.62.43,2.47.94,2.81,1.7-.43,3.83-1.45,6-4.68,2.89,2,3.75,4.08,3.75,6.21,0,6.12-7.32,9.26-13.86,9.26-8.93,0-12-3.57-12-9.77C305.86,103.88,307.9,97.76,310.2,85.26Z"/><path d="M341.82,85.26a37.2,37.2,0,0,0-5.7.34c0-4.16.26-9.77,4.17-9.77.93,0,2.29.08,3.31.08,0-2.12-.25-7.22-1.7-9a25.84,25.84,0,0,1,11.9-3.65c3.91,0,4.93,2.55,4.93,5.61A49.65,49.65,0,0,1,358,76a25,25,0,0,0,6.29-.94,14.62,14.62,0,0,1,1.36,6c0,4.42-5.1,4.59-9.1,4.59-1.95,9.27-3.91,16-3.91,18.7,0,1.62.43,2.47.94,2.81,1.7-.43,3.82-1.45,6-4.68,2.89,2,3.74,4.08,3.74,6.21,0,6.12-7.31,9.26-13.85,9.26-8.93,0-12-3.57-12-9.77C337.48,103.88,339.52,97.76,341.82,85.26Z"/><path d="M388.14,80.84c0,4.6-2,10.55-3.23,16.33a43.15,43.15,0,0,0-1,8.24,9.13,9.13,0,0,0,3.57,7.4,16.76,16.76,0,0,1-12.24,5.52c-7.05,0-7.48-6-7.48-8.5,0-3.57.94-8,2-12.83.93-4.42,2.21-8.76,2.21-11.74a8.25,8.25,0,0,0-2.47-6.2c.94-1.45,4.93-4.51,10.88-4.51C385.76,74.55,388.14,77.36,388.14,80.84ZM382,54.75c5.36,0,9,3.06,9,7.56,0,4.85-4.67,7.82-9.69,7.82-5.35,0-9.09-3.23-9.09-7.14C372.25,57.89,376.67,54.75,382,54.75Z"/><path d="M405.23,74.13c2.63,0,5.44,1.1,5.44,5.61a41.5,41.5,0,0,1-.6,4.76h.43c4.16-8.84,11-10.37,14.87-10.37,5.53,0,9.95,2.72,11.56,7.39-1.7,4.51-4.76,16.41-4.76,23.21,0,2.64,1.36,5.7,3.4,6.63a14,14,0,0,1-12.41,7c-6.12,0-7.65-4-7.65-8.24,0-5.27,2.47-14.45,4.76-23.13l-.59-.25c-3.32,0-7.31,3.91-8.93,9.44-1.95,6.8-2.29,16.91-2.29,21.59a59.92,59.92,0,0,1-7.74.59c-6.2,0-8.59-3-8.59-7,0-6.89,3.58-12.5,3.58-18.36,0-2.21-.85-8-3.66-11.82C394.43,76,400.21,74.13,405.23,74.13Z"/><path d="M481.22,92.49c-.68,7.91-.68,18.11-2.81,26.27-4.33,17.17-16.74,20-26.77,20-8.68,0-14.46-2.55-14.46-9.18,0-7,7.06-8.92,11.14-9.6.85,3.57,2.72,7.31,5.36,8.92,3.57-1.36,11.22-4.42,13.09-21.42l-.34-.17c-4.17,8-9.52,9.86-14,9.86-3.4,0-13.35-1.44-13.35-15.89,0-21.09,13.78-27.12,22.19-27.12a19.09,19.09,0,0,1,11.22,3.65c2.47-1.44,6-1.61,9.1-1.61a21.12,21.12,0,0,1,2.46.17A104.08,104.08,0,0,0,481.22,92.49Zm-24.57,13.86c3.23-.77,5.19-3.57,7.23-7.91a47.34,47.34,0,0,0,3.48-12.84A9.75,9.75,0,0,0,462,84c-3.06,0-6.38,5.61-6.38,15.47C455.63,101.67,455.89,104.82,456.65,106.35Z"/><rect class="cls-2" x="86.09" y="186.5" width="169" height="70" rx="22.69" ry="22.69"/><path d="M107.59,235.2c3.65-5,5.67-17.91,6.17-21.77a7.61,7.61,0,0,0-2.79-1.62,6.44,6.44,0,0,1,6.48-4.78c5,0,6.93,5,8.82,12.51h.22C130.4,211,135.63,207,137.79,207s4,1.54,4.67,2.16c-.67,2.84-3.37,14.72-3.37,22.28a6.92,6.92,0,0,0,1,3.91,9.66,9.66,0,0,1-6.12,2.75c-2.93,0-3.65-1.22-3.65-3.78,0-2.25,1.53-9.81,2.61-14.67h-.27c-2,2.83-5.71,9.45-5.71,9.45a4.21,4.21,0,0,1-2.39.9c-1.8,0-2.2-.86-2.7-2.43s-1.48-5-2.34-7.83h-.27c-1.3,15.25-1.53,18.36-6.16,18.36A6,6,0,0,1,107.59,235.2Z"/><path d="M159.79,238.31c-1.93,0-2.83-.86-2.83-2.66,0-.58.09-1.53.18-2.47h-.23a7.84,7.84,0,0,1-7.74,5.13,6.36,6.36,0,0,1-6.25-3.92c.63-1.93,2.52-8,2.52-12.15,0-1.48-.72-3.15-1.8-3.64a7.42,7.42,0,0,1,6.52-3.69c3.15,0,4.1,1.94,4.1,4.18,0,3-1.26,7.56-2.52,12.51a1.84,1.84,0,0,0,1,.27c1.62,0,3.29-1.71,4.14-4.54,1.17-3.74,1.44-9.63,1.44-12.1a28.86,28.86,0,0,1,4-.32c3.29,0,4.32,1.8,4.32,4,0,3.46-1.89,6.25-1.89,9.45,0,1.21.22,4.45,1.94,6.3A7.68,7.68,0,0,1,159.79,238.31Z"/><path d="M188.23,219.05c0,3-4.36,4.14-4.36,4.14-.82-2.7-2.21-4-3.51-4.37a2.08,2.08,0,0,0-1.58,2c0,1.17,1.49,2.07,2.84,2.84,2.6,1.48,5.67,3.1,5.67,6.93,0,4.77-4.5,7.74-11,7.74-5.9,0-8.06-2.34-8.06-4.73,0-3.46,4.32-5,4.32-5a26.65,26.65,0,0,0,4.14,5.9,3,3,0,0,0,2.21-2.52c0-1.67-2-2.52-3.65-3.56-3-1.84-5.08-3.64-5.08-6.66,0-5,5.76-6.79,10.8-6.79C183.51,214.91,188.23,215.27,188.23,219.05Z"/><path d="M200.61,218.46c0,2.44-1.08,5.58-1.72,8.64a23,23,0,0,0-.53,4.37,4.83,4.83,0,0,0,1.88,3.91,8.85,8.85,0,0,1-6.47,2.93c-3.74,0-4-3.2-4-4.5a36.43,36.43,0,0,1,1-6.8A37.65,37.65,0,0,0,192,220.8a4.39,4.39,0,0,0-1.3-3.28,7.33,7.33,0,0,1,5.75-2.38C199.34,215.14,200.61,216.62,200.61,218.46Zm-3.24-13.81c2.83,0,4.76,1.62,4.76,4,0,2.57-2.47,4.14-5.12,4.14-2.84,0-4.82-1.7-4.82-3.77C192.19,206.32,194.53,204.65,197.37,204.65Z"/><path d="M211.81,229.4h-.36a54.19,54.19,0,0,0-.63,8.59c-1.31.18-3.47.32-3.92.32-3.42,0-4.68-1.44-4.68-3.65,0-3.87,2.88-7.6,2.88-17.59,0-3.2-.27-6.34-1.44-7.74,1.63-2.3,4.82-3,6.48-3,3.2,0,4.1,1.71,4.1,3.87a28.79,28.79,0,0,1-2.43,9.94H212c2.35-4.45,5.81-5.26,7.83-5.26,3.42,0,5.9,2.25,5.9,5.62,0,2.88-1.53,6.57-7.16,8,1,2.43,3.83,4.64,6.08,5.63,0,0-1.94,4.14-5.67,4.14S213.38,234,211.81,229.4Zm.22-3.06c3.29,0,6-1.67,6-4.05a1.84,1.84,0,0,0-.85-1.58C216,221,213.47,222.47,212,226.34Z"/><path class="cls-2" d="M106.37,304.5h237a22.75,22.75,0,0,1,22.75,22.75v27a20.28,20.28,0,0,1-20.28,20.28H106.37a20.28,20.28,0,0,1-20.28-20.28V324.78A20.28,20.28,0,0,1,106.37,304.5Z"/><path d="M118.47,324.14c0,3.68-1.44,13-3.77,20.38,0,0,0,.05,0,.05h2.56c2,0,5.1-.09,7.26-1.38a0,0,0,0,1,0,0,5.58,5.58,0,0,1,1.82,4.07c0,2.7-2.47,4-8.14,4H114c-4.07,0-7.17-.18-9.2-1.52,0,0,0,0,0,0,1.89-4.92,4.89-16.59,4.89-23.28a17.83,17.83,0,0,0-.66-4.57s0,0,0,0a11,11,0,0,1,5.65-1.38C117.52,320.45,118.47,321.67,118.47,324.14Z"/><path d="M135,357.3h0c2.83-.91,6-3.52,7.05-10.16l-.18-.14a7.78,7.78,0,0,1-6.8,3.42c-3,0-5.52-1.57-6.29-3.9a0,0,0,0,1,0,0c1-3.28,2.24-7.28,2.24-10.87,0-1.25-.62-3.08-1.76-3.59,0,0,0,0,0,0a7.39,7.39,0,0,1,6.55-3.66c3.06,0,4.05,1.8,4.05,4.27,0,3.6-1.44,8.46-2.29,11.12a1.75,1.75,0,0,0,1,.27c1.22,0,3-.95,4-4.05,1.25-3.71,1.26-9.82,1.26-11.23a0,0,0,0,1,0,0,35.76,35.76,0,0,1,4.38-.35c2.34,0,3.92,1.39,3.92,4.05,0,2.47-1.67,5.53-2.16,8.64-.63,3.82-.59,5.8-1.08,9.4-1.43,10.35-10.35,13.08-18.63,11.82a4.75,4.75,0,0,1-4.06-5.12c.45-3.91,5.41-4.5,5.83-4.54,0,0,0,0,0,0A7.77,7.77,0,0,0,135,357.3Z"/><path d="M176.38,330.94a77.47,77.47,0,0,0-1.53,13.14,7.71,7.71,0,0,0,1.65,5,0,0,0,0,1,0,0,9.25,9.25,0,0,1-6.14,2.45c-1.39,0-2.61-.22-2.61-2.47a16.32,16.32,0,0,1,.5-3.55l-.41,0c-2.07,5.18-4.9,6.26-6.93,6.26-2.56,0-7.78-1.36-7.78-8.78,0-12.06,7.6-14.35,10.93-14.35a7.37,7.37,0,0,1,4.77,1.84s.05,0,.06,0a43.45,43.45,0,0,0,.26-4.39,5.31,5.31,0,0,0-1.46-4s0,0,0-.06a8,8,0,0,1,5.87-2.17c1.89,0,4,.58,4,3.82C177.6,325,176.83,328.33,176.38,330.94Zm-14.58,12a8.09,8.09,0,0,0,.48,3.22s0,0,.05,0c1.8-.56,4.69-3.05,5.72-11.58,0,0,0,0,0,0a4.78,4.78,0,0,0-2.73-.79C163.24,333.73,161.8,338.5,161.8,342.9Z"/><path d="M188.31,351.73c-5.76,0-10.26-2.93-10.26-10.44,0-10.35,7.78-13,12.82-13,3.83,0,8.06.94,8.06,5.58,0,5.79-7.22,7.5-12,8.36,0,0,0,0,0,0a7,7,0,0,0,1.37,4.22s0,0,0,0a19.83,19.83,0,0,0,5.77-4h0a3.8,3.8,0,0,1,2.64,3.92C196.72,349.65,192.45,351.73,188.31,351.73Zm-1.53-13.19a0,0,0,0,0,.05,0c2.66-.37,4.13-1.72,4.13-3.73a2.25,2.25,0,0,0-.93-2h0C188.83,333.24,187.06,334.37,186.78,338.54Z"/><path d="M199.47,362.53c-3.56,0-5.27-1.58-5.27-3.83a9.65,9.65,0,0,1,.67-3s0,0,0,0a7.66,7.66,0,0,0,1.81.3c3.11,0,4.5-3.91,5.22-6.47a81.35,81.35,0,0,0,2-12.56s0,0,0,0a30.22,30.22,0,0,0-3.43.35,0,0,0,0,1,0,0c0-3.53.5-5.94,3.1-5.94h1.08c.27-1.57.36-3.28.72-4.59,1.31-4.68,4.55-6.84,10.67-6.84,3.73,0,5.58,1.22,5.58,3.74s-2.92,4.91-3.3,5.19c0,0,0,0-.05,0A6,6,0,0,0,215,325s0,0,0,0c-1.11.94-1.91,2.95-2.27,6.55,0,0,0,.05,0,0,2.86-.08,5.76-.13,8.39-.13,0,0,0,0,0,0,1.71-7,3.83-11.58,11.15-11.58,3.74,0,7.29,1.4,7.29,4.59,0,3.73-4.81,4.52-5.27,4.59a0,0,0,0,1,0,0c0-.39-.34-3.8-2.95-4.45h0c-1.12.95-2,3.23-2.32,6.83a0,0,0,0,0,0,.05,14.19,14.19,0,0,0,4.25-.45s0,0,0,0a7.83,7.83,0,0,1,.85,3.3c0,2.82-2.82,3-5.73,3,0,0,0,0,0,0-2.11,20.49-6.75,25.26-12.64,25.26-3.55,0-5.26-1.58-5.26-3.83a9.61,9.61,0,0,1,.66-3s0,0,0,0a7.73,7.73,0,0,0,1.82.3c3.1,0,4.5-3.91,5.22-6.47a81.35,81.35,0,0,0,2-12.56s0,0,0,0c-1.32,0-6.75,0-8.09.13t0,0C210,357.53,205.36,362.53,199.47,362.53Z"/><path d="M244.87,351.73c-5.76,0-10.26-2.93-10.26-10.44,0-10.35,7.79-13,12.83-13,3.82,0,8.05.94,8.05,5.58,0,5.79-7.21,7.5-12,8.36,0,0,0,0,0,0,.1,1.69.58,3.45,1.38,4.22,0,0,0,0,0,0a19.83,19.83,0,0,0,5.77-4h0a3.8,3.8,0,0,1,2.65,3.92C253.29,349.65,249,351.73,244.87,351.73Zm-1.52-13.19s0,0,0,0c2.67-.37,4.14-1.72,4.14-3.73a2.28,2.28,0,0,0-.93-2h0C245.4,333.24,243.62,334.37,243.35,338.54Z"/><path d="M265.75,342.82h-.36a53.83,53.83,0,0,0-.63,8.56,0,0,0,0,1,0,0c-1.3.18-3.44.32-3.88.32-3.42,0-4.68-1.45-4.68-3.65,0-3.87,2.88-7.6,2.88-17.59,0-3.18-.27-6.32-1.43-7.72a0,0,0,0,1,0,0c1.63-2.27,4.81-2.94,6.47-2.94,3.19,0,4.09,1.71,4.09,3.87a28.66,28.66,0,0,1-2.43,9.94H266c2.34-4.45,5.8-5.26,7.83-5.26,3.42,0,5.89,2.25,5.89,5.62,0,2.87-1.52,6.55-7.11,8,0,0,0,0,0,.05,1,2.4,3.8,4.58,6,5.57,0,0,0,0,0,.05-.19.38-2.12,4.11-5.66,4.11C269.13,351.73,267.33,347.4,265.75,342.82Zm.25-3.12s0,.06,0,.06c3.26,0,6-1.68,6-4.05a1.84,1.84,0,0,0-.84-1.57h0C270,334.41,267.43,335.89,266,339.7Z"/><path d="M284,334.22a19.6,19.6,0,0,0-2.94.17s0,0,0,0c0-2.2.15-5.13,2.21-5.13.48,0,1.18,0,1.72,0a0,0,0,0,0,0,0c0-1.14-.14-3.75-.88-4.71,0,0,0,0,0,0a13.78,13.78,0,0,1,6.27-1.91c2.07,0,2.61,1.35,2.61,3a26.07,26.07,0,0,1-.4,3.74,0,0,0,0,0,0,0,13.63,13.63,0,0,0,3.26-.49s0,0,0,0a7.77,7.77,0,0,1,.71,3.17c0,2.33-2.68,2.43-4.79,2.43l0,0c-1,4.89-2.06,8.44-2.06,9.88a1.77,1.77,0,0,0,.48,1.47h0a5.36,5.36,0,0,0,3.16-2.44,0,0,0,0,1,.05,0,3.78,3.78,0,0,1,1.95,3.26c0,3.24-3.87,4.9-7.33,4.9-4.73,0-6.35-1.89-6.35-5.17,0-2.29,1.08-5.52,2.29-12.11C284.06,334.24,284.05,334.22,284,334.22Z"/><path d="M307.38,351.73c-5.76,0-10.26-2.93-10.26-10.44,0-10.35,7.78-13,12.82-13,3.82,0,8.05.94,8.05,5.58,0,5.79-7.21,7.5-12,8.36,0,0,0,0,0,0a7,7,0,0,0,1.37,4.22s0,0,0,0a19.78,19.78,0,0,0,5.78-4h0a3.81,3.81,0,0,1,2.64,3.92C315.79,349.65,311.51,351.73,307.38,351.73Zm-1.53-13.19a0,0,0,0,0,0,0c2.67-.37,4.14-1.72,4.14-3.73a2.25,2.25,0,0,0-.93-2h0C307.9,333.24,306.13,334.37,305.85,338.54Z"/><path d="M333,335.24s0,0-.05,0c-3.26,1.25-4.47,8.47-4.47,14.12,0,.36,0,.76.09,2,0,0,0,0,0,0a32.44,32.44,0,0,1-4.11.32c-2.79,0-4.76-.86-4.76-3.65,0-4.05,1.89-6.52,1.89-10a11.42,11.42,0,0,0-1.93-6,0,0,0,0,1,0,0c.77-2,3.6-3.71,6.79-3.71,1.8,0,3,.76,3,3.15a19,19,0,0,1-.18,2.29h.26c1.4-4.18,3.69-5.44,6.48-5.44a5,5,0,0,1,5.18,5.26c0,2.92-1.57,6.51-7.3,6.53,0,0,0,0,0,0C333.74,338.65,333.69,336.36,333,335.24Z"/></g></svg>
