<svg xmlns="http://www.w3.org/2000/svg" width="190" height="70" viewBox="0 0 190 70"><defs><style>.cls-1{fill:#f6b2e7;}</style></defs><title>Setting_Knap</title><g id="Layer_33" data-name="Layer 33"><rect class="cls-1" x="0.5" width="189" height="70" rx="22.52" ry="22.52"/><path d="M48.53,22.38c0,2.78-2.12,4.18-5.22,5.53-1.17-3.15-2.79-4.86-4.46-5.49A3.38,3.38,0,0,0,36,25.48c0,1.62,2.25,3,4.77,4.37,3.78,2.11,6.3,3.68,6.3,8.27,0,5.76-6,10.13-13.05,10.13-4.18,0-10-1.53-10-6.12,0-3.33,3.86-5.09,6.79-5.81A18.42,18.42,0,0,0,34,43.12c1.89-.32,4-1.89,4-4.1,0-1.8-.76-2.65-4.72-4.63-3.25-1.62-6-3.42-6-7.83,0-6.21,6.66-9.41,12.06-9.41C44.16,17.15,48.53,18.51,48.53,22.38Z"/><path d="M59.6,48.43c-5.76,0-10.26-2.93-10.26-10.44,0-10.35,7.78-13,12.82-13,3.83,0,8.06.95,8.06,5.58,0,5.8-7.25,7.51-12.06,8.37.09,1.71.58,3.51,1.39,4.27a20,20,0,0,0,5.81-4A3.78,3.78,0,0,1,68,43.12C68,46.36,63.74,48.43,59.6,48.43ZM58.07,35.29c2.7-.36,4.18-1.71,4.18-3.74a2.26,2.26,0,0,0-.94-2C60.14,29.94,58.34,31.06,58.07,35.29Z"/><path d="M74.58,30.92a18.65,18.65,0,0,0-3,.19c0-2.21.13-5.18,2.2-5.18.5,0,1.22.05,1.76.05,0-1.13-.14-3.83-.9-4.77a13.68,13.68,0,0,1,6.3-1.94c2.07,0,2.61,1.35,2.61,3A26.17,26.17,0,0,1,83.13,26a13.65,13.65,0,0,0,3.33-.49,7.57,7.57,0,0,1,.72,3.19c0,2.34-2.7,2.43-4.81,2.43-1,4.9-2.07,8.46-2.07,9.9,0,.85.22,1.3.49,1.48A5.34,5.34,0,0,0,84,40.06a3.8,3.8,0,0,1,2,3.28c0,3.24-3.87,4.91-7.34,4.91-4.72,0-6.34-1.89-6.34-5.18C72.29,40.78,73.37,37.54,74.58,30.92Z"/><path d="M91.32,30.92a18.58,18.58,0,0,0-3,.19c0-2.21.13-5.18,2.2-5.18.5,0,1.22.05,1.76.05,0-1.13-.14-3.83-.9-4.77a13.68,13.68,0,0,1,6.3-1.94c2.07,0,2.61,1.35,2.61,3A26.17,26.17,0,0,1,99.87,26a13.65,13.65,0,0,0,3.33-.49,7.57,7.57,0,0,1,.72,3.19c0,2.34-2.7,2.43-4.81,2.43-1,4.9-2.07,8.46-2.07,9.9,0,.85.22,1.3.49,1.48a5.34,5.34,0,0,0,3.2-2.47,3.8,3.8,0,0,1,2,3.28c0,3.24-3.87,4.91-7.34,4.91-4.72,0-6.34-1.89-6.34-5.18C89,40.78,90.11,37.54,91.32,30.92Z"/><path d="M115.85,28.58c0,2.44-1.08,5.58-1.71,8.64a22.25,22.25,0,0,0-.54,4.37,4.83,4.83,0,0,0,1.89,3.91A8.89,8.89,0,0,1,109,48.43c-3.74,0-4-3.2-4-4.5a36.33,36.33,0,0,1,1-6.8,37.65,37.65,0,0,0,1.17-6.21,4.39,4.39,0,0,0-1.3-3.28,7.36,7.36,0,0,1,5.76-2.38C114.59,25.26,115.85,26.74,115.85,28.58Zm-3.24-13.81c2.83,0,4.77,1.62,4.77,4,0,2.56-2.48,4.13-5.13,4.13-2.84,0-4.82-1.7-4.82-3.77C107.43,16.44,109.77,14.77,112.61,14.77Z"/><path d="M124.89,25c1.4,0,2.88.58,2.88,3a21.29,21.29,0,0,1-.31,2.52h.22c2.21-4.68,5.81-5.49,7.88-5.49,2.92,0,5.26,1.44,6.12,3.91-.9,2.39-2.52,8.69-2.52,12.29a4,4,0,0,0,1.8,3.51,7.45,7.45,0,0,1-6.57,3.69c-3.24,0-4-2.12-4-4.37,0-2.79,1.3-7.65,2.52-12.24l-.32-.13c-1.75,0-3.87,2.07-4.72,5a48,48,0,0,0-1.22,11.43,32.13,32.13,0,0,1-4.09.32c-3.29,0-4.55-1.58-4.55-3.74,0-3.64,1.89-6.61,1.89-9.72a12.24,12.24,0,0,0-1.93-6.25C119.18,26,122.24,25,124.89,25Z"/><path d="M165.12,34.75c-.36,4.18-.36,9.58-1.48,13.9-2.3,9.09-8.87,10.58-14.18,10.58-4.59,0-7.65-1.35-7.65-4.86,0-3.69,3.74-4.73,5.9-5.09.45,1.89,1.44,3.87,2.83,4.73,1.89-.72,5.94-2.34,6.93-11.34l-.18-.09c-2.2,4.23-5,5.22-7.42,5.22-1.8,0-7.07-.77-7.07-8.42,0-11.15,7.29-14.35,11.75-14.35A10.14,10.14,0,0,1,160.49,27a9.83,9.83,0,0,1,4.81-.86,10.93,10.93,0,0,1,1.31.09A54.53,54.53,0,0,0,165.12,34.75Zm-13,7.33c1.71-.4,2.74-1.89,3.82-4.18a25.45,25.45,0,0,0,1.85-6.79,5.09,5.09,0,0,0-2.84-.86c-1.62,0-3.37,3-3.37,8.19A9.9,9.9,0,0,0,152.12,42.08Z"/></g></svg>
