<svg xmlns="http://www.w3.org/2000/svg" width="190" height="70" viewBox="0 0 190 70"><defs><style>.cls-1{fill:#f6b2e7;}</style></defs><title>Setting_Knap</title><g id="Layer_33" data-name="Layer 33"><rect class="cls-1" x="0.5" width="189" height="70" rx="22.52" ry="22.52"/><path d="M38.34,21.62c0,2.73-2.06,4.09-5.1,5.41-1.15-3.08-2.73-4.75-4.36-5.36a3.29,3.29,0,0,0-2.77,3c0,1.58,2.2,2.9,4.66,4.27,3.7,2.07,6.17,3.61,6.17,8.09,0,5.64-5.86,9.91-12.77,9.91-4.09,0-9.81-1.5-9.81-6,0-3.26,3.78-5,6.64-5.68a18,18,0,0,0,3.13,6.65c1.85-.31,3.92-1.85,3.92-4,0-1.76-.75-2.59-4.62-4.53-3.17-1.58-5.81-3.34-5.81-7.66,0-6.07,6.51-9.19,11.79-9.19C34.07,16.52,38.34,17.84,38.34,21.62Z"/><path d="M49.16,47.1c-5.63,0-10-2.86-10-10.21,0-10.12,7.61-12.67,12.54-12.67,3.74,0,7.88.92,7.88,5.46,0,5.67-7.08,7.34-11.79,8.18A6.81,6.81,0,0,0,49.12,42a19.32,19.32,0,0,0,5.68-4,3.7,3.7,0,0,1,2.59,3.83C57.39,45.08,53.21,47.1,49.16,47.1ZM47.67,34.25c2.64-.35,4.09-1.67,4.09-3.65a2.22,2.22,0,0,0-.92-1.94C49.69,29,47.93,30.11,47.67,34.25Z"/><path d="M63.82,30a18.83,18.83,0,0,0-3,.18C60.87,28,61,25.1,63,25.1c.49,0,1.19,0,1.72,0,0-1.1-.13-3.74-.88-4.66A13.39,13.39,0,0,1,70,18.59c2,0,2.55,1.32,2.55,2.9a26.66,26.66,0,0,1-.39,3.7,12.56,12.56,0,0,0,3.25-.49,7.42,7.42,0,0,1,.71,3.13c0,2.28-2.64,2.37-4.71,2.37-1,4.8-2,8.28-2,9.68,0,.84.22,1.28.48,1.46A5.24,5.24,0,0,0,73,38.92,3.71,3.71,0,0,1,75,42.13c0,3.17-3.78,4.8-7.17,4.8-4.62,0-6.21-1.85-6.21-5.07C61.57,39.62,62.63,36.45,63.82,30Z"/><path d="M80.18,30a18.71,18.71,0,0,0-2.94.18c0-2.16.13-5.06,2.15-5.06.49,0,1.19,0,1.72,0,0-1.1-.13-3.74-.88-4.66a13.35,13.35,0,0,1,6.16-1.89c2,0,2.55,1.32,2.55,2.9a25.23,25.23,0,0,1-.4,3.7,12.63,12.63,0,0,0,3.26-.49,7.58,7.58,0,0,1,.71,3.13c0,2.28-2.65,2.37-4.71,2.37-1,4.8-2,8.28-2,9.68,0,.84.22,1.28.49,1.46a5.24,5.24,0,0,0,3.12-2.42,3.71,3.71,0,0,1,1.94,3.21c0,3.17-3.79,4.8-7.18,4.8-4.62,0-6.2-1.85-6.2-5.07C77.94,39.62,79,36.45,80.18,30Z"/><path d="M104.16,27.69c0,2.38-1,5.46-1.67,8.45a22.1,22.1,0,0,0-.53,4.27,4.72,4.72,0,0,0,1.85,3.83,8.67,8.67,0,0,1-6.33,2.86c-3.66,0-3.88-3.12-3.88-4.4a35.23,35.23,0,0,1,1-6.64A37.92,37.92,0,0,0,95.76,30a4.29,4.29,0,0,0-1.28-3.21,7.24,7.24,0,0,1,5.64-2.33C102.93,24.44,104.16,25.89,104.16,27.69ZM101,14.19c2.77,0,4.66,1.58,4.66,3.91,0,2.51-2.42,4-5,4-2.77,0-4.7-1.67-4.7-3.7C95.94,15.81,98.22,14.19,101,14.19Z"/><path d="M113,24.22c1.36,0,2.81.57,2.81,2.9a22.2,22.2,0,0,1-.3,2.47h.22c2.15-4.58,5.67-5.37,7.7-5.37,2.86,0,5.15,1.41,6,3.83-.88,2.33-2.46,8.49-2.46,12a3.91,3.91,0,0,0,1.76,3.43,7.27,7.27,0,0,1-6.43,3.61c-3.17,0-4-2.07-4-4.27,0-2.72,1.28-7.48,2.47-12l-.31-.13c-1.72,0-3.79,2-4.62,4.89a47.24,47.24,0,0,0-1.19,11.17,30.23,30.23,0,0,1-4,.31c-3.22,0-4.45-1.54-4.45-3.65,0-3.57,1.85-6.47,1.85-9.51a12,12,0,0,0-1.89-6.11C107.42,25.19,110.41,24.22,113,24.22Z"/><path d="M152.35,33.72c-.36,4.1-.36,9.38-1.46,13.6-2.24,8.89-8.67,10.34-13.86,10.34-4.49,0-7.48-1.32-7.48-4.75,0-3.61,3.65-4.62,5.77-5a7.53,7.53,0,0,0,2.77,4.62c1.85-.71,5.81-2.29,6.77-11.09l-.17-.09c-2.16,4.14-4.93,5.11-7.26,5.11-1.76,0-6.91-.75-6.91-8.23,0-10.92,7.13-14,11.48-14a9.86,9.86,0,0,1,5.81,1.89,9.68,9.68,0,0,1,4.71-.83c.44,0,.88,0,1.28.08A53.86,53.86,0,0,0,152.35,33.72ZM139.63,40.9c1.67-.4,2.68-1.85,3.74-4.1a24.24,24.24,0,0,0,1.8-6.64,5,5,0,0,0-2.77-.84c-1.58,0-3.3,2.91-3.3,8A9.73,9.73,0,0,0,139.63,40.9Z"/><path d="M174.08,28.27c0,2.95-4.27,4.05-4.27,4.05-.79-2.64-2.15-3.92-3.43-4.27A2,2,0,0,0,164.84,30c0,1.15,1.45,2,2.77,2.78,2.55,1.45,5.55,3,5.55,6.77,0,4.67-4.4,7.57-10.74,7.57-5.76,0-7.88-2.29-7.88-4.62,0-3.39,4.23-4.93,4.23-4.93a25.75,25.75,0,0,0,4,5.77A2.89,2.89,0,0,0,165,40.85c0-1.63-1.93-2.46-3.56-3.47-2.95-1.81-5-3.57-5-6.52,0-4.88,5.64-6.64,10.57-6.64C169.46,24.22,174.08,24.57,174.08,28.27Z"/></g></svg>
