<svg xmlns="http://www.w3.org/2000/svg" width="347.9" height="358.66" viewBox="0 0 347.9 358.66"><defs><style>.cls-1{fill:#fff;}.cls-2{fill:#73bc9f;}.cls-3{fill:#83d6b5;}.cls-4{fill:#6db297;}.cls-5{fill:#c1272d;}.cls-6{fill:#efdc95;}</style></defs><title>Slange_Reflected</title><g id="Layer_10" data-name="Layer 10"><path class="cls-1" d="M117.5,168.33,121.43,151a.71.71,0,0,0-.69-.87h-9.17a.71.71,0,0,0-.68.92l5.25,17.36A.7.7,0,0,0,117.5,168.33Z"/><path class="cls-2" d="M316.89,341.54c44.93-16.55,27.8-72.35,27.8-72.35,1.44,47.9-44.4,47.06-44.4,47.06Z"/><path class="cls-3" d="M.13,48.09l19.34,96.6a6.73,6.73,0,0,0,6.6,5.41H164.94a6.73,6.73,0,0,0,6.65-5.63l3.66-22.17a6.73,6.73,0,0,1,11.29-3.79c8.87,8.51,18,20.57,14.14,42.6-7,40-13,32-27,61-5.46,11.29-3,28.78,3,44a96.66,96.66,0,0,1,5.15,18.88,6.73,6.73,0,0,0,6.33,5.55l28.51,1.29a6.7,6.7,0,0,0,7-6.62v-.08c0-7.22-17-19-16-39,.75-15.06,11-29,17-45,7.69-20.5,13.65-38.71,12-57-3.19-35.63-31.85-65.79-48.33-76.69a6.71,6.71,0,0,1-2.93-6.71l1.78-10.76a6.72,6.72,0,0,0-1.13-5L156.66,2.88A6.72,6.72,0,0,0,151.14,0H36.92a6.72,6.72,0,0,0-5.38,2.68l-30.18,40A6.7,6.7,0,0,0,.13,48.09Z"/><rect class="cls-2" x="110.15" y="269.19" width="173.03" height="43.03" rx="18.28" ry="18.28" transform="translate(393.34 581.4) rotate(-180)"/><rect class="cls-4" x="73.59" y="309.8" width="248.17" height="48.85" rx="20.56" ry="20.56" transform="translate(395.35 668.46) rotate(-180)"/><path class="cls-5" d="M75.57,208.62l9.54-8.07a.69.69,0,0,1,.94,0l8.29,8.29a.69.69,0,0,0,1.13-.73l-4.82-12.78a.64.64,0,0,1-.05-.24V150.79a.69.69,0,0,0-.69-.69H82.28a.69.69,0,0,0-.69.69v44.4a.67.67,0,0,1-.09.34l-7,12.23A.69.69,0,0,0,75.57,208.62Z"/><path class="cls-1" d="M64.44,168.47l4-17.55a.67.67,0,0,0-.65-.82H58.48a.67.67,0,0,0-.64.87l5.3,17.54A.67.67,0,0,0,64.44,168.47Z"/><path class="cls-6" d="M57.58,150.1h64a32,32,0,0,0-64,0Z"/><path d="M101.39,135.32c-2.76,4.32-5.72,5.13-7.3,2.29s.07-5.78,4.36-7.22l3.34-1.11a1.63,1.63,0,0,1,1.9,2.43Z"/><path d="M81,135.51c3.09,4.1,6.1,4.68,7.45,1.73s-.51-5.76-4.9-6.86l-3.41-.86a1.64,1.64,0,0,0-1.71,2.57C79.13,133.1,80,134.26,81,135.51Z"/><circle class="cls-1" cx="135.63" cy="102.07" r="23.02"/><circle cx="126.63" cy="97.07" r="3"/><circle class="cls-1" cx="40.57" cy="102.07" r="23.02"/><circle cx="31.56" cy="97.07" r="3"/><path d="M95.89,80.07c2.41,1.92,4.74,3.85,7,5.75a1.2,1.2,0,0,0,2-.32,169.78,169.78,0,0,1,21.68-33.88,1.4,1.4,0,0,0-.31-2L124,47.85a1.92,1.92,0,0,0-2.4,0,171.1,171.1,0,0,0-26.21,30A1.79,1.79,0,0,0,95.89,80.07Z"/><path d="M78.75,78.8q-3.54,3-6.8,6.19a1.19,1.19,0,0,1-2-.11A207.26,207.26,0,0,0,46.7,51.66a1.48,1.48,0,0,1,.18-2.11c.69-.6,1.39-1.2,2.1-1.79a1.87,1.87,0,0,1,2.39,0A241.33,241.33,0,0,1,79.2,76.6,1.66,1.66,0,0,1,78.75,78.8Z"/></g></svg>
