<svg xmlns="http://www.w3.org/2000/svg" width="350" height="360" viewBox="0 0 350 360"><defs><style>.cls-1{fill:#fff;}.cls-2{fill:#73bc9f;}.cls-3{fill:#83d6b5;}.cls-4{fill:#6db297;}.cls-5{fill:#c1272d;}.cls-6{fill:#efdc95;}</style></defs><title>Slange</title><g id="Layer_10" data-name="Layer 10"><path class="cls-1" d="M231.45,169l-3.93-17.36a.71.71,0,0,1,.69-.86h9.17a.7.7,0,0,1,.68.91l-5.25,17.36A.7.7,0,0,1,231.45,169Z"/><path class="cls-2" d="M32.06,342.21c-44.93-16.55-27.8-72.35-27.8-72.35-1.45,47.9,44.4,47.06,44.4,47.06Z"/><path class="cls-3" d="M348.82,48.77l-19.34,96.59a6.73,6.73,0,0,1-6.6,5.42H184a6.74,6.74,0,0,1-6.65-5.64L173.7,123a6.73,6.73,0,0,0-11.29-3.79c-8.87,8.51-18,20.57-14.14,42.6,7,40,13,32,27,61,5.45,11.29,3,28.78-3,44a96.39,96.39,0,0,0-5.15,18.87,6.73,6.73,0,0,1-6.33,5.55l-28.52,1.29a6.7,6.7,0,0,1-7-6.62v-.08c0-7.22,17-19,16-39-.75-15.06-11-29-17-45-7.68-20.49-13.64-38.71-12-57,3.19-35.63,31.85-65.78,48.33-76.69a6.73,6.73,0,0,0,2.93-6.71l-1.78-10.76a6.78,6.78,0,0,1,1.12-5l29.44-42.1A6.72,6.72,0,0,1,197.81.67H312a6.73,6.73,0,0,1,5.38,2.68l30.18,40A6.75,6.75,0,0,1,348.82,48.77Z"/><rect class="cls-2" x="65.76" y="269.86" width="173.03" height="43.03" rx="18.28" ry="18.28"/><rect class="cls-4" x="27.19" y="310.48" width="248.17" height="48.85" rx="20.56" ry="20.56"/><path class="cls-5" d="M273.38,209.3l-9.54-8.08a.69.69,0,0,0-.94,0l-8.29,8.29a.69.69,0,0,1-1.13-.73l4.82-12.77a.7.7,0,0,0,.05-.25V151.46a.68.68,0,0,1,.69-.68h7.62a.68.68,0,0,1,.69.68v44.4a.78.78,0,0,0,.09.34l7,12.23A.69.69,0,0,1,273.38,209.3Z"/><path class="cls-1" d="M284.51,169.14l-4-17.55a.66.66,0,0,1,.65-.81h9.27a.67.67,0,0,1,.64.86l-5.3,17.55A.67.67,0,0,1,284.51,169.14Z"/><path class="cls-6" d="M291.37,150.78h-64a32,32,0,1,1,64,0Z"/><path d="M247.56,136c2.76,4.32,5.72,5.13,7.3,2.3s-.07-5.79-4.36-7.22L247.16,130a1.63,1.63,0,0,0-1.9,2.43C245.93,133.44,246.71,134.67,247.56,136Z"/><path d="M268,136.18c-3.09,4.1-6.1,4.68-7.45,1.73s.5-5.76,4.9-6.86l3.41-.86a1.64,1.64,0,0,1,1.71,2.57C269.82,133.77,268.94,134.93,268,136.18Z"/><circle class="cls-1" cx="213.32" cy="102.74" r="23.02"/><circle cx="222.32" cy="97.74" r="3"/><circle class="cls-1" cx="308.38" cy="102.74" r="23.02"/><circle cx="317.39" cy="97.74" r="3"/><path d="M253.06,80.74c-2.42,1.92-4.74,3.85-7,5.75a1.2,1.2,0,0,1-2-.32,169.78,169.78,0,0,0-21.68-33.88,1.4,1.4,0,0,1,.31-2L225,48.52a1.94,1.94,0,0,1,2.4,0,171,171,0,0,1,26.2,30A1.77,1.77,0,0,1,253.06,80.74Z"/><path d="M270.2,79.47q3.54,3.06,6.8,6.19a1.19,1.19,0,0,0,2-.1,206.24,206.24,0,0,1,23.29-33.23,1.48,1.48,0,0,0-.18-2.11c-.69-.6-1.39-1.2-2.1-1.79a1.88,1.88,0,0,0-2.39,0,240.62,240.62,0,0,0-27.83,28.87A1.65,1.65,0,0,0,270.2,79.47Z"/></g></svg>
