<svg xmlns="http://www.w3.org/2000/svg" width="250" height="70" viewBox="0 0 250 70"><defs><style>.cls-1{fill:#f6b2e7;}</style></defs><title>Spil_igen_knap</title><g id="Layer_32" data-name="Layer 32"><rect class="cls-1" x="3.5" y="0.5" width="243" height="69" rx="25.68" ry="25.68"/><path d="M64.5,20.36c0,2.78-2.11,4.18-5.22,5.53-1.17-3.15-2.79-4.86-4.45-5.49A3.37,3.37,0,0,0,52,23.46c0,1.62,2.25,3,4.77,4.37,3.78,2.11,6.3,3.68,6.3,8.27,0,5.76-6,10.13-13.05,10.13-4.18,0-10-1.53-10-6.12,0-3.33,3.87-5.09,6.8-5.81A18.42,18.42,0,0,0,50,41.1c1.89-.32,4-1.89,4-4.1,0-1.8-.76-2.65-4.72-4.63C46,30.75,43.31,29,43.31,24.54c0-6.21,6.66-9.41,12.06-9.41C60.14,15.13,64.5,16.49,64.5,20.36Z"/><path d="M75.8,25.84a7.28,7.28,0,0,1-.4,1.94l.27.09C77.2,25.12,79,23,83.13,23c4.41,0,7.25,3,7.25,8.14,0,8.55-4.5,15.26-11.47,15.26a6.49,6.49,0,0,1-5.36-2.52l-.13,0c.09,1,.31,3.2.31,4.19,0,5.71-1.39,9.09-4.63,9.09-1.44,0-4.55-.41-6.39-2.57,3.51-4.86,4.72-17,4.72-21.37,0-2.21-.63-5.63-1.8-6.48C67,24,69.64,23,72.52,23,74.63,23,75.8,23.91,75.8,25.84Zm5.31,2.93c-2,0-4.27,2.43-6.43,10.62a4,4,0,0,0,2.79,1.48c2.56,0,4.18-5.67,4.18-9.31A5.16,5.16,0,0,0,81.11,28.77Z"/><path d="M102.75,26.56c0,2.44-1.08,5.58-1.71,8.64a23,23,0,0,0-.54,4.37,4.83,4.83,0,0,0,1.89,3.91,8.86,8.86,0,0,1-6.48,2.93c-3.73,0-4-3.2-4-4.5a36.43,36.43,0,0,1,1-6.8,38.74,38.74,0,0,0,1.17-6.21,4.37,4.37,0,0,0-1.31-3.28,7.37,7.37,0,0,1,5.76-2.38C101.49,23.24,102.75,24.72,102.75,26.56ZM99.51,12.75c2.84,0,4.77,1.62,4.77,4,0,2.57-2.47,4.14-5.13,4.14-2.83,0-4.81-1.7-4.81-3.77C94.34,14.42,96.68,12.75,99.51,12.75Z"/><path d="M116.16,18.42c0,3-1,7.06-1.75,10.71a45.86,45.86,0,0,0-1.13,8.32c0,4.23,2,5.76,2,5.76a6.81,6.81,0,0,1-5.8,3c-4,0-4.86-2.75-4.86-5.45,0-3.1,1.12-7.6,1.75-11.78a58.09,58.09,0,0,0,.81-7.57c0-2.06-.18-3.64-1.08-4.76a8.48,8.48,0,0,1,5.72-2.21C115,14.46,116.16,16.21,116.16,18.42Z"/><path d="M137.09,26.56c0,2.44-1.08,5.58-1.71,8.64a22.25,22.25,0,0,0-.54,4.37,4.83,4.83,0,0,0,1.89,3.91,8.89,8.89,0,0,1-6.48,2.93c-3.74,0-4-3.2-4-4.5a36.33,36.33,0,0,1,1-6.8,37.65,37.65,0,0,0,1.17-6.21,4.39,4.39,0,0,0-1.3-3.28A7.36,7.36,0,0,1,133,23.24C135.83,23.24,137.09,24.72,137.09,26.56Zm-3.24-13.81c2.83,0,4.77,1.62,4.77,4,0,2.57-2.48,4.14-5.13,4.14-2.84,0-4.82-1.7-4.82-3.77C128.67,14.42,131,12.75,133.85,12.75Z"/><path d="M161,32.73c-.36,4.18-.36,9.58-1.49,13.9-2.29,9.09-8.86,10.58-14.17,10.58-4.59,0-7.65-1.35-7.65-4.86,0-3.69,3.73-4.73,5.89-5.09.45,1.89,1.44,3.87,2.84,4.73,1.89-.72,5.94-2.34,6.93-11.34l-.18-.09c-2.21,4.23-5,5.22-7.43,5.22-1.8,0-7.06-.77-7.06-8.42C138.71,26.21,146,23,150.45,23A10.12,10.12,0,0,1,156.39,25a9.87,9.87,0,0,1,4.82-.86,10.62,10.62,0,0,1,1.3.09A55.19,55.19,0,0,0,161,32.73Zm-13,7.33c1.71-.4,2.75-1.89,3.83-4.18a25,25,0,0,0,1.84-6.8,5.16,5.16,0,0,0-2.83-.85c-1.62,0-3.38,3-3.38,8.19A10.11,10.11,0,0,0,148,40.06Z"/><path d="M173.76,46.41C168,46.41,163.5,43.48,163.5,36c0-10.35,7.79-13,12.83-13,3.82,0,8,.95,8,5.58,0,5.8-7.24,7.51-12.06,8.37.09,1.71.59,3.51,1.4,4.27a19.85,19.85,0,0,0,5.8-4,3.78,3.78,0,0,1,2.66,3.92C182.18,44.34,177.9,46.41,173.76,46.41Zm-1.53-13.14c2.7-.36,4.19-1.71,4.19-3.74a2.27,2.27,0,0,0-.95-2C174.3,27.92,172.5,29,172.23,33.27Z"/><path d="M192.93,23c1.4,0,2.88.58,2.88,3a21.29,21.29,0,0,1-.31,2.52h.22c2.21-4.68,5.81-5.49,7.88-5.49,2.92,0,5.26,1.44,6.12,3.91-.9,2.39-2.52,8.69-2.52,12.29a4,4,0,0,0,1.8,3.51,7.45,7.45,0,0,1-6.57,3.69c-3.24,0-4.05-2.12-4.05-4.37,0-2.79,1.3-7.65,2.52-12.24l-.32-.13c-1.75,0-3.87,2.07-4.72,5a48,48,0,0,0-1.22,11.43,32.13,32.13,0,0,1-4.09.32c-3.29,0-4.55-1.58-4.55-3.74,0-3.64,1.89-6.61,1.89-9.72A12.24,12.24,0,0,0,186,26.7C187.22,24,190.28,23,192.93,23Z"/></g></svg>
