<svg xmlns="http://www.w3.org/2000/svg" width="420" height="80" viewBox="0 0 420 80"><defs><style>.cls-1{fill:#fff;}</style></defs><title>Tid</title><g id="Layer_16" data-name="Layer 16"><path class="cls-1" d="M395.57,1H24.43A20.43,20.43,0,0,0,4,21.43V58.57A20.43,20.43,0,0,0,24.43,79H395.57A20.43,20.43,0,0,0,416,58.57V21.43A20.43,20.43,0,0,0,395.57,1ZM389,41.57A20.43,20.43,0,0,1,368.57,62H145.08a20.44,20.44,0,0,1-20.44-20.43V38.43A20.44,20.44,0,0,1,145.08,18H368.57A20.43,20.43,0,0,1,389,38.43Z"/><path d="M34.82,28.79c-3.35.05-7.29.32-10,1.35a7.3,7.3,0,0,1-1.94-4.27c0-4.48,2.91-5.5,6.64-5.5,5.67,0,11.39.43,17.77.43A29.77,29.77,0,0,0,55,20a13.49,13.49,0,0,1,1.08,5c0,3.73-2.7,4.16-4.54,4.16s-4.75-.27-7-.33c-.38,3.95-.71,6.86-1.68,13.56C41,55.79,40,57.68,35.52,57.68a10.83,10.83,0,0,1-6.42-2.54c1.24-2.1,3.4-10.53,4.48-17C34.12,34.89,34.55,31.49,34.82,28.79Z"/><path d="M67.71,34.08c0,2.92-1.3,6.7-2,10.37A26.94,26.94,0,0,0,65,49.69a5.81,5.81,0,0,0,2.27,4.7A10.68,10.68,0,0,1,59.5,57.9c-4.48,0-4.75-3.84-4.75-5.4A43.4,43.4,0,0,1,56,44.34c.59-2.81,1.4-5.56,1.4-7.45A5.25,5.25,0,0,0,55.83,33c.59-.92,3.13-2.86,6.91-2.86C66.2,30.09,67.71,31.87,67.71,34.08ZM63.82,17.5c3.4,0,5.72,1.95,5.72,4.81,0,3.08-3,5-6.15,5-3.4,0-5.78-2.05-5.78-4.54C57.61,19.5,60.42,17.5,63.82,17.5Z"/><path d="M97.57,33a93.35,93.35,0,0,0-1.84,15.77,9.24,9.24,0,0,0,2,6,11.15,11.15,0,0,1-7.4,3c-1.67,0-3.13-.27-3.13-3a20,20,0,0,1,.6-4.27l-.49,0C84.83,56.6,81.42,57.9,79,57.9c-3.07,0-9.34-1.62-9.34-10.53,0-14.48,9.13-17.23,13.12-17.23a8.8,8.8,0,0,1,5.78,2.27,49.44,49.44,0,0,0,.33-5.35,6.36,6.36,0,0,0-1.79-4.86,9.59,9.59,0,0,1,7.08-2.64c2.27,0,4.86.7,4.86,4.59C99,25.77,98.11,29.82,97.57,33ZM80.07,47.31a9.24,9.24,0,0,0,.6,3.89c2.16-.65,5.67-3.62,6.91-13.93a5.67,5.67,0,0,0-3.29-1C81.8,36.3,80.07,42,80.07,47.31Z"/></g></svg>
