<svg xmlns="http://www.w3.org/2000/svg" width="560" height="250" viewBox="0 0 560 250"><defs><style>.cls-1{fill:#fff;}</style></defs><title>Titel_Spil</title><g id="Layer_30" data-name="Layer 30"><path d="M114.72,27.26A37.48,37.48,0,0,0,116,20.12c0-10.17-8-13.91-15.16-13.91a63.16,63.16,0,0,0-7,.53L91.43,7c-3.75.39-8.3.8-12.06.94-.88,0-1.72,0-2.48,0-2.49,0-5.74,0-9.46-.06-3.12,0-6.59-.13-10.22-.26-4.16-.13-8.53-.34-12.88-.64-3.82-.26-7.62-.61-11.21-1C30.64,5.7,28.26,5.35,26,5c-4.82,4.64-8.57,11.77-8.57,18,0,11.78,6.43,15,18.92,15,3.21,0,20-2.32,31.41-4.28v1.25Q63.07,41,58.1,47.24c-3.37,4.24-6.82,8.52-10.31,12.82Q43,66,38.07,71.86C34.65,76,31.2,80.08,27.75,84.12Q22,90.87,16.33,97.34,10.48,104,4.79,110.24c0,.38,0,.79.06,1.21.39,5.79,3.88,15.38,21,15.38,2.5,0,6.43-.17,10.71-.53,2.2-.18,4.6-.35,7.17-.5,3.57-.23,7.49-.41,11.67-.5q3.06-.08,6.32-.07c2.55,0,5.39,0,8.45.09,3.7.07,7.7.2,11.88.43,5.71.29,11.72.75,17.68,1.44,3.21-4.46,5.53-12.49,5.53-16.77,0-12.67-8.92-14.81-19.45-14.81-7.5,0-22.84,2.32-32.3,3.39V97.75C66.36,81.69,94.91,47.43,114.72,27.26Z"/><path d="M137.19,30.47c-3.92.54-8.56,1.25-10.52,2.14-2.32-6.06-3.39-11.77-3.39-13.38,0-14.45,11.95-14.45,25-14.45C160,4.78,173.6,6.2,187,6.2A207,207,0,0,0,211.07,5a32.2,32.2,0,0,1,3.57,13.21c0,11.42-6.25,13.74-19.27,13.74-8.39,0-18.21-.71-27.48-1.25-.36,7-1.43,15-2,20.88h6.78A86.85,86.85,0,0,0,195,48.85a35.45,35.45,0,0,1,3.39,14.28c0,13-9.46,13.2-18.92,13.2-2.14,0-8.74-.36-16.41-.89-1.25,9.81-3,19.63-4.28,25.34,25.51,0,33.36-1.25,43.89-5.53,3.75,5.17,5.71,9.45,5.71,16.06,0,12.13-11.24,15.7-33.9,15.7H149.33c-16.78,0-25.7-3.39-29.8-5.89C128.63,95.07,135.05,65.63,137.19,30.47Z"/><path d="M247.83,120.05c-3.57,4.64-8,8-11.42,8-10.35,0-21.6-9.1-23-10.71,10.17-11.77,22.48-49.6,27.83-84-3.74,1.78-8.38,4.1-10.7,6.42-4.11-3.21-7.14-6.24-7.14-12.85,0-13.74,20.34-22.12,53.35-22.12,34.8,0,45.33,14.63,45.33,29.26,0,14.81-7,25.88-23.2,29.62v1.43C314,68.84,321,79.9,321,92.39,321,117.55,299.58,129,278.7,129,266.56,129,256.39,126.12,247.83,120.05Zm15.52-45.68a181.5,181.5,0,0,1-7.49,27.48c4.46,2.14,9.63,2.68,16.23,2.68,8.75,0,15.71-5.36,15.71-15.53,0-11.78-12.49-14.63-23.38-14.63Zm8-48.18c-1.25,7.67-2,15.17-4.46,26.23a20.34,20.34,0,0,0,4.64.54c11.78,0,18.91-5.89,18.91-16.06,0-7.86-6.78-11.07-14.27-11.07A23.42,23.42,0,0,0,271.38,26.19Z"/><path d="M378.09,81.51A20.51,20.51,0,0,1,374,82.58c-4.46,34.26-10.7,45.5-26.41,45.5-9.63,0-20-8.56-21.05-9.81,13.92-16.24,21.59-55.5,24.62-84a35.72,35.72,0,0,0-12.31,10.17c-3.75-4.1-8.21-12.49-8.21-18.38,0-7.67,12.85-21.23,58.71-21.23,35,0,43.18,15.88,43.18,30,0,20.7-17.13,33-30,38.55,7.14,11.6,13.57,27.84,30.7,38.72-6.78,13.2-16.24,16.06-23,16.06C384.87,128.08,385.05,96.5,378.09,81.51Zm-1.61-20.7a16.87,16.87,0,0,0,2.86-.72c13.92-3.39,19.45-12.67,19.45-20.7,0-6.6-2-13-13.39-13-2.14,0-4.28.18-6.24.18Q377.82,45.55,376.48,60.81Z"/><path d="M537.08,40.11l2.68,18C543.5,83.65,548.86,106,559,112.2c-4.46,10.17-12.31,15.88-20.7,15.88-17,0-21.24-12.67-24.45-32.48H487.83c-7.85,18.92-15.35,32.48-29.8,32.48-8.92,0-16.95-4.46-20.34-20,14.63-6.6,24.8-25.51,38.9-57.28l12-27.12a21.47,21.47,0,0,0-9.1-4.28c3.93-8,12-14.63,27.66-14.63C524.77,4.78,533,12.63,537.08,40.11Zm-43.9,32.12c2.68-.18,6.25-.36,9.1-.36,1.25,0,9.1.18,10.71.36-1.25-6.6-3.75-27.13-5.71-35.87C504.42,44,495.86,66,493.18,72.23Z"/><path class="cls-1" d="M110.89,22.16A36.92,36.92,0,0,0,112.14,15c0-10.18-8-13.92-15.17-13.92a66.14,66.14,0,0,0-7,.53l-2.4.26c-3.75.39-8.3.8-12.06.94-.88,0-1.72.05-2.49.05-2.48,0-5.73,0-9.46-.06C60.48,2.78,57,2.7,53.38,2.57c-4.15-.12-8.52-.34-12.87-.63-3.82-.27-7.62-.62-11.22-1-2.47-.29-4.85-.64-7.08-1-4.82,4.64-8.57,11.78-8.57,18,0,11.78,6.42,15,18.92,15,3.21,0,20-2.32,31.4-4.28v1.25q-4.73,6.06-9.69,12.3C50.91,46.38,47.46,50.66,44,55q-4.82,5.91-9.71,11.8C30.82,70.88,27.38,75,23.93,79,20.1,83.52,16.29,88,12.51,92.24,8.61,96.69,4.74,101,1,105.14c0,.38,0,.79.05,1.21.4,5.79,3.89,15.39,21,15.39,2.5,0,6.42-.18,10.7-.54,2.21-.18,4.61-.34,7.18-.5,3.57-.23,7.48-.41,11.66-.49,2-.06,4.16-.08,6.32-.08,2.55,0,5.4,0,8.46.09,3.69.07,7.69.2,11.87.43,5.71.29,11.73.75,17.68,1.44,3.21-4.46,5.53-12.49,5.53-16.77,0-12.67-8.92-14.81-19.45-14.81-7.49,0-22.84,2.32-32.29,3.39V92.65C62.53,76.59,91.08,42.33,110.89,22.16Z"/><path class="cls-1" d="M133.37,25.37c-3.93.54-8.57,1.25-10.53,2.15-2.32-6.07-3.39-11.78-3.39-13.39,0-14.45,12-14.45,25-14.45,11.78,0,25.34,1.43,38.72,1.43a209.36,209.36,0,0,0,24.1-1.25,32.11,32.11,0,0,1,3.56,13.2c0,11.42-6.24,13.74-19.27,13.74-8.39,0-18.2-.71-27.48-1.25-.36,7-1.43,15-2,20.88h6.78a86.41,86.41,0,0,0,22.31-2.68A35.62,35.62,0,0,1,194.58,58c0,13-9.46,13.2-18.92,13.2-2.14,0-8.74-.35-16.42-.89C158,80.16,156.21,90,155,95.68c25.52,0,33.37-1.25,43.9-5.53,3.75,5.17,5.71,9.46,5.71,16.06,0,12.13-11.24,15.7-33.91,15.7H145.5c-16.77,0-25.69-3.39-29.8-5.89C124.8,90,131.23,60.53,133.37,25.37Z"/><path class="cls-1" d="M244,115c-3.57,4.64-8,8-11.42,8-10.35,0-21.59-9.1-23-10.7,10.17-11.78,22.49-49.61,27.84-84-3.75,1.78-8.39,4.1-10.71,6.42-4.1-3.21-7.13-6.24-7.13-12.84,0-13.75,20.34-22.13,53.35-22.13,34.8,0,45.32,14.63,45.32,29.26,0,14.81-7,25.88-23.19,29.62V60c15.17,3.75,22.12,14.81,22.12,27.3,0,25.16-21.41,36.58-42.29,36.58C262.74,123.87,252.57,121,244,115Zm15.53-45.68A181.42,181.42,0,0,1,252,96.75c4.46,2.14,9.64,2.68,16.24,2.68,8.74,0,15.7-5.36,15.7-15.53,0-11.77-12.49-14.63-23.37-14.63Zm8-48.18c-1.25,7.67-2,15.17-4.46,26.23a20.34,20.34,0,0,0,4.64.54c11.77,0,18.91-5.89,18.91-16.06,0-7.85-6.78-11.07-14.28-11.07A23.33,23.33,0,0,0,267.56,21.09Z"/><path class="cls-1" d="M374.26,76.41a20.25,20.25,0,0,1-4.1,1.07c-4.46,34.26-10.71,45.5-26.41,45.5-9.64,0-20-8.56-21.06-9.81,13.92-16.24,21.6-55.5,24.63-84A35.63,35.63,0,0,0,335,39.29c-3.75-4.1-8.21-12.49-8.21-18.38,0-7.67,12.85-21.23,58.71-21.23,35,0,43.18,15.88,43.18,30,0,20.7-17.13,33-30,38.54,7.14,11.6,13.56,27.84,30.69,38.72-6.78,13.21-16.24,16.06-23,16.06C381.05,123,381.22,91.4,374.26,76.41Zm-1.6-20.7a17.46,17.46,0,0,0,2.85-.71C389.43,51.61,395,42.33,395,34.3c0-6.61-2-13-13.38-13-2.14,0-4.28.18-6.24.18Q374,40.46,372.66,55.71Z"/><path class="cls-1" d="M533.26,35l2.67,18c3.75,25.52,9.1,47.83,19.28,54.07C550.74,117.27,542.89,123,534.5,123c-17,0-21.23-12.67-24.44-32.47H484c-7.86,18.91-15.35,32.47-29.8,32.47-8.93,0-17-4.46-20.35-20,14.64-6.61,24.81-25.52,38.9-57.28l12-27.13a21.52,21.52,0,0,0-9.1-4.28c3.92-8,11.95-14.63,27.66-14.63C520.94-.32,529.15,7.53,533.26,35Zm-43.9,32.12c2.68-.18,6.24-.36,9.1-.36,1.25,0,9.1.18,10.71.36-1.25-6.6-3.75-27.12-5.71-35.87C500.6,38.94,492,60.88,489.36,67.13Z"/><path d="M178.77,158.46c0,7-5.27,10.43-13,13.8-2.92-7.85-7-12.12-11.1-13.69-3.93.79-7.07,4-7.07,7.63,0,4,5.61,7.4,11.89,10.88,9.42,5.27,15.7,9.2,15.7,20.64,0,14.35-14.92,25.24-32.53,25.24-10.43,0-25-3.82-25-15.26,0-8.3,9.65-12.67,16.94-14.47,1.46,6.62,5.61,14.36,8,16.94,4.71-.79,10-4.71,10-10.21,0-4.48-1.9-6.62-11.77-11.55-8.08-4-14.81-8.52-14.81-19.52,0-15.47,16.6-23.44,30.06-23.44C167.89,145.45,178.77,148.82,178.77,158.46Z"/><path d="M206.92,172.15a17.33,17.33,0,0,1-1,4.82l.68.22c3.81-6.84,8.18-12.11,18.62-12.11,11,0,18,7.4,18,20.3,0,21.31-11.21,38-28.6,38-4.48,0-9.76-1.45-13.34-6.28l-.34.11c.22,2.47.78,8,.78,10.44,0,14.24-3.47,22.65-11.55,22.65-3.59,0-11.33-1-15.93-6.39,8.75-12.12,11.78-42.29,11.78-53.28,0-5.49-1.57-14-4.48-16.15,3.47-6.95,10-9.42,17.16-9.42C204,165.08,206.92,167.32,206.92,172.15Zm13.24,7.29c-4.94,0-10.66,6.05-16,26.47,2,2,4.15,3.7,6.95,3.7,6.4,0,10.43-14.13,10.43-23.22C221.5,184.48,221.5,181.34,220.16,179.44Z"/><path d="M274.11,173.94c0,6.06-2.69,13.91-4.26,21.54a56,56,0,0,0-1.35,10.87,12,12,0,0,0,4.71,9.76,22.11,22.11,0,0,1-16.15,7.29c-9.31,0-9.87-8-9.87-11.21,0-4.71,1.23-10.55,2.58-16.94,1.23-5.83,2.92-11.55,2.92-15.48a10.89,10.89,0,0,0-3.26-8.18c1.24-1.91,6.51-6,14.36-6C271,165.64,274.11,169.34,274.11,173.94ZM266,139.51c7.07,0,11.89,4,11.89,10,0,6.39-6.17,10.32-12.78,10.32-7.07,0-12-4.26-12-9.42C253.14,143.66,259,139.51,266,139.51Z"/><path d="M307.53,153.64c0,7.51-2.58,17.61-4.37,26.69-1.46,7.41-2.81,14.7-2.81,20.75,0,10.55,4.94,14.36,4.94,14.36A17,17,0,0,1,290.82,223c-9.87,0-12.11-6.85-12.11-13.58,0-7.74,2.8-18.95,4.37-29.38,1-6.73,2-13.91,2-18.85,0-5.16-.45-9.08-2.69-11.88,1.9-2.14,7.63-5.5,14.24-5.5C304.5,143.77,307.53,148.14,307.53,153.64Z"/><path d="M339.16,153.64c0,7.51-2.58,17.61-4.37,26.69-1.46,7.41-2.8,14.7-2.8,20.75,0,10.55,4.93,14.36,4.93,14.36A17,17,0,0,1,322.45,223c-9.87,0-12.11-6.85-12.11-13.58,0-7.74,2.8-18.95,4.37-29.38,1-6.73,2-13.91,2-18.85,0-5.16-.45-9.08-2.69-11.88,1.91-2.14,7.63-5.5,14.24-5.5C336.14,143.77,339.16,148.14,339.16,153.64Z"/><path d="M367,223.4c-14.36,0-25.57-7.29-25.57-26,0-25.79,19.4-32.3,32-32.3,9.54,0,20.08,2.36,20.08,13.91,0,14.47-18.06,18.73-30.06,20.86.22,4.26,1.46,8.75,3.48,10.66,7.18-2.7,14.47-10.1,14.47-10.1S388,202,388,210.17,377.3,223.4,367,223.4Zm-3.81-32.75c6.73-.9,10.43-4.26,10.43-9.31a5.62,5.62,0,0,0-2.36-4.93C368.33,177.3,363.84,180.11,363.17,190.65Z"/><path d="M404.33,179.77a48.8,48.8,0,0,0-7.51.45c0-5.49.33-12.9,5.49-12.9,1.24,0,3,.12,4.38.12,0-2.81-.34-9.54-2.25-11.89,3.37-2.25,10.55-4.83,15.71-4.83s6.5,3.37,6.5,7.41a65.24,65.24,0,0,1-1,9.42,32.6,32.6,0,0,0,8.3-1.24,19.15,19.15,0,0,1,1.8,8c0,5.83-6.73,6.05-12,6.05-2.57,12.23-5.15,21.09-5.15,24.68,0,2.13.56,3.25,1.23,3.7,2.24-.56,5.05-1.91,8-6.17,3.82,2.58,4.94,5.39,4.94,8.19,0,8.08-9.65,12.23-18.28,12.23-11.78,0-15.82-4.72-15.82-12.9C398.61,204.34,401.3,196.26,404.33,179.77Z"/><path d="M40.51,1.94,39.26,20a2.41,2.41,0,0,1-4.73.46L29.29.89C32.89,1.32,36.69,1.67,40.51,1.94Z"/><path d="M63.6,2.83,60.33,19.18A2.4,2.4,0,0,1,55.59,19L53.38,2.57C57,2.7,60.48,2.78,63.6,2.83Z"/><path d="M87.61,1.9,78.89,22.56a2.41,2.41,0,0,1-4.62-1.1L75.55,2.84C79.31,2.7,83.86,2.29,87.61,1.9Z"/><path d="M52.82,102.14l-1.25,18.07c-4.18.08-8.09.26-11.66.49l8.3-19.65A2.4,2.4,0,0,1,52.82,102.14Z"/><path d="M79.59,100.87l-1.37,19.78c-4.18-.23-8.18-.36-11.87-.43L75,99.77A2.41,2.41,0,0,1,79.59,100.87Z"/><path d="M75.39,52.18,44,55c3.5-4.3,6.95-8.58,10.31-12.82l21.48,5.31A2.4,2.4,0,0,1,75.39,52.18Z"/><path d="M53.73,76.4,23.93,79c3.45-4,6.89-8.14,10.32-12.26l19.83,4.91A2.4,2.4,0,0,1,53.73,76.4Z"/><path d="M37.16,103.16,1,106.35c0-.42-.05-.83-.05-1.21,3.77-4.14,7.64-8.45,11.54-12.9l25,6.2A2.4,2.4,0,0,1,37.16,103.16Z"/></g></svg>
