<svg xmlns="http://www.w3.org/2000/svg" width="270" height="350" viewBox="0 0 270 350"><defs><style>.cls-1{fill:#b8b8b8;}.cls-2{fill:#d2d2d2;}.cls-3{fill:#e7e9e8;}.cls-4{fill:#fff;}.cls-5,.cls-7{fill:#f6b2e7;}.cls-5{opacity:0.82;}.cls-6{opacity:0.66;}</style></defs><title>Zebra_Ked_01</title><g id="Layer_3" data-name="Layer 3"><path class="cls-1" d="M127.1,280.69a6,6,0,0,0,.23,2.63l.2.61,1.21,3.73c1,3.23-.88,6.74-3.7,6.74H113c-2.85,0-4.78-3.61-3.65-6.85l.21-.61a6.7,6.7,0,0,0,.23-.88,6.1,6.1,0,0,0,.06-1.6l-2.39-26.6c-.26-2.91,1.58-5.46,4-5.46h14.85c2.46,0,4.33,2.73,3.93,5.72Z"/><path class="cls-2" d="M234,337.61A4.39,4.39,0,0,1,230,343.4H205.32a4.38,4.38,0,0,1-4.19-5.39l1.67-7.38a3.46,3.46,0,0,0,.09-.78c0-.11,0-.22,0-.33L200,222.92a4.35,4.35,0,0,1,4.29-4.52h27a4.36,4.36,0,0,1,4.29,4.65L230,324.11a4.6,4.6,0,0,0,.21,1.65l.09.29Z"/><path class="cls-1" d="M204.9,254.82,66.7,264.4a4.33,4.33,0,0,0-4.29,3.75L58.05,300.4a4.49,4.49,0,0,0,.14,1.79c0,.06,0,.11.05.16L60,307.7a4.33,4.33,0,0,1-4.11,5.7H39.49a4.33,4.33,0,0,1-4-5.93,5.09,5.09,0,0,0,.38-1.56,3.49,3.49,0,0,0,0-.56L33,264.84a4.32,4.32,0,0,1,0-.88l5.61-42.5L23.35,232.35,12.68,257.57a3,3,0,0,1-4.36,1.37,3.08,3.08,0,0,1-1.12-3.81l11.29-26.68,21.3-15.23a4.32,4.32,0,0,1,2.75-2.65L195.87,162a4.33,4.33,0,0,1,5.61,3.67l8.8,82.73A5.82,5.82,0,0,1,204.9,254.82Z"/><path d="M13.68,270.9h0a1.12,1.12,0,0,0-1.8,0L4.82,281.73a1.08,1.08,0,0,1-1.95-.57l.74-10.72a5.35,5.35,0,0,0,0-1.06l-.61-5A5.61,5.61,0,0,1,3.65,261l3-5.42a1.06,1.06,0,0,1,1.07-.48l5.16.31c.56.08,1.05,1.51,1,2l1.69,13.17C15.53,271.45,14.21,271.67,13.68,270.9Z"/><path class="cls-2" d="M172.33,342.36a3.8,3.8,0,0,1-3.44,5H142.4a3.78,3.78,0,0,1-3.54-4.63l2-9.72a.22.22,0,0,0,0-.08,3.88,3.88,0,0,0,.07-.83L138,222.34a3.74,3.74,0,0,1,3.62-3.94h28.44a3.75,3.75,0,0,1,3.62,4L168,327.63a3.63,3.63,0,0,0,.16,1.35.24.24,0,0,0,0,.08Z"/><path class="cls-3" d="M254.59,107.33a10.76,10.76,0,0,1,.52-15.28c7.83-7.24,12.59-19.32,11.23-34.12-2.47-27-8.48-54.82-16.09-55.32S226.46,26.4,216.81,49.82c-3.57,8.65-5.22,17-4.89,24.4a10.81,10.81,0,0,1-9.69,11.27l-53.29,5.39a10.78,10.78,0,0,1-11.77-9.3,62.08,62.08,0,0,0-6.79-20.07c-11.79-22.41-30.15-45-37.71-43.89S81.76,47.12,81.81,74.21c0,13.83,5.11,24.83,12.65,31.5A10.69,10.69,0,0,1,96.59,119L85.84,138a10.77,10.77,0,0,0-1,8L106,226.79a10.8,10.8,0,0,0,11.53,8l132-13.36a10.79,10.79,0,0,0,9.66-9.75l7.89-85.74a10.8,10.8,0,0,0-2.89-8.38Z"/><path d="M191.28,88.85l-4.42,6.64A8.23,8.23,0,0,1,181.48,99l-3.91.72A8.26,8.26,0,0,1,171,98.11l-8.32-6.54a8.24,8.24,0,0,1-3.11-5.67L156.4,53.27A12,12,0,0,1,167,40l8.95-1A12,12,0,0,1,189.2,49.7l3.42,33.76A8.15,8.15,0,0,1,191.28,88.85Z"/><path class="cls-3" d="M254.59,107.33a10.76,10.76,0,0,1,.52-15.28c7.83-7.24,12.59-19.32,11.23-34.12-2.47-27-8.48-54.82-16.09-55.32S226.46,26.4,216.81,49.82c-3.57,8.65-5.22,17-4.89,24.4a10.81,10.81,0,0,1-9.69,11.27l-53.29,5.39a10.78,10.78,0,0,1-11.77-9.3,62.08,62.08,0,0,0-6.79-20.07c-11.79-22.41-30.15-45-37.71-43.89S81.76,47.12,81.81,74.21c0,13.83,5.11,24.83,12.65,31.5A10.69,10.69,0,0,1,96.59,119L85.84,138a10.77,10.77,0,0,0-1,8L106,226.79a10.8,10.8,0,0,0,11.53,8l132-13.36a10.79,10.79,0,0,0,9.66-9.75l7.89-85.74a10.8,10.8,0,0,0-2.89-8.38Z"/><path d="M191.28,88.85l-4.42,6.64A8.23,8.23,0,0,1,181.48,99l-3.91.72A8.26,8.26,0,0,1,171,98.11l-8.32-6.54a8.24,8.24,0,0,1-3.11-5.67L156.4,53.27A12,12,0,0,1,167,40l8.95-1A12,12,0,0,1,189.2,49.7l3.42,33.76A8.15,8.15,0,0,1,191.28,88.85Z"/><path d="M220.42,219.57a28.37,28.37,0,0,0-13.91-21.92,5,5,0,1,0-7.58-3.89,5.55,5.55,0,0,0,.13.71,31,31,0,0,0-22.2,2.27,5,5,0,1,0-7.16,5.12A28.29,28.29,0,0,0,161,224.68a28.75,28.75,0,0,0,1.12,5.77l58.29-5.91A28.43,28.43,0,0,0,220.42,219.57Z"/><circle class="cls-4" cx="137.92" cy="192.4" r="23"/><circle cx="146.92" cy="192.4" r="14"/><circle cx="132.92" cy="178.4" r="3"/><circle class="cls-4" cx="235.92" cy="178.4" r="23"/><circle cx="244.92" cy="178.4" r="14"/><circle cx="230.92" cy="164.4" r="3"/><path d="M141.11,147.47c1.85,3.66-3,14.12-13.81,17.94s-24.78,3.14-25.77,2.52c-.92-.88,10.24-3.59,19.9-10.44S139,143.74,141.11,147.47Z"/><path d="M225.44,134.19c-1.35,3.51,4.07,12.64,14.31,15.12s23,.57,23.82-.09c.76-.9-9.71-2.33-19.19-7.7S227.08,130.57,225.44,134.19Z"/><path d="M168.89,347.4H142.4a3.78,3.78,0,0,1-3.54-4.63l2-9.72a.22.22,0,0,0,0-.08l27.28-4a.24.24,0,0,0,0,.08l4.19,13.3A3.8,3.8,0,0,1,168.89,347.4Z"/><path d="M230,343.4H205.32a4.38,4.38,0,0,1-4.19-5.39l1.67-7.38a3.46,3.46,0,0,0,.09-.78l27.38-3.8L234,337.61A4.39,4.39,0,0,1,230,343.4Z"/><path d="M125,294.4H113c-2.85,0-4.78-3.61-3.65-6.85l.21-.61a6.7,6.7,0,0,0,.23-.88l17.79-2.13,1.21,3.73C129.78,290.89,127.86,294.4,125,294.4Z"/><path d="M55.91,313.4H39.49a4.33,4.33,0,0,1-4-5.93,5.09,5.09,0,0,0,.38-1.56l22.35-3.72c0,.06,0,.11.05.16L60,307.7A4.33,4.33,0,0,1,55.91,313.4Z"/><path class="cls-5" d="M90.86,66.85c-4.41-27.86,2.77-42.14,16.41-27,6.54,6.78,12.34,16.61,15.55,23.52,3.31,7.23,4,11.54,2.51,14.65s-4.59,5.91-7.52,10.8c-3,4.57-5.86,11.24-8.92,14.86C103.3,112.42,95.25,94.69,90.86,66.85Z"/><path class="cls-5" d="M258.51,52c3.19-26.06-6.2-38.95-18.46-24.4-5.89,6.53-11,15.87-13.76,22.41-2.85,6.84-3.37,10.87-1.85,13.71s4.49,5.34,7.39,9.79c3,4.16,6.11,10.26,9.1,13.53C246.44,95,258.86,84.08,258.51,52Z"/><path d="M184,149.47l-11.5-42.94a1.88,1.88,0,0,1,1.63-2.36l14.57-1.54a1.89,1.89,0,0,1,2.08,2l-3.07,44.47A1.89,1.89,0,0,1,184,149.47Z"/><path d="M199.42,161.23,203,133.56a1.35,1.35,0,0,0-.07-.63l-8.4-22.31a1.35,1.35,0,0,1,0-.82l6-21.16a1.32,1.32,0,0,1,1.17-1l13.75-1a1.31,1.31,0,0,1,1.21,2l-12.84,20.89a1.34,1.34,0,0,0-.1,1.17l8.35,21a1.3,1.3,0,0,1,0,.91L202,161.83A1.31,1.31,0,0,1,199.42,161.23Z"/><path d="M178.94,162l-11.48-25.43a1.22,1.22,0,0,1-.11-.62l1.52-23.79a1.33,1.33,0,0,0-.2-.8l-11.9-18.49a1.32,1.32,0,0,0-1.4-.57l-13.44,3.07a1.31,1.31,0,0,0-.58,2.26l18.38,16.24a1.32,1.32,0,0,1,.44,1.09l-1.87,22.49a1.28,1.28,0,0,0,.24.87l18.14,25A1.31,1.31,0,0,0,178.94,162Z"/><g class="cls-6"><line x1="182.94" y1="222.31" x2="199.25" y2="219.85"/><path class="cls-7" d="M182.94,224.31a2,2,0,0,1-.3-4L199,217.87a2,2,0,0,1,.59,3.95l-16.31,2.47A1.51,1.51,0,0,1,182.94,224.31Z"/></g></g></svg>
