<svg xmlns="http://www.w3.org/2000/svg" width="270" height="350" viewBox="0 0 270 350"><defs><style>.cls-1{fill:#b8b8b8;}.cls-2{fill:#d2d2d2;}.cls-3{fill:#e7e9e8;}.cls-4{fill:#fff;}.cls-5,.cls-7{fill:#f6b2e7;}.cls-5{opacity:0.82;}.cls-6{opacity:0.77;}</style></defs><title>Zebra_glad_Med_striber</title><g id="Layer_26" data-name="Layer 26"><path class="cls-1" d="M127.1,280.69a6,6,0,0,0,.23,2.63l.2.61,1.21,3.73c1,3.23-.88,6.74-3.7,6.74H113c-2.85,0-4.78-3.61-3.65-6.85l.21-.61a6.7,6.7,0,0,0,.23-.88,6.1,6.1,0,0,0,.06-1.6l-2.39-26.6c-.26-2.91,1.58-5.46,4-5.46h14.85c2.46,0,4.33,2.73,3.93,5.72Z"/><path class="cls-2" d="M234,337.61A4.39,4.39,0,0,1,230,343.4H205.32a4.38,4.38,0,0,1-4.19-5.39l1.67-7.38a3.46,3.46,0,0,0,.09-.78c0-.11,0-.22,0-.33l-.55-20.73L202,297.34l-.37-13.79-.34-12.39L200,222.92a4.35,4.35,0,0,1,4.29-4.52h27a4.36,4.36,0,0,1,4.29,4.65l-1.87,33.14-.61,10.86-.88,15.68L231.66,294,230,324.11a4.6,4.6,0,0,0,.21,1.65l.09.29Z"/><path class="cls-1" d="M204.9,254.82,94.45,262.48l-8.71.6-12.92.9-6.12.42a4.35,4.35,0,0,0-4.29,3.75l-1.24,9.14L59.8,287.45,58.05,300.4a4.49,4.49,0,0,0,.14,1.79c0,.06,0,.11.05.16L60,307.7a4.33,4.33,0,0,1-4.11,5.7H39.49a4.33,4.33,0,0,1-4-5.93,5.09,5.09,0,0,0,.38-1.56,3.49,3.49,0,0,0,0-.56l-2.29-32L33,264.84a4.32,4.32,0,0,1,0-.88l.71-5.36,4.9-37.14L23.35,232.35,12.68,257.57a3,3,0,0,1-4.36,1.37,3.08,3.08,0,0,1-1.12-3.81l11.29-26.68,21.3-15.23a4.33,4.33,0,0,1,2.75-2.65l6.56-2.08L62,204.42l8.75-2.77,11-3.49,8.81-2.79L195.87,162a4.33,4.33,0,0,1,5.61,3.67l8.8,82.73A5.82,5.82,0,0,1,204.9,254.82Z"/><path d="M13.68,270.9h0a1.12,1.12,0,0,0-1.8,0L4.82,281.73a1.08,1.08,0,0,1-1.95-.57l.74-10.72a5.35,5.35,0,0,0,0-1.06l-.61-5A5.61,5.61,0,0,1,3.65,261l3-5.42a1.06,1.06,0,0,1,1.07-.48l5.16.31c.56.08,1.05,1.51,1,2l1.69,13.17C15.53,271.44,14.21,271.67,13.68,270.9Z"/><path class="cls-2" d="M172.33,342.36a3.8,3.8,0,0,1-3.44,5H142.4a3.78,3.78,0,0,1-3.54-4.63l2-9.72a.22.22,0,0,0,0-.08,3.88,3.88,0,0,0,.07-.83L140.59,320l-.3-11.33-.48-18.34-.31-11.93L138,222.34a3.74,3.74,0,0,1,3.62-3.94h28.44a3.75,3.75,0,0,1,3.62,4l-2.2,40.24-.62,11.38-1,19.1-.57,10.51L168,327.63a3.63,3.63,0,0,0,.16,1.35.24.24,0,0,0,0,.08Z"/><path class="cls-3" d="M254.59,107.33a10.76,10.76,0,0,1,.52-15.28c7.83-7.24,12.59-19.32,11.23-34.12-2.47-27-8.48-54.82-16.09-55.32S226.46,26.4,216.81,49.82c-3.57,8.65-5.22,17-4.89,24.4a10.81,10.81,0,0,1-9.69,11.27l-53.29,5.39a10.78,10.78,0,0,1-11.77-9.3,62.08,62.08,0,0,0-6.79-20.07c-11.79-22.41-30.15-45-37.71-43.89S81.76,47.12,81.81,74.21c0,13.83,5.11,24.83,12.65,31.5A10.69,10.69,0,0,1,96.59,119L85.84,138a10.77,10.77,0,0,0-1,8L106,226.79a10.8,10.8,0,0,0,11.53,8l132-13.36a10.79,10.79,0,0,0,9.66-9.75l7.89-85.74a10.8,10.8,0,0,0-2.89-8.38Z"/><path d="M191.28,88.85l-4.42,6.64A8.23,8.23,0,0,1,181.48,99l-3.91.72A8.26,8.26,0,0,1,171,98.11l-8.32-6.54a8.24,8.24,0,0,1-3.11-5.67L156.4,53.27A12,12,0,0,1,167,40l8.95-1A12,12,0,0,1,189.2,49.7l3.42,33.76A8.15,8.15,0,0,1,191.28,88.85Z"/><path class="cls-3" d="M254.59,107.33a10.76,10.76,0,0,1,.52-15.28c7.83-7.24,12.59-19.32,11.23-34.12-2.47-27-8.48-54.82-16.09-55.32S226.46,26.4,216.81,49.82c-3.57,8.65-5.22,17-4.89,24.4a10.81,10.81,0,0,1-9.69,11.27l-53.29,5.39a10.78,10.78,0,0,1-11.77-9.3,62.08,62.08,0,0,0-6.79-20.07c-11.79-22.41-30.15-45-37.71-43.89S81.76,47.12,81.81,74.21c0,13.83,5.11,24.83,12.65,31.5A10.69,10.69,0,0,1,96.59,119L85.84,138a10.77,10.77,0,0,0-1,8L106,226.79a10.8,10.8,0,0,0,11.53,8l132-13.36a10.79,10.79,0,0,0,9.66-9.75l7.89-85.74a10.8,10.8,0,0,0-2.89-8.38Z"/><path d="M191.28,88.85l-4.42,6.64A8.23,8.23,0,0,1,181.48,99l-3.91.72A8.26,8.26,0,0,1,171,98.11l-8.32-6.54a8.24,8.24,0,0,1-3.11-5.67L156.4,53.27A12,12,0,0,1,167,40l8.95-1A12,12,0,0,1,189.2,49.7l3.42,33.76A8.15,8.15,0,0,1,191.28,88.85Z"/><path d="M220.42,219.57a28.37,28.37,0,0,0-13.91-21.92,5,5,0,1,0-7.58-3.89,5.55,5.55,0,0,0,.13.71,31,31,0,0,0-22.2,2.27,5,5,0,1,0-7.16,5.12A28.29,28.29,0,0,0,161,224.68a28.75,28.75,0,0,0,1.12,5.77l58.29-5.91A28.43,28.43,0,0,0,220.42,219.57Z"/><circle class="cls-4" cx="137.92" cy="192.4" r="23"/><circle cx="146.92" cy="192.4" r="14"/><circle cx="132.92" cy="178.4" r="3"/><circle class="cls-4" cx="235.92" cy="178.4" r="23"/><circle cx="244.92" cy="178.4" r="14"/><circle cx="230.92" cy="164.4" r="3"/><path d="M168.89,347.4H142.4a3.78,3.78,0,0,1-3.54-4.63l2-9.72a.22.22,0,0,0,0-.08l27.28-4a.24.24,0,0,0,0,.08l4.19,13.3A3.8,3.8,0,0,1,168.89,347.4Z"/><path d="M230,343.4H205.32a4.38,4.38,0,0,1-4.19-5.39l1.67-7.38a3.46,3.46,0,0,0,.09-.78l27.38-3.8L234,337.61A4.39,4.39,0,0,1,230,343.4Z"/><path d="M125,294.4H113c-2.85,0-4.78-3.61-3.65-6.85l.21-.61a6.7,6.7,0,0,0,.23-.88l17.79-2.13,1.21,3.73C129.78,290.89,127.86,294.4,125,294.4Z"/><path d="M55.91,313.4H39.49a4.33,4.33,0,0,1-4-5.93,5.09,5.09,0,0,0,.38-1.56l22.35-3.72c0,.06,0,.11.05.16L60,307.7A4.33,4.33,0,0,1,55.91,313.4Z"/><path class="cls-5" d="M90.86,66.85c-4.41-27.86,2.77-42.14,16.41-27,6.54,6.78,12.34,16.61,15.55,23.52,3.31,7.23,4,11.54,2.51,14.65s-4.59,5.91-7.52,10.8c-3,4.57-5.86,11.24-8.92,14.86C103.3,112.42,95.25,94.69,90.86,66.85Z"/><path class="cls-5" d="M258.51,52c3.19-26.06-6.2-38.95-18.46-24.4-5.89,6.53-11,15.87-13.76,22.41-2.85,6.84-3.37,10.87-1.85,13.71s4.49,5.34,7.39,9.79c3,4.16,6.11,10.26,9.1,13.53C246.44,95,258.86,84.08,258.51,52Z"/><path d="M184,149.47l-11.5-42.94a1.88,1.88,0,0,1,1.63-2.36l14.57-1.54a1.89,1.89,0,0,1,2.08,2l-3.07,44.47A1.89,1.89,0,0,1,184,149.47Z"/><path d="M61.17,277.29,59.8,287.45l-18.54-2.83a1.89,1.89,0,0,1,0-3.72Z"/><path d="M55.05,272.45l-21.49.94L33,264.84a4.32,4.32,0,0,1,0-.88l.71-5.36,22.07,10.25A1.89,1.89,0,0,1,55.05,272.45Z"/><path d="M171.5,262.69l-.62,11.38-22.62-3.45a1.89,1.89,0,0,1,0-3.72Z"/><path d="M169.84,293.17l-.57,10.51-20-3.06a1.89,1.89,0,0,1,0-3.72Z"/><path d="M164.29,285.9l-24.48,4.43-.31-11.93,24.74,3.78A1.89,1.89,0,0,1,164.29,285.9Z"/><path d="M163.29,315.9l-22.7,4.1-.3-11.33,23,3.51A1.89,1.89,0,0,1,163.29,315.9Z"/><path d="M225.32,302.37l-23,6.42L202,297.34l22.88,1.33A1.89,1.89,0,0,1,225.32,302.37Z"/><path d="M232.3,282.73,231.66,294l-22.4-3.42a1.89,1.89,0,0,1,0-3.72Z"/><path d="M227.28,275.59l-25.61,8-.34-12.39,25.44.75A1.88,1.88,0,0,1,227.28,275.59Z"/><path d="M233.79,256.19l-.61,10.86-20.79-2.25a1.89,1.89,0,0,1-.22-3.72Z"/><path d="M199.42,161.23,203,133.56a1.35,1.35,0,0,0-.07-.63l-8.4-22.31a1.35,1.35,0,0,1,0-.82l6-21.16a1.32,1.32,0,0,1,1.17-1l13.75-1a1.31,1.31,0,0,1,1.21,2l-12.84,20.89a1.34,1.34,0,0,0-.1,1.17l8.35,21a1.3,1.3,0,0,1,0,.91L202,161.83A1.31,1.31,0,0,1,199.42,161.23Z"/><path d="M178.94,162l-11.48-25.43a1.22,1.22,0,0,1-.11-.62l1.52-23.79a1.33,1.33,0,0,0-.2-.8l-11.9-18.49a1.32,1.32,0,0,0-1.4-.57l-13.44,3.07a1.31,1.31,0,0,0-.58,2.26l18.38,16.24a1.32,1.32,0,0,1,.44,1.09l-1.87,22.49a1.28,1.28,0,0,0,.24.87l18.14,25A1.31,1.31,0,0,0,178.94,162Z"/><path d="M57.68,261.32l-18.14-25a1.33,1.33,0,0,1-.24-.88L41.16,213a1.3,1.3,0,0,0-.43-1.09l-.09-.08a4.3,4.3,0,0,1,1.9-1.23l6.56-2.08.57.89a1.28,1.28,0,0,1,.2.79L48.34,234a1.32,1.32,0,0,0,.12.62L59.93,260A1.31,1.31,0,0,1,57.68,261.32Z"/><path d="M73.67,253.69,72.82,264l-6.12.42a4.3,4.3,0,0,0-2.72,1l.65-10.18a1.32,1.32,0,0,0-.12-.62L53,229.14a1.31,1.31,0,0,1,2.25-1.31l18.14,25A1.33,1.33,0,0,1,73.67,253.69Z"/><path d="M78.68,250.32l-18.14-25a1.33,1.33,0,0,1-.24-.88l1.66-20,8.75-2.77L69.34,223a1.32,1.32,0,0,0,.12.62L80.93,249A1.31,1.31,0,0,1,78.68,250.32Z"/><path d="M95.67,247.69l-1.22,14.79-8.71.6.89-13.89a1.32,1.32,0,0,0-.12-.62L75,223.14a1.31,1.31,0,0,1,2.25-1.31l18.14,25A1.33,1.33,0,0,1,95.67,247.69Z"/><path d="M98.68,241.32l-18.14-25a1.33,1.33,0,0,1-.24-.88l1.43-17.3,8.81-2.79L89.34,214a1.32,1.32,0,0,0,.12.62L100.93,240A1.31,1.31,0,0,1,98.68,241.32Z"/><path d="M142.71,153.43c-1.15-4.48-13.09-10.38-23.84-4.29-10.73,5.66-19.44,17.56-19.7,18.41,0,1.06,9.42-7.67,21.59-10.06C133,154.84,143.83,157.94,142.71,153.43Z"/><path d="M222.13,139.84c.61-4.17,10.86-10.66,21.18-6.18,10.27,4.1,19.3,14,19.61,14.78.1,1-9.27-6-20.52-7C231.07,140.18,221.55,144,222.13,139.84Z"/><g class="cls-6"><path class="cls-7" d="M196.44,222.07a12.52,12.52,0,0,1-12.71-4.92,1.47,1.47,0,0,1,2.37-1.74,9.43,9.43,0,0,0,17-3.7,1.47,1.47,0,0,1,2.88.6A12.53,12.53,0,0,1,196.44,222.07Z"/></g></g></svg>
